<?xml version="1.0" standalone="no"?>
<!DOCTYPE svg PUBLIC "-//W3C//DTD SVG 1.1//EN" "http://www.w3.org/Graphics/SVG/1.1/DTD/svg11.dtd" >
<svg>
<metadata>
Created by FontForge 20090622 at Fri Mar 24 12:51:39 2017
 By deploy user
Copyright (c) Font4You., 2013. All rights reserved.
</metadata>
<defs>
<font id="BenvolioFont4You" horiz-adv-x="430" >
  <font-face 
    font-family="Benvolio Font4You"
    font-weight="400"
    font-stretch="normal"
    units-per-em="1000"
    panose-1="2 0 5 3 2 0 0 2 0 3"
    ascent="800"
    descent="-200"
    x-height="230"
    cap-height="538"
    bbox="-434 -438 1087 913"
    underline-thickness="20"
    underline-position="-113"
    unicode-range="U+0020-U+2502"
  />
<missing-glyph horiz-adv-x="272" 
 />
    <glyph glyph-name=".notdef" horiz-adv-x="272" 
 />
    <glyph glyph-name="space" unicode=" " horiz-adv-x="272" 
 />
    <glyph glyph-name="exclam" unicode="!" horiz-adv-x="235" 
d="M472 696q16 -4 16 -20q-136 -184 -256 -372q-43 -48 -52 -48v8q0 11 84 140q46 85 92 144v8q0 8 -12 8v16l20 4v12q0 18 64 68q24 32 44 32zM68 88q8 -4 12 -4v-16q-3 0 -40 -64q-7 -4 -16 -4q-18 0 -24 24q0 37 68 64z" />
    <glyph glyph-name="quotedbl" unicode="&#x22;" horiz-adv-x="389" 
d="M493 744q28 -14 28 -32q-28 -98 -116 -160q-6 -16 -12 -16q-8 0 -8 8v20q84 106 84 132l-8 4q-13 -8 -24 -8l-4 8q8 44 60 44zM607 772q28 -14 28 -32q-28 -98 -116 -160q-6 -16 -12 -16q-8 0 -8 8v20q84 106 84 132l-8 4q-13 -8 -24 -8l-4 8q8 44 60 44z" />
    <glyph glyph-name="numbersign" unicode="#" horiz-adv-x="604" 
d="M637 672q16 -6 16 -12v-12q-144 -149 -144 -172h44q24 0 176 160q6 0 36 24h16q6 0 12 -12v-12q-120 -103 -148 -144v-8h4q72 -5 72 -32q0 -31 -152 -60q-37 -18 -104 -96l4 -8q93 8 148 8q60 -3 60 -16v-4l-4 -8l-8 4h-28l-220 -28q-85 -85 -164 -192h-12l-12 8
q10 30 68 92q0 11 48 68v8h-8q-21 0 -120 -116q-110 -112 -128 -112h-4q-4 0 -12 16q0 15 124 148q0 4 32 40v8q-7 0 -72 -4q-48 0 -48 32v4q0 32 240 108q11 4 56 64v8q-45 0 -76 -24q-88 6 -88 20v16q0 23 212 36q36 56 88 104q69 95 96 96zM597 432v-4h4q32 10 32 16
q-8 4 -12 4q-24 -9 -24 -16zM425 384v-8h8q29 0 72 52v8h-8q-39 0 -72 -52zM349 288v-4q48 38 48 44v8h-4q-12 0 -44 -48zM425 316v-4q5 0 20 20v4q-5 0 -20 -20zM181 252v-4h4q101 0 128 56v12h-4q-102 -28 -128 -64zM409 308v-8h4q8 0 8 8h-12zM385 284v-4h8q8 0 8 8v4h-8
q-8 -1 -8 -8z" />
    <glyph glyph-name="dollar" unicode="$" horiz-adv-x="458" 
d="M676 801h12q8 -2 16 -20q0 -12 -128 -204q2 -40 8 -40q-34 -60 -68 -60q-23 -23 -136 -200v-28q8 -39 8 -44v-32q0 -4 4 -4q0 -69 -112 -128q-80 -12 -80 -44q-72 -99 -160 -252l-20 -4q-12 15 -12 28v12q16 60 32 60q8 -4 12 -4q99 159 120 200q-60 33 -60 56
q0 34 40 48v-4q-12 -29 -12 -36v-4q0 -9 48 -24h4q76 88 140 204q-17 39 -32 96q0 128 180 212q76 9 76 36q11 7 108 172zM340 389v-20q0 -12 12 -48h8q48 60 144 224v8h-4q-53 0 -144 -108q-16 -44 -16 -56zM256 77h12q84 43 84 108v24h-8q-49 -50 -88 -132z" />
    <glyph glyph-name="percent" unicode="%" horiz-adv-x="588" 
d="M877 530q12 -4 12 -24v-8q-54 -45 -136 -88q-61 -52 -116 -72q-5 -8 -124 -72q-160 -104 -344 -268v-4l8 -4q95 52 272 108q31 112 68 112q42 34 172 64h16q44 -8 44 -40q0 -65 -124 -140q-49 -20 -124 -32q-34 12 -44 12q-124 -40 -192 -72q-61 -26 -168 -92h-20
q-3 0 -12 12q13 47 244 240q35 18 56 44v4q-37 0 -84 -16l-24 4q-25 -8 -40 -8q-30 0 -44 28q0 35 188 192q88 52 128 52h4q76 -6 76 -56q-6 -30 -36 -64v-8h8q293 196 336 196zM449 410l4 -20q-46 -47 -116 -64q-72 -49 -72 -80v-4q132 0 264 136l4 20v8q0 13 -40 20
q-44 -6 -44 -16zM685 246v-16q0 -4 4 -4q0 -13 -72 -88v-4q96 40 96 100l-20 12h-8zM505 126v-4h8q128 52 128 92h-12q-124 -35 -124 -88z" />
    <glyph glyph-name="ampersand" unicode="&#x26;" horiz-adv-x="548" 
d="M401 668q72 0 95 -95q0 -130 -212 -333q-9 0 -10 -26q2 -11 10 -11h11q11 0 11 16h10q11 0 11 -16q0 -5 -27 -37v-21q2 -26 11 -26q93 69 190 211q0 44 37 79h21q11 -1 11 -10v-5q-20 -86 -227 -296h-6v-16q61 -69 132 -69q22 -10 22 -16l-11 -5q-109 0 -174 63l-117 -58
h-21q-40 0 -79 80q0 63 95 116v16l-21 84q25 270 58 270q47 105 180 105zM247 531q11 -2 11 -11q0 -16 -16 -42l-10 5q-11 0 -11 -16l5 -37q-10 -17 -10 -31v-11q0 -5 5 -5l-5 -11v-15q31 -73 31 -90h16q84 84 101 84q90 169 90 196v31q-9 48 -43 48l-26 -5q-21 10 -37 10
q-95 -39 -95 -95q-6 0 -6 -5zM216 177q-79 -50 -79 -79v-16q0 -29 31 -48h11q95 19 95 43v15q-12 85 -58 85z" />
    <glyph glyph-name="quotesingle" unicode="'" horiz-adv-x="410" 
d="M526 768q28 -14 28 -32q-28 -98 -116 -160q-6 -16 -12 -16q-8 0 -8 8v20q84 106 84 132l-8 4q-13 -8 -24 -8l-4 8q8 44 60 44z" />
    <glyph glyph-name="parenleft" unicode="(" horiz-adv-x="337" 
d="M633 563q22 0 22 -40q-176 -63 -278 -141q-157 -97 -212 -295q-6 0 -9 -84q9 -33 9 -44h-13q-22 54 -22 84q0 283 410 485q28 16 93 35z" />
    <glyph glyph-name="parenright" unicode=")" horiz-adv-x="337" 
d="M230 539q41 0 88 -141l18 -101q0 -133 -132 -324q-4 -15 -18 -18q0 4 -4 4q0 16 88 202q26 72 26 123q-24 207 -66 207h-17q-5 0 -5 -5l-17 13q9 40 39 40z" />
    <glyph glyph-name="asterisk" unicode="*" horiz-adv-x="369" 
d="M438 533q20 -6 20 -28l-64 -136v-4h8q66 56 80 56q18 -8 20 -16v-12q-37 -43 -108 -96v-8q0 -5 132 -44l8 -12v-8q-116 20 -140 20h-28q-11 0 -28 -128l-8 -4h-16q-9 0 -12 20q4 40 4 60h-4q-49 -65 -60 -72q-16 6 -16 12v4q0 15 16 36v16h-4q-28 -16 -40 -16
q-32 0 -32 52q-8 0 -16 12q0 10 60 40q60 97 144 172h12q8 0 8 -12h16q29 83 48 96zM234 289v-8h4q47 0 84 36q16 60 16 68v16h-8q-46 -40 -96 -112zM202 221v-8h8q28 15 28 20q-8 4 -12 4q-24 -9 -24 -16z" />
    <glyph glyph-name="plus" unicode="+" horiz-adv-x="495" 
d="M378 357q22 0 28 -16q0 -21 -40 -72v-12h88q52 -3 52 -16v-16q-4 -12 -24 -12q-9 0 -16 4q-21 -4 -24 -4q-92 4 -112 8q-72 -45 -72 -100q4 -8 4 -12l-20 -4q-12 17 -12 40l12 40q-92 4 -92 20q0 40 136 40q33 25 56 80q29 32 36 32z" />
    <glyph glyph-name="comma" unicode="," horiz-adv-x="118" 
d="M104 66q28 -14 28 -32q-28 -98 -116 -160q-6 -16 -12 -16q-8 0 -8 8v20q84 106 84 132l-8 4q-13 -8 -24 -8l-4 8q8 44 60 44z" />
    <glyph glyph-name="hyphen" unicode="-" horiz-adv-x="414" 
d="M230 235h136q38 0 116 -8v-8q0 -5 -24 -12q-8 4 -12 4q-117 0 -248 -24q-36 8 -36 24q0 22 68 24z" />
    <glyph glyph-name="hyphen" unicode="&#xad;" horiz-adv-x="414" 
d="M230 235h136q38 0 116 -8v-8q0 -5 -24 -12q-8 4 -12 4q-117 0 -248 -24q-36 8 -36 24q0 22 68 24z" />
    <glyph glyph-name="period" unicode="." horiz-adv-x="101" 
d="M61 24q28 -5 28 -16q-6 -36 -36 -36q-28 0 -28 28q17 24 36 24z" />
    <glyph glyph-name="slash" unicode="/" horiz-adv-x="231" 
d="M301 444h12q9 0 12 -20q-47 -84 -172 -240q-96 -173 -96 -196l-8 -4q-8 10 -8 16q33 143 148 288v4h-8v8z" />
    <glyph glyph-name="zero" unicode="0" horiz-adv-x="385" 
d="M424 380q64 -9 64 -36q0 -41 -76 -104q-134 -134 -228 -172q-58 -38 -132 -68h-16q-36 0 -36 24q0 16 96 168q0 24 116 116q112 71 212 72zM376 340l-8 4q-25 0 -80 -76q-73 -30 -228 -208v-12h12q179 72 300 180q84 82 84 104q0 13 -52 16q-20 -8 -28 -8z" />
    <glyph glyph-name="one" unicode="1" horiz-adv-x="187" 
d="M364 356l9 -13v-4q0 -32 -107 -99q0 -4 -189 -189v-8h9v-9q-26 -34 -47 -34q-26 0 -26 21q0 29 133 150v13q-105 -51 -129 -51q-7 0 -17 17q0 31 176 86q36 7 180 120h8z" />
    <glyph glyph-name="two" unicode="2" horiz-adv-x="304" 
d="M380 352h15q59 0 59 -48q0 -43 -85 -111q-70 -33 -103 -33q-12 0 -70 4q-99 -30 -152 -104l-7 -25q1 -8 7 -8q192 0 192 -29q4 0 11 -22q-5 -41 -14 -41h-4q-9 0 -22 44q-16 10 -63 15q-26 -4 -44 -4q-100 0 -100 37v4q0 66 159 155q40 0 62 63q69 103 159 103zM281 208
v-11h11q92 31 125 96q4 6 4 15q0 6 -15 15h-11q-19 0 -26 -30q-34 0 -88 -85z" />
    <glyph glyph-name="three" unicode="3" horiz-adv-x="333" 
d="M348 348q0 -7 13 -14q62 9 88 9l13 -22q0 -23 -84 -57v-4q53 -29 53 -66q0 -33 -97 -97q-87 -38 -220 -75l-83 -22q-31 0 -31 44q0 48 163 92q9 -1 9 -8l-119 -62l-9 -13v-9q40 0 194 53q137 56 154 101v4q0 12 -58 18q-11 0 -105 -31h-13l-5 18l13 22v4l-13 18
q0 34 44 53q62 44 93 44z" />
    <glyph glyph-name="four" unicode="4" horiz-adv-x="264" 
d="M293 400q8 -2 16 -20q-137 -144 -168 -204l8 -4h12q96 0 96 32q62 68 84 68q14 0 20 -28q0 -46 -100 -92q-76 -73 -84 -116v-4l8 -28l-8 -4h-4q-23 0 -32 28q11 46 52 104v8h-4l-60 -12q-44 6 -44 20q0 22 84 128q0 26 48 64q58 60 76 60z" />
    <glyph glyph-name="five" unicode="5" horiz-adv-x="369" 
d="M596 396q8 -4 12 -4v-8q0 -7 -136 -36v-4l-8 4h-12q-62 -19 -108 -76v-4q67 -31 76 -48q0 -17 8 -32q0 -65 -136 -136q-65 -32 -156 -52l-28 4q-3 0 -24 -4q-84 13 -84 52q0 22 80 44v-4l-44 -36q0 -13 48 -20h8q205 0 304 148v8q-28 40 -72 40q-52 0 -136 -84h-28
q-8 0 -8 8q0 92 136 116q40 33 40 40v8q0 4 -4 4q15 44 96 44q66 24 176 24v4z" />
    <glyph glyph-name="six" unicode="6" horiz-adv-x="276" 
d="M342 369h9q25 0 42 -33v-13q0 -9 -8 -9h-17l-17 13h-5q-81 0 -187 -89v-9h34q71 0 98 -93v-26q0 -75 -174 -110h-4q-81 0 -81 81v12q17 90 55 124q125 132 255 152zM70 81q0 -47 26 -47q170 15 170 81q-12 76 -73 76h-38q-55 0 -72 -59q-13 -23 -13 -51z" />
    <glyph glyph-name="seven" unicode="7" horiz-adv-x="239" 
d="M372 400q4 -12 8 -12q0 -22 -40 -28q-98 -67 -144 -168v-4q64 -11 64 -20q0 -8 -8 -8h-56q-47 0 -96 -156q-4 0 -12 -4q-20 0 -20 76q-12 22 -68 64v8q0 40 112 40h36q43 63 132 172v4h-4q-36 -2 -36 -8l-8 4q-76 -20 -84 -20q-16 6 -16 12v16q0 12 240 32zM64 140v-4
q26 -36 36 -36q24 32 24 56q-60 -4 -60 -16z" />
    <glyph glyph-name="eight" unicode="8" horiz-adv-x="207" 
d="M310 393h4q43 0 43 -36q0 -31 -76 -116q24 7 33 7l3 -7v-3q-132 -65 -132 -86q-49 -131 -86 -152q-99 12 -99 59v4q0 46 155 119q7 4 27 69q39 100 109 139zM211 225q115 92 119 132l-13 10h-3q-76 -57 -96 -123q-7 -10 -7 -19zM135 129l-46 -46h-6q-9 0 -10 13h-4
q-17 -12 -33 -37q21 -29 43 -29q16 0 60 99h-4z" />
    <glyph glyph-name="nine" unicode="9" horiz-adv-x="288" 
d="M412 400q32 0 32 -44l-12 -40v-32q-104 -120 -188 -172q-136 -112 -228 -112q-16 6 -16 12v12q0 17 8 32q11 -2 28 -24q71 15 140 76v8q-40 6 -40 24l4 24q0 4 -4 4q46 131 180 208q47 24 96 24zM184 208v-12l36 4l4 -8q-32 -21 -32 -32l8 -4q65 0 172 132q44 25 44 64v4
q-4 12 -24 12q-69 0 -188 -128q0 -12 -20 -32z" />
    <glyph glyph-name="colon" unicode=":" horiz-adv-x="203" 
d="M153 357q19 0 32 -32q-12 -84 -36 -84l-8 12l4 20q-16 24 -20 24q11 53 28 60zM141 129h4q0 -52 -28 -52h-8l-20 4v12q0 36 52 36z" />
    <glyph glyph-name="semicolon" unicode=";" horiz-adv-x="146" 
d="M155 391h16l16 -12q-9 -96 -20 -96h-12l-4 24h-8l-20 -16v4q19 96 32 96zM99 107h4l4 -20q0 -37 -84 -152q-3 -9 -44 -72h-8q-12 4 -12 24q6 2 60 104l48 96q7 1 32 20z" />
    <glyph glyph-name="semicolon" unicode="&#x37e;" horiz-adv-x="146" 
d="M155 391h16l16 -12q-9 -96 -20 -96h-12l-4 24h-8l-20 -16v4q19 96 32 96zM99 107h4l4 -20q0 -37 -84 -152q-3 -9 -44 -72h-8q-12 4 -12 24q6 2 60 104l48 96q7 1 32 20z" />
    <glyph glyph-name="less" unicode="&#x3c;" horiz-adv-x="466" 
d="M470 322q20 -6 20 -28t-84 -44q-26 -24 -44 -24q-8 0 -8 20h-12q-104 -28 -104 -44v-4h4q28 0 32 -4q27 4 44 4h36q132 -7 132 -64q-4 -16 -16 -16q-45 44 -112 44q-4 0 -12 -4l-24 4q-74 -4 -132 -4h-20q-21 0 -28 16v4q0 36 180 104q2 0 144 40h4z" />
    <glyph glyph-name="equal" unicode="=" horiz-adv-x="475" 
d="M306 317h120q136 -4 136 -28v-16q0 -21 -160 -52q-190 -57 -212 -84v-4h12q200 28 240 28q12 0 28 -4q21 4 40 4h16q46 0 104 -16v-4l-4 -8q-67 5 -72 8q-134 -8 -176 -20l-20 4q-166 -32 -200 -32h-4q-16 7 -16 28v8q27 44 340 140l4 8q-7 3 -56 8q-21 -4 -48 -4
q-9 0 -16 4q-88 -12 -164 -16l-8 12v16q0 20 116 20z" />
    <glyph glyph-name="greater" unicode="&#x3e;" horiz-adv-x="442" 
d="M166 293h8q223 -38 336 -84q29 -8 32 -8v4q36 -8 36 -36q0 -6 -16 -12q-40 8 -52 8q-240 -10 -240 -52q0 -6 -12 -12q-44 4 -44 32q0 34 204 64q0 19 -160 44q-15 4 -32 4q-8 -4 -12 -4v-24h-8q0 34 -56 44v4q0 22 16 28z" />
    <glyph glyph-name="question" unicode="?" horiz-adv-x="243" 
d="M526 556h36q28 0 40 -36q0 -44 -224 -232q-60 -72 -60 -96t-12 -24q-18 8 -20 16v4q0 71 152 196q128 110 128 132q-16 8 -16 12l-80 -8v-24q-108 -127 -260 -164h-20q-35 0 -48 56q23 98 340 164q27 4 44 4zM178 396v-20q0 -6 12 -12h16q115 20 228 144v4h-4
q-163 -40 -216 -80q-36 -28 -36 -36zM302 120l8 -12v-8q-16 -26 -16 -40v-12q16 -18 16 -20v-12q0 -12 -16 -12q-44 16 -44 60q0 38 52 56z" />
    <glyph glyph-name="at" unicode="@" horiz-adv-x="738" 
d="M706 634q86 0 128 -84q4 -15 4 -32q-14 -100 -136 -308q-154 -184 -240 -184q-37 0 -52 44h-4q-84 -88 -124 -88q-36 0 -36 60v16q22 100 132 244q102 104 168 104q28 0 32 -44q-9 -87 -68 -180q-52 -53 -52 -84v-32h16q87 24 208 160q82 144 128 280v16q0 68 -104 76
q-152 0 -328 -144q-50 -47 -80 -124q-96 -166 -124 -320q0 -156 48 -156h8q46 8 168 76v-4q-113 -101 -168 -104q-60 0 -84 60q-8 53 -8 104v12q10 156 176 432q80 123 312 188q36 12 80 16zM282 30l12 -8h8q128 86 128 144q49 127 116 192v8q0 6 -12 12q-57 -17 -140 -108
q-112 -163 -112 -240z" />
    <glyph glyph-name="A" unicode="A" horiz-adv-x="296" 
d="M542 475q22 -5 22 -36q0 -41 -98 -170l9 -5h18q38 0 80 5l27 -5v-4q0 -8 -170 -36q-117 -131 -170 -224h-27l-5 22q41 68 41 72h-5q-78 -76 -98 -76q-67 -9 -81 -9q-85 11 -85 40v9q0 25 72 58h22v-4q-40 -22 -40 -58l22 -5h14q112 0 138 67q14 15 14 23l-14 18l-31 -5
h-9q-24 0 -45 27q0 31 175 58q134 160 224 238zM390 260q4 0 4 -5q13 0 36 36v9q-7 0 -40 -40zM287 130v-9h13q34 54 54 76v4h-9q-44 -43 -58 -71z" />
    <glyph glyph-name="B" unicode="B" horiz-adv-x="349" 
d="M412 536q68 -8 68 -64h4q0 -49 -72 -168q13 0 28 -64q0 -103 -160 -196q-89 -44 -160 -44l-72 16q-26 -8 -36 -8q-8 4 -12 4v16q12 15 12 28l-8 28q2 0 24 20h8l-4 -20v-4h4q52 55 208 296q28 43 48 120q40 40 120 40zM240 304h12q66 20 116 20h8q32 0 72 140v20
q0 16 -52 16q-60 0 -120 -144q-29 -25 -36 -52zM196 204h4q55 0 140 76q4 8 4 12h-20q-128 -24 -128 -88zM196 164q-34 12 -44 12q-76 -103 -76 -132q13 -8 24 -8h48q109 0 232 128q24 50 24 60v40q0 6 -12 12h-8q-100 -93 -188 -112z" />
    <glyph glyph-name="C" unicode="C" horiz-adv-x="288" 
d="M528 512q40 -7 40 -36q0 -51 -88 -128q-97 -32 -108 -32q-44 0 -44 32v4q8 0 8 8v8q-49 -5 -248 -220q-48 -71 -48 -92v-12l4 -8q85 0 316 60v-12q-114 -44 -280 -80q-3 0 -24 -4q-56 9 -56 44q0 134 404 424q61 44 124 44zM380 360l8 -4h8q136 39 136 92q4 0 4 12v8
q0 6 -12 12q-87 0 -144 -120z" />
    <glyph glyph-name="D" unicode="D" horiz-adv-x="320" 
d="M80 506h96q27 0 136 -16h16q17 -15 108 -60q48 -47 48 -104q-15 -95 -100 -196q-169 -160 -280 -192q-217 -96 -296 -96h-4q-82 0 -112 88q9 28 52 28v-8q0 -9 -20 -12v-20q25 -48 72 -48q113 0 388 136q90 58 160 128q99 102 108 196v8q0 68 -108 100h-12
q-49 -138 -108 -184q-91 -131 -200 -260h-24q0 4 -4 12q0 17 104 136q140 178 188 260l16 52q-38 20 -136 20h-20q-15 0 -60 -16v-4l12 -16v-8h-4q-60 18 -60 36q0 32 44 40z" />
    <glyph glyph-name="E" unicode="E" horiz-adv-x="260" 
d="M492 456q31 0 44 -36q0 -76 -112 -120q-60 -24 -60 -48q0 -46 -164 -80q-18 0 -36 28h-4q-124 -66 -124 -140v-12q0 -6 16 -16h28q75 0 204 28l4 -8q-174 -52 -216 -52h-4q-68 0 -68 52v20q0 89 204 188q101 145 264 192zM460 424q-172 -88 -172 -120q-6 0 -20 -24l4 -8
q122 36 220 104l12 20v12q-4 16 -44 16zM228 212h8q44 8 44 16v4q-52 -7 -52 -20z" />
    <glyph glyph-name="F" unicode="F" horiz-adv-x="284" 
d="M512 492h36q22 0 28 -16q0 -21 -12 -24h-8q-15 12 -24 12q-172 -9 -236 -24v-24q0 -19 -80 -144q-8 -28 -8 -48h16q41 0 64 4l76 -8v-8q-196 -19 -196 -60q-21 -62 -112 -132q-26 -20 -40 -20l-16 4v12q22 52 108 164v32q45 0 92 108v28q0 7 -28 76v4q0 46 340 64z
M212 408l12 -44h8q10 0 32 64v4h-16q-27 -12 -36 -24zM140 168q-8 -13 -8 -20h12l4 16zM100 104h12q12 24 12 28h-4q-20 -14 -20 -28z" />
    <glyph glyph-name="G" unicode="G" horiz-adv-x="345" 
d="M420 456h8q52 0 52 -64q0 -36 -52 -48q-34 0 -52 72h-8q-88 -11 -204 -140q-128 -141 -128 -204v-20q2 -8 20 -16q200 0 256 60q16 42 16 56v44q0 8 -8 8q-12 0 -12 -4q-128 0 -128 56q0 32 56 32h12q61 0 108 -52h36q47 0 148 -4l4 -8q0 -16 -64 -20l-24 4
q-26 -4 -52 -4h-24l-20 -4v-16q0 -109 -80 -148q-127 -36 -236 -36q-44 0 -44 80q45 154 272 336q82 40 148 40zM416 412q8 -24 16 -24h4q8 0 8 8v8q0 6 -12 12h-8zM236 252v-4q1 -8 8 -8h36q-4 12 -24 12h-20z" />
    <glyph glyph-name="H" unicode="H" horiz-adv-x="369" 
d="M688 576h8q8 -2 16 -20q-30 -101 -228 -276q-144 -200 -144 -248v-4q28 -5 28 -12v-4q0 -12 -36 -12q-10 0 -24 24q0 61 100 208v4h-4q-84 -32 -120 -32h-8q-45 0 -52 56q-31 0 -64 -64q-6 -1 -60 -96q-26 -26 -64 -80h-16q-20 0 -20 8q0 22 176 256q124 161 156 240l8 4
h4q17 -20 44 -28q0 -16 4 -16q-112 -156 -112 -164q-16 -31 -16 -52v-20q0 -6 12 -12q64 0 168 52q128 177 200 256zM568 392h8l100 112v16h-4q-81 -76 -104 -128z" />
    <glyph glyph-name="I" unicode="I" horiz-adv-x="333" 
d="M684 584h24q17 0 28 -16q0 -30 -92 -44h-4v12q12 0 24 16q-4 0 -4 4q-115 -12 -224 -36v-8q1 -8 8 -8h4q12 0 32 12q6 0 20 -16q-38 -36 -72 -132q-93 -180 -252 -272h-12q-6 0 -12 12v4q0 29 272 360q-15 12 -36 12h-60q-17 0 -28 16q0 28 120 44q167 40 264 40z
M236 184v-4h8q124 88 172 224h-4q-62 -66 -176 -220zM432 124q8 -1 8 -8q0 -8 -240 -56q-4 -9 -108 -28q-66 -32 -80 -32h-8q0 4 -4 12q0 49 388 112h44z" />
    <glyph glyph-name="J" unicode="J" horiz-adv-x="256" 
d="M468 673q14 0 23 -30q-13 -111 -52 -111l-134 -339q-93 -193 -212 -193q-93 23 -93 52v4q0 9 45 26q13 0 18 -34q6 0 15 -7h26q83 0 119 78q62 82 104 223q34 75 130 327q4 0 11 4z" />
    <glyph glyph-name="K" unicode="K" horiz-adv-x="365" 
d="M342 495q7 0 28 -23q63 18 79 18q74 -23 74 -64q0 -107 -139 -167h-14q-42 0 -42 51v32q0 4 10 37v10h-5q-76 -85 -134 -204l-32 -92q2 -42 23 -42q167 18 203 28h33q9 -2 9 -10l-250 -55q-60 0 -60 55q5 32 5 51q-42 -27 -42 -64q-6 0 -46 -51l-28 -5h-5q-9 0 -9 9v10
q0 16 88 120q112 136 194 277h-14q-74 -45 -175 -157l-24 -5q115 130 264 236q9 0 9 5zM370 319l5 -18q63 14 106 78l5 23v19q0 16 -51 23q-65 -51 -65 -125z" />
    <glyph glyph-name="L" unicode="L" horiz-adv-x="483" 
d="M732 644h16q6 0 16 -20q0 -55 -152 -156q-102 -77 -204 -120q-38 0 -104 -124v-4q108 -42 108 -100q26 -84 60 -84q12 0 28 -4v-8q-32 -16 -52 -16q-64 35 -64 104q-36 72 -108 72q-129 -184 -240 -184q-21 0 -36 44q6 72 72 140q52 33 196 48q36 60 36 68h-16
q-8 -8 -84 -32q-8 10 -8 16q0 25 144 68l152 176q120 116 240 116zM432 396q111 34 292 196l8 12v4q0 8 -8 8h-12q-87 0 -240 -152q-40 -52 -40 -68zM32 72q3 -36 12 -36h16q49 0 160 128q0 7 12 20v4l-4 8q-160 0 -196 -124z" />
    <glyph glyph-name="M" unicode="M" horiz-adv-x="633" 
d="M594 484h9q9 -28 9 -31q0 -37 -295 -334v-9q105 0 299 88q261 264 299 264q18 -4 18 -26q0 -58 -163 -159q-220 -186 -220 -242q1 -9 9 -9h4q5 0 5 5q8 -5 13 -5v-8q-34 -18 -44 -18h-4q-31 0 -31 35q18 49 57 93v13h-4q-215 -75 -260 -75q-53 10 -53 26q1 22 154 168v8
h-4q-42 -19 -238 -206q-76 -62 -101 -62q-53 0 -53 53t132 53v-5h9q227 214 392 339q41 44 61 44zM823 343v-4q62 24 62 53h-5q-17 -9 -57 -49zM48 62v-18h9q75 34 75 53h-26q-53 -25 -58 -35z" />
    <glyph glyph-name="N" unicode="N" horiz-adv-x="406" 
d="M1020 719q28 -3 28 -28q-20 -33 -32 -100q4 -22 4 -32q-4 -8 -4 -12h-4q-32 24 -32 48l12 68l-8 4q-85 -42 -288 -264q-132 -132 -252 -292q-63 -108 -76 -112h-16q-8 0 -8 8v4q0 31 144 300q28 56 28 64q-92 -94 -128 -156q-179 -201 -272 -248q-1 -8 -72 -36
q-30 0 -52 76q0 59 156 96l4 -8q0 -4 -112 -60q0 -16 -8 -28q11 -36 20 -36q172 69 400 384q21 16 128 168q47 60 52 60h12q6 0 12 -16q-30 -118 -92 -188q0 -6 -76 -160h4q411 454 528 496z" />
    <glyph glyph-name="O" unicode="O" horiz-adv-x="296" 
d="M596 552q28 0 44 -72q0 -69 -224 -256q-173 -157 -312 -200q-36 -24 -68 -24q-36 0 -36 28q17 62 136 188q75 106 228 224q179 112 232 112zM76 52q138 29 364 228q172 151 172 192q0 40 -28 40h-8q-114 -26 -272 -164q-164 -141 -164 -208l-56 -60z" />
    <glyph glyph-name="P" unicode="P" horiz-adv-x="365" 
d="M480 508h12q38 0 80 -80q16 -40 16 -68v-8q0 -129 -168 -184q-90 -20 -140 -20h-8q-4 0 -4 -4l-8 4h-24v12q0 44 72 44v-4l-16 -16q4 0 4 -4q140 0 236 96q24 35 24 60v12q-4 111 -80 124h-8q-88 -15 -88 -52q0 -41 -88 -132q-136 -156 -260 -284q-7 -4 -16 -4l-16 12
q0 13 136 148q11 49 200 276q97 72 144 72zM300 364l-4 -16q6 0 12 12v4h-8z" />
    <glyph glyph-name="Q" unicode="Q" horiz-adv-x="361" 
d="M436 616q64 0 64 -160v-4q0 -105 -172 -256q-108 -92 -108 -136v-16q1 -8 8 -8q188 48 192 48v-8q-162 -76 -196 -76q-45 0 -48 60h-4q-100 -48 -136 -48q-19 0 -36 32q0 76 220 428l88 80q82 64 128 64zM316 512q20 -21 20 -32q0 -62 -176 -216q-88 -106 -88 -180v-8
q1 -8 8 -8h8q120 43 120 92q32 62 68 88h32q9 0 16 4q7 -4 16 -4q128 115 128 192q0 136 -28 136h-20q-48 -9 -104 -64zM176 312v-4h8q112 101 112 132q-4 0 -4 4q-21 -4 -104 -104q-12 -15 -12 -28z" />
    <glyph glyph-name="R" unicode="R" horiz-adv-x="519" 
d="M628 496q40 -4 40 -36v-12q0 -51 -164 -196q0 -23 -148 -172q-4 -7 -4 -16v-4l248 52v-12q-127 -51 -284 -80q-16 6 -16 12v4q0 60 112 164v4h-4q-102 -49 -144 -60q-40 8 -40 32h-12q-82 -67 -176 -172q-12 0 -28 -4l-8 12q0 39 124 132q340 316 388 348q19 -12 24 -12
q80 16 92 16zM540 444l-8 4q-67 -31 -180 -156v-8q19 0 40 4q45 -4 80 -4q104 54 156 168q0 8 -8 8h-8q-48 0 -72 -16zM264 200v-8q0 -8 12 -8q101 35 128 64v4h-8q-108 0 -132 -52z" />
    <glyph glyph-name="S" unicode="S" horiz-adv-x="406" 
d="M500 544q48 -11 48 -48q-38 -113 -160 -192q-45 -20 -64 -20q-20 0 -24 16q0 35 60 76h16l24 -20h4q112 98 112 140l-12 8h-36q-84 0 -220 -136q-28 -57 -28 -80v-28q15 -17 116 -48q58 -44 68 -68v-4q0 -99 -292 -136q-27 0 -48 -4q-64 12 -64 40v4q0 37 100 84
q24 12 76 24l4 -8v-4q-136 -52 -136 -96l20 -4h40q146 14 216 52q44 34 44 44v8q-5 27 -164 76q-23 18 -24 44q0 165 256 272q46 8 68 8z" />
    <glyph glyph-name="T" unicode="T" horiz-adv-x="114" 
d="M525 593h36q68 0 68 -16v-16q0 -5 -12 -12h-8l-16 12h-12q-4 0 -4 -4l-8 4h-71q-379 -19 -379 -55q128 -66 128 -124q-8 -21 -8 -56h12q0 16 16 16v8l-8 12v4q0 3 123 120h4q16 -4 16 -24q0 -22 -227 -259q-33 -77 -107 -155q-20 -48 -60 -48l-8 12q0 71 199 263q0 8 4 8
l-4 8v4q16 51 16 75v28q-15 38 -171 104v8q0 34 79 43q239 40 402 40zM275 366v-8q16 4 16 20h-4q-6 0 -12 -12z" />
    <glyph glyph-name="U" unicode="U" horiz-adv-x="304" 
d="M452 416q32 -8 32 -44q-15 -88 -224 -272q-157 -100 -204 -100q-43 0 -56 72q12 105 152 316l28 24h12q16 -6 16 -28q-61 -73 -72 -84q-96 -178 -96 -224q0 -36 28 -36q236 76 376 300v4q-10 13 -12 36q0 22 20 36z" />
    <glyph glyph-name="V" unicode="V" horiz-adv-x="134" 
d="M568 688q20 -6 20 -28v-4q-32 -52 -40 -52l-20 16q-145 -99 -272 -280q-140 -192 -200 -304q-15 -36 -40 -36q-8 2 -16 20q43 141 160 416v8q0 3 -12 12q96 194 104 196h16l4 -20v-4q-52 -98 -104 -272q-72 -151 -72 -180q11 0 104 136q192 267 368 376z" />
    <glyph glyph-name="W" unicode="W" horiz-adv-x="304" 
d="M36 560q44 0 44 -260q4 0 8 -28q0 -4 -4 -4q4 -47 4 -68v-40l4 -8q11 0 68 84q52 76 84 76q7 0 20 -24l-4 -20l4 -20l-4 -24q0 -4 4 -12q-8 -30 -8 -56v-36q28 25 124 188q57 116 152 224h4q16 -6 16 -28q0 -14 -32 -36q-90 -111 -136 -212q-44 -63 -108 -192
q-20 -32 -40 -32h-24q-4 22 -4 32q0 18 16 136q0 4 -4 4l4 20v28h-8q-36 -33 -88 -132q-18 -14 -36 -112q-13 -8 -24 -8h-8q-8 0 -8 8v56q0 43 -4 72l4 40l-16 324l-8 4q-9 0 -16 -40h-8q0 8 -4 8q11 88 36 88z" />
    <glyph glyph-name="X" unicode="X" horiz-adv-x="385" 
d="M284 600h12q12 -4 12 -24q-17 -102 -24 -188l4 -16q-4 -35 -4 -60v-8l4 -20q22 0 236 180h4q6 0 16 -16q-10 -19 -152 -132q-29 -28 -80 -56l-24 -28v-24q16 -115 60 -164q29 -28 40 -28v-8q0 -8 -8 -8q-66 22 -88 68q-40 97 -40 136q-20 0 -192 -148q-20 -21 -48 -36
h-12v12q115 113 248 216v56q0 21 -4 36q0 109 40 260z" />
    <glyph glyph-name="Y" unicode="Y" horiz-adv-x="215" 
d="M300 580h8q6 0 12 -12v-12q-65 -47 -92 -124q-104 -136 -104 -160q4 0 4 -4q89 0 208 60q183 228 232 228h12q6 0 12 -12v-12q0 -48 -112 -144q-28 -27 -120 -84q-149 -203 -224 -264q-56 -40 -92 -40q-32 0 -44 44q0 28 68 52v-8q-28 -25 -28 -28v-16q1 -8 8 -8
q84 0 236 232h-20q-46 -21 -128 -36q-56 8 -56 32v16q0 8 148 224q27 59 72 76zM432 380h4q116 95 116 116v4h-12q-108 -98 -108 -120z" />
    <glyph glyph-name="Z" unicode="Z" horiz-adv-x="361" 
d="M452 456q15 -4 24 -16q-4 -22 -48 -44q-230 -230 -288 -268q-68 -68 -68 -76q4 0 4 -4q70 20 224 36q72 0 72 -32l-4 -16h-8q-9 6 -40 16q-173 -16 -288 -52h-20q-6 0 -12 12v4q0 43 244 244l148 152v8h-4q-72 -12 -72 -16l-8 4h-4q-118 -24 -232 -68h-4l-12 16v8
q0 41 396 92z" />
    <glyph glyph-name="bracketleft" unicode="[" horiz-adv-x="324" 
d="M492 539q17 -5 24 -20v-4q-2 -17 -136 -72v4q0 13 44 44v8h-4q-107 0 -168 -36q0 -7 16 -52l-4 -16l4 -8q0 -55 -108 -364q-21 -48 -48 -64h-16q0 4 -4 12q13 50 56 132q76 185 76 244v12h-20q24 68 24 84l-20 32q0 41 128 52q48 8 156 12zM196 351h8v-16h-8v16zM76 -41
q0 -4 4 -4l-4 -8v-4q1 -8 8 -8q98 4 156 4q14 0 64 -12v-4q0 -9 -252 -32q-44 4 -44 16v4q0 31 68 48z" />
    <glyph glyph-name="backslash" unicode="\" horiz-adv-x="256" 
d="M341 499h13q10 0 14 -22q-52 -92 -189 -262q-105 -189 -105 -215l-8 -4q-9 11 -9 17q36 157 162 315v5h-9v9z" />
    <glyph glyph-name="bracketright" unicode="]" horiz-adv-x="385" 
d="M532 552q8 -13 8 -24q-84 -52 -84 -88q-169 -293 -184 -428q-8 -8 -28 -12q-79 36 -120 36h-36q-15 0 -32 -20h-12q-44 12 -44 24v8q12 24 112 24h28q31 0 104 -16q2 79 208 452v8h-84q-9 0 -16 -4l-8 4q-51 -8 -96 -8q-9 0 -16 4q-91 -13 -120 -24q0 -24 -8 -24t-56 24
v8q0 32 92 32q2 0 60 8h44q4 0 4 4l8 -4h4q67 8 272 16z" />
    <glyph glyph-name="asciicircum" unicode="^" horiz-adv-x="434" 
d="M402 540q1 -10 -9.5 -22t-19.5 -12q-5 0 -7 0.5t-6 4.5l-135 125l-117 -119q-1 -3 -3 -6q-3 -5 -10 -5q-11 0 -11.5 8.5t5.5 16.5l151 154l6 1l61 -54l51.5 -48t43.5 -44z" />
    <glyph glyph-name="underscore" unicode="_" horiz-adv-x="450" 
d="M6 -17l99 -19q206 5 295 5q34 5 38 5q8 -5 19 -5q19 5 33 5l5 -10q-129 -23 -238 -33q-4 0 -4 5l-34 -5h-76q-19 0 -52 5q-7 -5 -28 -5q-67 27 -67 38v5q1 9 10 9z" />
    <glyph glyph-name="grave" unicode="`" horiz-adv-x="466" 
d="M538 775h14q7 0 15 -14v-14q-8 -62 -24 -62q-12 24 -43 24q-71 -126 -80 -218h-5q-12 0 -14 19q0 94 71 218q39 47 66 47z" />
    <glyph glyph-name="a" unicode="a" horiz-adv-x="276" 
d="M284 304q24 -9 24 -40q0 -61 -60 -140q-48 -20 -48 -60v-4h16q36 0 92 20v-4q-52 -52 -124 -52q-5 0 -28 32h-4q-62 -48 -104 -56h-16q-32 0 -32 40q7 71 196 228q47 36 88 36zM36 40q1 -8 8 -8q144 56 144 116l92 104v12h-24q-87 -26 -220 -208v-16z" />
    <glyph glyph-name="b" unicode="b" horiz-adv-x="264" 
d="M552 528h20q40 0 40 -44q0 -107 -292 -232v-12q30 -31 32 -68q-12 -53 -60 -84q-85 -48 -264 -88q-28 7 -28 16v4q0 25 112 136v4h-4q-18 -20 -36 -20h-8q0 8 -4 8q20 39 140 88q152 180 184 208q59 61 168 84zM284 280v-8h8q292 117 292 208v4q0 8 -8 8h-32
q-56 -6 -136 -64q-100 -108 -124 -148zM184 128h-16q0 13 -4 20q-19 0 -100 -96v-4q1 -8 8 -8q236 60 236 104q6 0 12 12v32q-13 24 -44 24h-12q-64 0 -80 -84z" />
    <glyph glyph-name="c" unicode="c" horiz-adv-x="203" 
d="M260 260q28 -7 28 -24q0 -36 -88 -76h-8q-15 0 -32 20h-8q-112 -91 -112 -132v-8q1 -8 8 -8h4q40 0 192 36v-4q-17 -18 -180 -64h-4q-60 0 -60 36q0 83 188 204q63 20 72 20z" />
    <glyph glyph-name="d" unicode="d" horiz-adv-x="316" 
d="M436 396q24 -8 24 -16v-12q-67 -129 -104 -244q-37 -71 -48 -76h-16q-6 0 -12 12v4q0 12 12 32q-39 76 -120 76h-4q-78 0 -132 -84v-32q13 -24 44 -24q21 0 188 24v-12q-162 -44 -172 -44h-32q-61 0 -64 72v4q0 73 120 120l48 12q116 -23 116 -52q29 -24 36 -24
q84 196 84 212q-28 -8 -32 -8l-4 8v8q47 18 68 44z" />
    <glyph glyph-name="e" unicode="e" horiz-adv-x="312" 
d="M312 268q60 0 60 -24q0 -42 -48 -56q-39 -24 -208 -76q-40 -45 -56 -68q0 -6 12 -12q13 0 168 8v4q4 0 4 -4q48 4 48 8l8 -4l48 4v-4q0 -10 -192 -32l-80 -12q-52 5 -52 32l16 56l-28 4h-8l-4 16q0 22 96 36q111 108 216 124zM180 172v-4h4q115 20 152 56v12h-24
q-50 0 -132 -64z" />
    <glyph glyph-name="f" unicode="f" horiz-adv-x="369" 
d="M624 523q60 -7 60 -44q0 -49 -240 -252l-116 -56q-101 -34 -120 -56v-4q304 25 304 36l4 -8q0 -15 -196 -44q-110 -20 -128 -20v-20q0 -197 -376 -404q-99 -67 -136 -68l-8 12v4q0 36 88 108q81 112 312 348v12q-56 0 -56 32v8q0 18 72 24q22 -4 36 -4q13 3 144 192
q105 119 216 164q106 40 140 40zM200 159v-4h4q290 90 448 316v4q-6 16 -28 16q-20 0 -60 -4v4q-126 -64 -128 -64q-155 -108 -232 -256q-4 0 -4 -12zM-232 -329v-8h12q380 214 380 372v28q0 8 -12 8q-20 0 -148 -136q-118 -122 -232 -264z" />
    <glyph glyph-name="g" unicode="g" horiz-adv-x="275" 
d="M245 350q80 0 92 -100q8 -28 8 -32q-188 -358 -216 -396q-51 -130 -172 -236q-50 -24 -68 -24h-40q-88 23 -88 76q0 43 92 96h4v-8q-68 -58 -68 -88q0 -33 72 -48q116 0 224 208q92 156 172 332h-8q-109 -84 -164 -84q-26 0 -32 40q10 96 128 232q22 18 64 32zM93 86
l8 -4h4q49 0 164 104q0 23 32 56q4 8 4 12q0 60 -52 60h-4q-82 0 -156 -208v-20z" />
    <glyph glyph-name="h" unicode="h" horiz-adv-x="426" 
d="M660 628q8 -1 8 -8q0 -29 -228 -264l-212 -168v-12q14 0 128 28q11 0 20 -20q0 -6 -132 -108l-20 -28v-8q105 0 260 32h8v-4q-44 -28 -188 -56q-22 -8 -80 -8q-43 0 -52 28q24 62 88 104h4v12h-8q-83 -16 -148 -72l-76 -76q-32 8 -32 16q15 53 76 88l380 312
q68 68 184 208z" />
    <glyph glyph-name="i" unicode="i" horiz-adv-x="126" 
d="M256 372q16 -4 16 -16q-48 -54 -48 -84l-8 -4h-4q-6 0 -12 12v16q0 45 56 76zM172 232q20 -6 20 -24q0 -5 -80 -72q-61 -62 -72 -80v-24h4q106 24 116 24v-4q-11 -11 -112 -48q0 -4 -4 -4h-16q-23 0 -28 24q0 40 72 124q0 28 28 28q1 15 72 56z" />
    <glyph glyph-name="j" unicode="j" horiz-adv-x="134" 
d="M442 554h4q24 0 24 -24q-22 -64 -36 -64h-4v4q8 13 8 24v4h-4q-21 0 -72 -96h-4q-12 0 -16 36q25 64 100 116zM262 306l8 -12v-8q0 -28 -48 -56q-8 4 -12 4q-228 -316 -364 -540q-79 -112 -128 -112q-65 0 -144 144q-8 19 -8 36q0 94 240 196q-208 -127 -208 -188v-24
q67 -124 116 -128h16q69 49 120 132q107 195 340 508q39 48 72 48z" />
    <glyph glyph-name="k" unicode="k" horiz-adv-x="292" 
d="M304 428h4q9 0 12 -20q-83 -121 -108 -188v-4h40q5 0 20 -20v-4q-15 -13 -32 -76q-15 -8 -32 -8h-4q-16 0 -16 48v8h-4q-24 0 -72 -76v-28q0 -6 24 -20h60q46 0 140 4l4 -8q-67 -19 -200 -28q-18 0 -76 28q-27 -36 -48 -36h-4q-6 0 -12 12v8q81 77 92 128q85 65 152 200
q24 53 60 80z" />
    <glyph glyph-name="l" unicode="l" horiz-adv-x="183" 
d="M508 584h8q20 -10 20 -32q-14 -128 -312 -308q-112 -75 -144 -184l-4 -24l8 -4h4q60 32 168 72v-4q-18 -24 -172 -100h-24q-24 3 -24 32q0 25 36 104l-8 16q13 28 76 72q266 331 368 360zM264 320l4 -8q175 92 236 216q-4 8 -4 12q-49 -2 -236 -220z" />
    <glyph glyph-name="m" unicode="m" horiz-adv-x="471" 
d="M228 224q9 0 24 -32q68 0 68 -52h12q76 40 140 40q56 -10 56 -40q0 -25 -92 -104q0 -12 -16 -28q-28 4 -28 24q1 15 84 100v12l-36 8l-96 -28q-30 -13 -96 -76l-60 -48h-36l-4 16q0 5 116 112q0 6 8 16v4q0 10 -52 12q-180 -160 -200 -160h-4q-16 4 -16 24q38 79 176 152
q39 48 52 48z" />
    <glyph glyph-name="n" unicode="n" horiz-adv-x="406" 
d="M268 252q18 -4 24 -20q0 -12 -56 -56v-12q83 35 148 52q20 -6 20 -28t-100 -128q0 -8 -4 -8q4 -8 4 -12h4q14 0 144 32q-21 -26 -132 -64h-20q-27 0 -40 36q5 34 84 116v8h-4q-103 -22 -288 -156q0 -6 -44 -12q-8 10 -8 16q26 48 156 144z" />
    <glyph glyph-name="o" unicode="o" horiz-adv-x="207" 
d="M236 284h12q45 0 64 -48q-56 -139 -184 -200q-38 -12 -84 -36q-44 0 -44 40q0 25 36 96h-4l-16 -4l-4 8q157 140 204 140q7 4 20 4zM96 116h-4l-20 4q-18 -22 -36 -60v-12q0 -6 16 -12q151 46 204 144q24 32 24 48q0 19 -24 28q-71 -9 -116 -40q-44 -63 -44 -100z" />
    <glyph glyph-name="p" unicode="p" horiz-adv-x="284" 
d="M408 610q16 -6 16 -28q-74 -197 -136 -276q-20 -30 -20 -40h4l24 4q9 -20 12 -20q-80 -142 -84 -168q4 0 4 -4l144 80h8q-130 -115 -176 -124q-24 8 -24 44l60 128h-4q-16 0 -28 -24q-32 -22 -96 -124q-43 -46 -200 -260l-108 -124l-84 -92q-20 6 -20 28v8q17 69 296 384
q179 180 224 256q144 208 144 260v4q-119 -130 -156 -208q-13 -8 -20 -8v4q0 10 188 272q0 23 32 28zM-104 -162h4q6 0 20 24v4q-17 -10 -24 -28zM-224 -306v-4q63 52 100 124h-4q-69 -81 -96 -120z" />
    <glyph glyph-name="q" unicode="q" horiz-adv-x="272" 
d="M346 314q16 -4 16 -24t-8 -48q4 -22 4 -36l-116 -128q-82 -51 -176 -184q-35 -39 -96 -140v-4l8 -12v-4l-56 -56h-16q-6 0 -12 16q60 123 148 228q56 73 56 80h-36q-36 0 -36 36q40 128 196 228q45 32 124 48zM246 162l8 -4q72 72 72 96l-8 4q-15 0 -72 -96zM66 42
q1 -8 8 -8h12q96 44 96 104q60 90 60 96h-4q-158 -111 -172 -192z" />
    <glyph glyph-name="r" unicode="r" horiz-adv-x="284" 
d="M381 292q18 -2 18 -22q0 -13 -37 -67v-7l11 -15v-7q0 -6 -14 -11q-41 7 -41 33q0 4 15 48v4q-71 0 -200 -156q-12 0 -92 -92h-19q-13 0 -22 11q15 60 89 126q70 51 70 74q6 0 70 55h11q14 -11 26 -11q78 30 115 37z" />
    <glyph glyph-name="s" unicode="s" horiz-adv-x="215" 
d="M288 324q56 0 76 -60l4 -20q-6 -16 -12 -16q-8 0 -36 48q-26 8 -36 8h-20q-32 0 -64 -52v-24q16 -67 16 -84v-8q0 -91 -124 -104q-46 -4 -64 -12q-20 12 -28 12v20q12 20 28 20q1 -8 8 -8h16q132 12 132 56v12q0 3 -20 120q17 52 60 76q49 16 64 16z" />
    <glyph glyph-name="t" unicode="t" horiz-adv-x="276" 
d="M420 432h16q8 -1 8 -8v-4q0 -21 -128 -140l-4 -8l80 -8v-8q-60 -9 -60 -12l-20 4h-28q-79 -38 -212 -200v-12q15 0 256 100l4 -8v-8q-13 -17 -260 -120q-9 0 -16 -4q-24 6 -24 24q0 55 148 192l4 8v4h-4q-7 0 -72 -4q-16 6 -16 12v4l4 20q155 0 180 36z" />
    <glyph glyph-name="u" unicode="u" horiz-adv-x="207" 
d="M308 317q37 -11 37 -23v-24q-168 -223 -289 -265l-23 -5q-33 13 -33 51q0 66 75 196l14 9q20 0 28 -18q-70 -113 -70 -182h4l10 -5q61 23 219 187l4 9v9q-14 0 -14 10v14q0 37 38 37z" />
    <glyph glyph-name="v" unicode="v" horiz-adv-x="235" 
d="M464 329h22q0 -9 5 -9q0 -15 -183 -105q-99 -48 -205 -210l-32 -5h-9q0 5 -5 14q0 23 46 141q50 124 77 124q19 -5 19 -28q0 -21 -37 -73v-9h14q119 95 288 160z" />
    <glyph glyph-name="w" unicode="w" horiz-adv-x="377" 
d="M137 252q8 0 16 -24q-50 -119 -56 -156l8 -4q72 44 124 44h8q24 -11 24 -40q35 0 236 168q7 0 20 8q16 -4 16 -20q0 -10 -88 -68q-163 -152 -236 -152q-8 13 -8 20l12 40v4h-4q-23 0 -132 -72h-32q0 4 -4 4q0 47 44 156v4l-8 12v8q22 30 40 68h20z" />
    <glyph glyph-name="x" unicode="x" horiz-adv-x="353" 
d="M228 284q11 0 20 -20l-12 -40v-8h8q73 60 100 60q18 -8 20 -16v-8q-3 -9 -100 -68q-68 -48 -68 -84q0 -64 44 -64q42 0 148 28h4q-70 -40 -168 -60q-64 18 -64 64q0 20 -8 20h-4q-48 -36 -132 -88h-4q-3 0 -12 12q1 9 96 112q49 80 132 160zM108 116v-4q34 0 72 72v16h-8
q-20 -16 -64 -84z" />
    <glyph glyph-name="y" unicode="y" horiz-adv-x="227" 
d="M327 230h4q22 0 24 -20q0 -5 -96 -80q-151 -165 -276 -352q-150 -200 -228 -200q-96 35 -96 88q0 51 96 108q119 64 148 64v-4q-3 -9 -120 -72q-92 -55 -92 -108q11 -28 40 -40h48q86 46 176 184q153 204 168 240q-72 -36 -88 -36q-32 0 -32 28q0 42 136 168h12
q6 0 16 -16v-8q0 -29 -56 -52q-51 -59 -52 -64v-12h4q117 53 228 160z" />
    <glyph glyph-name="z" unicode="z" horiz-adv-x="320" 
d="M292 287q44 0 51 -32q-16 -28 -200 -139q-32 -32 -32 -65v-5q0 -9 14 -9q65 0 246 28v-5q0 -12 -190 -60q-6 -5 -33 -5h-18q-70 0 -70 56q0 63 176 176v9h-5q-80 -19 -106 -19h-9q-7 0 -14 24q11 37 46 37h37q83 0 107 9z" />
    <glyph glyph-name="braceleft" unicode="{" horiz-adv-x="320" 
d="M353 758q60 0 60 -40v-44q-4 -34 -68 -116h-8q0 8 -4 8q12 60 48 96q6 0 12 36q-9 24 -16 24q-112 -39 -112 -116q0 -33 -4 -64q8 -91 8 -112q-24 -53 -24 -76l12 -60q0 -81 -88 -232l-52 -108q13 -8 24 -8h16q135 20 188 20q8 -4 12 -4v-8q-23 0 -200 -36h-28
q-29 0 -44 28q104 207 124 260q20 59 20 96q-4 8 -4 12h-12q-23 -16 -36 -16q-72 22 -72 52q0 32 64 36q9 -4 52 -8q16 38 16 68l-16 4v8l8 -4q8 0 8 8v24q0 14 -4 36l4 8q-4 27 -4 44q0 184 120 184zM157 338q4 -12 24 -12h8q6 0 12 12v8q0 8 -8 8h-16q-20 -10 -20 -16z
" />
    <glyph glyph-name="bar" unicode="|" horiz-adv-x="243" 
d="M391 754l19 -14l-4 -24v-38q-10 0 -10 -5q-24 5 -24 9q-22 -10 -119 -167q-227 -453 -243 -515h-10v10q0 76 110 291q81 199 219 391q0 62 62 62z" />
    <glyph glyph-name="braceright" unicode="}" horiz-adv-x="300" 
d="M197 738q50 0 61 -83q-61 -196 -61 -240q7 -35 17 -35h13q92 63 92 157q23 27 43 31q8 -18 18 -18v-13q-66 -127 -66 -175q-46 -193 -104 -296q-44 -66 -123 -66q-66 0 -83 52q-4 0 -4 5h4l75 -22h8q75 0 96 57q63 97 105 279q-4 13 -9 13q-46 -35 -61 -39q-52 12 -52 65
v31q0 29 48 166q9 47 9 61q0 26 -26 39q-39 0 -83 -69q-11 0 -14 17q0 43 92 83h5z" />
    <glyph glyph-name="asciitilde" unicode="~" horiz-adv-x="539" 
d="M307 274q33 0 44 -80q16 -20 20 -20h20q107 63 160 84q12 -4 12 -8q0 -21 -100 -72q-30 -30 -76 -40h-20q-44 0 -68 104h-8q-80 0 -80 -76l-8 -4h-24q-8 0 -8 8v20q46 84 136 84z" />
    <glyph glyph-name="afii10017" unicode="&#x410;" horiz-adv-x="296" 
d="M542 475q22 -5 22 -36q0 -41 -98 -170l9 -5h18q38 0 80 5l27 -5v-4q0 -8 -170 -36q-117 -131 -170 -224h-27l-5 22q41 68 41 72h-5q-78 -76 -98 -76q-67 -9 -81 -9q-85 11 -85 40v9q0 25 72 58h22v-4q-40 -22 -40 -58l22 -5h14q112 0 138 67q14 15 14 23l-14 18l-31 -5
h-9q-24 0 -45 27q0 31 175 58q134 160 224 238zM390 260q4 0 4 -5q13 0 36 36v9q-7 0 -40 -40zM287 130v-9h13q34 54 54 76v4h-9q-44 -43 -58 -71z" />
    <glyph glyph-name="afii10018" unicode="&#x411;" horiz-adv-x="381" 
d="M456 516q56 -12 56 -32v-8q0 -21 -16 -28h-8q0 32 -24 32h-68q-168 -14 -168 -36q16 -26 16 -36q0 -29 -32 -96h8q64 16 132 20q84 0 100 -88q0 -90 -164 -196q-89 -48 -172 -48q-71 0 -116 48v4q0 8 56 96q7 48 84 140l56 112v12q-40 29 -40 36q0 49 300 68zM44 56v-4
q0 -20 84 -20h4q4 0 4 4l8 -4q77 0 196 88q76 73 76 132q0 44 -80 44h-44q-120 -26 -120 -56q-59 -95 -128 -184z" />
    <glyph glyph-name="afii10019" unicode="&#x412;" horiz-adv-x="349" 
d="M412 536q68 -8 68 -64h4q0 -49 -72 -168q13 0 28 -64q0 -103 -160 -196q-89 -44 -160 -44l-72 16q-26 -8 -36 -8q-8 4 -12 4v16q12 15 12 28l-8 28q2 0 24 20h8l-4 -20v-4h4q52 55 208 296q28 43 48 120q40 40 120 40zM240 304h12q66 20 116 20h8q32 0 72 140v20
q0 16 -52 16q-60 0 -120 -144q-29 -25 -36 -52zM196 204h4q55 0 140 76q4 8 4 12h-20q-128 -24 -128 -88zM196 164q-34 12 -44 12q-76 -103 -76 -132q13 -8 24 -8h48q109 0 232 128q24 50 24 60v40q0 6 -12 12h-8q-100 -93 -188 -112z" />
    <glyph glyph-name="afii10020" unicode="&#x413;" horiz-adv-x="158" 
d="M404 516l24 -4q133 -8 152 -8h12q6 0 12 -12v-12q0 -6 -24 -16q-64 12 -108 12h-16q-48 0 -48 -32q-64 -122 -288 -352q-88 -88 -92 -88l-28 -4v20q0 34 52 64q142 170 232 296q23 59 48 76h8l12 -8q0 -31 -44 -84q-4 -7 -4 -16v-4q70 70 76 120v8q0 9 -4 16q0 19 28 28z
" />
    <glyph glyph-name="afii10021" unicode="&#x414;" horiz-adv-x="320" 
d="M80 506h96q27 0 136 -16h16q17 -15 108 -60q48 -47 48 -104q-15 -95 -100 -196q-169 -160 -280 -192q-217 -96 -296 -96h-4q-82 0 -112 88q9 28 52 28v-8q0 -9 -20 -12v-20q25 -48 72 -48q113 0 388 136q90 58 160 128q99 102 108 196v8q0 68 -108 100h-12
q-49 -138 -108 -184q-91 -131 -200 -260h-24q0 4 -4 12q0 17 104 136q140 178 188 260l16 52q-38 20 -136 20h-20q-15 0 -60 -16v-4l12 -16v-8h-4q-60 18 -60 36q0 32 44 40z" />
    <glyph glyph-name="afii10022" unicode="&#x415;" horiz-adv-x="260" 
d="M492 456q31 0 44 -36q0 -76 -112 -120q-60 -24 -60 -48q0 -46 -164 -80q-18 0 -36 28h-4q-124 -66 -124 -140v-12q0 -6 16 -16h28q75 0 204 28l4 -8q-174 -52 -216 -52h-4q-68 0 -68 52v20q0 89 204 188q101 145 264 192zM460 424q-172 -88 -172 -120q-6 0 -20 -24l4 -8
q122 36 220 104l12 20v12q-4 16 -44 16zM228 212h8q44 8 44 16v4q-52 -7 -52 -20z" />
    <glyph glyph-name="afii10024" unicode="&#x416;" horiz-adv-x="515" 
d="M344 464h8q6 0 12 -12v-32q35 0 40 -48v-16q0 -10 -12 -48v-4h4q10 0 120 116q29 28 56 28q16 -8 16 -24q0 -31 -92 -92q-88 -70 -140 -172v-12h4q123 28 228 84q199 203 220 204q20 12 28 12q18 -8 20 -16v-16q-25 -31 -184 -152q-196 -191 -196 -212v-4l8 -12
q-14 -24 -36 -24q-16 6 -16 12v16q0 25 80 116v8q-147 -56 -184 -56q-24 8 -24 16v12q0 12 28 56l32 56v4q-20 0 -152 -136q-148 -116 -188 -116q-24 0 -24 28q0 72 252 196q83 38 120 136v8q-2 20 -24 20h-20q-131 -176 -196 -176q-68 3 -68 56q-4 0 -4 8q0 76 140 140
q136 12 136 44zM100 292q0 -44 44 -44q140 107 140 148l-8 4v-4l-8 4q-102 0 -160 -84q0 -11 -8 -24zM48 48h4q27 0 164 120v8h-4q-164 -93 -164 -128z" />
    <glyph glyph-name="afii10025" unicode="&#x417;" horiz-adv-x="410" 
d="M528 512q36 -8 36 -36q-16 -48 -88 -116q40 -30 40 -56q-23 -105 -124 -180q-211 -124 -300 -124q-92 8 -92 60v12q0 18 68 32q8 -1 8 -8q-37 -15 -48 -36q10 -28 48 -28q110 0 304 120q100 83 100 164q-13 8 -24 8h-4q-14 0 -140 -84q-15 0 -24 -8h-24q-8 0 -8 12
q0 48 72 88v4q-36 7 -36 16v8q0 68 192 144q21 8 44 8zM400 432v-12q0 -9 4 -16q0 -13 -52 -60v-4h4q75 13 100 44q64 75 64 84v4q0 8 -12 8q-52 0 -108 -48z" />
    <glyph glyph-name="afii10026" unicode="&#x418;" horiz-adv-x="312" 
d="M540 544q16 -4 16 -24q0 -35 -136 -172q-108 -178 -112 -264v-44q13 -20 16 -20q-8 -18 -16 -20q-32 11 -32 40v40q0 4 -4 4q20 64 20 104q-188 -184 -264 -184q-16 3 -28 32q0 39 84 244q58 184 76 184h8q12 -4 12 -24q-140 -344 -140 -384q0 -12 4 -12q79 29 204 132
q123 131 152 216q97 152 140 152z" />
    <glyph glyph-name="afii10027" unicode="&#x419;" 
d="M281 616q20 0 32 -56q31 -28 96 -28q19 4 172 12v-4q-31 -18 -164 -36h-32q-98 0 -124 76q5 25 20 36zM145 448h12q6 0 16 -16v-8q-60 -118 -60 -124q-80 -154 -80 -252q4 -8 4 -12h24q159 55 276 172q26 26 112 168q25 24 40 24q16 -6 16 -12v-8q0 -19 -76 -108
q-88 -142 -88 -196v-16q1 -8 8 -8q12 2 32 20h12v-12q-30 -40 -68 -40q-24 9 -24 32q5 53 24 100q-4 0 -4 4q-152 -129 -292 -160q-32 12 -32 44q0 121 112 340q0 33 36 68z" />
    <glyph glyph-name="afii10028" unicode="&#x41a;" horiz-adv-x="365" 
d="M342 495q7 0 28 -23q63 18 79 18q74 -23 74 -64q0 -107 -139 -167h-14q-42 0 -42 51v32q0 4 10 37v10h-5q-76 -85 -134 -204l-32 -92q2 -42 23 -42q167 18 203 28h33q9 -2 9 -10l-250 -55q-60 0 -60 55q5 32 5 51q-42 -27 -42 -64q-6 0 -46 -51l-28 -5h-5q-9 0 -9 9v10
q0 16 88 120q112 136 194 277h-14q-74 -45 -175 -157l-24 -5q115 130 264 236q9 0 9 5zM370 319l5 -18q63 14 106 78l5 23v19q0 16 -51 23q-65 -51 -65 -125z" />
    <glyph glyph-name="afii10029" unicode="&#x41b;" horiz-adv-x="385" 
d="M532 516q18 0 28 -24q0 -20 -172 -172q-29 0 -144 -180q-11 0 -88 -112q-48 -28 -60 -28q-42 0 -92 84q-4 6 -4 24q0 21 84 36l4 -8q-54 -20 -56 -32v-4q0 -24 56 -68h12q90 71 168 200q91 141 192 224q4 21 72 60zM616 512q11 0 20 -28q-7 -73 -276 -368
q-40 -55 -40 -96l-8 -4h-8q-6 0 -16 16v8q0 59 220 300q36 42 36 52l-4 16q46 104 76 104z" />
    <glyph glyph-name="afii10030" unicode="&#x41c;" horiz-adv-x="633" 
d="M594 484h9q9 -28 9 -31q0 -37 -295 -334v-9q105 0 299 88q261 264 299 264q18 -4 18 -26q0 -58 -163 -159q-220 -186 -220 -242q1 -9 9 -9h4q5 0 5 5q8 -5 13 -5v-8q-34 -18 -44 -18h-4q-31 0 -31 35q18 49 57 93v13h-4q-215 -75 -260 -75q-53 10 -53 26q1 22 154 168v8
h-4q-42 -19 -238 -206q-76 -62 -101 -62q-53 0 -53 53t132 53v-5h9q227 214 392 339q41 44 61 44zM823 343v-4q62 24 62 53h-5q-17 -9 -57 -49zM48 62v-18h9q75 34 75 53h-26q-53 -25 -58 -35z" />
    <glyph glyph-name="afii10031" unicode="&#x41d;" horiz-adv-x="369" 
d="M688 576h8q8 -2 16 -20q-30 -101 -228 -276q-144 -200 -144 -248v-4q28 -5 28 -12v-4q0 -12 -36 -12q-10 0 -24 24q0 61 100 208v4h-4q-84 -32 -120 -32h-8q-45 0 -52 56q-31 0 -64 -64q-6 -1 -60 -96q-26 -26 -64 -80h-16q-20 0 -20 8q0 22 176 256q124 161 156 240l8 4
h4q17 -20 44 -28q0 -16 4 -16q-112 -156 -112 -164q-16 -31 -16 -52v-20q0 -6 12 -12q64 0 168 52q128 177 200 256zM568 392h8l100 112v16h-4q-81 -76 -104 -128z" />
    <glyph glyph-name="afii10032" unicode="&#x41e;" horiz-adv-x="296" 
d="M596 552q28 0 44 -72q0 -69 -224 -256q-173 -157 -312 -200q-36 -24 -68 -24q-36 0 -36 28q17 62 136 188q75 106 228 224q179 112 232 112zM76 52q138 29 364 228q172 151 172 192q0 40 -28 40h-8q-114 -26 -272 -164q-164 -141 -164 -208l-56 -60z" />
    <glyph glyph-name="afii10033" unicode="&#x41f;" horiz-adv-x="406" 
d="M599 538q22 -7 22 -35q186 9 227 13q18 -4 31 -4q54 4 57 4q8 -4 13 -4q0 -13 -70 -22q-8 4 -13 4q-9 0 -61 -13l-18 4q-249 -18 -249 -56q-84 -79 -302 -359q-63 -59 -149 -70q-87 15 -87 61q0 48 157 66v-9q-109 -38 -109 -57v-4l18 -13h30q97 0 193 148
q161 193 161 210q-16 9 -35 9h-87q-37 0 -57 -9l-39 9v18q0 24 306 61q35 42 61 48zM468 437v-8h17q9 0 9 8v9h-17q-9 -1 -9 -9zM621 380h4q18 -7 18 -30q-2 -7 -101 -61q-96 -85 -140 -197q0 -47 -57 -57q-6 0 -13 13v4q1 68 153 241q95 87 136 87zM188 140l4 -9v-4
q-11 0 -26 -9l-4 9z" />
    <glyph glyph-name="afii10034" unicode="&#x420;" horiz-adv-x="365" 
d="M480 508h12q38 0 80 -80q16 -40 16 -68v-8q0 -129 -168 -184q-90 -20 -140 -20h-8q-4 0 -4 -4l-8 4h-24v12q0 44 72 44v-4l-16 -16q4 0 4 -4q140 0 236 96q24 35 24 60v12q-4 111 -80 124h-8q-88 -15 -88 -52q0 -41 -88 -132q-136 -156 -260 -284q-7 -4 -16 -4l-16 12
q0 13 136 148q11 49 200 276q97 72 144 72zM300 364l-4 -16q6 0 12 12v4h-8z" />
    <glyph glyph-name="afii10035" unicode="&#x421;" horiz-adv-x="288" 
d="M528 512q40 -7 40 -36q0 -51 -88 -128q-97 -32 -108 -32q-44 0 -44 32v4q8 0 8 8v8q-49 -5 -248 -220q-48 -71 -48 -92v-12l4 -8q85 0 316 60v-12q-114 -44 -280 -80q-3 0 -24 -4q-56 9 -56 44q0 134 404 424q61 44 124 44zM380 360l8 -4h8q136 39 136 92q4 0 4 12v8
q0 6 -12 12q-87 0 -144 -120z" />
    <glyph glyph-name="afii10036" unicode="&#x422;" horiz-adv-x="114" 
d="M525 593h36q68 0 68 -16v-16q0 -5 -12 -12h-8l-16 12h-12q-4 0 -4 -4l-8 4h-71q-379 -19 -379 -55q128 -66 128 -124q-8 -21 -8 -56h12q0 16 16 16v8l-8 12v4q0 3 123 120h4q16 -4 16 -24q0 -22 -227 -259q-33 -77 -107 -155q-20 -48 -60 -48l-8 12q0 71 199 263q0 8 4 8
l-4 8v4q16 51 16 75v28q-15 38 -171 104v8q0 34 79 43q239 40 402 40zM275 366v-8q16 4 16 20h-4q-6 0 -12 -12z" />
    <glyph glyph-name="afii10037" unicode="&#x423;" horiz-adv-x="215" 
d="M300 580h8q6 0 12 -12v-12q-65 -47 -92 -124q-104 -136 -104 -160q4 0 4 -4q89 0 208 60q183 228 232 228h12q6 0 12 -12v-12q0 -48 -112 -144q-28 -27 -120 -84q-149 -203 -224 -264q-56 -40 -92 -40q-32 0 -44 44q0 28 68 52v-8q-28 -25 -28 -28v-16q1 -8 8 -8
q84 0 236 232h-20q-46 -21 -128 -36q-56 8 -56 32v16q0 8 148 224q27 59 72 76zM432 380h4q116 95 116 116v4h-12q-108 -98 -108 -120z" />
    <glyph glyph-name="afii10038" unicode="&#x424;" horiz-adv-x="333" 
d="M311 584q33 -4 38 -4q10 0 75 4q109 0 148 -88l4 -19v-11q-28 -117 -42 -117q-100 -99 -110 -99q-54 -30 -140 -45q-7 3 -11 3q-56 0 -95 -79q-61 -74 -61 -102h50q0 -11 -46 -27h-11q-30 3 -30 27q0 17 94 155v4l-3 7l-54 -4q-113 6 -113 57q-4 0 -4 4q0 101 133 239
q110 95 178 95zM30 261q6 -41 57 -41q8 0 8 4l26 -4h27q63 0 76 26q36 59 178 213q16 11 26 11q15 -4 15 -19l-110 -114q-75 -89 -75 -106l7 -4h8q136 24 193 88q61 61 61 109q0 87 -118 118h-19q-85 0 -132 -83h-12q0 8 -3 15q21 35 49 72l-8 3q-137 -53 -231 -212
q-23 -66 -23 -76z" />
    <glyph glyph-name="afii10039" unicode="&#x425;" horiz-adv-x="385" 
d="M284 600h12q12 -4 12 -24q-17 -102 -24 -188l4 -16q-4 -35 -4 -60v-8l4 -20q22 0 236 180h4q6 0 16 -16q-10 -19 -152 -132q-29 -28 -80 -56l-24 -28v-24q16 -115 60 -164q29 -28 40 -28v-8q0 -8 -8 -8q-66 22 -88 68q-40 97 -40 136q-20 0 -192 -148q-20 -21 -48 -36
h-12v12q115 113 248 216v56q0 21 -4 36q0 109 40 260z" />
    <glyph glyph-name="afii10040" unicode="&#x426;" horiz-adv-x="548" 
d="M244 506q33 0 33 -37q0 -33 -173 -300q-52 -90 -52 -113v-9h5q229 51 337 150q127 194 211 267q18 14 33 14h10q9 -1 9 -9v-9q0 -101 -206 -272q-47 -61 -47 -99l9 -4q97 31 164 75q24 -8 24 -33q-40 -44 -103 -188q-107 -117 -150 -117q-22 9 -24 19v9q110 62 155 164
q14 24 14 47h-5l-89 -28q-47 9 -47 28q0 3 5 61q-22 -4 -173 -84q-10 0 -90 -28q-18 -10 -51 -10h-9q-29 0 -38 33q0 61 164 305l52 103h-10q-46 -42 -51 -42h-5q0 23 98 107zM554 338v-10q17 0 33 47q-18 -10 -33 -37z" />
    <glyph glyph-name="afii10041" unicode="&#x427;" horiz-adv-x="272" 
d="M344 604q24 -6 24 -24q0 -5 -32 -32q-52 -24 -124 -88q-144 -160 -172 -244v-4h4q168 25 256 80q274 252 300 252h12q12 -4 12 -24q0 -50 -228 -200q-167 -126 -252 -276v-4l8 -4q21 8 136 24v-8q-141 -52 -152 -52q-40 0 -40 28q0 27 128 192l-8 4q-93 -40 -180 -56
q-36 0 -36 36q0 95 240 328q71 55 104 72zM576 488v-4h4q8 0 8 8v4h-4q-8 -1 -8 -8zM548 460h4q6 0 12 12h-4q-6 0 -12 -12z" />
    <glyph glyph-name="afii10042" unicode="&#x428;" horiz-adv-x="637" 
d="M868 536q12 0 20 -24l-4 -8q0 -2 4 -52q0 -42 -112 -128q-148 -226 -148 -256v-20l-20 -4h-4q-9 0 -16 28q20 55 80 156h-8q-234 -189 -364 -228h-20q-9 0 -12 36q0 27 84 180v8h-8q-97 -85 -288 -192q-28 0 -28 -8q-21 0 -24 40q6 74 244 428q13 8 24 8q16 -6 16 -12
v-12q-206 -282 -244 -404h16q191 107 368 252q121 168 152 168h4q6 0 12 -12v-16q0 -26 -112 -128q-136 -190 -136 -208q-14 -25 -36 -80q8 -4 12 -4q137 57 356 224q71 64 112 156q70 112 80 112zM836 416q6 0 24 24v8h-8q-10 0 -16 -32z" />
    <glyph glyph-name="afii10043" unicode="&#x429;" horiz-adv-x="584" 
d="M800 591q21 0 24 -40q-54 -89 -172 -208q-135 -187 -156 -280v-8h4q37 12 56 12q27 -11 36 -28v-4q0 -55 -144 -164h-12q-8 13 -8 24q80 76 120 124v8h-8q-79 -28 -88 -28q-8 0 -8 8v4q0 54 60 172h-8q-205 -184 -252 -184q-20 8 -20 32v8q0 30 52 148h-4
q-199 -192 -240 -192h-16q-8 0 -20 36q40 159 112 248q95 175 152 236h16l4 -20v-4q-199 -285 -240 -420v-36h4q52 10 320 284q122 220 184 220q18 -8 20 -16v-16q-165 -175 -192 -232q-112 -176 -112 -224l8 -4q120 61 304 248q171 296 224 296zM712 439q43 25 84 96v16h-4
q-69 -70 -80 -112zM504 467h4q24 11 24 28h-8q-20 -12 -20 -28z" />
    <glyph glyph-name="afii10045" unicode="&#x42b;" horiz-adv-x="369" 
d="M696 516q12 -4 12 -24v-4q-281 -281 -316 -364q-28 -42 -28 -68q8 -13 8 -24q-13 -32 -56 -32q-8 16 -12 16q21 107 156 268v12h-4q-71 -39 -148 -68q-21 -120 -60 -120q-109 -80 -188 -80q-44 5 -44 36q29 146 208 316l52 56v4q0 8 -8 8q-120 -42 -156 -112
q-47 -56 -76 -56q-36 0 -36 44v4q0 46 328 172q0 4 20 12q20 -6 20 -24q-57 -70 -176 -192v-4q8 0 8 -4q30 12 44 12q20 0 52 -40q196 51 288 156q94 100 112 100zM52 336v-4h8q6 0 12 12v8h-4q-6 0 -16 -16zM204 244v-4h20q30 0 32 12v4l-20 4q-32 -7 -32 -16zM64 80v-4
q1 -8 8 -8q196 47 196 128v16h-4q-56 -7 -56 -12q-42 0 -64 36q-70 -98 -80 -156z" />
    <glyph glyph-name="afii10046" unicode="&#x42c;" horiz-adv-x="276" 
d="M405 523q22 -9 22 -26q0 -12 -165 -170l-5 -9q0 -9 83 -17q57 -35 57 -83q0 -46 -96 -105q-193 -113 -236 -113h-26q-39 7 -39 35q0 67 275 362q93 126 130 126zM44 44v-5h13q117 28 270 127q35 33 35 52v9q-29 43 -66 43h-21q-82 0 -122 -70q-57 -78 -92 -108
q-17 -41 -17 -48z" />
    <glyph glyph-name="afii10047" unicode="&#x42d;" horiz-adv-x="304" 
d="M348 560q91 0 128 -100q8 -40 8 -72v-12q0 -190 -268 -340q-83 -36 -136 -36q-80 11 -80 56q2 23 60 28q20 -5 20 -12t-24 -28v-4q22 -4 32 -4q146 0 304 184q0 8 -28 12q-49 0 -148 -16q-32 5 -32 24q0 28 172 28q12 0 52 -12h4q36 35 36 124v32q0 92 -84 112h-48
q-176 -45 -176 -132l4 -20h4q38 0 108 124q16 -8 16 -20q0 -62 -96 -136q-6 0 -16 -8h-32q-16 0 -24 64q0 74 144 144q34 12 100 20z" />
    <glyph glyph-name="afii10048" unicode="&#x42e;" horiz-adv-x="600" 
d="M736 532q55 0 96 -48q8 -40 8 -72q0 -74 -92 -204q-83 -102 -204 -144q-130 -56 -176 -56q-64 0 -64 56q0 48 32 92v8h-4q-13 0 -120 -48h-8q-32 0 -32 44l44 92q-73 -71 -136 -172q-30 -80 -68 -80q-3 0 -12 12q61 125 244 328q109 128 152 128h8v-12q-72 -51 -72 -92
q-27 -60 -104 -168q-12 -20 -12 -32v-8h8q119 39 192 112q20 23 80 128q135 132 224 132q0 4 16 4zM576 428v-12h12q24 0 24 -24q-16 -31 -144 -120q-41 -57 -48 -120l-8 -4h-4l-4 20v24h-4q-60 -72 -60 -140q13 -8 24 -8h32q59 0 256 100q156 136 156 260v44q0 48 -88 48
q-66 -10 -144 -68zM240 292l-4 -16q6 0 12 12v4h-8z" />
    <glyph glyph-name="afii10049" unicode="&#x42f;" horiz-adv-x="308" 
d="M503 564q57 -6 57 -57q-8 -59 -23 -84q4 -15 4 -27l-198 -232q-50 -78 -50 -92q8 -3 12 -3v-8q-37 -51 -54 -53q-19 2 -19 22q27 60 27 65v4h-4q-110 -99 -179 -99h-7q-69 7 -69 38v4q0 19 76 38v-8l-38 -26v-8l38 -11q71 0 187 129v8l-15 -4q-35 5 -35 34v4
q0 164 183 332q59 34 107 34zM248 206q7 -1 7 -8q80 44 80 61q0 7 -7 27q6 29 38 76q34 57 64 57q8 -1 8 -8v-7q-38 -24 -72 -107v-7l7 -4q71 77 130 125q13 22 30 73v30q-6 16 -26 16q-85 0 -141 -73q-98 -110 -115 -228q-3 -20 -3 -23z" />
    <glyph glyph-name="dagger" unicode="&#x2020;" horiz-adv-x="347" 
d="M416 546q0 -12 -21 -23t-53.5 -16t-56.5 -7q-2 0 -4 -0.5t-4 -0.5h-4l-107 -559q-2 -9 -11.5 -16.5t-21 -13.5t-22.5 -10t-15 -4q-5 0 -7 1.5t-2 9.5q0 9 5 40.5t13.5 78l20 104.5l24 120.5l25.5 125.5l25 120h-65t-43 2q-6 1 -12 2.5t-6 8.5q0 11 5 17t12 12q8 7 18.5 7
h27.5h74l25.5 118.5t12.5 54.5q3 1 11.5 2.5t18 3t18 2t11.5 0.5q6 0 7 -2.5t0 -6.5l-33 -172h23q30 0 56 2t35 2q20 0 20 -3z" />
    <glyph glyph-name="degree" unicode="&#xb0;" horiz-adv-x="374" 
d="M344 638q0 -34 -14.5 -68.5t-40 -62.5t-60.5 -46t-75 -18q-23 0 -38 9t-24 22.5t-12.5 29t-3.5 29.5q0 38 16.5 76.5t54.5 71.5q29 25 51.5 33.5t33.5 10.5q14 5 24 6.5t23 1.5q29 0 47 -25t18 -70zM289 612q0 38 -11 54t-28 18q-3 0 -10 0.5t-14 0.5q-31 0 -50 -15.5
t-29 -36t-13.5 -40t-3.5 -27.5q0 -15 2.5 -30t9 -27t17.5 -19.5t27 -7.5q15 0 33 4.5t33.5 18.5t26 39.5t10.5 67.5z" />
    <glyph glyph-name="afii10050" unicode="&#x490;" horiz-adv-x="363" 
d="M471 748q3 0 2 -7t-3.5 -18.5t-6 -25.5t-7.5 -28q-6 -23 -16 -32t-18 -9q-11 -3 -18 -1q-7 -2 -14 -3.5l-16 -3.5q-16 -3 -33 -4.5t-32 -2.5q-18 -1 -35 -1l-23 -78l-82 -285l-17 -62t-17 -71q-3 -16 -6 -36t-6 -32q-2 -8 -5.5 -17t-7.5 -15q-5 -5 -13 -12t-17 -13
t-18 -10.5t-15 -4.5q-8 0 -15 3t-7 9q0 9 2.5 19.5t8.5 31.5l26 97.5l18 69.5l16.5 61.5l20.5 74.5l20.5 70.5l21.5 72.5l23 78l6 23.5t6 24.5h-12t-12 1q-13 0 -14 10q0 8 19 17q9 4 20 7t24 6q13 2 26.5 3t24.5 1h39.5t42.5 1l48 2q2 7 4 15.5l4 16.5q3 9 6 17
q6 13 21.5 26.5t35.5 13.5z" />
    <glyph glyph-name="section" unicode="&#xa7;" horiz-adv-x="329" 
d="M439 737q52 0 52 -48q-17 -51 -48 -72h-12q0 4 24 60v12q-4 12 -24 12q-74 0 -156 -112l-20 -56q0 -66 60 -128q12 -20 20 -60q-18 -98 -100 -156q0 -12 -8 -12q0 -14 8 -68l-8 -68l4 -8q0 -22 -52 -120q-126 -120 -200 -120q-16 6 -24 20v4q0 29 48 60h12l-20 -32v-8h4
q64 0 160 108q40 59 40 88v112q-44 157 -44 160v4q0 62 80 76l52 -16q0 9 -56 96q-8 28 -12 60q0 96 144 192q18 8 76 20zM195 305q2 -76 20 -76q34 0 68 84v4q-19 28 -52 28t-36 -40z" />
    <glyph glyph-name="bullet" unicode="&#x2022;" horiz-adv-x="349" 
d="M303 235q0 -25 -9.5 -47t-26 -38.5t-38.5 -26.5t-47 -10q-26 0 -48 9.5t-38 26t-25.5 39t-9.5 47.5t9.5 47t26 38.5t39 26t47.5 9.5t46.5 -9.5t38 -26t26 -38.5t9.5 -47z" />
    <glyph glyph-name="paragraph" unicode="&#xb6;" horiz-adv-x="373" 
d="M255 -74h-48l121 736h48zM127 -74h-47l83 519q-31 20 -44 50.5t-5 68.5q15 76 87 98h47z" />
    <glyph glyph-name="afii10055" horiz-adv-x="271" 
 />
    <glyph glyph-name="registered" unicode="&#xae;" horiz-adv-x="978" 
d="M709 678q151 0 236 -108q45 -52 68 -208q4 -1 4 -40q0 -150 -144 -324q-76 -60 -168 -96q-180 -60 -244 -60q-16 8 -24 8q-4 0 -12 -4q-159 0 -256 152q-32 85 -32 176q34 245 96 308q134 180 360 180q115 13 116 16zM641 638h-8l-4 -16l-20 4q-93 0 -172 -120
q-36 -64 -52 -128h-8q0 4 -4 12q9 91 76 184q3 0 64 56v4h-4q-135 -45 -220 -136q-70 -64 -100 -204q0 -19 -20 -104q0 -226 144 -288q58 -28 132 -28q167 0 360 104q184 129 184 364q0 103 -72 224q-64 76 -200 76q-22 4 -44 4q-15 -8 -32 -8zM517 482q152 -7 152 -72
l4 -28q0 -61 -56 -112v-20q0 -4 4 -4q-8 -20 -12 -76q6 -28 20 -28l180 40v-4q-44 -32 -192 -72q-44 16 -44 60q0 2 4 52h-12q-20 -18 -100 -40q-17 -56 -28 -56h-4q-8 2 -16 20q0 14 20 36v16q20 92 20 140q-3 96 -16 96q23 52 76 52zM485 426q2 -40 8 -40l-4 -8v-16
q0 -4 4 -4l-4 -8v-24l4 -28h60q8 0 40 -8q48 38 48 76v44q0 27 -100 36h-12q-44 -6 -44 -20zM485 250v-28q8 0 8 -4q68 27 68 40q0 8 -8 8h-12q-56 0 -56 -16z" />
    <glyph glyph-name="copyright" unicode="&#xa9;" horiz-adv-x="560" 
d="M369 496q13 -10 96 -32q108 -56 108 -144q0 -214 -156 -292q-25 -17 -108 -40h-8q-9 0 -16 4q-20 -4 -20 -8q-126 0 -148 100q-8 46 -8 84q0 255 236 328h24zM377 456q-8 -10 -8 -16h-4q-8 0 -8 12q-105 -29 -148 -100q-36 -37 -36 -108v-4q0 -38 28 -92l-8 -4
q-12 12 -40 72v20h-8v-24q0 -28 -8 -28q6 -144 48 -144q7 -28 76 -28v4q15 -8 32 -8q256 61 256 288v8q0 106 -136 148q-22 4 -36 4zM393 340q18 -7 28 -24v-16q-76 -50 -76 -76h-16l4 40v8h-4q-28 0 -56 -56q10 -64 64 -64h28q3 0 92 20h4v-4q-7 -17 -104 -44l-36 4
q-8 -4 -12 -4q-68 28 -68 80q0 87 152 136z" />
    <glyph glyph-name="trademark" unicode="&#x2122;" horiz-adv-x="1115" 
d="M1087 477l-30.5 -21.5t-42.5 -27.5q-38 -23 -56 -30t-27 -7q-14 0 -16.5 7.5t-2.5 14.5q0 5 2.5 17t7 28t10.5 35l12 38l32 98l-3 1l-57.5 -74t-95.5 -113q-5 -5 -11.5 -12.5l-13 -14.5t-13.5 -11.5t-11 -4.5q-7 0 -8.5 4t-1.5 11t6 30l14 53.5l17.5 64t16.5 60.5l9 36
l-3 1q-3 -6 -17 -28l-31.5 -48.5l-35 -52.5t-28.5 -40q-22 -29 -39 -47.5t-30 -29.5t-23.5 -15t-20.5 -4q-8 0 -13 3.5t-7 9t-2.5 11t-0.5 9.5q0 20 11 36t24 23l4 -1q-1 -12 1.5 -25.5t14.5 -13.5q9 0 27.5 13.5t51.5 55.5q14 18 32 45l36 55.5t33 55t24 44.5l6.5 19
l4 11.5t3.5 8.5l5 10q5 8 13 13t15 5q10 0 14.5 -0.5t4.5 -8.5q0 -19 -8 -39t-16 -46q-9 -26 -18 -57l-16.5 -58.5l-13 -49t-7.5 -28.5q0 -2 -1.5 -6.5t-2 -9t-0.5 -8.5t2 -4q3 0 23.5 23t48.5 57.5l57.5 74.5t49.5 75q10 31 16 48t17 31q8 11 17 14.5t17 3.5q6 0 7.5 -5.5
t1.5 -13.5q0 -6 -4 -19t-10 -27.5t-13 -28l-12 -22.5l-9.5 -29l-14.5 -44l-16.5 -49.5l-15.5 -47.5l-11.5 -37t-4.5 -18q0 -8 -1 -15.5t16 -7.5t46.5 17.5t58.5 37.5l6 -9v0zM572 466q-66 -45 -109 -65t-63 -20q-8 0 -10.5 6.5t-1.5 14.5q2 11 11.5 45.5l21.5 75.5
q6 22 15.5 51.5l18.5 58l16 51t7 30.5q0 5 1 8t-4 3q-4 0 -13.5 -11l-20.5 -23l-18.5 -22l-27.5 -34.5l-32 -42.5t-32 -46q-9 -14 -19.5 -34.5l-19.5 -39.5t-15 -33t-7 -15q-17 -25 -44 -25q-3 0 -3 3q0 4 0.5 8.5t2.5 10.5t5.5 15.5t8.5 24.5l66 208q14 40 14 54q0 6 -3 7
q-14 0 -57 -51q-19 -22 -41.5 -57.5l-44 -72.5l-39 -69.5t-24.5 -49.5q-5 -7 -19 -18t-26 -11q-7 0 -7 3t-1 9q1 6 7 24l11 33l16.5 47.5l19 53l18 50.5l13.5 39q1 4 5 15l8 23t7 22t3 13q0 12 -1 14t-6 2q-22 0 -92 -67l-3 11q52 50 91 75t54 25q14 0 14 -13t-3.5 -23.5
l-8.5 -26.5q-6 -21 -18 -55l-23 -66l-29 -79l3 -2q43 78 80 129t66.5 81t51 42t32.5 12q6 0 8.5 -1.5t2.5 -12.5q0 -6 -4.5 -22t-11.5 -38l-15.5 -47l-16 -47.5l-14 -41t-8.5 -26.5h2l69.5 92t57.5 72.5t47 47.5t38 17q8 0 9.5 -4.5t1.5 -9.5q0 -7 -7 -30.5l-16.5 -54
l-19.5 -63.5l-17 -58q-3 -9 -8 -27l-10.5 -37t-9.5 -34.5t-4 -19.5q0 -5 -2 -13.5t9 -8.5q20 0 50 15t61 35l6 -9v0z" />
    <glyph glyph-name="afii10051" unicode="&#x402;" horiz-adv-x="599" 
d="M624 655q0 -12 -12 -23t-29 -21t-35.5 -18.5l-31.5 -14.5l-3 7q24 13 29.5 25t5.5 25q0 22 -78 22q-23 0 -35.5 -1t-22 -2.5t-20 -4t-29.5 -5.5q-12 -51 -31.5 -111.5t-38.5 -130.5q20 4 47 7.5t46 3.5q27 0 56 -4.5t53 -20t39 -44.5t15 -78q0 -57 -28 -124t-73.5 -125.5
t-103 -97.5t-117.5 -39q-42 0 -63.5 10.5t-21.5 26.5q0 6 2.5 14.5t14.5 8.5q9 0 14.5 -7l11.5 -15t14 -15t22 -7q35 0 67.5 16t60 42t50 60t38 71t24 73.5t8.5 67.5q0 44 -9 71.5t-25.5 42.5t-38.5 20.5t-47 5.5q-14 0 -34 -2.5t-37 -6.5l-7.5 -23.5l-9 -30.5l-8.5 -31
t-6 -24l-32 -144t-23 -77t-26.5 -28.5t-24.5 -6.5q-16 0 -18.5 7t-2.5 24q0 6 4 24t10.5 42.5l14 52t15.5 53.5q6 22 13.5 46l14.5 45l12 35.5l6 17.5q-6 -2 -13 -4t-12 -2q-9 0 -10 2t-1 8t5.5 12t13 12t16.5 11t16 8q28 91 44 153l23 89q-78 -18 -123.5 -35.5t-70.5 -32
t-35 -23.5t-18 -9q-11 0 -15.5 1.5t-4.5 12.5q0 7 25.5 21.5t67.5 32.5t96 36.5t111 33.5t112 25t100 10q42 0 64.5 -9t22.5 -37z" />
    <glyph glyph-name="afii10099" unicode="&#x452;" horiz-adv-x="428" 
d="M409 412q-1 -13 -6 -34t-13 -47l-17 -55l-17 -57q-33 -114 -70.5 -219t-85.5 -186q-27 -45 -62.5 -75t-69.5 -46q-23 -10 -34 -10q-9 0 -9 6q0 8 11 10.5t19 7.5q15 9 27.5 19.5t25 25.5t25 36.5t26.5 53.5q17 36 32 79.5t31 95.5l43.5 142l28.5 93.5t16 56t5 29.5
q0 5 -0.5 8.5t-11.5 3.5q-6 0 -21.5 -11t-35.5 -30t-43.5 -44t-45.5 -52q-28 -34 -47.5 -73l-33.5 -68q-14 -30 -24.5 -47.5t-19 -26.5t-16 -12t-15.5 -3q-10 0 -11.5 8t-1.5 11q0 11 4 27t15 39q8 17 15 39t12 34l39 112l37 107l39 112q6 19 13 35q-18 -1 -34 -1t-26 -1
q-8 -1 -14.5 -1h-11.5q-11 0 -14 2.5t-3 8.5q1 12 6.5 20t13.5 13q10 5 20 6.5t28 1.5h52l28 75.5t21 58.5q4 11 10 18.5t18 15.5q11 8 21 11.5t18 5.5q10 2 18 3q9 0 9 -10q-8 -18 -15 -36l-13 -33.5t-13 -34.5l-13.5 -37.5t-14.5 -37.5h35l91 4q18 1 18 -7q-2 -9 -21 -19
q-9 -5 -46 -15.5t-87 -10.5h-8l-55 -144.5l-55 -144.5h3q55 61 100.5 102t79 66t56 35t33.5 10q8 0 10.5 -5.5t1.5 -13.5z" />
    <glyph glyph-name="notequal" unicode="&#x2260;" horiz-adv-x="389" 
d="M670 631q16 -6 16 -12v-16q-17 -45 -188 -252q-7 -1 -28 -36q2 0 36 -20q-2 -9 -16 -24q-20 8 -32 8q-30 0 -56 -36q1 -8 8 -8l20 4q40 -5 40 -16q0 -12 -84 -20q-41 0 -128 -108q-144 -139 -144 -168q4 -8 4 -12q-15 -12 -24 -12q-8 4 -12 4v12q0 49 212 260v12l-88 -12
q-32 5 -32 16v20q21 27 80 56v4h-12q-21 0 -80 -4q-28 5 -28 28v4q4 12 24 12q27 0 88 -8q74 4 92 4q35 -4 44 -4q47 0 80 56q72 70 180 224v12h-12v12q9 0 36 20h4zM246 227v-4q101 0 120 32v12h-12q-4 0 -4 -4l-8 4q-86 -22 -96 -40z" />
    <glyph glyph-name="afii10052" unicode="&#x403;" horiz-adv-x="306" 
 />
    <glyph glyph-name="afii10100" unicode="&#x453;" horiz-adv-x="334" 
d="M395 546q3 0 2 -7.5t-3.5 -19.5t-6.5 -27l-8 -30q-7 -25 -18 -34.5t-19 -9.5q-11 -3 -19 -1q-7 -2 -14.5 -3.5t-16.5 -3.5q-17 -3 -27 -4t-17.5 -2t-14.5 -1.5t-16 -1.5q-12 -38 -26 -94l-30 -118q-5 -17 -10 -36l-9 -35.5l-7 -29t-3 -16.5q0 -8 1.5 -14t1.5 -11
q0 -9 -4.5 -18.5t-26.5 -28.5q-4 -3 -17 -10.5t-33 -11.5q-22 0 -23 14q0 11 7 33l20 60.5t20 62.5q8 28 13 47.5l12 47.5l12 46.5l11.5 45t9 39t3.5 27.5q-6 0 -21.5 -0.5t-23.5 0.5q-13 1 -14 11q0 9 20 18q10 5 21.5 8t25.5 6q14 2 28 3t26 1h38.5t38.5 1l41 2
q2 8 4.5 17t4.5 17q3 10 6 19q6 13 23 27.5t38 14.5z" />
    <glyph glyph-name="infinity" unicode="&#x221e;" horiz-adv-x="718" 
d="M570 342q124 -19 124 -88q0 -23 -132 -52h-24l-56 32q-8 0 -112 -72q-43 -28 -84 -28h-28q-70 0 -84 28q0 4 20 28v4l-12 16v16q0 35 192 60l84 -12q76 64 112 68zM506 262v-4q15 -24 52 -24q112 10 112 36q-37 32 -72 32h-32q-23 0 -60 -40zM206 190v-4h8q20 0 20 8
q24 -5 24 -12q-4 -7 -4 -16q86 0 168 72v16q-40 4 -60 4h-16q-102 0 -120 -60q-20 0 -20 -8z" />
    <glyph glyph-name="plusminus" unicode="&#xb1;" horiz-adv-x="479" 
d="M307 413h8q32 -4 32 -28q-4 -16 -4 -28q19 -49 88 -76q8 -21 8 -24l-16 -12q-52 24 -64 24h-24q-6 0 -16 -16v-28q0 -13 12 -52q-4 -7 -4 -16v-12q0 -4 4 -4l-24 -28v-4q137 4 160 8q64 -4 64 -16v-4q-12 0 -12 -4l-8 4q-180 -24 -188 -24q-118 4 -136 12v12q5 16 36 16
h52l8 -4q0 4 4 4q-8 28 -8 48v52q-18 44 -72 44q-28 13 -28 20q0 28 36 28h72q8 0 8 8l-4 20q12 32 12 40q-4 22 -4 36zM335 321l-4 -8v-8h4q8 0 8 8t-8 8z" />
    <glyph glyph-name="lessequal" unicode="&#x2264;" horiz-adv-x="466" 
d="M482 379q20 -6 20 -28t-84 -44q-26 -24 -44 -24q-8 0 -8 20h-12q-104 -28 -104 -44v-4h4q28 0 32 -4q27 4 44 4h36q132 -7 132 -64q-4 -16 -16 -16q-45 44 -112 44q-4 0 -12 -4l-24 4q-74 -4 -132 -4h-20q-21 0 -28 16v4q0 36 180 104q2 0 144 40h4zM218 133q28 0 88 -8
l28 4q120 -16 120 -40q0 -7 -24 -12q-23 7 -100 16q-27 -4 -44 -4h-60l-24 -4q-24 8 -24 16v8q14 24 40 24z" />
    <glyph glyph-name="greaterequal" unicode="&#x2265;" horiz-adv-x="458" 
d="M239 358h8q223 -38 336 -84q29 -8 32 -8v4q36 -8 36 -36q0 -6 -16 -12q-40 8 -52 8q-240 -10 -240 -52q0 -6 -12 -12q-44 4 -44 32q0 34 204 64q0 19 -160 44q-15 4 -32 4q-8 -4 -12 -4v-24h-8q0 34 -56 44v4q0 22 16 28zM357 120q28 0 88 -8l28 4q120 -16 120 -40
q0 -7 -24 -12q-23 7 -100 16q-27 -4 -44 -4h-60l-24 -4q-24 8 -24 16v8q14 24 40 24z" />
    <glyph glyph-name="afii10103" unicode="&#x456;" horiz-adv-x="126" 
d="M256 372q16 -4 16 -16q-48 -54 -48 -84l-8 -4h-4q-6 0 -12 12v16q0 45 56 76zM172 232q20 -6 20 -24q0 -5 -80 -72q-61 -62 -72 -80v-24h4q106 24 116 24v-4q-11 -11 -112 -48q0 -4 -4 -4h-16q-23 0 -28 24q0 40 72 124q0 28 28 28q1 15 72 56z" />
    <glyph glyph-name="mu" unicode="&#xb5;" horiz-adv-x="393" 
d="M307 306q18 -8 20 -16q0 -131 -60 -196v-28h4l120 28v-16q-17 0 -88 -36q-37 -12 -56 -12q-32 3 -32 32h-12q-119 -48 -132 -48q-24 8 -24 32h-4q-18 -16 -88 -192q-79 -159 -116 -212q-53 -58 -116 -68q-100 15 -100 84q8 33 84 72h8v-4q-52 -36 -52 -76v-4
q0 -16 84 -32q39 0 112 120q139 268 204 512q21 32 28 32q44 -16 44 -40q-20 -103 -40 -164v-12h4q148 36 148 112q43 121 56 132h4z" />
    <glyph glyph-name="mu" unicode="&#x3bc;" horiz-adv-x="393" 
d="M307 306q18 -8 20 -16q0 -131 -60 -196v-28h4l120 28v-16q-17 0 -88 -36q-37 -12 -56 -12q-32 3 -32 32h-12q-119 -48 -132 -48q-24 8 -24 32h-4q-18 -16 -88 -192q-79 -159 -116 -212q-53 -58 -116 -68q-100 15 -100 84q8 33 84 72h8v-4q-52 -36 -52 -76v-4
q0 -16 84 -32q39 0 112 120q139 268 204 512q21 32 28 32q44 -16 44 -40q-20 -103 -40 -164v-12h4q148 36 148 112q43 121 56 132h4z" />
    <glyph glyph-name="afii10098" unicode="&#x491;" horiz-adv-x="334" 
d="M395 546q3 0 2 -7.5t-3.5 -19.5t-6.5 -27l-8 -30q-7 -25 -18 -34.5t-19 -9.5q-11 -3 -19 -1q-7 -2 -14.5 -3.5t-16.5 -3.5q-17 -3 -27 -4t-17.5 -2t-14.5 -1.5t-16 -1.5q-12 -38 -26 -94l-30 -118q-5 -17 -10 -36l-9 -35.5l-7 -29t-3 -16.5q0 -8 1.5 -14t1.5 -11
q0 -9 -4.5 -18.5t-26.5 -28.5q-4 -3 -17 -10.5t-33 -11.5q-22 0 -23 14q0 11 7 33l20 60.5t20 62.5q8 28 13 47.5l12 47.5l12 46.5l11.5 45t9 39t3.5 27.5q-6 0 -21.5 -0.5t-23.5 0.5q-13 1 -14 11q0 9 20 18q10 5 21.5 8t25.5 6q14 2 28 3t26 1h38.5t38.5 1l41 2
q2 8 4.5 17t4.5 17q3 10 6 19q6 13 23 27.5t38 14.5z" />
    <glyph glyph-name="afii10057" unicode="&#x408;" horiz-adv-x="362" 
d="M362 696q0 -3 -5 -13.5t-16.5 -36.5l-30 -70.5t-44.5 -115.5q-8 -20 -13 -34.5l-10 -29.5l-11.5 -33.5l-16.5 -46.5l-32 -87.5t-30.5 -75.5t-32.5 -65.5t-38 -57.5q-11 -14 -28 -30.5t-36.5 -31t-39.5 -24.5t-35 -10q-6 0 -6 3t-1 6q0 1 5.5 4.5l13 8.5l15 10.5
t12.5 10.5q13 14 22.5 26t16.5 24t13 26l14 34q14 34 39 101l64 176l85 234q7 18 11 29.5t6 16.5q7 17 13 27t11.5 15.5t11.5 8t15 5.5q5 2 22.5 3.5t29.5 1.5q6 0 6 -9z" />
    <glyph glyph-name="afii10053" unicode="&#x404;" horiz-adv-x="296" 
d="M484 576q92 0 92 -80q-13 -68 -52 -68h-8q-24 0 -24 24q11 64 36 64v8q0 11 -36 20q-197 0 -384 -240v-8q86 -4 128 -4h20l40 -4v-4q0 -6 -92 -24h-76l-48 4q-44 -65 -44 -144q12 -84 84 -84q7 -4 20 -4q97 12 216 48v-4q-40 -34 -184 -72q-27 -4 -44 -4q-120 11 -120 96
q-4 0 -8 36q0 166 256 364q145 80 228 80z" />
    <glyph glyph-name="afii10101" unicode="&#x454;" horiz-adv-x="227" 
d="M284 292q48 -11 48 -40v-8q-16 -20 -36 -20q-5 0 -12 24q-8 4 -12 4q-77 0 -152 -92v-8q1 -8 8 -8q86 4 128 4v-12q-49 -16 -180 -36q0 -7 -8 -24q4 -44 16 -44h44q101 24 176 60h4v-4q-9 -34 -196 -92h-24q-56 0 -56 84q46 120 172 188q32 15 80 24z" />
    <glyph glyph-name="afii10056" unicode="&#x407;" horiz-adv-x="345" 
d="M724 804q16 -8 24 -8v-16q-36 -31 -36 -44l4 -20l-8 -4q-15 0 -36 16h-8q-19 -11 -88 -28q-32 2 -32 24q0 44 100 76q10 0 44 -16zM600 740h4q9 0 48 16v4h-16q-36 -8 -36 -20zM360 616q41 -12 112 -12h12q73 0 184 4q11 0 20 -20q0 -6 -16 -20q-12 4 -12 8
q-60 -4 -88 -4h-68q-20 0 -60 -4v-8q7 -10 16 -32l-4 -20v-16h4q19 0 40 20q18 -8 20 -16v-8q0 -34 -56 -44q-46 -35 -112 -148q-130 -188 -196 -188h-12q-8 0 -8 8v4q7 63 256 300q40 48 40 100q-4 26 -88 64v20q0 6 16 12zM228 200v-4h8q46 31 88 100h-4q-39 -27 -92 -96z
M304 72q64 -7 64 -24v-12q-85 8 -100 8q-62 0 -264 -44q0 8 -4 8q39 64 304 64z" />
    <glyph glyph-name="afii10104" unicode="&#x457;" horiz-adv-x="187" 
d="M272 464q15 0 40 -32v-4h-28q-50 0 -68 -84q4 -16 24 -16q56 0 56 40q34 52 108 52l12 -16v-12l-28 -36v-12l16 -4v-4q-42 -23 -128 -32q0 -8 -40 -8q-50 0 -60 36q0 88 96 132zM200 284q20 -8 20 -24q0 -7 -120 -112q-60 -55 -60 -88v-16q0 -6 12 -12q63 12 180 48
q-28 -34 -180 -80q-52 0 -52 44q0 82 128 176q56 64 72 64z" />
    <glyph glyph-name="afii10059" unicode="&#x40a;" horiz-adv-x="765" 
d="M696 250q0 41 -13.5 66t-54.5 25q-26 0 -52.5 -13t-49.5 -33l-6 14q41 42 85 63.5t76 21.5q40 0 63 -22t23 -73q0 -30 -14.5 -66t-39 -71.5t-56.5 -68.5t-68 -58.5t-73.5 -41t-71.5 -15.5q-20 0 -38.5 4t-33 16t-23.5 33.5t-9 56.5q0 26 8.5 69t20 88t23 85.5t18.5 61.5
q-38 -25 -75 -43q-32 -17 -67.5 -30t-62.5 -13q-11 0 -19.5 0.5t-13.5 1.5q-6 1 -11 3q-3 -12 -9.5 -35.5l-14.5 -52.5l-17 -60l-17.5 -58.5t-16 -48t-11.5 -27.5q-13 -21 -28 -29t-24 -8q-19 0 -23.5 8t-4.5 25q0 6 6.5 28t15.5 49.5l18.5 55l15.5 44.5l51 131
q-5 6 -8.5 15t-3.5 26q0 7 4 15.5t10.5 16t14.5 12.5t17 5l34 100q7 19 13.5 38.5l12.5 36t11.5 28t8.5 16.5q12 17 21.5 25.5t17.5 11.5t13.5 3h10.5q8 0 8 -14q-1 -10 -10 -38.5t-23 -63.5l-64 -168q3 -9 11 -15q7 -6 20.5 -10.5t36.5 -4.5q28 0 56 9t51 21t38.5 24
t18.5 18q8 20 14 46t14 49q12 37 22.5 60.5t19.5 38t16.5 21.5t13.5 10q12 7 23.5 12.5t17.5 5.5q8 0 8.5 -4t0.5 -12q0 -6 -5 -24t-15 -46l-24 -64.5t-32 -78.5q-14 -43 -28 -91t-25.5 -95t-19 -89.5t-7.5 -74.5t16.5 -52.5t53.5 -20.5q46 0 84.5 22.5t66.5 55.5t43.5 71
t15.5 70z" />
    <glyph glyph-name="afii10107" unicode="&#x45a;" horiz-adv-x="579" 
d="M548 222q0 -22 -13 -58t-42 -68q-18 -21 -40 -42t-47.5 -38t-54.5 -28t-61 -11q-29 0 -39.5 18.5t-10.5 40.5q0 29 9 65t32 92q-20 -8 -47 -13.5t-50 -9.5q-28 -4 -56 -7q-1 -12 -5.5 -32t-12 -41t-16.5 -40t-19 -29q-17 -17 -29.5 -22t-24.5 -5q-17 0 -20.5 6t-3.5 19
q0 4 3 15t7.5 24.5l9.5 28t9 27.5l17 53q-7 8 -8 10.5t-1 15.5q0 11 10.5 19t27.5 10l9 22l25.5 64.5l15.5 40.5l9.5 25.5t8.5 19.5q7 15 17 24.5t20.5 15t21 7.5t17.5 2t7 -11q-1 -8 -11.5 -32t-19.5 -50l-48 -140q22 -2 48 0q22 2 49 5.5t55 14.5q20 47 37.5 76.5
t36.5 57.5q10 15 22.5 30t25 26t24.5 18t22 7q5 0 9 -2.5t4 -7.5q0 -8 -12.5 -26t-26.5 -41q-9 -15 -15.5 -28t-12.5 -27l-13.5 -30.5l-17.5 -40.5q8 8 21 15.5t27 13.5t28.5 9.5t26.5 3.5q31 0 48.5 -14t17.5 -48zM469 168q0 25 -9.5 38.5t-24 19t-32 3t-34.5 -10.5
q-16 -41 -28.5 -76t-12.5 -78q0 -14 6.5 -24.5t23.5 -10.5q23 0 43 13t35 33.5t24 45t9 47.5z" />
    <glyph glyph-name="afii10105" unicode="&#x458;" horiz-adv-x="134" 
d="M442 554h4q24 0 24 -24q-22 -64 -36 -64h-4v4q8 13 8 24v4h-4q-21 0 -72 -96h-4q-12 0 -16 36q25 64 100 116zM262 306l8 -12v-8q0 -28 -48 -56q-8 4 -12 4q-228 -316 -364 -540q-79 -112 -128 -112q-65 0 -144 144q-8 19 -8 36q0 94 240 196q-208 -127 -208 -188v-24
q67 -124 116 -128h16q69 49 120 132q107 195 340 508q39 48 72 48z" />
    <glyph glyph-name="afii10054" unicode="&#x405;" horiz-adv-x="134" 
d="M442 554h4q24 0 24 -24q-22 -64 -36 -64h-4v4q8 13 8 24v4h-4q-21 0 -72 -96h-4q-12 0 -16 36q25 64 100 116zM262 306l8 -12v-8q0 -28 -48 -56q-8 4 -12 4q-228 -316 -364 -540q-79 -112 -128 -112q-65 0 -144 144q-8 19 -8 36q0 94 240 196q-208 -127 -208 -188v-24
q67 -124 116 -128h16q69 49 120 132q107 195 340 508q39 48 72 48z" />
    <glyph glyph-name="logicalnot" unicode="&#xac;" horiz-adv-x="594" 
d="M518 164l-37 -13l12 83h-259h-45t-68.5 -0.5t-64.5 -1t-35 -1.5q8 26 23 35.5t23 11.5q8 0 42 0.5t81 0.5h101t103.5 0.5t88 0.5t54.5 1z" />
    <glyph glyph-name="radical" unicode="&#x221a;" horiz-adv-x="549" 
d="M512 913h36l-152 -951l-242 498l-97 -44l-16 31l146 74l198 -402z" />
    <glyph glyph-name="approxequal" unicode="&#x2248;" horiz-adv-x="608" 
d="M410 330h12q28 0 28 -40v-28q4 0 12 -4q136 52 168 52q-3 -14 -92 -48q-13 -21 -88 -44q-41 0 -44 48v28h-4q-106 0 -196 -96l-28 -4q-17 0 -24 16q0 72 256 120zM650 218l4 -8l-228 -116h-44q-24 25 -24 60l-20 4h-12q-58 -7 -136 -56q-15 4 -24 16q0 48 168 76
q68 0 68 -60h24q90 40 224 84z" />
    <glyph glyph-name="glyph161" unicode="&#x394;" horiz-adv-x="393" 
d="M365 415q23 0 40 -60q-8 -70 -44 -236v-52q1 -40 8 -40q-4 -8 -4 -12h-28q-4 0 -4 -4q-11 12 -188 16l-20 -4v-4l8 -12v-8q-8 0 -28 -8q-36 0 -36 40q0 72 112 184q57 85 80 160l20 20h12l16 -16q46 36 56 36zM121 67v-8q40 4 60 4h132q7 0 24 136q24 76 24 120v40
q0 8 -8 8q-83 -64 -144 -172q-62 -98 -88 -128z" />
    <glyph glyph-name="glyph161" unicode="&#x2206;" horiz-adv-x="393" 
d="M365 415q23 0 40 -60q-8 -70 -44 -236v-52q1 -40 8 -40q-4 -8 -4 -12h-28q-4 0 -4 -4q-11 12 -188 16l-20 -4v-4l8 -12v-8q-8 0 -28 -8q-36 0 -36 40q0 72 112 184q57 85 80 160l20 20h12l16 -16q46 36 56 36zM121 67v-8q40 4 60 4h132q7 0 24 136q24 76 24 120v40
q0 8 -8 8q-83 -64 -144 -172q-62 -98 -88 -128z" />
    <glyph glyph-name="guillemotleft" unicode="&#xab;" horiz-adv-x="389" 
d="M83 75q28 -14 28 -32q-28 -98 -116 -160q-6 -16 -12 -16q-8 0 -8 8v20q84 106 84 132l-8 4q-13 -8 -24 -8l-4 8q8 44 60 44zM197 103q28 -14 28 -32q-28 -98 -116 -160q-6 -16 -12 -16q-8 0 -8 8v20q84 106 84 132l-8 4q-13 -8 -24 -8l-4 8q8 44 60 44z" />
    <glyph glyph-name="guillemotright" unicode="&#xbb;" horiz-adv-x="389" 
d="M493 744q28 -14 28 -32q-28 -98 -116 -160q-6 -16 -12 -16q-8 0 -8 8v20q84 106 84 132l-8 4q-13 -8 -24 -8l-4 8q8 44 60 44zM607 772q28 -14 28 -32q-28 -98 -116 -160q-6 -16 -12 -16q-8 0 -8 8v20q84 106 84 132l-8 4q-13 -8 -24 -8l-4 8q8 44 60 44z" />
    <glyph glyph-name="ellipsis" unicode="&#x2026;" horiz-adv-x="564" 
d="M533 18q-2 -26 -19 -45q-17 -18 -47 -18q-20 0 -29 9q-4 7 -4 33q2 34 17 51q15 15 53 17q18 0 25 -11q4 -9 4 -36zM332 25q-2 -26 -19 -45q-17 -18 -47 -18q-20 0 -29 9q-4 7 -4 33q2 34 17 51q15 15 53 17q18 0 25 -11q4 -9 4 -36zM139 21q-2 -26 -19 -45
q-17 -18 -47 -18q-20 0 -29 9q-4 7 -4 33q2 34 17 51q15 15 53 17q18 0 25 -11q4 -9 4 -36z" />
    <glyph glyph-name="nonbreakingspace" unicode="&#xa0;" horiz-adv-x="475" 
 />
    <glyph glyph-name="afii10060" unicode="&#x40b;" horiz-adv-x="616" 
d="M673 136l-55.5 -51.5t-69.5 -52.5q-22 -14 -38.5 -23t-29.5 -13.5t-22.5 -6t-17.5 -1.5q-18 0 -29 6t-16.5 15.5t-7 20.5t-1.5 22q0 14 7 46t16 69.5t16 73t7 56.5q0 15 -0.5 29t-7.5 25t-23.5 18t-48.5 7q-7 0 -17 -1.5t-20.5 -4t-20 -5.5t-15.5 -6q-4 -12 -10 -34
l-11 -39q-10 -37 -19.5 -76l-18 -73.5t-16.5 -61t-15 -37.5q-11 -20 -25 -33t-31 -13q-12 0 -15 7t-3 16t5.5 27l13.5 42.5l18 54.5t19 63l18 67l13 48.5t8 25.5q-6 -2 -13 -6t-12 -4q-9 0 -10 2t-1 8t5.5 12t13 12t16.5 11t16 8q28 91 44 153l23 89q-78 -18 -123.5 -35.5
t-70.5 -32t-35 -23.5t-18 -9q-11 0 -15.5 1.5t-4.5 12.5q0 7 25.5 21.5t67.5 32.5t96 36.5t111 33.5t112 25t100 10q42 0 64.5 -9t22.5 -37q0 -12 -11 -23.5t-27 -21.5t-35 -18t-35 -14l-3 7q24 13 29.5 25t5.5 25q0 22 -78 22q-23 0 -35.5 -1t-22 -2.5t-20 -4t-29.5 -5.5
q-12 -51 -28.5 -111.5t-41.5 -130.5q20 4 40 9t53 5q55 0 86.5 -20.5t31.5 -71.5q0 -28 -7 -66t-15.5 -74l-15.5 -65t-7 -38q0 -4 0.5 -11.5t3.5 -14.5t9 -12t18 -5q19 0 39 9t41.5 24.5t44.5 36.5l48 44l10 -16v0z" />
    <glyph glyph-name="afii10108" unicode="&#x45b;" horiz-adv-x="491" 
d="M551 116q-53 -41 -99 -68t-82 -42.5t-60.5 -21.5t-34.5 -6q-14 0 -22 5t-12 12t-5 15.5t-1 15.5q0 16 6.5 46t21.5 78l37.5 120t14.5 68q0 5 -0.5 8.5t-11.5 3.5q-6 0 -21.5 -11t-35.5 -30t-43.5 -44t-45.5 -52q-28 -34 -47.5 -73l-33.5 -68q-14 -30 -24.5 -47.5
t-19 -26.5t-16 -12t-15.5 -3q-10 0 -11.5 8t-1.5 11q0 11 4 27t15 39q8 17 15 39t12 34l39 112l37 107l39 112q6 19 13 35q-18 -1 -34 -1t-26 -1q-8 -1 -14.5 -1h-11.5q-11 0 -14 2.5t-3 8.5q1 12 6.5 20t13.5 13q10 5 20 6.5t28 1.5h52l28 75.5t21 58.5q4 11 10 18.5
t18 15.5q11 8 21 11.5t18 5.5q10 2 18 3q9 0 9 -10q-8 -18 -15 -36l-13 -33.5t-13 -34.5l-13.5 -37.5t-14.5 -37.5h35l91 4q18 1 18 -7q-2 -9 -21 -19q-9 -5 -46 -15.5t-87 -10.5h-8l-55 -144.5l-55 -144.5h3q55 61 100.5 102t79 66t56 35t33.5 10q8 0 10.5 -5.5t1.5 -13.5
q-1 -13 -6 -34.5t-12.5 -47.5l-16.5 -55l-18 -56l-14 -43.5l-13 -42t-10 -36t-5 -25.5q0 -4 -0.5 -11t1.5 -14t7 -12t15 -5q36 0 89 27t119 73l6 -14v0z" />
    <glyph glyph-name="afii10061" unicode="&#x40c;" horiz-adv-x="610" 
d="M543 883q0 -4 -11.5 -19t-30 -35t-41 -42l-43.5 -41q-2 -2 -9 -6t-12 -4t-5.5 2t-0.5 6q0 3 6.5 15t16.5 28l20 33t18 29q14 23 32 35.5t48 12.5q9 0 10.5 -3t1.5 -11zM651 662q0 -16 -8.5 -32.5t-22.5 -31.5t-31.5 -28t-34.5 -21l-4 6q10 11 17 23.5t7 24.5q0 18 -20 18
q-18 0 -47.5 -15t-62.5 -47q-22 -21 -45.5 -46l-43.5 -46l-47 -50q3 -6 7 -15l6.5 -18t8.5 -23q7 -24 16 -50l17.5 -51l17 -48.5l15.5 -42.5q25 -67 53 -109t61 -42q28 0 51.5 12.5t58.5 41.5l7 -21q-51 -51 -94 -71.5t-85 -20.5q-15 0 -31.5 7t-34 24t-34.5 45.5t-32 71.5
q-12 33 -23.5 69l-22 67.5l-18.5 56.5t-12 36q-8 -14 -30.5 -43.5t-44.5 -85.5q-8 -19 -14.5 -38l-11.5 -34q-6 -18 -10 -35q-5 -15 -8 -27.5t-7 -19.5q-5 -12 -12 -20q-8 -11 -23.5 -21.5t-29.5 -10.5q-21 0 -21 18q0 5 5.5 25t15 51l22 71l26.5 85l26.5 86.5l27 88.5
l26.5 84.5l25 75.5l9 24.5l10 26.5t10 24t9 17q6 9 16.5 15.5t21.5 11t21.5 6.5t17.5 2q4 0 4 -13q0 -5 -3.5 -14t-8.5 -20l-10 -22.5l-9 -21.5q-10 -26 -25 -71.5l-30.5 -93.5l-28.5 -90.5l-19 -63.5l3 -1l40 54q2 10 6 25.5t21 32.5q7 7 16 10t14 3l45.5 50.5l39.5 42.5
l37 38.5l38 38.5t42.5 36t45 27.5t43 17.5t37.5 6q4 0 10 -0.5t12 -2.5t10 -6.5t4 -12.5z" />
    <glyph glyph-name="afii10109" unicode="&#x45c;" horiz-adv-x="409" 
d="M444 665q0 -4 -11.5 -19t-30 -35t-41 -42l-43.5 -41q-2 -2 -9 -6t-12 -4t-5.5 2t-0.5 6q0 3 6.5 15t16.5 28l20 33t18 29q14 23 32 35.5t48 12.5q9 0 10.5 -3t1.5 -11zM541 79q-27 -23 -57 -44t-60.5 -38t-61 -27t-57.5 -10q-19 0 -36.5 4.5t-33 17t-28.5 35.5t-22 60
q-14 59 -19.5 89.5t-10.5 48.5l-15.5 -21.5t-15.5 -29.5q-7 -15 -13 -30.5l-11 -27.5q-6 -14 -11 -27q-9 -23 -14.5 -34.5t-12.5 -18.5q-8 -8 -25.5 -16.5t-29.5 -8.5t-16.5 3t-4.5 11q0 5 5 19l17 46q6 15 10.5 28l9 26l9.5 27l11 31l42 117t26 72l12 32.5t13 21.5
q6 7 15.5 12.5t20 9t20.5 5.5t17 2t7 -11q0 -7 -7 -25t-14 -34l-31 -78.5t-25 -68.5l5 -1l33 35.5l31.5 33t36.5 34l47 39.5q20 16 42 29t44 22t42.5 13.5t36.5 4.5q4 0 10 -0.5t11.5 -3t9.5 -7.5t4 -14q0 -17 -22.5 -46t-79.5 -64l-6 9q19 14 26 33t7 29q0 14 -20 14
q-17 0 -46 -11.5t-62 -37.5q-22 -17 -38.5 -32t-27.5 -27q-13 -14 -23 -26h6q2 0 5 0.5t5 0.5q5 0 10.5 -3.5t7.5 -15.5l11.5 -64.5t14.5 -68.5q11 -50 33 -79t60 -29q27 0 52 8.5t47.5 21.5t41.5 27t33 26l9 -18v0z" />
    <glyph glyph-name="afii10102" unicode="&#x455;" horiz-adv-x="378" 
d="M404 423q-9 -24 -23.5 -35t-38.5 -19q-3 11 -11.5 18.5t-20.5 12t-25 6.5t-23 2q-15 0 -32.5 -4t-32.5 -13t-24.5 -23t-9.5 -33q0 -23 18 -38q13 -11 30 -22l34 -22l32 -21.5t26 -20.5q15 -14 20 -27.5t5 -30.5q0 -19 -11.5 -42.5t-32.5 -46t-49.5 -42t-61.5 -30.5
q-20 -7 -38.5 -9.5t-51.5 -2.5q-18 0 -35.5 4.5t-32.5 12.5t-25 19t-12 24q2 11 10.5 21.5t21.5 18.5q6 4 19 11t21 7q3 -15 9 -28t16 -23.5t25.5 -16.5t37.5 -6q25 0 46.5 6.5t37.5 18.5t25.5 28.5t9.5 35.5q0 20 -7.5 33.5t-22.5 24.5q-29 21 -56 37.5t-49 35.5
q-14 12 -21.5 24.5t-7.5 35.5q0 12 6.5 29.5t22.5 35.5t44 35.5t72 30.5q20 6 42.5 8.5t42.5 2.5q19 0 34 -3.5t26 -8.5q12 -5 21 -11z" />
    <glyph glyph-name="endash" unicode="&#x2013;" horiz-adv-x="721" 
d="M290 287h325q50 -8 50 -50v-25q-22 0 -200 25q-341 -25 -425 -25v50z" />
    <glyph glyph-name="emdash" unicode="&#x2014;" horiz-adv-x="721" 
d="M290 287h325q50 -8 50 -50v-25q-22 0 -200 25q-341 -25 -425 -25v50z" />
    <glyph glyph-name="quotedblleft" unicode="&#x201c;" horiz-adv-x="340" 
d="M213 716q28 -14 28 -32q-28 -98 -116 -160q-6 -16 -12 -16q-8 0 -8 8v20q84 106 84 132l-8 4q-13 -8 -24 -8l-4 8q8 44 60 44zM327 744q28 -14 28 -32q-28 -98 -116 -160q-6 -16 -12 -16q-8 0 -8 8v20q84 106 84 132l-8 4q-13 -8 -24 -8l-4 8q8 44 60 44z" />
    <glyph glyph-name="quotedblright" unicode="&#x201d;" horiz-adv-x="340" 
d="M599 680q28 -14 28 -32q-28 -98 -116 -160q-6 -16 -12 -16q-8 0 -8 8v20q84 106 84 132l-8 4q-13 -8 -24 -8l-4 8q8 44 60 44zM713 708q28 -14 28 -32q-28 -98 -116 -160q-6 -16 -12 -16q-8 0 -8 8v20q84 106 84 132l-8 4q-13 -8 -24 -8l-4 8q8 44 60 44z" />
    <glyph glyph-name="quoteleft" unicode="&#x2018;" horiz-adv-x="233" 
d="M288 746q28 0 28 -34q-70 -77 -152 -186q-9 0 -23 -11h-5q-8 0 -23 51q153 180 164 180h11z" />
    <glyph glyph-name="quoteright" unicode="&#x2019;" horiz-adv-x="233" 
d="M329 718q10 -2 10 -10v-5q0 -24 -41 -51q-35 -42 -45 -107l-10 -5h-11q-20 8 -20 36q0 68 92 132q0 9 25 10z" />
    <glyph glyph-name="divide" unicode="&#xf7;" horiz-adv-x="549" 
d="M274 222q18 0 30.5 -12.5t12.5 -30.5q0 -17 -12.5 -30t-30.5 -13q-17 0 -30 13t-13 30q0 18 12.5 30.5t30.5 12.5zM538 312h-527v41h527v-41zM274 525q18 0 30.5 -12.5t12.5 -30.5q0 -17 -12.5 -29.5t-30.5 -12.5t-30.5 12.5t-12.5 29.5q0 18 12.5 30.5t30.5 12.5z" />
    <glyph glyph-name="quotedblbase" unicode="&#x201e;" horiz-adv-x="340" 
d="M67 100q28 -14 28 -32q-28 -98 -116 -160q-6 -16 -12 -16q-8 0 -8 8v20q84 106 84 132l-8 4q-13 -8 -24 -8l-4 8q8 44 60 44zM181 128q28 -14 28 -32q-28 -98 -116 -160q-6 -16 -12 -16q-8 0 -8 8v20q84 106 84 132l-8 4q-13 -8 -24 -8l-4 8q8 44 60 44z" />
    <glyph glyph-name="afii10062" unicode="&#x40e;" horiz-adv-x="624" 
d="M463 753q0 4 2.5 10.5l4.5 11.5q6 14 16.5 24.5t27.5 10.5q6 0 10.5 -3t14 -6.5t26 -6.5t46.5 -3q23 0 53.5 16.5t53.5 43.5q12 13 17 33q4 18 25 18q12 0 11 -16q0 -8 -11 -26t-33 -38t-42.5 -35t-40.5 -25q-35 -17 -67.5 -25.5t-55.5 -8.5q-24 -1 -41.5 6.5t-16.5 18.5
zM693 683q0 -17 -7.5 -35.5t-18 -38t-23 -38t-21.5 -33.5l-53.5 -155t-56.5 -139q-59 -125 -149 -196t-198 -71q-42 0 -64.5 8t-21.5 23q0 2 3.5 11t15.5 9q9 0 14 -5l10.5 -10.5t13 -10.5t21.5 -5q42 0 75.5 9.5t62.5 30.5t56 55t57 84q15 25 28 53.5t27 62.5l29.5 73.5
l34.5 85.5l-3 1q-11 -14 -33.5 -34.5t-51 -44l-60 -47.5l-59.5 -44q-7 -5 -18.5 -11t-24.5 -11t-26.5 -8.5t-25.5 -3.5q-13 0 -17 9.5t-4 29.5q0 9 7 30t17 47.5t21.5 54l20.5 49.5q11 25 20.5 50.5t16 48t10.5 40t4 28.5t-4 19.5t-22 8.5q-16 0 -35 -7t-35.5 -16t-29.5 -18
t-17 -12l-40.5 -34.5t-41.5 -47.5q-11 -15 -14.5 -32.5l-6.5 -32t-9 -24t-20 -9.5q-9 0 -15.5 3.5t-6.5 12.5q0 24 18 53t43.5 57t53.5 51.5t49 36.5q51 32 93.5 52t88.5 20q12 0 18 -5.5t9 -13.5t3.5 -18.5t0.5 -20.5q0 -12 -5 -32.5t-12.5 -44l-16 -48l-16.5 -46.5
l-16 -42.5l-17 -47.5t-13.5 -41t-5.5 -22q0 -11 13 -11q8 0 13.5 2.5t15.5 7.5q22 9 51.5 32.5t60 52.5t57 61t42.5 58q9 28 18 50.5t18 41.5q17 35 31 47q26 22 60 23q13 0 13 -16z" />
    <glyph glyph-name="afii10110" unicode="&#x45e;" horiz-adv-x="489" 
d="M282 379q9 0 14 -24q-7 -2 -7 -7q4 -7 4 -11q-7 -3 -14 -3q0 -4 3 -4q-38 -117 -38 -171q6 -4 10 -4q48 30 67 81q0 8 52 73q-5 0 -10 11v7q45 52 56 52h24q21 -11 21 -38l-35 -42q-24 -42 -73 -88q-32 -34 -56 -171q7 -2 7 -7q-13 0 -74 -357q-36 -81 -63 -81h-14
q-61 26 -91 81q-36 48 -49 129q0 47 91 130q71 61 144 87q0 -3 3 -3q13 0 28 94q4 0 4 4l-4 7l7 14h-7q-20 -18 -35 -18h-10q-21 8 -21 49v11q0 41 28 105q-4 6 -4 10q4 0 14 28l14 4v3q-14 0 -14 7v7q10 23 28 35zM380 313l4 -18q-7 0 -11 -21q60 53 60 74h-4zM72 -153
q4 0 4 -3q-18 0 -18 -49q0 -4 4 -28q-4 0 -4 -4q11 0 11 -7v-14l-4 -7q18 0 18 -38v-4q8 0 42 -45q8 0 17 -18q4 0 4 -7h28q18 23 28 60l-4 7q4 10 7 10l-3 7q7 18 10 18q-3 6 -3 10q17 89 28 119q0 4 -4 4q0 6 7 28l-3 7q21 97 21 105q-63 -23 -147 -105q-23 -15 -39 -46z
" />
    <glyph glyph-name="afii10145" unicode="&#x40f;" horiz-adv-x="743" 
d="M378 48q-12 -26 -17.5 -51.5t-10.5 -64.5l-4.5 -39t-7 -45t-11 -45t-15.5 -39q-18 -35 -38.5 -58t-52.5 -47l-5 8q19 23 29 48t16 52.5t9.5 57.5t8.5 63q5 32 25.5 74t65.5 88l8 -2v0zM778 104q-93 -77 -154 -107.5t-88 -30.5q-16 0 -25.5 5.5t-14 13.5t-5.5 18.5
t-1 20.5q0 25 10.5 70.5t27 104t37.5 126l43 135.5l-23.5 -29l-23 -27.5l-27.5 -32.5l-36.5 -43l-52 -60l-72.5 -83l-47.5 -53.5l-42 -46l-41 -41l-43.5 -40.5q-8 -8 -30 -17q-18 -8 -32 -9q-14 0 -21 14q-4 13 -3 35q2 21 37 113l47 118l33 82.5l23.5 59l18 47t17 48
l20.5 62.5q5 15 7.5 23.5t3.5 14t1 9.5v9q0 11 -4 19.5t-22 8.5q-16 0 -35 -7t-35.5 -16t-29.5 -18t-17 -12l-40.5 -34.5t-41.5 -47.5q-11 -15 -14.5 -32.5l-6.5 -32t-9 -24t-20 -9.5q-9 0 -15.5 3.5t-6.5 12.5q0 24 18 53t43.5 57t53.5 51.5t49 36.5q51 32 93.5 52t88.5 20
q12 0 18 -5.5t9 -13.5t3.5 -18.5t0.5 -20.5q0 -19 -22.5 -97.5t-82.5 -228.5q-14 -34 -26 -67.5l-22 -61.5t-16 -47.5t-6 -26.5q-1 -10 6 -11q12 0 44.5 27.5t83.5 84.5l34.5 40.5l57 67.5l70 85.5t72.5 94.5l28 38l16.5 23.5t11.5 17.5l13 21q15 23 27.5 32.5t26.5 17.5
q10 5 24 5.5t19 0.5q8 0 8 -9q-1 -5 -5 -12t-12 -25q-14 -29 -26 -57l-24 -58t-24.5 -64.5l-28.5 -76.5q-10 -27 -23 -68.5t-25 -85t-20 -83t-8 -63.5q0 -4 0.5 -9.5t2.5 -10t7.5 -7.5t15.5 -3q16 0 37.5 9t44.5 23.5t45.5 32.5l42.5 35l10 -16v0z" />
    <glyph glyph-name="afii10193" unicode="&#x45f;" horiz-adv-x="525" 
d="M217 48q-12 -26 -17.5 -51.5t-10.5 -64.5q-4 -35 -12 -74t-26 -74t-38.5 -58t-52.5 -47l-5 8q19 23 29 45t16 45.5t9.5 50.5t8.5 60q5 32 25.5 74t65.5 88l8 -2v0zM549 114q-17 -14 -49.5 -34l-74.5 -46q-54 -32 -89 -45t-52 -13q-13 0 -16 7t-3 15q0 10 4 28.5t10.5 41
l14 47.5l14.5 49q5 18 9.5 32.5t7.5 25.5q4 12 7 22l-75 -74l-77 -72t-90 -77q-20 -16 -34 -21.5t-20 -5.5q-20 0 -20 28q0 7 1 15t4.5 20t9.5 29.5t17 44.5l54 137q15 38 25 66.5t18 45.5t19.5 29t24 19.5t24 11t18.5 3.5t7 -11q-1 -8 -3.5 -23t-13.5 -41l-61 -157
q-3 -9 -9 -23.5l-12 -29.5t-10 -26.5t-4 -14.5q0 -4 0.5 -8t7.5 -4q11 0 32 15t47 39l41 37.5t34 33t31.5 35t33.5 44.5q6 11 11.5 25.5l11.5 30t14 30t18 25.5q18 18 34.5 24t27.5 6q5 0 10.5 -3.5t5.5 -14.5q0 -14 -10.5 -39t-39.5 -65q-9 -20 -18.5 -50l-18.5 -59
q-3 -11 -11 -36t-15.5 -51l-13.5 -47.5t-6 -25.5q0 -17 11 -17q19 0 40 7.5t44 19.5t46.5 27l46.5 30l9 -12v0z" />
    <glyph glyph-name="afii61352" unicode="&#x2116;" horiz-adv-x="406" 
d="M648 677h12q11 -2 11 -12q-11 -33 -121 -179q-112 -228 -214 -382q-37 -88 -58 -104q-35 0 -35 81l6 69l-6 12q6 16 29 174h-6l6 11v6q0 36 6 87q-6 52 -18 52q-47 -30 -173 -342q-7 0 -58 -104h-23l-6 29q61 203 220 475l46 52q38 0 52 -99q0 -111 -23 -347h23
q197 353 278 475q44 46 52 46z" />
    <glyph glyph-name="afii10023" unicode="&#x401;" horiz-adv-x="542" 
d="M624 831q-1 -23 -18 -43q-14 -16 -45 -17q-20 0 -28 7q-5 12 -3 33q0 18 4 29q3 10 12 19q14 14 49 16q18 0 24 -11q5 -9 5 -33zM481 831q-1 -26 -18 -43q-13 -16 -45 -17q-19 0 -27 7q-5 13 -4 33q2 34 17 48q14 14 49 16q18 0 24 -10q6 -12 4 -34zM614 670
q0 -16 -6.5 -29t-16.5 -22.5t-22 -16t-23 -9.5l-6 3q11 12 12.5 23.5t1.5 19.5q0 20 -21.5 33.5t-64.5 13.5q-45 0 -79.5 -14t-58 -36t-35.5 -49.5t-12 -54.5q0 -41 21.5 -64.5t47 -36.5t47 -19.5t21.5 -15.5q0 -12 -11.5 -22t-28.5 -13q-42 0 -85.5 -13t-78 -38.5
t-56.5 -64t-22 -89.5q0 -30 8 -56.5t25.5 -46t45 -30.5t66.5 -11q52 0 100.5 15t88.5 35t69 40.5t43 31.5l11 -14q-16 -14 -52.5 -38t-85.5 -48t-107.5 -41.5t-118.5 -17.5q-91 0 -137 38t-46 104q0 39 16.5 73.5t42 64t56.5 52.5t60 39.5t52.5 25.5t33.5 10q-11 5 -27.5 14
t-31.5 23t-26 33.5t-11 45.5q0 46 27 87t71.5 71.5t101.5 48t117 17.5q15 0 30 -3t27 -9t19.5 -16t7.5 -24z" />
    <glyph glyph-name="afii10071" unicode="&#x451;" horiz-adv-x="162" 
d="M452 472q6 0 16 -20v-12q0 -5 -60 -60l-8 4q-111 -32 -152 -32q-48 0 -48 52q18 48 60 48h8q8 -1 8 -8v-8q-36 -22 -36 -40q0 -7 20 -12q124 12 124 44q0 37 56 44h12zM280 308q48 0 48 -36q0 -92 -224 -184l-4 -8v-4q16 0 16 -8q-11 -12 -56 -20q-16 8 -24 8v-8
q0 -12 44 -16l108 28v-4q0 -20 -128 -56q-60 0 -60 52v4q0 82 160 212q82 40 120 40zM52 104h12q25 14 136 60q100 58 100 100q0 6 -12 12q-127 0 -236 -168v-4z" />
    <glyph glyph-name="afii10097" unicode="&#x44f;" horiz-adv-x="292" 
d="M204 284q68 0 68 -52v-16q0 -60 -32 -100q-20 -51 -20 -64v-8q0 -8 12 -8q28 0 80 16l4 -8q-28 -20 -96 -40q-48 0 -48 68q-132 -72 -152 -72q-20 6 -20 28q0 32 104 80h12v-4q-68 -38 -68 -52h4q21 0 92 52l-8 4h-20v4l4 8q-32 16 -32 48q0 78 92 108q13 8 24 8z
M124 172v-4q0 -6 16 -16q76 13 76 24l-4 20q0 22 28 44l-12 8h-12q-82 0 -92 -76z" />
    <glyph glyph-name="afii10065" unicode="&#x430;" horiz-adv-x="276" 
d="M284 304q24 -9 24 -40q0 -61 -60 -140q-48 -20 -48 -60v-4h16q36 0 92 20v-4q-52 -52 -124 -52q-5 0 -28 32h-4q-62 -48 -104 -56h-16q-32 0 -32 40q7 71 196 228q47 36 88 36zM36 40q1 -8 8 -8q144 56 144 116l92 104v12h-24q-87 -26 -220 -208v-16z" />
    <glyph glyph-name="afii10066" unicode="&#x431;" horiz-adv-x="251" 
d="M308 504h204q40 0 40 -32q-38 -44 -68 -44h-8v16q0 3 20 20v8h-208q-4 0 -4 -4l-8 4q-63 -4 -92 -4q-4 0 -12 -4q-8 4 -12 4q-24 -4 -24 -12q29 -32 192 -92q56 -39 56 -72q0 -99 -152 -208q-162 -84 -196 -84q-36 0 -36 56q0 97 220 216q37 11 68 16q40 0 40 -60h4
q13 0 24 56q0 52 -148 104q-102 55 -116 80q0 36 216 36zM36 52v-4q1 -8 8 -8h4q31 0 172 72v4q-20 11 -20 16v8q0 7 64 88l4 8v4q0 8 -8 8h-4q-55 0 -188 -124q-32 -47 -32 -72z" />
    <glyph glyph-name="afii10067" unicode="&#x432;" horiz-adv-x="264" 
d="M552 528h20q40 0 40 -44q0 -107 -292 -232v-12q30 -31 32 -68q-12 -53 -60 -84q-85 -48 -264 -88q-28 7 -28 16v4q0 25 112 136v4h-4q-18 -20 -36 -20h-8q0 8 -4 8q20 39 140 88q152 180 184 208q59 61 168 84zM284 280v-8h8q292 117 292 208v4q0 8 -8 8h-32
q-56 -6 -136 -64q-100 -108 -124 -148zM184 128h-16q0 13 -4 20q-19 0 -100 -96v-4q1 -8 8 -8q236 60 236 104q6 0 12 12v32q-13 24 -44 24h-12q-64 0 -80 -84z" />
    <glyph glyph-name="afii10068" unicode="&#x433;" horiz-adv-x="381" 
d="M415 304l6 -12v-6q-123 -109 -187 -210v-29q2 -12 11 -12q195 53 205 53q-154 -88 -228 -88q-35 4 -35 47q0 29 82 134v18h-24q-25 0 -216 -117h-17q-12 0 -12 12v5q28 50 199 111q200 94 216 94z" />
    <glyph glyph-name="afii10069" unicode="&#x434;" horiz-adv-x="275" 
d="M245 350q80 0 92 -100q8 -28 8 -32q-188 -358 -216 -396q-51 -130 -172 -236q-50 -24 -68 -24h-40q-88 23 -88 76q0 43 92 96h4v-8q-68 -58 -68 -88q0 -33 72 -48q116 0 224 208q92 156 172 332h-8q-109 -84 -164 -84q-26 0 -32 40q10 96 128 232q22 18 64 32zM93 86
l8 -4h4q49 0 164 104q0 23 32 56q4 8 4 12q0 60 -52 60h-4q-82 0 -156 -208v-20z" />
    <glyph glyph-name="afii10070" unicode="&#x435;" horiz-adv-x="312" 
d="M312 268q60 0 60 -24q0 -42 -48 -56q-39 -24 -208 -76q-40 -45 -56 -68q0 -6 12 -12q13 0 168 8v4q4 0 4 -4q48 4 48 8l8 -4l48 4v-4q0 -10 -192 -32l-80 -12q-52 5 -52 32l16 56l-28 4h-8l-4 16q0 22 96 36q111 108 216 124zM180 172v-4h4q115 20 152 56v12h-24
q-50 0 -132 -64z" />
    <glyph glyph-name="afii10072" unicode="&#x436;" horiz-adv-x="491" 
d="M250 236q104 -28 104 -56q4 -20 8 -20l96 68h8q6 0 12 -12v-24q-49 -22 -124 -92v-12h4q76 7 168 64q87 76 112 76q6 0 12 -16q0 -17 -72 -60q-112 -90 -112 -120q0 -19 -32 -32q-20 4 -28 20l24 48q-4 0 -4 4q-83 -24 -108 -24q-28 6 -28 28h-8q-95 -76 -168 -76
q-6 0 -12 12v12q0 16 172 88q48 47 48 68q-9 0 -24 12h-36q-24 0 -92 -56q-21 -16 -36 -16h-24q-16 7 -16 28q0 56 156 84v4z" />
    <glyph glyph-name="afii10073" unicode="&#x437;" horiz-adv-x="264" 
d="M385 542q28 -9 28 -48q0 -89 -192 -372l-4 -20h4q25 0 112 24v-8q-168 -50 -168 -88q-230 -367 -308 -460l-28 -8h-8q-44 39 -44 108q0 206 204 340q187 73 192 96q199 293 204 376v16q0 8 -8 8q-33 -11 -76 -40h-12q33 53 100 76h4zM-191 -286v-76q6 -44 20 -44
q65 58 148 204l152 236v8h-4q-205 -74 -244 -160q-50 -54 -72 -168z" />
    <glyph glyph-name="afii10074" unicode="&#x438;" horiz-adv-x="324" 
d="M365 276q10 -24 15 -24q0 -15 -114 -134q-29 -40 -29 -74q1 -9 10 -9h14q72 9 74 9q0 -19 -103 -44q-32 0 -40 30q5 26 5 44h-5q-15 0 -143 -54q-7 -5 -29 -5q-20 5 -20 29q0 82 158 227h15q10 -16 10 -29q-134 -106 -134 -178q10 -5 15 -5q197 69 197 124q42 68 104 93z
" />
    <glyph glyph-name="afii10075" unicode="&#x439;" horiz-adv-x="320" 
d="M176 400h4q53 -48 124 -48h40q4 0 4 4q4 0 4 -4q73 8 108 8v-8q-68 -20 -192 -32q-104 31 -104 64q6 16 12 16zM140 268q8 -13 8 -24q-72 -148 -72 -180v-16q0 -8 12 -8q99 15 204 96q26 54 96 104q16 -6 16 -12v-4q0 -19 -72 -92q-21 -39 -32 -80q4 -8 4 -12h8l12 8h8
v-12q-27 -36 -48 -36q-28 0 -28 28q8 44 8 48h-8q-102 -56 -176 -76q-44 5 -44 40q49 228 104 228z" />
    <glyph glyph-name="afii10076" unicode="&#x43a;" horiz-adv-x="402" 
d="M360 284q100 -6 100 -44q0 -66 -196 -128q-36 0 -36 28q12 42 12 44v4h-4q-46 -44 -68 -116v-32q1 -8 8 -8l240 24l4 -8v-4h-12q-124 -20 -232 -44q-48 0 -48 36v24l4 28h-12q-79 -80 -108 -80q-6 0 -12 12v8q131 108 248 240h12q12 -4 12 -8q47 24 88 24zM376 248
q0 -24 -20 -24q-38 0 -84 -64v-8h8q107 25 152 76q-3 11 -20 20h-36z" />
    <glyph glyph-name="afii10077" unicode="&#x43b;" horiz-adv-x="256" 
d="M340 268h4q6 0 12 -16q0 -14 -80 -116q-6 -2 -52 -80v-4q1 -8 8 -8l28 12q8 -4 12 -4v-4l-52 -32h-8q-21 0 -24 12v20q26 67 112 180v4h-4q-16 0 -176 -140q-12 0 -100 -92q-6 0 -20 16q46 78 184 180l84 64l24 -4q36 12 48 12z" />
    <glyph glyph-name="afii10078" unicode="&#x43c;" horiz-adv-x="446" 
d="M344 272q0 -10 32 -20l8 -20q-25 -39 -108 -92q-36 -43 -36 -68l8 -4q136 23 136 56q150 138 192 148q6 0 16 -16v-4q0 -25 -112 -104q0 -6 -76 -68v-12h20l24 4q8 -4 12 -4v-8q0 -12 -56 -24q-33 0 -52 28q-93 -28 -108 -28q-52 0 -52 36h-8q-63 -61 -96 -72
q-37 4 -88 56v16q0 14 168 36q14 10 84 104q47 60 92 60zM64 56q4 -16 24 -16h4q28 17 28 24v8q-38 0 -56 -16z" />
    <glyph glyph-name="afii10079" unicode="&#x43d;" horiz-adv-x="296" 
d="M427 305h8q5 0 11 -11v-15l-202 -214q-8 -16 -8 -23q9 -8 27 -8v-8q-5 -15 -35 -15q-26 0 -26 35v3q0 4 3 4q-3 8 -3 12h-4q-7 0 -35 -12q-45 0 -45 35h-4q-10 -1 -107 -115h-23l-4 19q71 83 118 145q126 136 126 164h20l7 -26q-13 -13 -30 -61q-65 -80 -65 -107v-16
l19 -3q57 0 195 164z" />
    <glyph glyph-name="afii10080" unicode="&#x43e;" horiz-adv-x="207" 
d="M236 284h12q45 0 64 -48q-56 -139 -184 -200q-38 -12 -84 -36q-44 0 -44 40q0 25 36 96h-4l-16 -4l-4 8q157 140 204 140q7 4 20 4zM96 116h-4l-20 4q-18 -22 -36 -60v-12q0 -6 16 -12q151 46 204 144q24 32 24 48q0 19 -24 28q-71 -9 -116 -40q-44 -63 -44 -100z" />
    <glyph glyph-name="afii10081" unicode="&#x43f;" horiz-adv-x="239" 
d="M224 248h16q9 0 12 -20q-4 -21 -4 -24q4 -8 4 -12q-68 -106 -76 -140v-8q0 -6 16 -16h20q28 0 60 12v-4q0 -11 -88 -36q-31 0 -48 48q6 28 40 100h-8q-133 -132 -152 -132q-16 4 -16 24q24 58 156 140q57 68 68 68z" />
    <glyph glyph-name="afii10082" unicode="&#x440;" horiz-adv-x="284" 
d="M408 610q16 -6 16 -28q-74 -197 -136 -276q-20 -30 -20 -40h4l24 4q9 -20 12 -20q-80 -142 -84 -168q4 0 4 -4l144 80h8q-130 -115 -176 -124q-24 8 -24 44l60 128h-4q-16 0 -28 -24q-32 -22 -96 -124q-43 -46 -200 -260l-108 -124l-84 -92q-20 6 -20 28v8q17 69 296 384
q179 180 224 256q144 208 144 260v4q-119 -130 -156 -208q-13 -8 -20 -8v4q0 10 188 272q0 23 32 28zM-104 -162h4q6 0 20 24v4q-17 -10 -24 -28zM-224 -306v-4q63 52 100 124h-4q-69 -81 -96 -120z" />
    <glyph glyph-name="afii10083" unicode="&#x441;" horiz-adv-x="203" 
d="M260 260q28 -7 28 -24q0 -36 -88 -76h-8q-15 0 -32 20h-8q-112 -91 -112 -132v-8q1 -8 8 -8h4q40 0 192 36v-4q-17 -18 -180 -64h-4q-60 0 -60 36q0 83 188 204q63 20 72 20z" />
    <glyph glyph-name="afii10084" unicode="&#x442;" horiz-adv-x="324" 
d="M277 276h132l28 -4v-4q0 -8 -12 -8l-220 -20q0 -4 -4 -4q0 -7 52 -40h8q26 20 40 20h20q0 -8 4 -8q0 -13 -48 -52q-18 -47 -56 -88l-8 4h-8q0 -11 -84 -64q0 -11 -40 -16q-6 0 -12 16q0 30 160 164q0 27 -140 48l-4 8q0 38 104 44q46 4 88 4z" />
    <glyph glyph-name="afii10085" unicode="&#x443;" horiz-adv-x="227" 
d="M327 230h4q22 0 24 -20q0 -5 -96 -80q-151 -165 -276 -352q-150 -200 -228 -200q-96 35 -96 88q0 51 96 108q119 64 148 64v-4q-3 -9 -120 -72q-92 -55 -92 -108q11 -28 40 -40h48q86 46 176 184q153 204 168 240q-72 -36 -88 -36q-32 0 -32 28q0 42 136 168h12
q6 0 16 -16v-8q0 -29 -56 -52q-51 -59 -52 -64v-12h4q117 53 228 160z" />
    <glyph glyph-name="afii10086" unicode="&#x444;" horiz-adv-x="440" 
d="M357 282h20q176 0 176 -60q-21 -53 -180 -156q-77 -49 -192 -72l-172 -168q-38 -38 -156 -176l-20 -12q-8 0 -8 8v8q0 31 300 336v8q-124 14 -124 68q0 62 144 148q135 68 212 68zM385 246v-24q0 -17 -92 -104q-54 -62 -60 -72v-4h8q88 6 264 160v8q0 31 -120 36zM141 82
l-8 20q0 16 32 76h-4q-120 -56 -120 -112q17 -36 72 -36h48q172 164 184 208v4q-128 0 -204 -160z" />
    <glyph glyph-name="afii10087" unicode="&#x445;" horiz-adv-x="353" 
d="M228 284q11 0 20 -20l-12 -40v-8h8q73 60 100 60q18 -8 20 -16v-8q-3 -9 -100 -68q-68 -48 -68 -84q0 -64 44 -64q42 0 148 28h4q-70 -40 -168 -60q-64 18 -64 64q0 20 -8 20h-4q-48 -36 -132 -88h-4q-3 0 -12 12q1 9 96 112q49 80 132 160zM108 116v-4q34 0 72 72v16h-8
q-20 -16 -64 -84z" />
    <glyph glyph-name="afii10088" unicode="&#x446;" horiz-adv-x="324" 
d="M179 246q20 -7 20 -20q-127 -129 -144 -156q-12 -20 -12 -32l8 -4q78 0 224 72q0 25 112 124h8q24 0 24 -24q0 -47 -116 -124q-12 -27 -12 -44v-8q0 -20 8 -48q-4 -28 -4 -48h4q0 -65 -80 -76q-16 4 -16 24q0 17 56 36q0 12 4 28q-12 97 -12 112h-4q-156 -64 -204 -64
t-48 44q-25 0 -56 -36h-8q0 23 80 76q63 92 168 168z" />
    <glyph glyph-name="afii10089" unicode="&#x447;" horiz-adv-x="292" 
d="M161 248q32 -32 32 -44h12q39 0 128 36h4q16 -8 16 -24q-1 -13 -80 -44q-128 -92 -128 -128q13 -8 24 -8q4 0 12 4q4 0 12 -4l136 16v-4q-23 -20 -160 -40q-16 -4 -28 -4q-40 16 -40 48q0 27 84 100q0 5 -40 16l-8 12q-35 -20 -52 -36h-8q-14 0 -24 12q0 25 88 84
q0 7 20 8z" />
    <glyph glyph-name="afii10090" unicode="&#x448;" 
d="M136 228h4l20 -4v-12q0 -23 -84 -96q-32 -49 -32 -56q8 -4 12 -4q127 40 220 116h8q12 -4 12 -24v-4l-36 -44v-8h4q53 0 152 52q0 7 20 12q11 -1 20 -20q-57 -64 -76 -96l8 -4q31 20 64 20v-8q-70 -48 -84 -48h-12q-28 0 -28 32q6 18 16 32v4q0 8 -8 8h-4
q-79 -26 -84 -32q-44 0 -44 40h-8q-15 -14 -60 -28q0 -9 -100 -40q-36 0 -36 36q0 35 136 176z" />
    <glyph glyph-name="afii10091" unicode="&#x449;" horiz-adv-x="503" 
d="M108 234h8q6 0 16 -20l-72 -108q-16 -32 -16 -44v-16h12q66 18 188 104q0 35 60 72q24 -8 24 -16v-4q0 -14 -64 -80q0 -7 -24 -72v-4h4q48 0 164 52q72 120 124 120q16 -17 16 -32q0 -42 -92 -96q-4 -8 -4 -12q52 -29 52 -92q-40 -108 -96 -108l-8 20q0 7 60 68l8 20
q0 45 -48 68q0 6 -12 12q-6 0 -168 -56h-24q-24 0 -24 24l12 44v8h-4q-141 -84 -176 -84q-20 0 -24 40q13 78 108 192z" />
    <glyph glyph-name="afii10092" unicode="&#x44a;" horiz-adv-x="337" 
d="M418 284q17 -5 24 -20v-8q-8 -25 -140 -76v-4q1 -8 8 -8t32 8q108 -9 108 -28v-8q0 -58 -296 -144q-30 7 -36 24q0 34 128 172v4q0 11 -28 28h-8q-63 -52 -80 -52h-8q-4 0 -16 16q7 32 96 80h8q10 -8 40 -20q0 -12 20 -12h12q124 36 136 48zM218 72l-28 4
q-20 -27 -20 -40q180 45 240 84v12l-20 4h-24q-22 0 -56 4q-92 -25 -92 -68z" />
    <glyph glyph-name="afii10093" unicode="&#x44b;" horiz-adv-x="365" 
d="M252 296h12l44 -40l-12 -12l-20 4h-8q-52 -16 -88 -72q48 0 88 -32q112 0 232 120q24 16 36 16q7 0 12 -20q-41 -52 -208 -164q-7 0 -60 -64q10 -8 16 -8v-4l-20 -20q-44 3 -44 20q0 18 60 84v12q-18 0 -72 -52q-135 -60 -188 -60q-24 0 -32 20q0 45 148 176
q67 71 104 96zM52 44v-4q156 37 156 60v8q-44 7 -44 32q4 7 4 16v8h-4q-112 -94 -112 -120z" />
    <glyph glyph-name="afii10094" unicode="&#x44c;" horiz-adv-x="170" 
d="M216 268q16 -6 16 -12q0 -22 -52 -48q-16 -15 -36 -44q0 -8 12 -8l20 4q60 -14 60 -36v-4q0 -68 -196 -120h-4q-36 0 -36 32q0 55 132 168q44 54 84 68zM60 44v-4h4q136 34 136 76l-8 4h-24q-104 -7 -104 -60q-4 -7 -4 -16zM40 44v-8h12q0 8 -8 8h-4z" />
    <glyph glyph-name="afii10095" unicode="&#x44d;" horiz-adv-x="264" 
d="M185 276l20 -4h24q14 0 36 4q104 -25 104 -76v-4q0 -79 -152 -176q-64 -24 -88 -24q-64 14 -64 56v16q1 8 8 8h8v-24q8 -16 24 -24h28q65 0 124 56v8l-56 4l-24 -4l-24 4q-40 -6 -40 -12q-18 8 -20 16v8q0 13 68 16q55 0 120 -8q30 0 60 84q0 32 -140 44q-76 -13 -76 -24
l16 -20v-4q0 -8 -8 -8h-8q-33 0 -48 40q0 35 108 48z" />
    <glyph glyph-name="afii10096" unicode="&#x44e;" horiz-adv-x="479" 
d="M476 276q80 -21 80 -64v-12q0 -29 -72 -112q-98 -72 -184 -88q-56 0 -56 36v4l4 48q-24 0 -96 -40q-47 0 -60 24q-9 0 -60 -68q-7 -4 -16 -4q-16 4 -16 24q112 153 144 180l20 12q32 -10 32 -32q-56 -66 -56 -84v-12h12q152 41 152 68q59 108 128 108q0 6 44 12zM280 40
l8 -4h24q122 31 176 96q40 51 40 80q0 15 -56 28h-16q-28 0 -28 -36q-148 -102 -148 -164z" />
    <glyph glyph-name="currency" unicode="&#xa4;" horiz-adv-x="622" 
d="M541 55l-84 86q-37 -30 -76.5 -42.5t-73.5 -12.5t-73.5 12.5t-76.5 42.5l-84 -86l-33 34l85 84q-30 37 -42.5 76.5t-12.5 73.5t12.5 73.5t42.5 76.5l-85 84l33 34l84 -86q37 30 76.5 42.5t73.5 12.5t73.5 -12.5t76.5 -42.5l84 86l34 -34l-86 -84q30 -37 42.5 -76.5
t12.5 -73.5t-12.5 -73.5t-42.5 -76.5l86 -84zM496 323q0 40 -15 75.5t-40.5 61.5t-60 41.5t-73.5 15.5t-73.5 -15.5t-60 -41.5t-40.5 -61.5t-15 -75.5t15 -75.5t40.5 -61.5t60 -41.5t73.5 -15.5t73.5 15.5t60 41.5t40.5 61.5t15 75.5z" />
    <glyph glyph-name="" unicode="&#x406;" horiz-adv-x="333" 
d="M684 584h24q17 0 28 -16q0 -30 -92 -44h-4v12q12 0 24 16q-4 0 -4 4q-115 -12 -224 -36v-8q1 -8 8 -8h4q12 0 32 12q6 0 20 -16q-38 -36 -72 -132q-93 -180 -252 -272h-12q-6 0 -12 12v4q0 29 272 360q-15 12 -36 12h-60q-17 0 -28 16q0 28 120 44q167 40 264 40z
M236 184v-4h8q124 88 172 224h-4q-62 -66 -176 -220zM432 124q8 -1 8 -8q0 -8 -240 -56q-4 -9 -108 -28q-66 -32 -80 -32h-8q0 4 -4 12q0 49 388 112h44z" />
    <glyph glyph-name="Beta" unicode="&#x3b2;" horiz-adv-x="292" 
d="M352 635q45 0 48 -56q0 -42 -64 -168v-12q83 0 100 -64v-8q0 -105 -204 -252q-94 -61 -148 -80q-24 0 -24 36v16q0 24 40 56h8v-8q-24 -28 -24 -44v-20h4q139 41 288 220q24 54 24 72v16q0 22 -72 28q-22 0 -120 -128q-15 -12 -36 -12q-8 15 -8 32q6 53 64 100
q62 21 104 116q28 72 28 92v28h-8q-35 0 -76 -40q0 -14 4 -36l-76 -152q-19 -7 -48 -80q-150 -266 -220 -500q-67 -164 -140 -164q-104 22 -104 104v4q19 67 52 88h8q-32 -66 -32 -84v-16q0 -53 80 -64q78 0 164 308l164 348q64 109 64 172q88 152 160 152z" />
    <glyph glyph-name="Alpha" unicode="&#x3b1;" horiz-adv-x="454" 
d="M236 292q56 0 56 -68v-32q0 -9 -16 -40q9 -116 40 -116h16q102 24 168 60v-12q-128 -84 -196 -84q-46 0 -60 88h-4q-81 -67 -132 -72q-44 0 -52 76q27 122 92 168q60 32 88 32zM96 76q6 -16 12 -16h16q112 35 112 124q24 31 24 48q0 24 -24 24h-16q-54 0 -104 -88
q-20 -65 -20 -92z" />
    <glyph glyph-name="Gamma" unicode="&#x3b3;" horiz-adv-x="329" 
d="M441 796h12q8 0 16 -24q-24 -146 -44 -228q4 0 4 -4q134 84 260 180q24 0 24 -16q0 -29 -76 -60l-176 -136q-6 0 -36 -36q-23 0 -48 -116q-87 -283 -112 -316q0 -21 -44 -40q-37 0 -96 136q-24 29 -24 64q0 92 280 288q32 151 40 228l-12 8q23 70 32 72zM137 204v-32
q39 -71 72 -112q4 -16 24 -16q67 154 104 304l28 72v16h-12q-216 -164 -216 -232z" />
    <glyph glyph-name="Delta" unicode="&#x3b4;" horiz-adv-x="288" 
d="M232 548q184 0 316 -84q12 0 20 -40q0 -39 -140 -100h-4l-8 12v12q15 24 88 56l20 20v12q0 33 -228 80q-2 0 -52 4q-56 -5 -56 -20v-4q35 -53 108 -132q12 -33 12 -48q-8 -68 -8 -76q0 -41 16 -68v-8q-10 0 -60 -44q-19 0 -88 -72q-67 -44 -116 -48q-42 0 -52 56
q0 98 128 200q60 35 104 36q30 -8 40 -8l4 8v12q0 66 -68 120q-24 24 -48 92q11 30 72 32zM40 52v-4q0 -6 16 -12q55 0 128 76q0 54 60 80l16 52q0 6 -16 16h-12q-67 0 -152 -92q-40 -51 -40 -116z" />
    <glyph glyph-name="Epsilon" unicode="&#x3b5;" horiz-adv-x="337" 
d="M308 440q28 -5 56 -40q0 -28 -28 -28q-15 0 -40 24q-3 0 -24 4q-74 0 -144 -104q-8 -1 -12 -28q0 -32 20 -32q2 0 40 12q120 0 120 -48v-8q-63 -16 -72 -16q-35 8 -48 8l-8 -4q-14 8 -36 8q-37 0 -88 -72l-4 -20q0 -51 128 -60q59 0 152 36h8v-8q-90 -64 -180 -64
q-148 19 -148 96q0 51 88 124q-12 30 -12 52q0 48 124 144q36 16 108 24z" />
    <glyph glyph-name="Zeta" unicode="&#x3b6;" 
d="M316 516q44 -12 44 -28q0 -19 -72 -68q-12 -29 -12 -36l4 -16l-4 -28q12 -35 12 -52q0 -29 -160 -88q-96 -39 -96 -84v-12q0 -60 200 -84h12q18 0 88 12q7 -4 20 -4q0 -16 -144 -28h-8q-156 0 -196 84q-4 7 -4 16v12q0 75 144 120q57 23 112 52q-4 47 -4 68v48h-4
q-74 -28 -80 -28h-12q-48 0 -52 40l8 4h4q21 -16 36 -16h12q104 22 104 72q17 44 48 44zM300 476v-8h12q10 8 16 8v12h-4q-24 -2 -24 -12zM428 424h8q16 0 24 -52q-8 -13 -8 -20h-12q0 28 -24 28v4q2 40 12 40zM408 188h8v-8q-28 -36 -28 -52h-8q-16 7 -16 28q5 0 44 32z
" />
    <glyph glyph-name="Eta" unicode="&#x3b7;" horiz-adv-x="268" 
d="M224 389q46 -3 46 -70q0 -86 -158 -672q-51 -70 -112 -70q-42 0 -61 23q0 25 23 38h19q0 -24 19 -24q86 0 107 182q9 11 79 290q42 165 42 247l-4 19h-28q-54 -18 -112 -178q-30 -99 -66 -168h-9q-9 0 -9 10v9q84 313 98 327h9l19 -14q40 51 98 51z" />
    <glyph glyph-name="Theta" unicode="&#x3b8;" horiz-adv-x="389" 
d="M421 632h8q54 0 60 -72q0 -92 -92 -324q-47 -71 -128 -156q-79 -80 -120 -84h-12q-38 0 -56 80q23 132 32 132q-4 47 -4 68v24q0 133 140 260q107 72 172 72zM221 480h4q16 8 24 8q13 0 36 -36l-8 -4l-16 20h-8q-43 -56 -92 -220h44l24 4l8 -4q41 4 64 4h44q60 0 112 292
v36q-11 20 -32 20q-78 0 -184 -88q-20 -21 -20 -32zM193 452q-52 -86 -52 -136h4q7 0 56 132v4h-8zM237 204q-58 0 -80 16h-4q-8 -1 -8 -8v-20q0 -27 20 -100h-4q-5 0 -32 48q-8 0 -12 -68q0 -36 32 -40h8q114 71 188 184v12h-4q-46 0 -104 -24z" />
    <glyph glyph-name="Iota" unicode="&#x3b9;" horiz-adv-x="288" 
d="M342 673q43 0 76 -83v-6h-7q-15 16 -88 57v13q0 9 19 19zM240 444q25 -6 25 -38q0 -45 -82 -266q0 -44 -7 -77q7 -25 26 -25v-19q0 -14 -32 -19q-20 0 -44 57q0 83 89 311v13h-19q0 -10 -70 -76h-13v6q0 65 121 133h6z" />
    <glyph glyph-name="Kappa" unicode="&#x3ba;" horiz-adv-x="312" 
d="M128 296q16 -4 16 -24q-12 -43 -12 -52v-8q8 0 152 80h8q7 0 20 -24q0 -22 -132 -80q-33 -20 -44 -48q-12 -4 -12 -24q8 -17 168 -48q20 -16 20 -20v-8q0 -6 -12 -12q-38 16 -192 44v-8q-12 -72 -32 -72q-11 1 -20 24l16 80q-8 13 -8 24q0 14 28 68q17 108 36 108z" />
    <glyph glyph-name="Lambda" unicode="&#x3bb;" horiz-adv-x="369" 
d="M392 604q24 -9 24 -28q-140 -356 -140 -476q0 -4 4 -4l-4 -8v-40q1 -8 8 -8h4q22 22 112 76h16q0 -4 4 -12q-87 -104 -152 -104q-21 0 -32 60q8 88 16 124l-8 4h-8q-88 -172 -152 -172h-16q-59 0 -68 56q1 7 36 28h12l-4 -28v-4q0 -10 32 -16h8q38 0 128 164l72 88
q27 102 108 300z" />
    <glyph glyph-name="Nu" unicode="&#x3bd;" horiz-adv-x="300" 
d="M410 292q1 -8 8 -8q-4 -25 -104 -96q-39 -32 -112 -188q-30 -8 -32 -8l-24 84q0 74 -40 120q9 60 20 68q25 0 52 -164q4 0 8 -12q8 0 76 96q110 99 148 108z" />
    <glyph glyph-name="Xi" unicode="&#x3be;" 
 />
    <glyph glyph-name="Omicron" unicode="&#x3bf;" 
 />
    <glyph glyph-name="Pi" unicode="&#x3c0;" 
d="M327 465q29 0 50 -5q29 5 55 5h72q11 -2 11 -11v-5q-78 -24 -271 -39q0 -18 -50 -133q-6 -10 -6 -22q2 -11 11 -11h6q81 33 122 116l22 11l22 -17q-70 -119 -166 -337l-22 -6v28q77 163 77 216h-11q-85 -29 -144 -177q-9 -39 -55 -78h-6q-35 0 -44 105q0 46 127 100
q71 178 89 199v6l-28 5l-133 -33q0 11 -16 11v11q1 11 11 11h5q0 -11 6 -11q71 61 210 61h56zM44 111v-17q0 -5 6 -5l-6 -11v-23h6q26 10 50 89l-11 6q-25 -10 -45 -39z" />
    <glyph glyph-name="Sigma" unicode="&#x3c2;" horiz-adv-x="434" 
d="M414 340q30 0 32 -16q0 -18 -64 -40q-8 -10 -8 -16q28 -51 56 -164q0 -48 -188 -108h-12q-40 0 -40 76q0 12 60 172v4h-4q-25 0 -64 -20v-32q-31 -24 -40 -44h-20q-16 7 -16 28q0 83 152 108q32 -13 32 -36v-12q-60 -150 -60 -176v-16q0 -6 12 -12q120 30 156 72
q-38 160 -76 160q0 4 -4 12q0 31 96 60z" />
    <glyph glyph-name="Small Sigma" unicode="&#x3c3;" 
 />
    <glyph glyph-name="Tau" unicode="&#x3c4;" horiz-adv-x="544" 
d="M258 452q61 0 114 -71q0 -20 66 -43q100 38 119 38v-5q0 -20 -114 -66h-14q-42 0 -124 95h-5q-28 -6 -109 -252q5 -41 5 -67v-38h4q72 24 91 48h5v-15q-60 -71 -100 -71q-43 0 -43 90q0 39 43 181q-86 37 -86 91q0 60 148 85zM148 371v-19q0 -22 43 -61h5l62 104v5
q0 12 -19 14q-91 -12 -91 -43zM605 395v-4q0 -11 -43 -20v10q38 14 43 14z" />
    <glyph glyph-name="Upsilon" unicode="&#x3c5;" 
 />
    <glyph glyph-name="Phi" unicode="&#x3c6;" horiz-adv-x="423" 
d="M454 367q76 -11 76 -64v-16q0 -82 -92 -172q-65 -46 -168 -92q-16 -31 -48 -184q0 -4 4 -4q-4 -17 -8 -92q4 -8 4 -12q-8 -18 -16 -20h-4q-6 0 -20 24q4 132 12 132q0 4 -4 4q12 82 24 120v12l-4 8l-8 -4h-8q-4 0 -4 4q-4 0 -4 -4q-92 9 -92 60q-8 52 -8 76q11 74 48 124
q25 24 36 24v-4l8 4h8q6 0 16 -16v-12q-76 -40 -76 -128t44 -88h16q52 0 52 36q30 137 124 248q48 36 92 36zM278 87v-20h4q216 100 216 232v4q0 8 -36 28q-79 0 -124 -112q-15 -6 -40 -76q-5 -32 -20 -56z" />
    <glyph glyph-name="Chi" unicode="&#x3c7;" 
 />
    <glyph glyph-name="Small Psi" unicode="&#x3c8;" horiz-adv-x="341" 
d="M450 353h4q6 0 12 -12v-24q0 -95 -96 -212q-56 -44 -84 -44l-24 4q-12 -12 -20 -112q4 -124 4 -172q0 -10 12 -28v-12l-20 -4q-19 22 -28 56q-4 130 -4 192l12 104q-61 41 -92 120v20q0 51 36 56h20v-4q-24 -32 -24 -48q0 -49 64 -100h8q8 28 8 48v12q0 17 -4 32
q5 60 20 60q28 0 28 -48q-4 -73 -16 -120q4 -16 24 -16h4q62 0 128 160q4 7 4 16l-4 36q0 40 28 40z" />
    <glyph glyph-name="Omega" unicode="&#x3c9;" horiz-adv-x="539" 
d="M462 380q88 -14 88 -52v-16q0 -90 -88 -240q-76 -72 -132 -72q-54 0 -88 56h-8q-36 -28 -64 -36q-36 0 -36 88q0 22 -4 44q33 172 88 172q11 0 16 -32q0 -10 -52 -76q-12 -31 -12 -92l4 -36q-4 -7 -4 -20q8 -4 12 -4q60 26 60 100q0 81 40 108h12q44 -33 44 -56
q0 -63 -56 -124v-12q0 -20 28 -44h24q69 0 144 128q33 80 44 132v20q0 17 -60 32q-100 -9 -100 -32v-4l20 -24q0 -6 -12 -12h-12q-32 16 -32 40q0 64 136 64zM290 212q-8 -32 -8 -48h4q16 5 16 36v12h-12z" />
    <glyph glyph-name="1/2" unicode="&#xbd;" horiz-adv-x="661" 
d="M730 641h8q7 0 16 -24q0 -33 -68 -76q-76 -116 -232 -324q-134 -182 -248 -308q0 -9 -52 -64q-10 -32 -28 -32q-8 4 -12 4v4q0 25 248 324l304 420q56 76 64 76zM350 505q18 -8 20 -16v-12q0 -19 -80 -88q-18 -22 -40 -60l4 -8v-4q0 -6 -16 -16h-16q-6 0 -12 12v4
q0 4 8 32v4q-4 0 -24 -16h-8q-6 0 -12 16q0 22 116 88q33 50 60 64zM578 189q39 0 52 -36q0 -26 -96 -108v-12l172 16h4v-8q-172 -44 -188 -44q-36 0 -36 28q0 34 80 100v4q-22 0 -60 -8q-28 6 -28 24q0 31 84 40q2 0 16 4z" />
    <glyph glyph-name="1/4" unicode="&#xbc;" horiz-adv-x="621" 
d="M642 591h8q24 -2 24 -12v-8q-59 -27 -108 -68q-128 -167 -292 -420q-68 -93 -96 -152q-31 -36 -52 -36q-10 0 -12 16q48 71 108 148q38 64 140 212q207 320 280 320zM366 523h4q24 0 24 -24q0 -21 -52 -80q-68 -119 -68 -184l-8 -4h-4q-24 0 -24 24v4q0 10 40 112v4h-4
q-25 -9 -68 -48h-20q0 8 -4 8q0 36 124 100q36 78 60 88zM494 267q18 -24 20 -24l-36 -56q18 -8 52 -8q23 0 56 68l20 16h12q16 -8 16 -24q-18 -88 -60 -88q-53 -65 -104 -156h-8q-6 0 -12 16q8 45 64 124v8l-20 4h-64q-17 0 -28 16q0 33 80 104h12z" />
    <glyph glyph-name="3/4" unicode="&#xbe;" horiz-adv-x="596" 
d="M885 705h8q12 -4 12 -24v-4q-136 -131 -404 -440l-276 -316q-80 -100 -92 -100h-20q0 4 -4 12q15 34 228 260q233 287 548 612zM437 589h4q22 0 28 -16v-20q-33 -35 -104 -88v-4q20 -21 20 -36v-4q0 -41 -100 -104q-49 -31 -144 -68q-28 0 -28 24q0 39 76 52h4
q0 -12 12 -12q80 31 140 104q0 8 -8 8h-4q-30 0 -68 -32h-16l-20 4v16q4 13 116 88v8q-20 0 -20 20q0 32 112 60zM757 357q13 0 24 -20q-1 -12 -96 -72l-12 -16q1 -8 8 -8q80 0 128 44h4q22 0 28 -16v-12q-123 -112 -232 -248q-8 0 -8 -4q-12 3 -16 16q0 12 140 184v8
q-84 -12 -100 -12q-24 0 -24 28q122 128 156 128z" />
    <glyph glyph-name="vlevo" unicode="&#x2190;" horiz-adv-x="726" 
d="M715 253h16q76 0 76 -28q-6 -20 -24 -20l-36 4q-4 0 -4 -4l-20 4h-16q-34 0 -72 4q-240 -27 -268 -60v-4q50 -32 104 -32v4q8 -4 12 -4v-12q0 -7 -36 -16q-158 30 -220 88q0 8 -4 8q0 29 100 36q16 0 132 28h48q18 -16 20 -16q155 20 192 20z" />
    <glyph glyph-name="vverh" unicode="&#x2191;" horiz-adv-x="377" 
d="M345 436q12 0 20 -40q-16 -90 -16 -136q8 -1 8 -8l20 4h20v-12l-48 -24q-29 0 -40 52q16 91 16 104h-8q-10 -9 -36 -88q-52 -120 -164 -288h-12l-4 20q0 12 100 176q44 96 44 104h-8l-128 -116q-16 6 -16 12q0 24 156 164q21 47 96 76z" />
    <glyph glyph-name="vpravo" unicode="&#x2192;" horiz-adv-x="722" 
d="M395 301q179 -34 240 -68q92 -35 92 -60q0 -28 -156 -52q-25 -5 -52 -20q-20 4 -20 20q0 20 156 56q0 4 8 4q-27 28 -64 28q-19 -11 -52 -16q-67 4 -104 4h-104q-32 0 -112 -16q-32 7 -32 16q0 24 44 24q57 8 80 8h76q17 0 44 -4q8 4 12 4q28 -4 48 -4q2 0 16 4
q-3 10 -136 40q-4 8 -4 12q0 11 20 20z" />
    <glyph glyph-name="vniz" unicode="&#x2193;" horiz-adv-x="312" 
d="M253 532h12q6 0 12 -12v-4q-16 -62 -44 -284q-7 0 -8 -20q0 -9 4 -16q-4 -7 -4 -16v-12h8q130 148 168 148q0 -8 -68 -72q-109 -143 -132 -224q-19 -20 -44 -20q-39 68 -56 264v40q1 8 8 8h8q26 0 36 -108q7 -6 16 -72h4q17 0 52 292q11 77 28 108z" />
    <glyph glyph-name="vlevo-vpravo" unicode="&#x2194;" horiz-adv-x="848" 
d="M526 354h8q16 -6 16 -28v-4q0 -19 -116 -40q-39 -20 -104 -20v-4q1 -8 8 -8h132q52 0 192 -12v4q0 7 -56 20l-8 16q0 24 28 24q207 0 416 -108q16 -17 16 -32v-8q-39 -8 -44 -8q-2 0 -52 4q-93 0 -180 -32q-18 8 -20 16v4q0 21 72 28q15 10 124 20q26 -4 52 -4v4
q0 14 -144 56h-28q0 -4 -4 -4q4 -8 4 -12q-8 -18 -16 -20l-24 4q-26 -4 -52 -4h-4q-4 0 -4 -4q-6 4 -44 8q-4 0 -12 -4l-20 4q-3 0 -24 -4q-28 8 -44 8q-4 0 -4 -4q-76 5 -76 12l-40 -4h-44l-24 -4l-8 4q-30 -8 -32 -8v-12q117 -20 212 -52v-12h-4q-218 32 -364 44
q-52 14 -52 44q0 42 168 76q22 12 200 56zM210 226v-4q0 -10 96 -20l4 8l-8 20l4 24h-4q-49 0 -92 -28z" />
    <glyph glyph-name="vverh-vniz" unicode="&#x2195;" horiz-adv-x="329" 
d="M306 548q33 0 44 -60q0 -10 -4 -32q0 -4 4 -12q-8 -63 -8 -72q0 -7 40 -36v-8l-8 -4h-20q-24 0 -44 44l4 16l-4 20q4 16 4 28q0 8 -4 8l4 20v12q0 30 -12 32h-12v-28q-19 -28 -28 -28l-44 -288q4 0 4 -4q79 55 188 120q8 -1 8 -8v-12l-148 -104q-44 -48 -44 -108
q12 -4 12 -24v-8q0 -8 -8 -8h-12q-28 0 -72 92q-36 56 -36 136v12q0 10 16 12q43 -36 60 -36q16 37 32 188h-8q-72 -84 -88 -84q-16 4 -16 24q0 10 92 104q73 93 108 96zM158 176v-12q1 -8 8 -8h4v12q0 8 -8 8h-4z" />
    <glyph glyph-name="palka" unicode="&#x2502;" horiz-adv-x="276" 
d="M298 548q8 -16 8 -24q-96 -449 -96 -480q0 -16 -4 -32h-12q-16 7 -16 28v12q0 30 60 292l20 108l-4 24q13 72 44 72z" />
    <glyph glyph-name="glyph253" horiz-adv-x="358" 
 />
    </font>
</defs>
</svg>
