<?xml version="1.0" standalone="no"?>
<!DOCTYPE svg PUBLIC "-//W3C//DTD SVG 1.1//EN" "http://www.w3.org/Graphics/SVG/1.1/DTD/svg11.dtd" >
<svg>
<metadata>
Created by FontForge 20090622 at Fri Mar 24 12:35:17 2017
 By deploy user
Copyright (c) Michael Hagemann www.fontmesa.com, 2007. All rights reserved.
</metadata>
<defs>
<font id="CountryWestern" horiz-adv-x="313" >
  <font-face 
    font-family="Country Western"
    font-weight="400"
    font-stretch="normal"
    units-per-em="1000"
    panose-1="2 0 0 0 0 0 0 0 0 0"
    ascent="742"
    descent="-258"
    x-height="496"
    cap-height="720"
    bbox="-45 -258 1732 872"
    underline-thickness="50"
    underline-position="-50"
    unicode-range="U+000D-U+2122"
  />
<missing-glyph horiz-adv-x="400" 
d="M100 50h200v600h-200v-600zM50 700h300v-700h-300v700z" />
    <glyph glyph-name=".notdef" horiz-adv-x="400" 
d="M100 50h200v600h-200v-600zM50 700h300v-700h-300v700z" />
    <glyph glyph-name=".null" horiz-adv-x="500" 
 />
    <glyph glyph-name=".null" horiz-adv-x="500" 
 />
    <glyph glyph-name="nonmarkingreturn" unicode="&#xd;" horiz-adv-x="500" 
 />
    <glyph glyph-name="space" unicode=" " horiz-adv-x="400" 
 />
    <glyph glyph-name="exclam" unicode="!" horiz-adv-x="352" 
d="M219 186q24 -19 39 -46t15 -57q0 -37 -24.5 -61t-63.5 -24q-30 0 -55.5 12.5t-44 32t-29 43t-10.5 46.5q0 38 19 59t52 27l-38 38q0 52 -8.5 95t-18.5 83t-18.5 80t-8.5 87q0 60 27 96.5t77 36.5q39 0 70.5 -17t54.5 -45.5t35.5 -65t12.5 -75.5q0 -40 -8 -81t-18 -84
t-19 -87.5t-10 -92.5h-28zM129 719q-42 0 -65.5 -32.5t-23.5 -85.5q0 -38 7.5 -75.5t17 -78t18 -84t11.5 -92.5h68q1 49 10 92.5t19 84t18 78t8 75.5q0 52 -24.5 85t-63.5 33zM61 132q0 -29 19.5 -48.5t49.5 -19.5q29 0 48.5 19.5t19.5 48.5t-19.5 49.5t-48.5 20.5
q-30 0 -49.5 -20.5t-19.5 -49.5zM128 603q-5 -47 -13.5 -80t-19.5 -62q11 -9 19.5 -24t13.5 -33q5 19 14 33.5t20 23.5q-11 30 -20 63t-14 79zM92 397q-11 54 -23 101.5t-12 102.5q0 46 18.5 74.5t53.5 28.5q32 0 51.5 -29t19.5 -74q0 -26 -4 -50t-9 -48.5t-11.5 -50
t-10.5 -54.5q-5 4 -12 4q-9 0 -13.5 -7.5t-4.5 -17.5q0 -21 18 -31q-11 -16 -17 -32.5t-10 -37.5q-7 43 -25 70q20 12 20 31q0 7 -3.5 15.5t-13.5 8.5q-5 0 -12 -4z" />
    <glyph glyph-name="quotedbl" unicode="&#x22;" horiz-adv-x="466" 
d="M267 536q-17 9 -29 24q-7 -58 -43.5 -104t-89.5 -70l-74 72q14 14 30 34.5t30 43.5q-15 9 -26.5 22t-19 28.5t-11.5 32.5t-4 32q0 37 22 61.5t57 24.5q29 0 56 -13.5t46 -40.5q8 24 28 39t46 15q25 0 49 -10t42 -29.5t29 -48.5t11 -67q0 -33 -10.5 -62.5t-28.5 -54.5
t-43 -45.5t-53 -33.5l-74 72q14 14 30 34.5t30 43.5zM106 582q10 0 21 7q-3 -26 -21 -58t-43 -56l18 -17q26 18 44 43t28.5 50.5t15 49.5t4.5 42q0 39 -19 59t-46 20q-26 0 -44 -20.5t-18 -49.5t15 -49.5t45 -20.5zM62 651q0 23 12.5 39t33.5 16q26 0 36.5 -19t10.5 -45
t-8.5 -51.5t-18.5 -41.5q4 12 6.5 27.5t2.5 32.5q-6 -5 -14 -8t-16 -3q-21 0 -33 15t-12 38zM238 651q0 23 12.5 39t33.5 16q26 0 36.5 -19t10.5 -45t-8.5 -51.5t-18.5 -41.5q4 12 6.5 27.5t2.5 32.5q-6 -5 -14 -8t-16 -3q-21 0 -33 15t-12 38zM282 582q10 0 21 7
q-3 -26 -21 -58t-43 -56l18 -17q26 18 44 43t28.5 50.5t15 49.5t4.5 42q0 39 -19 59t-46 20q-26 0 -44 -20.5t-18 -49.5t15 -49.5t45 -20.5z" />
    <glyph glyph-name="numbersign" unicode="#" horiz-adv-x="477" 
d="M177 444h94l-25 -108h-94zM193 96h57l39 184h65l12 56h-63l25 108h63l11 56h-62l44 192h-58l-44 -192h-95l44 192h-58l-44 -192h-61l-12 -56h62l-25 -108h-61l-13 -56h62l-41 -184h57l41 184h96zM477 446l-18 -85h-80l62 -79l-19 -86h-65l-38 -184h-89l-51 62l-14 -62
h-88l-56 69l27 125l-48 59l19 86h62l5 20l-49 58l19 86h61l44 192h89l50 -62l14 62h89l56 -69l-30 -131zM147 394q-11 -1 -14 -20.5t-3 -40.5q0 -11 0.5 -20t1.5 -15q-11 -17 -19.5 -39t-21.5 -62q3 22 5 40t2 34v14t-2 13q6 10 12 23.5t10.5 26t7 23t2.5 15.5q0 8 -8 8
l16 65h-62l6 26h61l44 192h27l-44 -192h126l44 192h27l-44 -192h62l-5 -26h-63l-16 -65q-10 -1 -13.5 -20.5t-3.5 -40.5q0 -11 0.5 -20t1.5 -15q-11 -17 -19.5 -39t-21.5 -62q3 22 5 40t2 34v14t-2 13q6 10 12 23.5t10.5 26t7.5 23t3 15.5q0 8 -8 8l16 65h-125zM326 556
l-14 -46t-16 -40q1 -4 1 -13t-1.5 -22.5t-3.5 -25.5q5 16 12 34t13 27q-1 5 -1 19q0 7 3 28t7 39zM172 556l-14 -46t-16 -40q1 -4 1 -13t-1.5 -23t-3.5 -26q5 17 12 35t13 27q-1 5 -1 18q0 7 3 28.5t7 39.5z" />
    <glyph glyph-name="dollar" unicode="$" horiz-adv-x="528" 
d="M334 689q29 -12 57 -31t49.5 -43.5t35 -54t13.5 -60.5q0 -17 -3.5 -33.5t-12.5 -29.5t-25 -21t-41 -8q48 -38 77.5 -91.5t29.5 -119.5q0 -44 -13.5 -77t-37.5 -55.5t-56.5 -34.5t-71.5 -15v-44h-79l-66 65q-35 14 -65.5 36t-53 50.5t-35.5 62t-13 71.5q0 17 4.5 33.5
t14 29t24 20.5t34.5 8q-35 35 -55 84t-20 107q0 45 13.5 76t36.5 51t52.5 29.5t62.5 11.5v44h79zM435 263q0 49 -16 84t-41.5 59.5t-57.5 41t-65 29.5v174q15 -1 33 -5.5t33 -13t25 -19t10 -23.5q0 -10 -4 -13q-3 10 -9.5 18t-20.5 8q-17 0 -26.5 -11.5t-9.5 -37.5t17.5 -44
t47.5 -18q34 0 47.5 22.5t13.5 51.5q0 34 -17 57.5t-41 38.5t-51 22t-48 8v44h-51v-44q-32 -2 -62 -10.5t-53 -26.5t-36.5 -46.5t-13.5 -70.5q0 -46 14 -77.5t37 -54.5t52.5 -39t61.5 -31v-198q-18 3 -38.5 8.5t-38.5 17t-31 30.5t-16 48q8 -19 18.5 -24t22.5 -5
q17 0 28.5 13.5t11.5 36.5q0 30 -17 50t-44 20q-33 0 -48 -24t-15 -53q0 -39 16.5 -68t41.5 -48.5t54 -30.5t55 -15v-43h51v43q41 2 74 12.5t56.5 31t36.5 51.5t13 74zM183 363q-26 13 -49.5 28.5t-41 36.5t-28 47.5t-10.5 62.5q0 37 13.5 63t36.5 42.5t53 25t62 9.5v44h22
v-45q22 -2 49 -8.5t51 -19.5t40.5 -33.5t16.5 -49.5q0 -23 -11 -41t-36 -18q-21 0 -36 12t-15 35q0 18 6.5 26.5t17.5 8.5q7 0 9.5 -3.5t5 -8t5 -8t9.5 -3.5q11 0 14 7.5t3 16.5q0 18 -13 31.5t-32.5 22.5t-42 14.5t-41.5 6.5v-184l-22 9v176q-45 -2 -78 -22.5t-33 -63.5
q0 -26 14.5 -44.5t38 -32.5t52 -26l57 -23.5t53.5 -24.5t40 -31q-5 1 -16 2t-23 1q-13 0 -24 -3t-11 -14q0 -6 6.5 -11.5t16.5 -9.5t22 -6.5t23 -2.5q12 -15 19 -36.5t7 -46.5q0 -11 -2 -23.5t-5 -25.5q-4 46 -27.5 73.5t-72.5 39.5q3 7 3 17q0 14 -11 25t-31 11
q-30 0 -54 -25zM332 217q0 -42 -22.5 -60t-54.5 -20v181q31 -15 54 -39t23 -62zM204 496q-40 17 -60.5 36t-20.5 48q0 35 23 52t58 20v-156zM90 539q0 -4 -0.5 -8.5t-0.5 -8.5q0 -42 18 -67t35 -32q7 3 18 4.5t17 1.5q20 0 36 -4.5t36 -18.5q-5 21 -17.5 29.5t-26.5 13
l-27 8.5t-18 16q-27 2 -43 18.5t-27 47.5z" />
    <glyph glyph-name="percent" unicode="%" horiz-adv-x="774" 
d="M151 84h56l366 622h-58zM269 313q-11 -3 -23.5 -5t-25.5 -2q-42 0 -80 16t-67 46.5t-46 75.5t-17 102q0 42 12 76t33.5 58t51.5 37t65 13q45 0 82.5 -17t65 -46.5t44 -70t19.5 -88.5l125 213h83l37 -69l-144 -245q28 10 58 10q46 0 85 -18.5t67.5 -51t44 -76t15.5 -94.5
q0 -45 -12.5 -79.5t-35 -58t-52.5 -35t-64 -11.5q-42 0 -80 15.5t-67 45.5t-46 74.5t-17 101.5l-135 -230h-82l-37 69zM372 394q-9 -1 -17 -13t-14.5 -27.5t-11.5 -31.5t-7 -24q-9 -9 -17 -18t-17 -21l-19.5 -27l-24.5 -35l25 48.5t17 52.5q5 5 16 18t22 28l19.5 27.5
t8.5 17.5t-6 5l175 297h27zM457 556l-30.5 -46t-30.5 -40q-4 -15 -11 -30l-15 -31l22.5 34t21.5 27q8 23 20.5 46zM542 364q24 0 38.5 -33.5t14.5 -97.5q0 -56 -13.5 -93.5t-39.5 -37.5q-15 0 -24.5 12.5t-15.5 31.5t-8.5 42t-2.5 45q0 71 15.5 101t35.5 30zM394 233
q0 -39 11 -70.5t30.5 -54t46.5 -34.5t60 -12q64 0 106 43t42 128q0 39 -11 71t-31 54t-47 34t-59 12q-66 0 -107 -46.5t-41 -124.5zM661 275q-2 14 -8.5 26.5t-15 23t-18 17.5t-18.5 9q11 -15 15 -33t4 -43q18 -10 21 -36q3 13 8.5 21.5t11.5 14.5zM477 231q-6 6 -16 6
q-6 0 -9 -5t-3 -13t4 -15t12 -10q0 -18 2.5 -43t16.5 -43q-22 8 -39 32.5t-22 53.5q8 3 11.5 10t3.5 15t-4.5 13t-10.5 5q-10 0 -16 -6q0 73 37 116t98 43q60 0 97.5 -42.5t37.5 -116.5q-3 3 -8 4.5t-9 1.5q-6 0 -9.5 -5t-3.5 -13t3 -15t12 -10q-5 -29 -22 -53.5t-39 -32.5
q14 18 16.5 43t2.5 43q8 3 12.5 10t4.5 15t-3.5 13t-9.5 5q-9 0 -15 -6q0 72 -19 110t-48 38q-11 0 -22.5 -8t-21 -25.5t-15.5 -45.5t-6 -69zM424 275q7 -6 12.5 -14.5t7.5 -21.5q5 26 21 36q0 47 19 76q-9 -2 -18.5 -9t-18 -17.5t-15 -23t-8.5 -26.5zM172 677
q24 0 38.5 -33.5t14.5 -97.5q0 -56 -13.5 -93.5t-39.5 -37.5q-15 0 -24.5 12.5t-15.5 31.5t-8.5 42t-2.5 45q0 71 15.5 101t35.5 30zM24 546q0 -39 11 -70.5t30.5 -54t46.5 -34.5t60 -12q64 0 106 43t42 128q0 39 -11 71t-31 54t-47 34t-59 12q-66 0 -107 -46.5t-41 -124.5z
M291 588q-2 14 -8.5 26.5t-15 23t-18 17.5t-18.5 9q11 -15 15 -33t4 -43q18 -10 21 -36q3 13 8.5 21.5t11.5 14.5zM107 544q-6 6 -16 6q-6 0 -9 -5t-3 -13t4 -15t12 -10q0 -18 2.5 -43t16.5 -43q-22 8 -39 32.5t-22 53.5q8 3 11.5 10t3.5 15t-4.5 13t-10.5 5q-10 0 -16 -6
q0 73 37 116t98 43q60 0 97.5 -42.5t37.5 -116.5q-3 3 -8 4.5t-9 1.5q-6 0 -9.5 -5t-3.5 -13t3 -15t12 -10q-5 -29 -22 -53.5t-39 -32.5q14 18 16.5 43t2.5 43q8 3 12.5 10t4.5 15t-3.5 13t-9.5 5q-9 0 -15 -6q0 72 -19 110t-48 38q-11 0 -22.5 -8t-21 -25.5t-15.5 -45.5
t-6 -69zM54 588q7 -6 12.5 -14.5t7.5 -21.5q5 26 21 36q0 47 19 76q-9 -2 -18.5 -9t-18 -17.5t-15 -23t-8.5 -26.5z" />
    <glyph glyph-name="ampersand" unicode="&#x26;" horiz-adv-x="690" 
d="M290 711q-65 0 -104 -32.5t-39 -92.5q0 -15 4.5 -32.5t11 -34.5t13.5 -32.5l12 -26.5q-26 -12 -54 -29t-51 -42t-38 -59t-15 -80q0 -81 51 -126t135 -45q46 0 86 13.5t66 30.5q19 -23 45 -37t65 -14q49 0 83.5 31t34.5 97h-39q-4 -17 -14.5 -23t-22.5 -6q-13 0 -25.5 8.5
t-23.5 29.5q23 23 37.5 49.5t19.5 60.5q3 19 15 29.5t29 10.5v37h-136v-37q24 0 33.5 -13t9.5 -30q0 -15 -7.5 -34.5t-24.5 -39.5q-14 21 -30.5 48.5l-32.5 56l-30.5 55.5t-24.5 49q47 21 72.5 53.5t25.5 81.5q0 55 -35 90t-102 35zM307 652q26 0 38.5 -16t12.5 -38
q0 -29 -15.5 -51t-44.5 -36q-6 10 -12 23.5t-11 27t-8.5 26.5t-3.5 21q0 23 13.5 33t30.5 10zM224 383l27 -56l30.5 -60t31.5 -57.5t31 -46.5q-17 -10 -39 -15.5t-42 -5.5q-48 0 -73.5 31.5t-25.5 85.5q0 45 19.5 77t40.5 47zM307 667q-23 0 -41.5 -13t-18.5 -45
q0 -9 4.5 -24t11 -31.5t14.5 -33.5t15 -29q38 18 59.5 44.5t21.5 62.5q0 28 -16.5 48.5t-49.5 20.5zM584 411l70 -69v-57q-15 0 -23.5 -6.5t-14 -16.5t-10 -22.5t-11.5 -24.5h12l68 -69q0 -82 -36 -120t-91 -38q-38 0 -65.5 13t-47.5 33q-27 -17 -62 -31t-87 -14
q-66 0 -117 22.5t-85 59t-51.5 83.5t-17.5 96q0 46 14 80.5t36 60.5t49 44t54 32q-3 6 -9 19.5t-12 30t-10.5 35t-4.5 34.5q0 68 44.5 104t113.5 36q46 0 85.5 -15t68 -41.5t45 -61t16.5 -73.5q0 -35 -17 -66.5t-52 -57.5h148zM266 263q-5 -8 -8 -25t-3 -31q0 -20 7.5 -33.5
t25.5 -13.5q8 0 16.5 2t17.5 7q-14 19 -29.5 43.5t-26.5 50.5zM207 600q-2 -6 -3.5 -16.5t-1.5 -18.5q0 -25 7.5 -51t9.5 -54q17 -9 33.5 -24t30.5 -33q-3 12 -3 23q0 20 11 33q-35 31 -54.5 65t-29.5 76zM154 316q-20 -6 -30.5 -27.5t-10.5 -47.5q0 -14 3 -33.5t8 -36.5
q-17 12 -27.5 28t-16.5 32.5t-8 31.5t-2 25q0 8 1.5 23t6.5 24q21 5 36.5 14t15.5 27q0 15 -15 22q21 17 44 30t48 24q-20 45 -32.5 78t-12.5 56q0 53 34.5 81.5t93.5 28.5t90.5 -31t31.5 -79q0 -44 -27 -74.5t-77 -53.5l16.5 -33.5t16.5 -30.5q-12 6 -23 6q-8 0 -10.5 -4.5
t-2.5 -9.5q0 -22 17.5 -35.5t36.5 -21.5q1 -20 4.5 -36t9 -32.5t14.5 -34t23 -39.5q-27 16 -42.5 33.5t-27.5 34.5l-23 32t-29 27q9 10 9 27q0 20 -10 39.5t-28 19.5q-5 0 -10.5 -1.5t-10.5 -6.5q-8 9 -21 9q-14 0 -23 -10q-9 8 -20 8q-16 0 -24 -11.5t-8 -27.5q0 -12 3 -24
t9 -20z" />
    <glyph glyph-name="quotesingle" unicode="'" 
d="M65 651q0 23 15 39t39 16q29 0 41.5 -19.5t12.5 -44.5q0 -26 -10 -51t-21 -42q4 13 7 28t3 32q-7 -5 -16.5 -8t-18.5 -3q-23 0 -37.5 15t-14.5 38zM118 584q7 0 12 1.5t10 3.5q-3 -26 -23.5 -58t-49.5 -55l17 -15q29 18 49.5 42t33 49.5t18.5 49.5t6 42q0 39 -21.5 58.5
t-50.5 19.5q-30 0 -49.5 -20.5t-19.5 -49.5t18.5 -48.5t49.5 -19.5zM99 536q-17 9 -29 22t-20 28.5t-12 32.5t-4 32q0 37 23.5 61.5t62.5 24.5q27 0 53 -10t46 -29.5t32 -48.5t12 -66q0 -33 -11.5 -63.5t-32.5 -56t-50.5 -45.5t-64.5 -31l-74 72q17 14 35.5 34t33.5 43z" />
    <glyph glyph-name="parenleft" unicode="(" horiz-adv-x="334" 
d="M196 744q-41 -26 -70 -65t-47 -85.5t-26.5 -97.5t-8.5 -100q0 -50 9 -100t28.5 -95t50 -83t73.5 -65l24 38q-21 32 -35 70t-22 78t-11.5 80.5t-3.5 76.5q0 39 3.5 81.5t11 84t20 79.5t30.5 67zM266 -34q-71 32 -116.5 83.5t-72 111.5t-37 121.5t-10.5 113.5
q0 51 9.5 104.5t30 103t52.5 90.5t78 67l32 -44l47 -82q-13 -29 -22 -63.5t-14.5 -71t-8 -73.5t-2.5 -70q0 -27 1.5 -64t9 -80t21.5 -90.5t40 -93.5zM59 394q0 46 7.5 94t23.5 92t41.5 81.5t62.5 62.5l11 -17q-18 -31 -29.5 -69t-19 -79t-10.5 -83t-3 -80q-4 4 -8 5t-7 1
q-8 0 -13 -8t-5 -22q0 -17 11 -31.5t17 -19.5q-8 -14 -10.5 -29.5t-2.5 -32.5q0 -20 6 -44t14 -47q-32 32 -47 73.5t-22 79.5q10 10 16 22t6 29q0 8 -5 18.5t-16 10.5t-18 -7zM141 620q-29 -31 -43.5 -74t-21.5 -80q11 -8 18 -25.5t11 -34.5q3 18 11 35t20 24
q-8 13 -10.5 27.5t-2.5 30.5q0 18 6 46t12 51z" />
    <glyph glyph-name="parenright" unicode=")" horiz-adv-x="349" 
d="M65 708q18 -29 30.5 -66.5t20 -78.5t11 -83t3.5 -81q0 -36 -3.5 -76.5t-12 -81t-22.5 -79.5t-35 -71l26 -37q42 26 72.5 64.5t49.5 84.5t28 96t9 100q0 53 -8.5 103.5t-26.5 95.5t-47 82.5t-70 63.5zM40 90q22 34 37 73.5t23 80t11.5 80.5t3.5 75q0 38 -3.5 79.5
t-11.5 82t-20.5 78.5t-31.5 69l38 55q40 -20 81.5 -61.5t75 -99t55 -127.5t21.5 -147q0 -51 -10 -103t-31 -99t-53.5 -86.5t-78.5 -66.5l-68 60zM228 394q-9 7 -18 7q-11 0 -16 -10.5t-5 -18.5q0 -17 6 -29.5t16 -21.5q-7 -38 -22 -80t-47 -74q8 23 14 46t6 43q0 17 -3 34
t-11 31q7 5 18 19.5t11 31.5q0 14 -5 22t-14 8q-3 0 -7 -1t-8 -6q0 85 -13 167t-48 145l12 16q37 -24 63 -61.5t41.5 -81.5t22.5 -92t7 -94zM146 620l12 -49.5t6 -46.5q0 -16 -2.5 -31.5t-10.5 -27.5q11 -7 19.5 -24t11.5 -35q5 17 11.5 34.5t17.5 25.5q-7 37 -21.5 80
t-43.5 74z" />
    <glyph glyph-name="asterisk" unicode="*" horiz-adv-x="352" 
d="M148 561q2 -11 5 -26t9 -29.5t18 -24.5t32 -10q13 0 22.5 8t9.5 23t-7 27t-17.5 22t-23 18t-24.5 13q16 -3 32 -4t33 -1t29 7.5t12 29.5q0 36 -37 36q-21 0 -40.5 -14l-36.5 -27q7 17 14.5 39t7.5 38q0 20 -11 30t-24 10q-15 0 -26 -10t-11 -30q0 -16 6 -39t11 -38
q-14 14 -34.5 27.5t-43.5 13.5q-15 0 -24 -9.5t-9 -24.5q0 -23 14 -31.5t31 -8.5t29.5 2t29.5 4l-22.5 -13.5t-23 -17.5t-18 -22t-7.5 -27t11 -23t26 -8q20 0 30.5 10t16 24.5t7.5 29.5t4 26zM161 575q12 -5 24 -14t22 -19.5t16 -21t6 -18.5t-5.5 -12t-12.5 -4
q-11 0 -20 8.5t-15.5 21t-10 28.5t-4.5 31zM136 574q-1 -13 -4 -28t-8.5 -28.5t-14 -22.5t-19.5 -9t-16.5 5t-5.5 13t6.5 18t16.5 20t22 18.5t23 13.5zM127 597q-7 -1 -16 -2t-18 -1.5t-16.5 -1t-11.5 -0.5q-11 0 -20.5 5.5t-9.5 18.5q0 19 19 19q17 0 37.5 -12.5
t35.5 -25.5zM148 613q-9 20 -14 39.5t-5 33.5q0 12 6.5 18.5t15.5 6.5q8 0 14 -6.5t6 -18.5q0 -11 -6.5 -32.5t-16.5 -40.5zM169 596q14 13 35.5 26t36.5 13q21 0 21 -20q0 -13 -7.5 -17.5t-18.5 -4.5h-13.5t-18 0.5l-19 1t-16.5 1.5zM58 547q-18 5 -35.5 20.5t-17.5 48.5
q0 22 13 35.5t35 13.5q14 0 26 -4t26 -10q-3 8 -4.5 17.5t-1.5 17.5q0 27 15.5 41t36.5 14q29 0 56.5 -18.5t41.5 -57.5q23 -2 41.5 -11t31 -22.5t19 -29.5t6.5 -31q0 -27 -12.5 -42.5t-37.5 -15.5q-3 0 -9 0.5t-10 1.5q17 -12 28 -30.5t11 -37.5q0 -23 -14.5 -34.5
t-35.5 -11.5q-26 0 -46.5 15t-28.5 35q-6 -20 -20 -35t-39 -15q-17 0 -34 7t-30.5 19.5t-22 31.5t-8.5 43q0 12 5.5 23.5t14.5 21.5zM131 591q0 8 5 12.5t12 4.5t12 -4.5t5 -12.5t-5 -12.5t-12 -4.5t-12 4.5t-5 12.5z" />
    <glyph glyph-name="plus" unicode="+" horiz-adv-x="445" 
d="M130 213v51h-41l-69 69v116h110v120h116l69 -69v-51h41l69 -69v-116h-110v-120h-116zM231 228v120h110v86h-110v120h-86v-120h-110v-86h110v-120h86zM50 419h110v120h56v-120h110v-56h-110v-120h-56v120h-110v56z" />
    <glyph glyph-name="comma" unicode="," 
d="M118 64q7 0 12 1.5t10 3.5q-3 -26 -23.5 -58t-49.5 -55l17 -15q29 18 49.5 42t33 49.5t18.5 49.5t6 42q0 39 -21.5 58.5t-50.5 19.5q-30 0 -49.5 -20.5t-19.5 -49.5t18.5 -48.5t49.5 -19.5zM99 16q-17 9 -29 22t-20 28.5t-12 32.5t-4 32q0 37 23.5 61.5t62.5 24.5
q27 0 53 -10t46 -29.5t32 -48.5t12 -66q0 -33 -11.5 -63.5t-32.5 -56t-50.5 -45.5t-64.5 -31l-74 72q17 14 35.5 34t33.5 43zM65 133q0 23 15 39t39 16q29 0 41.5 -19.5t12.5 -44.5q0 -26 -10 -51t-21 -42q4 13 7 28t3 32q-7 -5 -16.5 -8t-18.5 -3q-23 0 -37.5 15t-14.5 38z
" />
    <glyph glyph-name="hyphen" unicode="-" horiz-adv-x="385" 
d="M35 348h246v86h-246v-86zM50 419h216v-56h-216v56zM20 449h276l69 -69v-116h-276l-69 69v116z" />
    <glyph glyph-name="period" unicode="." horiz-adv-x="307" 
d="M45 132q0 -29 19.5 -48.5t49.5 -19.5q29 0 48.5 19.5t19.5 48.5t-19.5 49.5t-48.5 20.5q-30 0 -49.5 -20.5t-19.5 -49.5zM169 -2q-30 0 -55.5 12.5t-44 32t-29 43t-10.5 46.5q0 38 23 62t62 24q27 0 53 -11t45.5 -29.5t31.5 -43t12 -51.5q0 -37 -24.5 -61t-63.5 -24z
M60 132q0 23 15.5 39t38.5 16t38 -16t15 -39t-15 -38t-38 -15t-38.5 15t-15.5 38z" />
    <glyph glyph-name="slash" unicode="/" horiz-adv-x="459" 
d="M52 84h56l257 621h-58zM297 720h83l49 -69l-268 -651h-82l-49 69zM219 394q-9 -1 -15 -13t-9.5 -27.5t-5.5 -31.5l-3 -24q-14 -17 -27 -39t-34 -62l16.5 46.5t8.5 54.5q4 5 12 18t16 27.5t14.5 27.5t6.5 18t-6 5l122 296h27zM275 556l-22.5 -46t-23.5 -40
q-1 -11 -5.5 -28t-9.5 -33l16.5 34.5t16.5 26.5q4 20 12.5 44.5t15.5 41.5z" />
    <glyph glyph-name="zero" unicode="0" horiz-adv-x="551" 
d="M239 715q-51 0 -89.5 -24t-64 -67t-38 -101t-12.5 -126q0 -70 12.5 -128.5t38 -101t64 -66t89.5 -23.5t89 23.5t63.5 66t38.5 101t13 128.5q0 68 -13 126t-38.5 101t-63.5 67t-89 24zM239 636q21 0 34.5 -21.5t21 -56t10.5 -77t3 -84.5q0 -43 -3 -86.5t-11 -78t-21 -56.5
t-34 -22t-34 22t-21 56.5t-11 78t-3 86.5q0 42 3 84.5t10.5 77t21 56t34.5 21.5zM304 -10q-81 0 -135.5 36.5t-87.5 95t-47 131t-14 144.5q0 71 14 132t41.5 105.5t68.5 70t95 25.5q70 0 124.5 -30.5t92 -84t56.5 -126.5t19 -157q0 -73 -14 -135.5t-42 -108.5t-71 -72
t-100 -26zM274 576q-7 -18 -11 -49.5t-6 -65.5t-2.5 -66t-0.5 -51q0 -45 5.5 -83t12.5 -62q11 30 16.5 82t5.5 116q0 18 -1 43t-3 50.5t-6 48.5t-10 37zM147 604q-35 -29 -53 -68.5t-26 -74.5q13 -8 22.5 -24t15.5 -33q4 17 13.5 33.5t22.5 22.5q-8 12 -11 26t-3 29
q0 17 5.5 42t13.5 47zM322 394q0 44 -3.5 89.5t-12.5 83t-25 61t-42 23.5t-42 -23.5t-25 -61t-12.5 -83t-3.5 -89.5q-5 4 -10 5t-8 1q-11 0 -19 -7.5t-8 -20.5q0 -8 4 -16t10 -14.5t12 -11l10 -7.5q-10 -13 -13.5 -28t-3.5 -31q0 -19 4.5 -40t10.5 -37q-36 25 -53 62.5
t-27 73.5q12 9 21 21t9 28q0 8 -4 17.5t-18 9.5q-5 0 -12 -1.5t-12 -4.5q0 66 12 122t35.5 97.5t59 64.5t83.5 23t83.5 -23.5t59 -65t35.5 -97.5t12 -121q-11 6 -24 6q-14 0 -18 -9.5t-4 -17.5q0 -16 9 -28t21 -21q-3 -15 -9 -33.5t-16 -37t-23.5 -36t-31.5 -29.5
q6 16 10.5 37t4.5 40q0 16 -3.5 31t-13.5 28l10 7.5t12 11t10 14.5t4 16q0 13 -8 20.5t-19 7.5q-3 0 -8 -1t-10 -5zM331 604q8 -22 13.5 -47t5.5 -42q0 -15 -3 -29t-11 -26q13 -6 22.5 -22.5t13.5 -33.5q6 17 15.5 33t22.5 24q-8 35 -26 74.5t-53 68.5z" />
    <glyph glyph-name="one" unicode="1" horiz-adv-x="394" 
d="M112 210q0 -32 -15.5 -44t-36.5 -12v-70h230v70q-23 0 -37.5 11.5t-14.5 44.5v495h-85q-4 -23 -15 -46t-28 -42t-38.5 -32t-46.5 -17v-62q26 0 49.5 9t37.5 22v-327zM97 424q-10 -2 -18 -2l-69 69v90q25 3 47 16.5t39.5 33t28.5 43t15 46.5h113l69 -69v-483l52 -47v-121
h-260l-69 69v100q21 0 36.5 9t15.5 32v214zM175 602q-6 -47 -14 -80t-22 -61q13 -9 22 -24t14 -33q11 39 36 57q-14 29 -22 62t-14 79zM127 572q-20 -23 -43.5 -34t-43.5 -16v33q23 5 43.5 18.5t36.5 32t27.5 40.5t17.5 44h58v-294l-9 3.5t-9 1.5q-22 0 -22 -29
q0 -12 6.5 -24.5t21.5 -17.5q-14 -32 -22.5 -74t-13.5 -79q-5 37 -14.5 79t-21.5 74q15 5 21.5 17.5t6.5 24.5q0 29 -22 29q-9 0 -18 -4v175z" />
    <glyph glyph-name="two" unicode="2" horiz-adv-x="549" 
d="M230 715q-38 0 -72.5 -11.5t-60.5 -33.5t-41.5 -53.5t-15.5 -71.5q0 -45 26 -70t59 -25q13 0 27 3.5t25.5 13t19 25.5t7.5 41q0 32 -17 51.5t-42 19.5q-18 0 -30.5 -9.5t-21.5 -23.5q1 18 9 34.5t21.5 30t32.5 21.5t42 8q45 0 70 -25.5t25 -81.5q0 -48 -18.5 -78
t-46.5 -51.5t-61 -40.5t-61 -45t-46.5 -65t-18.5 -100q0 -21 5.5 -49t10.5 -45h50q2 51 45 51q20 0 37 -10l36.5 -22.5t43.5 -22.5t58 -10q63 0 87.5 44t24.5 116v51h-38q0 -35 -14.5 -49.5t-37.5 -14.5q-14 0 -28 5.5l-30 11.5t-34 11.5t-40 5.5q-48 0 -79 -21t-44 -66
q-2 8 -3 17.5t-1 17.5q0 38 26 58.5t64.5 34.5t84 28t84 39t64.5 67.5t26 113.5q0 44 -17 77t-45.5 54.5t-66.5 32.5t-80 11zM359 388q-13 7 -34 7q-27 0 -51.5 -12.5t-24.5 -34.5q0 -5 3 -11q-51 -5 -99 -25t-82 -74q7 30 19.5 51t27 35.5t28.5 24t26 16.5q5 -2 9 -2h9
q13 0 25.5 3.5t22.5 8t16 10t6 10.5q0 8 -18 8q-7 0 -14 -2l-14 -4q19 13 36 28t30 34t20.5 43t7.5 56q0 63 -29.5 92.5t-80.5 29.5q-25 0 -46.5 -9.5t-37.5 -25.5t-25 -37t-9 -43q0 -15 10 -15q5 0 9.5 6l10 13.5t14 13.5t20.5 6q17 0 31 -15t14 -41q0 -20 -6 -33
t-15.5 -20.5t-21 -11t-21.5 -3.5q-26 0 -48 19t-22 61q0 36 14 65t37.5 49t55.5 30.5t68 10.5q39 0 74 -10t62 -30t42.5 -50t15.5 -70q0 -55 -18.5 -93.5t-46.5 -58.5zM356 602q0 -24 -1 -43t-6 -36t-15.5 -32t-29.5 -30q2 -8 2 -13q0 -19 -17 -44q24 21 45 31t41 15
q2 11 4 25.5t2 30.5q0 23 -5.5 48t-19.5 48zM318 239q16 -6 31 -6q12 0 22 6.5t14 26.5q-12 -8 -32.5 -15.5t-34.5 -11.5zM271 513q7 18 7 45q0 13 -6.5 18t-15.5 5q-17 0 -36 -13q17 -9 28.5 -21t22.5 -34zM132 382q-30 9 -50.5 27.5t-33 41.5t-18 47.5t-5.5 46.5
q0 44 17 78.5t45 58t65 36t78 12.5q67 0 121.5 -21.5t93 -57.5t59 -82.5t20.5 -97.5q0 -122 -94 -175h24l70 -69v-66q0 -79 -28 -127t-99 -48q-36 0 -62.5 10t-46.5 21.5t-35.5 21.5t-30.5 10q-29 0 -30 -49h-77l-70 69q-3 10 -6.5 24.5t-6 30t-4.5 29.5t-2 25q0 41 8.5 72
t23.5 55.5t34 43t40 33.5z" />
    <glyph glyph-name="three" unicode="3" horiz-adv-x="565" 
d="M324 408q23 6 42.5 15.5t34 26t22.5 40.5t8 58q0 43 -16.5 74t-44 51.5t-63.5 30t-75 9.5q-37 0 -69.5 -8t-57 -26t-39 -46t-14.5 -68q0 -42 20.5 -67t55.5 -25q32 0 49.5 21t17.5 54q0 21 -11 41.5t-34 20.5q-15 0 -25.5 -12t-12.5 -28q-5 2 -7 9t-2 15q0 18 9 31
t22.5 21.5t30 12t31.5 3.5q48 0 75 -26t27 -82q0 -51 -19.5 -79.5t-65.5 -28.5v-68q18 0 34.5 -5t29.5 -18.5t21 -37t8 -60.5q0 -39 -8.5 -65.5t-23.5 -42.5t-35 -23t-42 -7q-12 0 -30 4t-34 13.5t-27.5 26.5t-11.5 44v10t1 11q7 -19 20 -30t27 -11q25 0 35.5 21t10.5 49
q0 47 -21 68.5t-52 21.5q-38 0 -59 -28.5t-21 -73.5q0 -46 16.5 -78t44 -52t64 -29t76.5 -9q46 0 85 9t67.5 29.5t44.5 52.5t16 79q0 33 -10 60.5t-27 47.5t-40 33.5t-48 19.5zM198 389q-26 0 -54.5 11.5t-52 34t-39 55t-15.5 75.5q0 45 15.5 76t42 50.5t62 28t75.5 8.5
q62 0 114 -18.5t89.5 -50.5t58.5 -75.5t21 -94.5q0 -29 -7 -51.5t-18.5 -39.5t-25 -29.5t-26.5 -19.5q40 -21 68.5 -66.5t28.5 -103.5q0 -51 -17.5 -86t-48 -57.5t-73 -32.5t-91.5 -10q-50 0 -101 15.5t-92 46.5t-66.5 78.5t-25.5 111.5q0 52 25 84.5t70 32.5q32 0 60 -14
t48.5 -39.5t32.5 -61.5t12 -80q11 14 17 36t6 54q0 37 -24 37l-69 69v26zM274 507q4 8 6 20.5t2 23.5q0 28 -26 28q-9 0 -17.5 -3.5t-18.5 -8.5q22 -5 36 -22.5t18 -37.5zM306 401q0 -15 9.5 -24.5t23.5 -17t29.5 -14t26.5 -14.5q8 -26 8 -46q0 -30 -11 -54.5t-32 -46.5
q6 21 6 45q0 28 -12 53t-42 39q1 3 1 10q0 30 -19 48.5t-43 18.5q-4 0 -11 -1t-12 -3v37q47 4 66 36.5t19 86.5q0 63 -31.5 93t-85.5 30q-18 0 -37 -5t-34.5 -15t-25.5 -26.5t-10 -38.5q0 -11 4 -23.5t18 -12.5q7 0 10 6t6 13.5t7.5 13.5t15.5 6q15 0 22.5 -15.5t7.5 -31.5
q0 -26 -13.5 -43t-38.5 -17q-28 0 -44.5 21.5t-16.5 55.5q0 37 13 62t35.5 41t52.5 23t64 7q36 0 69.5 -9t59 -27t40.5 -46.5t15 -67.5q0 -51 -17 -75t-38 -35.5t-38 -17t-17 -19.5zM351 602q2 -8 4 -17t2 -17q0 -26 -9.5 -48.5t-35.5 -36.5q1 -4 1 -11q0 -18 -10.5 -31.5
t-25.5 -26.5q38 14 63 29.5t44 40.5q1 7 1.5 14t0.5 14q0 27 -8 51.5t-27 38.5z" />
    <glyph glyph-name="four" unicode="4" horiz-adv-x="547" 
d="M235 210q0 -32 -15.5 -44t-36.5 -12v-70h230v70q-23 0 -37.5 11.5t-14.5 44.5v45h92v58h-92v392h-103l-238 -370v-80h215v-45zM235 556v-243h-155zM114 395q-6 4 -16 4q-5 0 -10 -1t-12 -3l190 295h80v-294l-9 3.5t-9 1.5q-22 0 -22 -29q0 -12 6.5 -24.5t21.5 -17.5
q-14 -32 -22.5 -74t-13.5 -79q-5 37 -14.5 79t-21.5 74q15 5 21.5 17.5t6.5 24.5q0 29 -22 29q-9 0 -18 -4v211zM298 602q-6 -47 -14 -80t-22 -61q13 -9 22 -24t14 -33q11 39 36 57q-14 29 -22 62t-14 79zM220 328v48l-30 -48h30zM5 240v100l245 380h126l69 -69v-323h23
l69 -69v-88h-92v-30l52 -41v-100h-260l-69 69v102h-94z" />
    <glyph glyph-name="five" unicode="5" horiz-adv-x="526" 
d="M67 709q6 -32 8.5 -65.5t2.5 -59.5q0 -111 -38 -213l37 -13q26 26 58 39.5t59 13.5q46 0 70.5 -31.5t24.5 -114.5q0 -43 -9 -72t-24 -46t-34 -24.5t-39 -7.5q-19 0 -39.5 6t-37 19t-27 31.5t-10.5 44.5q11 -20 22 -30t28 -10q24 0 39.5 17t15.5 52q0 36 -19 58.5
t-54 22.5q-38 0 -57 -26.5t-19 -62.5q0 -37 14.5 -66.5t40 -50.5t60.5 -32.5t76 -11.5q45 0 84.5 10t68.5 32.5t46 60t17 91.5q0 45 -15.5 80.5t-43 60.5t-66.5 38t-85 13q-42 0 -70.5 -10t-51.5 -27q19 60 19 126q0 6 -0.5 12.5t-0.5 12.5q29 -28 60.5 -37.5t66.5 -9.5
q69 0 106 41t37 139h-23q-19 -20 -51.5 -34t-67.5 -14q-41 0 -68 13t-50 35h-61zM369 394q-8 2 -12 2q-11 0 -16 -7t-5 -15q0 -22 17.5 -34t32.5 -17q0 -15 -3 -34t-10.5 -38t-19 -36t-28.5 -29q5 14 7 33t2 36q0 22 -7.5 41t-24.5 27q13 11 17 21.5t4 23.5q0 14 -7.5 22
t-19.5 8q-4 0 -9.5 -1.5t-10.5 -6.5q-27 36 -82 36q-26 0 -58 -11.5t-62 -40.5l-14 6q17 48 25 99.5t8 104.5q0 24 -1.5 52.5t-6.5 57.5h37q24 -22 53 -35t71 -13q36 0 68 13t57 35q-2 -83 -34 -116.5t-92 -33.5q-29 0 -65.5 11.5t-75.5 49.5q1 -8 1.5 -15.5t0.5 -15.5
q0 -45 -7.5 -94t-20.5 -87q35 33 72.5 43.5t71.5 10.5q46 0 83.5 -13.5t63.5 -39.5zM263 191q11 30 11 74q0 17 -2 34.5t-4 29.5q-20 0 -41 -5.5t-42 -20.5q35 -13 55.5 -43t22.5 -69zM285 -9q-58 0 -108.5 19.5t-87.5 53.5t-58 78.5t-21 94.5q0 28 11.5 53t31.5 39l-32 32
q42 114 42 223q0 31 -3 65t-11 75h85q23 -22 49 -35t63 -13q32 0 63 14t50 34h45l69 -69q0 -101 -30 -150t-90 -60q26 -13 55 -35t53 -52.5t39.5 -69t15.5 -83.5q0 -59 -18 -99.5t-49.5 -66t-73.5 -37t-90 -11.5z" />
    <glyph glyph-name="six" unicode="6" horiz-adv-x="536" 
d="M252 711q-61 0 -102.5 -28t-67 -73t-36.5 -102.5t-11 -116.5q0 -56 9.5 -112.5t34 -102t65.5 -74t104 -28.5q49 0 85.5 14.5t59.5 40.5t34.5 62.5t11.5 81.5q0 41 -10.5 76t-31 60.5t-51 40t-69.5 14.5q-32 0 -58.5 -9.5t-42.5 -27.5q3 64 10 108t19.5 72t30.5 40.5
t42 12.5q18 0 32.5 -6t25 -15t16.5 -20t6 -21q0 -11 -5 -16q-7 11 -16 19t-23 8q-19 0 -30 -16t-11 -40q0 -36 20.5 -53.5t48.5 -17.5q32 0 52.5 20.5t20.5 55.5q0 41 -14.5 70t-37.5 47.5t-52 27t-59 8.5zM246 409q32 0 48.5 -33t16.5 -113q0 -49 -6 -78.5t-15 -45
t-20.5 -20.5t-23.5 -5t-24.5 6t-22.5 22.5t-16.5 44.5t-6.5 73q0 74 16.5 111.5t53.5 37.5zM161 393q-10 7 -21 7t-18.5 -7.5t-7.5 -20.5q0 -8 4 -16t10 -14.5t12 -11l10 -7.5q-10 -13 -13.5 -28t-3.5 -31q0 -19 4.5 -40.5t10.5 -37.5q-36 25 -53 63t-27 74q12 9 21 21t9 28
q0 8 -4 17.5t-18 9.5q-5 0 -12.5 -1.5t-12.5 -4.5q0 56 10 110.5t33.5 97t62 69t95.5 26.5q27 0 53.5 -7.5t47.5 -24t34 -43t13 -63.5q0 -30 -16.5 -45.5t-41.5 -15.5q-22 0 -38 13.5t-16 42.5q0 17 6.5 29t19.5 12q9 0 13.5 -4t8.5 -9t8 -9t10 -4q7 0 11.5 6.5t4.5 16.5
q0 37 -27.5 60t-65.5 23q-26 0 -47 -11.5t-36 -43t-23.5 -86t-9.5 -140.5zM272 504q-1 -8 -1.5 -13.5t-0.5 -12.5q5 0 13.5 -0.5t21.5 -2.5q-12 5 -20 11t-13 18zM252 726q53 0 97.5 -16.5t76.5 -46t50 -69.5t18 -87q0 -41 -23 -69t-52 -36q22 -13 41 -34.5t32.5 -47.5
t21 -56t7.5 -60q0 -48 -12 -87.5t-37.5 -67.5t-64.5 -43.5t-92 -15.5q-85 0 -141.5 35t-90.5 91.5t-48.5 128.5t-14.5 146q0 61 11.5 121.5t38.5 107.5t71.5 76.5t110.5 29.5zM270 138q11 11 18.5 39t7.5 86q0 9 -0.5 20t-1.5 22t-2.5 21.5t-2.5 16.5q-8 -7 -13.5 -23
t-8.5 -34.5t-4.5 -37.5t-1.5 -33q0 -49 9 -77zM150 605q-35 -29 -53 -69t-26 -75q13 -8 22.5 -24t15.5 -33q4 17 13.5 33.5t22.5 22.5q-8 12 -11 26t-3 29q0 17 5.5 42.5t13.5 47.5zM392 401q-17 0 -24.5 -8t-7.5 -19t5 -19t12.5 -14t16.5 -10.5t16 -7.5q-1 -16 -5 -34.5
t-12.5 -37t-21 -35.5t-30.5 -30q5 14 7 30t2 30q0 25 -6.5 45.5t-18.5 31.5q20 17 20 42q0 14 -7 23.5t-19 9.5q-7 0 -17 -5q-10 17 -24.5 24t-31.5 7q-14 0 -29 -8t-24 -23q-6 4 -12 4t-14 -4q8 17 21.5 28t29 17t31 8.5t28.5 2.5q32 0 59.5 -10.5t55.5 -37.5z" />
    <glyph glyph-name="seven" unicode="7" horiz-adv-x="516" 
d="M350 610q0 -39 -18.5 -71.5t-46.5 -63t-60.5 -60.5t-60.5 -64.5t-46.5 -75.5t-18.5 -92q0 -19 5 -38t17 -34.5t31.5 -25.5t47.5 -10t48 9.5t33 24.5t18.5 34.5t5.5 39.5q-17 13 -27.5 30.5t-10.5 41.5q0 29 12.5 55.5t31 53t40.5 54.5t40.5 60t31 70t12.5 84
q0 16 -3.5 35t-9.5 30h-74q-3 -13 -13 -23t-26 -10q-10 0 -21 7t-25.5 15t-32.5 15t-43 7q-29 0 -55 -13t-42 -43q-3 13 -9 24t-14 19h-37q6 -23 10 -48t4 -51q0 -27 -4.5 -58t-10.5 -52h54q9 69 61 69q13 0 24 -4t22 -9t23.5 -9t28.5 -4q12 0 27 3.5t30 12.5t28.5 25
t22.5 40zM10 471q8 27 13.5 62t5.5 63q0 23 -5.5 56.5t-12.5 57.5h64l25 -18q19 18 40 24.5t47 6.5t45.5 -6.5t33.5 -14.5t24 -14.5t18 -6.5q12 0 19.5 9t9.5 22h96l60 -64q3 -7 6.5 -17.5t6 -22.5t4 -22.5t1.5 -17.5q0 -37 -12.5 -69t-31 -61.5t-40 -58t-40 -57t-31 -59.5
t-12.5 -65q0 -20 11.5 -41t28.5 -34q0 -24 -7 -47.5t-22.5 -42.5t-40 -30.5t-60.5 -11.5q-33 0 -63.5 13.5t-54 38.5t-38 60.5t-14.5 79.5q0 45 15.5 83.5t40 72.5t54.5 64l59 57q-15 1 -25 5t-20 4q-20 0 -30 -16t-15 -51h-84zM352 626q-8 0 -14 -13t-16.5 -28t-28.5 -28
t-51 -13q-15 0 -27 4t-23 9t-22.5 9t-25.5 4q-61 0 -74 -69h-22q5 22 8 47t3 48q0 24 -2.5 44.5t-7.5 39.5h13q5 -8 12 -25t9 -43q18 46 46 63.5t58 17.5q22 0 38.5 -7t30.5 -15l26.5 -15t26.5 -7q17 0 29.5 10.5t17.5 22.5h57q3 -8 5.5 -23.5t2.5 -26.5q0 -40 -9.5 -74
t-24.5 -62.5t-33.5 -53l-36.5 -46.5q-9 5 -20 5q-21 0 -34 -18t-13 -35q0 -13 11 -18q-23 -23 -35.5 -62.5t-12.5 -90.5q-20 25 -29.5 58.5t-9.5 63.5q0 17 3 31q13 3 26.5 11.5t25 18t19 19t7.5 15.5q0 7 -12 7q-7 0 -16 -4q25 22 49.5 47t44 51t32 53t12.5 54
q0 11 -2.5 17.5t-10.5 6.5zM391 602q-6 -47 -32 -82.5t-55 -58.5q1 -3 1 -9q0 -13 -9.5 -24.5t-23.5 -23.5q17 4 28.5 11.5t20 16t15.5 16.5t16 13q14 19 27.5 50t13.5 69q0 5 -0.5 10.5t-1.5 11.5z" />
    <glyph glyph-name="eight" unicode="8" horiz-adv-x="589" 
d="M325 445q-38 15 -70.5 29.5t-57.5 31.5t-39 36.5t-14 45.5q0 39 31.5 58t77.5 19q26 0 49.5 -7t41 -20.5t28 -34t10.5 -48.5q0 -30 -13.5 -57t-43.5 -53zM167 362q33 -18 69 -34t65 -34t48 -39.5t19 -50.5q0 -35 -30.5 -57.5t-86.5 -22.5q-28 0 -54 6.5t-46 21.5t-32 39
t-12 59q0 29 14 61t46 51zM127 386q-48 -26 -70 -62.5t-22 -75.5q0 -42 16 -74.5t44.5 -54.5t68 -33.5t86.5 -11.5q112 0 173 47t61 136q0 33 -10.5 58.5t-27 45t-36.5 33.5t-38 25q39 29 55.5 64t16.5 67q0 41 -16.5 71.5t-43 50t-61 29t-70.5 9.5q-96 0 -152.5 -44.5
t-56.5 -129.5q0 -50 23 -88t60 -62zM329 427q35 32 51.5 63t16.5 65q0 31 -11.5 54.5t-31 39.5t-46 23.5t-55.5 7.5q-52 0 -88 -22.5t-36 -69.5q0 -29 15 -51.5t42 -41t63.5 -35t79.5 -33.5zM363 549q0 17 -15.5 26.5t-39.5 9.5q-40 0 -59.5 -14.5t-19.5 -39.5q0 -14 9 -24
t23 -18t30 -14t30 -12q23 21 32.5 42t9.5 44zM191 194q0 -28 16.5 -41.5t46.5 -13.5q45 0 70.5 17t28.5 48l-33.5 22t-34.5 20.5l-32 18l-24 13.5q-21 -18 -29.5 -41.5t-8.5 -42.5zM320 -10q-57 0 -111 16t-96 48t-67.5 80.5t-25.5 113.5q0 42 18 75t52 56q-29 27 -45 68.5
t-16 88.5q0 46 16 81t45 59t70.5 36.5t92.5 12.5q58 0 108.5 -19.5t88 -52t58.5 -76t21 -91.5q0 -31 -15 -65t-48 -58q18 -12 36 -29t33 -39t24.5 -48.5t9.5 -58.5q0 -97 -65.5 -147.5t-183.5 -50.5zM163 382q-52 30 -78 69.5t-26 84.5q0 77 52.5 118t141.5 41
q33 0 64.5 -8.5t56.5 -26.5t40 -45.5t15 -64.5q0 -29 -21.5 -66.5t-61.5 -66.5l26.5 -16.5t27.5 -19.5q-24 8 -43 8q-14 0 -21.5 -3t-7.5 -13q0 -14 20 -20t44 -6q17 -15 26.5 -37.5t9.5 -52.5q0 -23 -6 -50q-13 51 -41.5 78.5t-79.5 40.5q11 14 11 26q0 15 -13.5 24.5
t-33.5 9.5q-15 0 -33 -6q-16 10 -34 10q-10 0 -20.5 -3t-14.5 -5zM103 575q-11 -28 -11 -55q0 -32 15 -60q15 -4 26.5 -11l25 -14.5t32.5 -13t50 -5.5q-32 17 -50 30.5t-23 36.5q-28 9 -45.5 29.5t-19.5 62.5z" />
    <glyph glyph-name="nine" unicode="9" horiz-adv-x="540" 
d="M215 77q67 0 110 28t67 73t33 102t9 116q0 56 -9.5 112.5t-34 102t-65.5 74t-104 28.5q-50 0 -86 -14.5t-59 -40.5t-34.5 -62.5t-11.5 -81.5q0 -41 10.5 -76t31 -60.5t51 -40t69.5 -14.5q32 0 59 9t42 25q-3 -64 -8.5 -108t-17 -71t-30 -39t-46.5 -12q-39 0 -59.5 19.5
t-20.5 42.5q0 7 1.5 10.5t3.5 5.5q7 -11 16 -19t23 -8q19 0 30 16t11 40q0 36 -20.5 53.5t-48.5 17.5q-34 0 -53.5 -25t-19.5 -60q0 -41 14 -68.5t37 -44t51.5 -23.5t58.5 -7zM228 673q32 0 48.5 -33t16.5 -113q0 -49 -6 -78.5t-15 -45t-20.5 -20.5t-23.5 -5t-24.5 6
t-22.5 22.5t-16.5 44.5t-6.5 73q0 74 16.5 111.5t53.5 37.5zM281 -7q-53 0 -97.5 18t-76.5 48.5t-50 72t-18 88.5q0 38 18 63t38 33q-22 12 -37 33t-24.5 47.5t-14 57t-4.5 60.5q0 48 12 87.5t37.5 67.5t64.5 43.5t92 15.5q85 0 142 -35t92 -91.5t50 -128.5t15 -146
q0 -62 -12 -121.5t-40 -107t-74 -76.5t-113 -29zM252 402q11 11 18.5 39t7.5 86q0 9 -0.5 20t-1.5 22t-2.5 21.5t-2.5 16.5q-8 -7 -13.5 -23t-8.5 -34.5t-4.5 -37.5t-1.5 -33q0 -49 9 -77zM419 393q-5 3 -13 4.5t-13 1.5q-14 0 -18 -9.5t-4 -17.5q0 -16 9 -28t21 -21
q-8 -34 -26 -73t-54 -64q6 16 10.5 37.5t4.5 40.5q0 16 -3.5 31t-13.5 28l10 7.5t12 11t10 14.5t4 16q0 13 -8 20.5t-19 7.5t-19.5 -9.5t-22 -21.5t-35.5 -21.5t-59 -9.5q-36 0 -63 13.5t-46 37t-28.5 55.5t-9.5 70q0 41 10.5 75t32 58t54.5 37.5t79 13.5q58 0 96.5 -27.5
t61 -71.5t31.5 -98t9 -108zM270 264q-19 -7 -35 -7q6 -4 14 -14t13 -22l4 20.5t4 22.5zM228 688q-45 0 -65 -41.5t-20 -122.5q0 -49 8 -80.5t20 -49.5t27 -24.5t30 -6.5q14 0 28.5 5.5t26 23t18.5 49.5t7 86q0 88 -20.5 124.5t-59.5 36.5zM325 607q7 -19 10.5 -38.5
t3.5 -42.5q0 -17 -3.5 -34t-11.5 -32q13 -6 22.5 -22.5t13.5 -33.5q6 17 15.5 33t22.5 24q-4 18 -9.5 37.5t-13.5 38.5t-20.5 37t-29.5 33zM61 515q6 -11 10.5 -24t10.5 -26.5t14.5 -26.5t21.5 -23q-3 11 -4.5 23.5t-1.5 21.5q0 16 4.5 28.5t13.5 25.5q-18 25 -18 54
q0 9 1.5 21.5t4.5 23.5q-12 -10 -20 -22t-14 -25t-11 -26t-12 -25z" />
    <glyph glyph-name="colon" unicode=":" horiz-adv-x="307" 
d="M45 132q0 -29 19.5 -48.5t49.5 -19.5q29 0 48.5 19.5t19.5 48.5t-19.5 49.5t-48.5 20.5q-30 0 -49.5 -20.5t-19.5 -49.5zM169 -2q-30 0 -55.5 12.5t-44 32t-29 43t-10.5 46.5q0 38 23 61.5t62 23.5q27 0 53 -11t45.5 -29t31.5 -42.5t12 -51.5q0 -37 -24.5 -61t-63.5 -24z
M45 425q0 -29 19.5 -48.5t49.5 -19.5q29 0 48.5 19.5t19.5 48.5t-19.5 49.5t-48.5 20.5q-30 0 -49.5 -20.5t-19.5 -49.5zM60 425q0 23 15.5 39t38.5 16t38 -16t15 -39t-15 -38t-38 -15t-38.5 15t-15.5 38zM169 291q-30 0 -55.5 12.5t-44 32t-29 43t-10.5 46.5q0 38 23 61.5
t62 23.5q27 0 53 -11t45.5 -29t31.5 -42.5t12 -51.5q0 -37 -24.5 -61t-63.5 -24zM60 132q0 23 15.5 39t38.5 16t38 -16t15 -39t-15 -38t-38 -15t-38.5 15t-15.5 38z" />
    <glyph glyph-name="semicolon" unicode=";" 
d="M50 425q0 -29 19.5 -48.5t49.5 -19.5q29 0 48.5 19.5t19.5 48.5t-19.5 49.5t-48.5 20.5q-30 0 -49.5 -20.5t-19.5 -49.5zM65 425q0 23 15.5 39t38.5 16t38 -16t15 -39t-15 -38t-38 -15t-38.5 15t-15.5 38zM174 291q-30 0 -55.5 12.5t-44 32t-29 43t-10.5 46.5
q0 38 23 61.5t62 23.5q27 0 53 -11t45.5 -29t31.5 -42.5t12 -51.5q0 -37 -24.5 -61t-63.5 -24zM118 64q7 0 12 1.5t10 3.5q-3 -26 -23.5 -58t-49.5 -55l17 -15q29 18 49.5 42t33 49.5t18.5 49.5t6 42q0 39 -21.5 58.5t-50.5 19.5q-30 0 -49.5 -20.5t-19.5 -49.5t18.5 -48.5
t49.5 -19.5zM99 16q-17 9 -29 22t-20 28.5t-12 32.5t-4 32q0 37 23.5 61.5t62.5 24.5q27 0 53 -10t46 -29.5t32 -48.5t12 -66q0 -33 -11.5 -63.5t-32.5 -56t-50.5 -45.5t-64.5 -31l-74 72q17 14 35.5 34t33.5 43zM65 133q0 23 15 39t39 16q29 0 41.5 -19.5t12.5 -44.5
q0 -26 -10 -51t-21 -42q4 13 7 28t3 32q-7 -5 -16.5 -8t-18.5 -3q-23 0 -37.5 15t-14.5 38z" />
    <glyph glyph-name="less" unicode="&#x3c;" horiz-adv-x="1757" 
d="M1227 714q16 -9 30 -19t31 -27q-2 6 -8 13.5t-14.5 14.5t-18.5 12t-20 6zM1276 707q17 -11 33 -27.5t32 -36.5q-3 10 -9.5 21t-15.5 20t-19.5 15.5t-20.5 7.5zM1318 698q17 -11 37.5 -34.5t36.5 -48.5q-3 15 -11.5 29t-19 26t-22 19.5t-21.5 8.5zM1711 390q0 -17 -4 -37
t-14 -46q8 4 14 16.5t12 30.5q-2 -14 -6.5 -36.5t-13.5 -51.5q6 7 12.5 17.5t12.5 27.5q0 -14 -3.5 -33t-13.5 -39q5 5 10.5 12t10.5 21q0 -17 -4.5 -30.5t-10.5 -24.5l17 21q2 -5 2 -9.5v-9.5q0 -19 -9 -38q7 -20 7 -37q0 -26 -9.5 -45.5t-13.5 -45.5q-46 -7 -93 -11
t-92 -4q-32 0 -59.5 -3t-53.5 -13l-59.5 -22.5t-60.5 -9.5q-27 0 -46.5 11.5t-31.5 42.5l-171.5 -29.5t-176.5 -15.5q-22 0 -55.5 5.5t-64.5 6.5q-42 2 -66.5 20.5t-24.5 53.5q0 5 0.5 8.5t1.5 8.5q-12 -5 -25 -7t-28 -2q-33 0 -57 18t-24 53q0 16 15 36q-22 -5 -41 -5
q-48 0 -71 21.5t-23 55.5q0 13 3 27q-13 -14 -27.5 -19.5t-33.5 -7.5q-9 -11 -21.5 -18.5t-27 -13t-29 -9t-26.5 -4.5q-29 -19 -60.5 -33t-69.5 -14q-30 0 -44 15.5t-14 33.5q0 29 15.5 53t39 43t51.5 31t52 17q26 32 66 53.5t77 29.5q16 14 34.5 24t37.5 17.5l38.5 15
t37.5 17.5q34 50 82 80.5t102 47.5t109.5 23t105.5 6q17 0 36 -1.5t36 -3.5t31 -5.5t20 -6.5q11 11 28.5 17t34.5 6q7 0 14.5 -1t14.5 -1q14 15 42 23.5t60 8.5q45 0 78 -6t56 -21.5t39.5 -41t28.5 -64.5q0 17 -9.5 47.5t-29.5 60.5q26 -22 43 -56t29 -72q-1 15 -6 44
t-25 71q19 -17 30.5 -50t28.5 -76q-6 31 -13.5 62t-18.5 62q35 -58 55 -140q-3 33 -9 65.5t-17 65.5q14 -34 25 -70.5t21 -74.5q-2 34 -7 69t-16 70q17 -37 28.5 -76.5t21.5 -80.5q-3 37 -8.5 74t-13.5 74q17 -39 28 -85t20 -95q-1 42 -5.5 84t-17.5 84q17 -41 28 -90.5
l22 -102.5q0 40 -5 85.5t-16 87.5q17 -45 27 -96.5t18 -105.5l2 22.5t1 22.5q0 64 -14 132q14 -45 22.5 -97t16.5 -107q3 28 3 56q0 50 -9 100q15 -42 20.5 -88t8.5 -94q9 14 8.5 38.5t4.5 54.5q3 -11 5 -24.5t2 -30.5t-2.5 -36t-8.5 -42q17 11 26 58zM1701 203q3 -27 3 -49
q0 -18 -6 -42t-19 -50q17 17 24 40t7 43q0 31 -9 58zM1687 213q2 -14 2 -25.5v-22.5q0 -31 -6 -55t-20 -51q14 14 23 40t9 46q0 16 -1 30.5t-7 37.5zM1647 60q9 8 15.5 21t11 27t7 28t2.5 24q0 26 -8 58q2 -13 2 -22.5v-17.5t-0.5 -18.5t-3.5 -21.5q0 22 -3 44.5t-11 41.5
q5 -30 6 -47.5t1 -36.5q0 -46 -19 -80zM1641 229q6 -29 8 -47t2 -37q0 -24 -7 -44.5t-16 -40.5q14 16 22 38.5t8 44.5t-4.5 44.5t-12.5 41.5zM1626 234q6 -29 7.5 -47t1.5 -37q0 -24 -5.5 -44.5t-18.5 -46.5q18 20 24.5 43.5t6.5 45.5q0 46 -16 86zM1612 239q6 -29 7.5 -47
t1.5 -37q0 -24 -5.5 -46.5t-18.5 -49.5q18 20 24.5 46t6.5 48q0 46 -16 86zM1597 249q4 -32 6 -54t2 -41q0 -24 -5.5 -46t-18.5 -49q18 20 24.5 45.5t6.5 47.5t-3 48t-12 49zM1580 256q4 -32 6 -54t2 -41q0 -24 -4.5 -45t-18.5 -57q18 26 24 52t6 48t-2.5 46.5t-12.5 50.5z
M1561 266q4 -32 6 -56t2 -43q0 -24 -5 -48t-17 -60q16 26 22.5 52t6.5 54q0 22 -2.5 48.5t-12.5 52.5zM1543 280q4 -32 6 -58t2 -45q0 -24 -5 -51t-18 -69q14 27 22 58.5t8 59.5q0 22 -2.5 50.5t-12.5 54.5zM1525 284q4 -32 5.5 -58t1.5 -45q0 -24 -5.5 -53t-18.5 -71
q14 27 22.5 60.5t8.5 61.5q0 22 -3 51.5t-11 53.5zM1504 303q5 -33 6.5 -67.5t1.5 -53.5q0 -24 -4.5 -54.5t-17.5 -72.5q14 27 21.5 61.5t7.5 62.5q0 22 -3 57.5t-12 66.5zM1485 303q4 -33 5.5 -67.5t1.5 -53.5q0 -24 -4.5 -54.5t-17.5 -72.5q14 27 21.5 61.5t7.5 62.5
q0 22 -2 54t-12 70zM1467 313q3 -17 4.5 -35t2.5 -35.5t1 -32.5v-24q0 -24 -4.5 -56.5t-17.5 -74.5q14 27 21.5 63.5t7.5 64.5q0 22 -2.5 57t-12.5 73zM1444 323q3 -16 5 -28t3.5 -23.5t2 -24t0.5 -29.5q0 -41 -4.5 -80t-16.5 -84q7 15 12.5 32.5t9 35.5t5 35t1.5 30
q0 37 -4 73.5t-14 62.5zM1422 339q6 -33 9.5 -59.5t3.5 -61.5q0 -41 -5.5 -83.5t-17.5 -87.5q8 16 14 36t9.5 40.5t5.5 39t2 31.5q0 35 -5 73t-16 72zM1402 344q6 -33 9.5 -62t3.5 -64q0 -41 -7 -86.5t-19 -90.5q16 32 24.5 74t8.5 79q0 32 -5 72t-15 78zM1382 352
q6 -33 9.5 -66t3.5 -68q0 -41 -7 -87t-21 -96q8 16 14.5 36.5t11.5 42t7.5 43.5t2.5 40q0 40 -5.5 78.5t-15.5 76.5zM936 150l-11 -1l9 -4l-12 -1l9 -4l-12 -3l9 -3l-15 -4l10 -2l-15 -6l11 -1l-17 -6h13l-23 -7h16l-22 -8h17l-26 -9l20 1l-29 -10h19l-24 -9l18 1l-22 -10
l19 2l-24 -12l18 5l-20 -18l14 8q-2 -5 -4.5 -10.5t-3.5 -8.5q10 7 17.5 22.5t15.5 28.5q-4 -17 -8 -28.5t-11 -25.5q5 5 11 14.5t12 21.5t10.5 24t7.5 22q0 -8 -3 -19t-7 -23t-8.5 -23.5t-7.5 -18.5q6 7 12 19.5t11.5 27t10.5 29.5t8 26q0 -9 -2.5 -22t-6.5 -27t-8.5 -27.5
t-8.5 -23.5q16 20 25.5 52t14.5 59q0 -11 -2.5 -26t-6.5 -30.5l-8 -30t-8 -24.5q6 8 11.5 23t10.5 32.5t9 35.5l7 32q-1 -11 -3.5 -27t-6 -33t-7.5 -33t-8 -28q9 20 19 55t16 61q0 -11 -2.5 -25.5t-6 -30.5t-7.5 -31.5t-8 -27.5q11 20 20 49t14 59q-1 -23 -7 -51.5
t-14 -55.5q10 20 19 48t14 60q0 -26 -6 -53.5t-14 -53.5q11 23 18.5 49t12.5 58q0 -53 -17 -106q23 47 30 113q0 -31 -3.5 -58.5t-9.5 -52.5q10 23 16 51.5t10 63.5q0 -28 -2 -55t-8 -58q10 24 13 54t8 64q0 -5 0.5 -10.5t0.5 -11.5q0 -22 -2 -45t-6 -47q7 25 11 53.5
t6 61.5q3 -15 3 -32q0 -40 -8 -83q8 21 12.5 49.5t6.5 62.5q2 -11 3 -18.5t1 -15.5q0 -14 -3 -36.5t-6 -39.5q8 26 13 50t8 60q2 -10 2 -19v-18q0 -17 -2 -34t-6 -37q8 25 13.5 49t7.5 59q3 -14 3 -29q0 -17 -2.5 -36.5t-6.5 -39.5q9 25 13.5 50.5t6.5 60.5q3 -15 3 -32
q0 -12 -2.5 -33.5t-6.5 -42.5q8 26 13 55t7 64l2 -16.5t1 -16.5q0 -20 -2.5 -40.5t-6.5 -42.5q10 30 14 61t6 63l2 -16.5t1 -17.5q0 -20 -2.5 -42.5t-6.5 -46.5q10 29 14 61.5t6 68.5l2 -16.5t1 -16.5q0 -23 -3 -47t-7 -47q10 34 15 68t7 68q2 -5 2.5 -13.5t0.5 -12.5
q0 -30 -4 -54l-9 -54q11 33 17 68.5t9 72.5q2 -5 2.5 -15t0.5 -15q0 -17 -3.5 -47.5t-10.5 -59.5q12 34 17 69.5t7 71.5q2 -10 3 -20t1 -18q0 -25 -4.5 -50t-9.5 -50q28 69 28 145q1 -8 2.5 -16.5t1.5 -16.5q0 -27 -4.5 -54t-12.5 -54q17 35 25 76.5t9 78.5q2 -7 3.5 -19.5
t1.5 -19.5q0 -29 -7 -56.5t-16 -55.5q24 49 31.5 89.5t11.5 78.5q1 -8 1.5 -17.5t0.5 -17.5q0 -38 -10 -72t-21 -60q26 43 38 87t12 87q0 47 -13 89t-37 77q18 -34 31 -77t13 -91q0 -13 -1.5 -26t-3.5 -27q0 69 -11.5 123.5t-33.5 85.5q12 -37 21.5 -74.5t15.5 -75.5
q-8 38 -20 72t-26 64q12 -31 20.5 -64.5t14.5 -70.5q-15 66 -43 124q11 -30 19.5 -62.5t11.5 -68.5q-15 65 -39 122q8 -28 16 -59t10 -60q-8 29 -17.5 58.5t-18.5 52.5q16 -54 21 -108q-5 28 -12.5 52.5t-18.5 46.5q7 -25 12 -51t7 -52q-12 54 -27 99q13 -52 15 -106
q-3 28 -8.5 53t-13.5 48q5 -26 8.5 -52t4.5 -52q-6 55 -21 99q12 -47 12 -101q-2 28 -8 52.5t-14 44.5q6 -24 8.5 -47.5t2.5 -47.5q-2 25 -8 48t-14 43q5 -16 8.5 -32t3.5 -32q0 -12 -3 -24q-2 25 -7 46t-13 38q5 -17 8 -32.5t3 -29.5v-10t-2 -10q-2 23 -5.5 42.5
t-13.5 36.5l6 -28t3 -28v-10t-2 -10q-2 20 -6 38.5t-11 34.5q3 -14 5 -26.5t2 -23.5v-10.5t-2 -10.5q-2 20 -4.5 37.5t-11.5 32.5q8 -30 8 -53v-9.5t-2 -9.5q-2 17 -5.5 34.5t-11.5 35.5l6 -27.5t3 -25.5v-9t-2 -8q-2 18 -6 34.5t-10 33.5q5 -28 5 -47q0 -5 -0.5 -10.5
t-1.5 -10.5q-2 24 -6 40.5t-9 26.5q2 -12 3.5 -24.5t1.5 -23.5v-10.5t-1 -10.5q-6 39 -15 68q2 -14 3 -24t1 -19t-0.5 -16t-1.5 -13q-1 21 -4 39t-10 35q6 -36 6 -56v-13t-2 -11q-1 23 -4 43t-10 37q6 -32 6 -54q0 -17 -3 -32q-1 25 -5 47t-12 41q8 -38 8 -64q0 -16 -3 -31
q-2 26 -5 49.5t-9 45.5q6 -39 6 -73v-14.5t-1 -12.5q-2 29 -7 55t-12 50q4 -25 7 -46.5t3 -40.5v-13t-2 -13q-2 31 -6.5 59t-12.5 54q9 -66 9 -120q-6 69 -24 129q6 -38 9.5 -71.5t3.5 -63.5q-4 38 -9.5 72.5t-13.5 67.5q4 -29 8.5 -56t4.5 -53q0 -18 -3 -36
q-2 37 -7.5 74.5t-14.5 75.5q4 -30 7 -59t3 -56q0 -19 -3 -35q-3 42 -6.5 80.5t-11.5 75.5q0 -34 4 -61t4 -55q-5 15 -8 32t-5 33.5l-4 31.5t-6 26q3 -26 3 -42q0 -7 -0.5 -12.5t-0.5 -10.5q-5 32 -12.5 52t-19.5 39l3 -11l-10 1l13 -7l-14 3l12 -6l-14 -8l19 7l-21 -17
l23 12l-19 -20l22 14l-21 -20l24 17l-20 -21l21 14l-21 -20l24 15l-23 -20l24 12l-21 -17l23 10l-22 -17l23 9l-21 -15l22 10l-19 -15l20 9l-19 -14l19 8l-18 -15l19 7l-20 -13l26 7l-24 -13l28 6l-28 -15l28 7l-26 -14l29 7l-26 -15l29 8l-29 -15l28 9l-23 -13l24 6
l-23 -11l27 4l-25 -9l26 2l-23 -6h27l-24 -5l25 -2l-23 -3l25 -5l-22 -2l22 -5l-19 -2l20 -6l-16 -3l19 -5l-15 -4l14 -4l-14 -3l13 -5l-14 -2l12 -4l-13 -3zM872 183l-32 -22l-2 2l29 20h5zM588 566q-8 -5 -19.5 -14t-26.5 -26q6 11 19 23.5t38 28.5zM615 595
q-26 -15 -47 -34t-41 -44q14 26 40.5 48t55.5 39zM543 188q-6 -8 -6 -24q2 2 5 3t5 2q-5 -8 -5 -15q0 -4 1 -6q2 8 6 13t9 10q-4 -10 -5.5 -20.5t-1.5 -20.5q2 11 6 22t9 20q-4 -17 -4 -38q0 -10 1 -15q2 17 5 30t7 26l-2 -21t-1 -20q0 -6 0.5 -11.5t1.5 -10.5l3.5 34.5
t4.5 25.5q-1 -5 -1 -9v-8q0 -13 2 -24.5t5 -22.5q0 8 -0.5 14.5t-0.5 13.5q0 10 0.5 20t1.5 20l4 -36.5t6 -32.5q-3 27 -3 52q0 5 0.5 11t1.5 11q2 -23 5.5 -40.5t8.5 -34.5q-3 20 -4 39t-1 39q2 -22 7 -41t12 -35q-5 20 -7.5 40t-3.5 40q4 -23 10.5 -41.5t14.5 -33.5
q-5 17 -9.5 36.5l-9.5 41.5q6 -20 13.5 -39t17.5 -36q-15 43 -25 84q16 -43 34 -76q-9 23 -15.5 42.5t-9.5 37.5q8 -22 17 -41t21 -35q-11 21 -18.5 41.5t-13.5 41.5q9 -23 19 -41.5t21 -35.5q-21 43 -30 84q9 -25 20.5 -44l22.5 -36q-11 20 -19.5 41.5t-15.5 43.5
q11 -23 23 -43.5l23 -38.5l-20.5 44.5t-16.5 42.5q11 -22 22.5 -42t23.5 -38q-11 21 -19.5 41t-15.5 40l21.5 -39.5t22.5 -33.5q-11 20 -19.5 39t-14.5 39q11 -21 22.5 -39t23.5 -33q-12 20 -21 39l-17 37q11 -21 23.5 -39t25.5 -33q-24 39 -40 77q12 -20 24.5 -38.5
l24.5 -35.5q-12 20 -21 38.5l-17 36.5q23 -40 44 -68q-11 18 -19.5 35.5t-14.5 35.5q19 -39 42 -69q-10 17 -18 35t-14 37l20 -34.5t20 -30.5q-19 34 -27 65q8 -17 17 -33.5t20 -27.5q-18 31 -26 62q18 -38 36 -54q-8 14 -13.5 27l-10.5 25q7 -14 15 -25t16 -19l-4 11l16 -5
l-12 8l22 -3l-15 6l23 -1l-12 5l19 -1l-10 6l19 -2l-10 5l18 1l-11 4l16 2l-9 3l14 4q11 14 11 37q0 24 -15 34.5t-29 10.5q-19 0 -37.5 -9.5t-37.5 -22t-39.5 -24.5t-42.5 -18l-8 -10l-3 9l-5 -11l-1 10l-7 -16l-1 14l-7 -17l-1 14l-7 -19l-1 17l-7 -23l-2 19l-7 -24l-3 20
l-6 -24l-2 21l-6 -22l-2 18l-6 -28l-2 25l-6 -28l-2 25l-6 -31l-1 25l-7 -28l-2 23l-6 -28l-3 22l-7 -27l-2 21l-8 -26zM1156 561q-12 13 -30.5 27.5t-42 26.5t-49 20t-50.5 8q-11 0 -22 -1.5t-28 -6.5q10 8 28.5 13t41.5 6q-5 2 -11 2.5t-10 0.5q-14 0 -32.5 -5t-32.5 -12
q8 8 24 14t30 9q-20 0 -37 -4.5t-35 -14.5q5 5 16.5 12.5t22.5 10.5q-9 -1 -24 -4.5t-33 -19.5q1 5 8.5 13t16.5 13q-10 -2 -20.5 -9t-18.5 -17q0 3 3.5 10t9.5 15q-5 -2 -12.5 -8.5t-12.5 -17.5q0 4 1.5 12t3.5 13q-5 -3 -11.5 -13t-9.5 -18q0 8 1.5 17t3.5 15
q-6 -8 -11 -17t-7 -20q-1 4 -1.5 7t-0.5 7q0 5 1.5 10t3.5 11q-12 -15 -15 -43q-2 8 -2 17q0 5 0.5 12.5t1.5 14.5q-4 -9 -6.5 -20.5t-4.5 -31.5q-1 4 -1.5 11t-0.5 11q0 14 3 29q-10 -23 -10 -58q0 -5 0.5 -10t0.5 -10q-6 16 -6 35q0 11 1.5 20l3.5 22q-5 -10 -7 -21.5
t-2 -24.5q0 -11 1.5 -24t3.5 -24q-7 20 -9 34.5t-2 22.5q0 11 1.5 22.5t3.5 16.5q-6 -10 -9.5 -27.5t-3.5 -30.5q0 -12 2 -25.5t4 -23.5q-12 30 -12 58q0 13 2 24t5 21q-15 -15 -15 -55q-2 4 -3 11.5t-1 12.5q0 10 5 27q-4 -5 -8 -14.5t-4 -29.5q0 -8 0.5 -17t4.5 -26
q-8 17 -10 28t-2 20q0 8 2 18.5t5 18.5q-3 -4 -7.5 -12.5t-4.5 -25.5q-2 2 -2.5 9t-0.5 9q0 3 0.5 8.5t1.5 7.5q-4 -5 -7 -15t-5 -30q-2 5 -2 9.5v9.5q0 7 0.5 12.5t1.5 10.5q-4 -6 -5.5 -14.5t-3.5 -18.5q-3 14 -1 29q-2 -5 -4 -13t-3 -18q-1 6 -1.5 12t0.5 14
q-3 -5 -4.5 -13t-2.5 -17q-2 12 0 27q-4 -5 -6 -12.5l-4 -15.5q-1 5 -0.5 11.5t1.5 12.5q-5 -7 -11 -23q-1 7 2 21q-3 -3 -6 -9t-5 -13q-2 8 0 17q-7 -4 -10 -18q-2 10 -1 14q-2 -2 -4.5 -6t-4.5 -9q-2 6 0 13q-6 -5 -13 -15q-1 5 0 11q-35 -17 -65 -40t-53 -52
q-5 -8 -9.5 -14.5t-11.5 -13.5q-8 -9 -21 -19t-25 -22.5t-21 -28t-9 -33.5q0 -21 14 -37.5t44 -16.5q11 0 21.5 2.5t19.5 6.5l-15 3l24 3l-12 6l23 2l-15 5l26 3l-18 5l24 3l-13 5l25 5l-15 4l23 6l-16 2l26 7l-18 2l30 6l-25 6l31 4l-32 7q10 1 19.5 1h18.5q-11 6 -22.5 8
t-24.5 3q9 3 20 3q16 0 32 -4q-12 11 -27 16.5t-31 9.5q40 -2 67 -17q-10 8 -24 15t-32 14q17 -2 33.5 -6.5t32.5 -14.5q-19 19 -50 33q31 -3 62 -23q-19 24 -55 36q17 -3 33.5 -9t34.5 -17q-11 13 -25 21.5t-31 15.5q18 -4 35.5 -10.5t35.5 -18.5q-13 16 -27.5 25t-29.5 15
q18 -5 34.5 -13t33.5 -22q-11 17 -24.5 27.5t-27.5 17.5q17 -4 32.5 -14t32.5 -26q-8 16 -20.5 27.5t-26.5 21.5q17 -8 29 -18t28 -30q-6 16 -17.5 30l-22.5 28q29 -19 51 -53q-7 17 -16.5 32l-20.5 32q6 -4 12.5 -12.5t13 -18l12.5 -19t11 -15.5q-8 23 -17.5 41.5
t-14.5 35.5q9 -16 21.5 -36t27.5 -41q-11 34 -23.5 56.5t-12.5 48.5q10 -30 25.5 -55.5t24.5 -48.5q-1 10 -6 22l-11 26.5t-11.5 31t-5.5 36.5q10 -39 25.5 -66t23.5 -53q0 20 -10 48t-13 55q10 -30 22 -54.5t18 -52.5q-1 32 -7 50.5t-8 42.5l17.5 -48t14.5 -51
q-1 20 -5.5 44t-9.5 41q11 -15 19 -40.5t11 -51.5q0 15 -2.5 34.5t-7.5 41.5q7 -17 12 -39.5l10 -45.5q0 20 -2.5 40.5t-4.5 43.5q8 -20 12 -42.5l9 -50.5q0 25 -2 50.5t-4 45.5q6 -19 11 -47t5 -57q3 24 3 47q0 24 -3 48q8 -23 8.5 -50t2.5 -56q3 19 3 41q0 15 -1 31l-2 33
q8 -31 9 -59.5t1 -57.5q5 25 4 54t1 55q3 -8 4 -21.5t2 -30t1 -34v-32.5q4 17 3.5 47t0.5 62q4 -20 5 -40.5t1 -40.5v-39q5 29 7 57.5t3 57.5q2 -12 3 -32.5t1 -44.5v-25.5t-2 -24.5q6 29 7.5 60.5t3.5 63.5l4 -43.5t2 -48.5q0 -10 -0.5 -21t-1.5 -22q6 18 8.5 37.5
t2.5 39.5q0 13 -0.5 25t-1.5 24q6 -18 7.5 -49.5t1.5 -94.5q4 14 5 30.5t1 35.5q0 17 -1 35l-2 37q6 -31 11.5 -71.5t6.5 -77.5q5 20 5 37q0 27 -5 55t-5 54q6 -36 15.5 -78t11.5 -78q4 12 4 28q0 29 -7.5 61t-8.5 62l20.5 -76.5t12.5 -82.5q2 6 3 13.5t1 14.5q0 15 -3 30.5
t-7 31.5t-7.5 32t-4.5 31q8 -38 23 -79t19 -80q1 5 1.5 11.5t0.5 11.5q0 16 -4 32.5t-9 33l-10 33t-8 32.5l26 -76.5t20 -77.5q1 5 1.5 12t0.5 12q0 29 -11 55t-19 52q14 -23 27 -53t23 -79q1 4 1 11v11q0 20 -9.5 48t-30.5 65q22 -23 39 -59.5t28 -69.5q0 16 -6.5 37
t-17 43.5t-24 44.5t-28.5 40q28 -22 53.5 -65.5t48.5 -90.5q-6 18 -15.5 42.5t-23.5 50t-32 49t-40 39.5q22 -12 39.5 -28.5t32.5 -38t28.5 -47l28.5 -54.5q-6 18 -17.5 44.5t-28 54.5t-39.5 53.5t-51 40.5q23 -7 43.5 -24.5t39 -41.5t35.5 -54t33 -62q-6 18 -19 45.5
t-32 56.5t-43.5 55t-52.5 41q43 -14 84 -64t76 -116q-7 23 -21 49.5t-34.5 53t-47 50.5t-57.5 43q52 -23 95.5 -70t78.5 -104q-30 62 -75.5 111.5t-104.5 77.5q49 -17 99.5 -57.5t87.5 -102.5q-28 59 -78.5 101.5t-113.5 70.5q28 -8 57 -22.5t55.5 -33t47 -40t32.5 -42.5
q-28 59 -81 95t-130 59q22 -2 46.5 -9t47 -17.5t42 -23t33.5 -24.5zM496 350q-6 -3 -12 -3.5t-11 -0.5q-17 0 -31.5 10.5t-14.5 27.5q5 -15 19.5 -24.5t49.5 -9.5zM773 158l-3 7l-4 -16l-2 15l-3 -19l-2 16l-6 -19l-3 15l-4 -20l-3 16l-4 -23l-3 19l-4 -23l-3 20l-4 -23
l-2 18l-6 -22l-2 17l-6 -21l-1 17l-6 -24l-3 19l-4 -24l-2 20l-5 -24l-1 20l-5 -26l-3 19l-4 -24l-2 18q-2 -5 -3.5 -10t-1.5 -16q0 -20 13 -33q-5 8 -5 15q0 3 1 5q3 -9 7.5 -17t11.5 -13q-5 11 -7.5 20t-4.5 18q12 -27 26 -41q-16 27 -21 52q12 -30 34 -52
q-10 16 -16.5 29.5t-10.5 29.5q14 -33 37 -57q-11 17 -17.5 31.5t-11.5 31.5q8 -19 17 -31.5t21 -25.5q-11 17 -18 32t-12 32q8 -18 17 -33t21 -27q-12 18 -19 32.5t-11 31.5q8 -20 17 -33t23 -27q-10 14 -17 28t-12 31q9 -18 17.5 -30.5t19.5 -23.5q-19 30 -30 61l18 -32.5
t20 -26.5l-17 31t-14 34q10 -18 20.5 -35t19.5 -28q-11 18 -18.5 33t-13.5 33l19 -32.5t23 -29.5q-11 17 -19 32.5t-15 34.5q11 -20 20.5 -35t23.5 -28q-12 19 -21 35t-14 35q10 -20 21 -36.5t25 -29.5q-12 18 -21.5 34.5t-17.5 36.5q11 -20 22.5 -36t25.5 -30
q-26 36 -36 69l21.5 -35.5t22.5 -30.5l-16.5 31t-14.5 33q10 -18 19.5 -33.5t20.5 -25.5q-9 14 -15 26.5t-9 25.5q16 -33 32 -48l-2 9l15 -3l-7 7h18l-11 5l21 2l-10 5l17 1l-9 4l15 2l-9 4l16 2l-7 4l12 4l-9 1l13 5h-10l13 8q2 5 3 9.5t1 9.5q0 17 -10.5 32t-27.5 15
q-22 0 -43 -10.5t-38 -23.5q-5 -3 -10 -6.5t-12 -7.5zM560 416q-11 -20 -34.5 -39t-49.5 -19q-17 0 -31 9.5t-14 26.5q0 7 3 16q0 -20 10 -33t33 -13q13 0 26.5 6.5t24.5 15.5t19.5 19.5t12.5 18.5v-8zM494 395l49 31l-57 -30l-7 1l55 36l-63 -33l-4 3l60 33l-62 -27l-1 5
l56 28l-49 -18l2 5l40 20l-25 -6l5 4l16 5l-3 5q-23 -8 -36 -23t-13 -23q0 -25 26 -25q11 0 25 5.5t25 17.5zM816 362q8 11 8 24q0 50 -55 50q-16 0 -41 -8t-52 -21t-53 -28t-45 -28l-7 -9l-7 6l-3 -13l-5 5l-3 -9l-5 5l-3 -10l-4 7l-5 -14l-3 10l-5 -14l-4 12l-5 -16l-3 14
l-5 -17l-2 15l-6 -21l-4 20l-5 -25l-3 23l-5 -26l-2 27l-7 -29l-2 29l-8 -32l-2 34l-8 -33l-2 34l-8 -33l-3 34l-7 -33l-2 29l-6 -30l-4 18q-6 -14 -6 -27q0 -21 8 -30q0 19 3 30q1 -13 3 -24t4 -19q0 11 1 21.5t3 18.5q1 -16 2 -28.5t3 -22.5q0 17 2 29t4 22q1 -14 1.5 -27
t3.5 -29q0 19 1.5 32t3.5 24q2 -37 6 -58q0 35 3 59q1 -19 3 -34.5t4 -28.5q0 21 1 36.5t3 28.5q1 -19 2.5 -36.5t4.5 -28.5q-1 8 -1.5 17.5t-0.5 17.5q0 16 3 30q1 -16 3 -34t7 -32q-1 9 -1.5 18.5t-0.5 17.5q0 10 0.5 16.5t2.5 14.5q2 -20 4 -37t10 -31q-4 18 -5.5 37
t-1.5 39q2 -18 6 -37t13 -36q-10 39 -10 80q3 -20 8 -40.5t16 -36.5q-7 20 -11 41t-4 41q3 -18 9 -39t18 -37q-8 19 -12 38.5l-8 39.5q5 -21 12.5 -39.5t18.5 -32.5q-8 18 -14 36t-8 36q9 -37 33 -68q-8 17 -14 34t-8 34q5 -17 12.5 -34t20.5 -30q-10 17 -16.5 33t-8.5 32
q6 -17 14.5 -31.5t19.5 -27.5q-18 34 -24 62l14.5 -30.5t18.5 -27.5q-19 36 -27 65q9 -18 18 -34t20 -28q-11 20 -18.5 36.5t-12.5 31.5q18 -39 38 -65q-11 20 -19 38.5t-13 34.5q9 -20 19.5 -38t22.5 -30q-11 17 -19.5 35t-14.5 37q10 -19 20 -35t24 -32q-12 21 -21.5 40.5
t-15.5 34.5l21.5 -38t23.5 -31q-12 21 -21.5 39.5t-15.5 35.5l21.5 -37.5t24.5 -32.5q-11 20 -19.5 38.5t-15.5 36.5l21.5 -38.5t24.5 -32.5q-12 20 -21 39t-17 39q22 -41 47 -75q-24 40 -38 83l22 -41t25 -40q-12 22 -23 45.5t-15 38.5l22 -41.5t25 -37.5
q-11 20 -19.5 39.5t-14.5 40.5q11 -20 20.5 -40.5t23.5 -35.5q-10 20 -18 39t-13 37q9 -20 19 -40t21 -33q-11 20 -19.5 40.5t-9.5 33.5q7 -17 16.5 -36t21.5 -32q-9 17 -15.5 33t-7.5 29q8 -15 15 -30t17 -26l-3 10l14 -7l-8 9l18 -4l-12 7l22 -2l-13 5l23 -1l-12 5h21
l-12 5l22 -1l-12 6h19l-10 5l16 1l-9 3l15 3l-10 3zM767 393l-18 -7l-5 2l29 10zM741 346l-1 5l51 20l-52 -14l-2 4l61 19l-59 -12l-1 3l63 15q0 11 -6.5 18t-16.5 7q-15 0 -33 -7t-29 -15q8 -11 13.5 -24t8.5 -26q8 2 20 7t22 13zM807 242v6l45 20l-47 -14l-1 5l50 19
l-23 -3l-2 4l25 10q-3 17 -20 17q-6 0 -13 -3t-14 -7t-12.5 -9t-7.5 -8q5 -9 10 -20.5t8 -22.5q10 3 19.5 7.5t14.5 12.5zM894 174l-46 -31v5l45 30zM890 183l-43 -27l-2 2l40 28zM853 123v4l40 31l-41 -24v6l46 28q0 8 -4.5 15t-11.5 7q-13 0 -27.5 -10t-22.5 -18
q6 -8 11 -20.5t9 -24.5q9 6 20 12.5t17 17.5zM279 393l-2 15l-4 -21l-4 19l-5 -27l-2 22l-6 -29v23l-9 -32l1 26l-9 -33l-1 24l-8 -31l-1 13l-6 -21l-1 13l-8 -15l2 13q-21 -5 -44 -15t-42.5 -23.5t-32.5 -30t-13 -34.5q4 1 9 13q0 -6 -1 -11t-3 -10q4 1 9 12q0 -7 -0.5 -11
t-1.5 -7q2 3 4 7t4 9q0 -15 -1 -19q6 8 9 17q0 -5 0.5 -10t0.5 -10q3 7 5 20q3 -9 3 -21q2 5 3.5 10.5t3.5 11.5q1 -4 1 -21q4 12 6 28q2 -3 2 -8v-19q5 19 6 32q2 -6 2.5 -14t0.5 -16q4 16 6 37q2 -6 2 -13.5v-23.5q4 10 6 20t2 24q2 -7 2 -13v-11v-9t-1 -8q3 8 4.5 18
l3.5 23q2 -9 2 -18.5v-18.5l4 16.5t3 18.5q2 -7 2 -15v-16q5 11 5 30q5 -7 5 -17q0 -5 -1 -8q5 10 5 31q3 -9 3 -27q5 9 6 16.5t1 16.5q2 -5 3.5 -12.5t2.5 -15.5q3 12 3 23q0 6 -2 16q5 -8 8 -33q4 15 4 31q0 4 -0.5 7.5t-0.5 7.5q3 -8 4.5 -18l3.5 -23q1 8 1 18.5v30.5
q3 -10 5 -20.5t2 -25.5q3 8 4 16t1 21q3 -6 4.5 -14t1.5 -22q4 13 4 26q0 7 -1 10q4 -11 6 -33q2 7 2 14v22q5 -10 8 -35q3 16 3 29q0 8 -2 18q4 -10 6.5 -20t2.5 -20q1 5 1 10.5v10.5v9.5t-1 9.5q3 -8 5.5 -16.5t4.5 -17.5q1 8 1 17.5v27.5q3 -8 5 -17.5t2 -23.5q4 16 4 35
q0 11 -1 16q5 -10 6.5 -21.5t2.5 -25.5q1 8 1.5 16t0.5 16q0 7 -0.5 13t-1.5 12q4 -8 5.5 -21l3.5 -29q1 6 1 11.5v11.5q0 25 -4 48q5 -14 8.5 -30t5.5 -36q1 5 1.5 9.5t0.5 9.5q0 11 -1.5 20.5t-2.5 17.5q3 -9 5.5 -21.5t4.5 -29.5q2 11 2 23.5v25.5q2 -9 4 -20.5t4 -26.5
q1 5 1 9.5v10.5v11.5t-1 13.5q2 -8 4 -17.5t3 -23.5q2 10 2 21v22q4 -8 5.5 -19t1.5 -23q4 15 4 33v9t-1 9q1 -2 4 -14t3 -28q1 7 1.5 13t0.5 12q0 8 -0.5 15.5t-1.5 15.5q3 -10 5.5 -22.5t4.5 -28.5q1 7 1.5 14.5t0.5 15.5t-0.5 16.5t-1.5 18.5q6 -23 9 -58v64l6 -60
q1 8 1 16v16v17t-1 19l9 -63q0 21 0.5 35t2.5 24q2 13 10 28.5t8 35.5l-12 -34l1 25l-7 -32l-3 29l-5 -39l-3 36l-4 -34l-2 31l-4 -38l-4 35l-2 -39l-4 40l-3 -45l-3 41l-5 -50l-2 47l-8 -55l3 52l-10 -53l3 48l-11 -45l3 42l-12 -39l5 34l-13 -30l5 29l-14 -29l2 23
l-10 -21l-1 16l-7 -17l-1 16l-7 -16l-1 11l-6 -14l-2 11zM351 284q14 2 27 9t20 15v5q-9 -8 -22.5 -15.5t-28.5 -9.5zM185 209q-22 -7 -40 -9.5t-35 -2.5q-16 0 -27.5 7t-16.5 21q0 -14 11 -24t31 -10q18 0 37 3.5t40 14.5zM330 284q-11 -12 -38 -23.5t-65 -11.5
q-18 -13 -43.5 -25.5t-64.5 -12.5q-16 0 -27.5 6.5t-16.5 20.5q0 -14 11 -23.5t31 -9.5q37 0 64.5 12t48.5 26q38 0 64 11t37 26zM341 297q23 7 36 15t24 19v5q-10 -10 -25 -19.5t-38 -15.5zM327 297q-17 -18 -42.5 -26.5t-54.5 -12.5q3 0 5.5 -0.5t5.5 -0.5q26 0 52 10.5
t35 24.5zM508 471q11 -14 22.5 -23.5t27.5 -15.5q-2 -9 -9.5 -19.5t-18 -19.5t-23.5 -15t-25 -6q-15 0 -26 10t-11 27q0 7 5.5 16.5t14 18t20 16t23.5 11.5zM882 200q12 0 19 -10t7 -22q0 -13 -6 -22.5t-15 -17t-19.5 -14l-19.5 -12.5q-8 21 -16 38t-15 25q5 3 13 9t17 12
t18.5 10t16.5 4zM834 316q16 0 23.5 -9.5t7.5 -25.5q0 -13 -6.5 -22.5t-16 -16t-21.5 -11.5t-23 -8q0 2 -2.5 9.5t-6.5 17l-8 18.5t-7 14q8 11 27 22.5t33 11.5zM778 421q14 0 23.5 -10.5t9.5 -25.5q0 -12 -11.5 -22.5t-25.5 -18t-27 -12t-17 -5.5q-2 17 -9.5 33t-19.5 33
l38 18.5t39 9.5zM1336 32q14 17 22.5 43t13.5 54.5t7 56t2 48.5q0 43 -8 92t-24.5 97.5t-41 93.5t-56.5 79.5t-72 55.5t-88 22q-9 0 -20.5 -3t-16.5 -11q49 -22 92 -64t75 -98.5t50.5 -123t18.5 -136.5q0 -57 -17 -107t-39 -88q18 20 33 50t32 76q-4 -26 -16.5 -61
t-29.5 -72q17 21 33 57t27 74q-3 -31 -15.5 -67t-29.5 -71q20 26 32 58l26 70q-5 -35 -20 -70.5t-29 -63.5q17 20 32 54t26 73q-3 -31 -14.5 -66.5t-26.5 -60.5q16 19 27 46t19 60q-5 -28 -10.5 -54t-16.5 -48q14 15 21.5 36t11.5 47q1 -5 1.5 -11t0.5 -13q0 -14 -2.5 -27.5
t-9.5 -26.5zM824 274l-21 -7l-5 2l25 9zM845 299l-49 -21l-2 4l42 20zM786 406l-60 -21l-3 3l52 19zM797 389l-24 -6l2 3l22 6v-3zM522 500q-5 -8 -11 -13t-12 -9l-13.5 -9t-15.5 -13q5 11 18.5 20.5zM760 428q-14 -7 -38.5 -14t-40.5 -17q6 6 16 11t21 9t22 6.5zM830 323
q-14 -7 -32 -14t-38 -23q12 16 32.5 25t37.5 12zM877 207l-31 -14l-38 -17q24 16 38 22t31 9z" />
    <glyph glyph-name="equal" unicode="=" horiz-adv-x="385" 
d="M20 499h276l69 -69v-88h-35l35 -35v-94h-276l-69 69v96h25l-25 25v96zM35 418h246v66h-246v-66zM50 469h216v-36h-216v36zM35 297h246v66h-246v-66zM50 348h216v-36h-216v36z" />
    <glyph glyph-name="greater" unicode="&#x3e;" horiz-adv-x="1757" 
d="M880 207q17 -3 31 -9t38 -22l-38 17zM927 323q17 -3 37.5 -12t32.5 -25q-20 16 -38 23t-32 14zM997 428l20 -4.5t22 -6.5t21 -9t16 -11q-16 10 -40.5 17t-38.5 14zM1235 500l33.5 -23.5t18.5 -20.5q-8 8 -15.5 13l-13.5 9t-12 9t-11 13zM960 392l22 -6l2 -3l-24 6v3z
M982 407l52 -19l-3 -3l-60 21zM921 302l42 -20l-2 -4l-49 21zM934 278l25 -9l-5 -2l-21 7zM421 32q-7 13 -9.5 26.5t-2.5 27.5q0 7 0.5 13t1.5 11q4 -26 11.5 -47t21.5 -36q-11 22 -16.5 48t-10.5 54q8 -33 19 -60t27 -46q-15 25 -26.5 60.5t-14.5 66.5q11 -39 26 -73
t32 -54q-14 28 -29 63.5t-20 70.5l26 -70t32 -58q-17 35 -29.5 71t-15.5 67q11 -38 27 -74t33 -57q-17 37 -29.5 72t-16.5 61q17 -46 32 -76t33 -50q-22 38 -39 88t-17 107q0 70 18.5 136.5t50.5 123t75 98.5t92 64q-5 8 -16.5 11t-20.5 3q-48 -1 -88 -22t-72 -55.5
t-56.5 -79.5t-41 -93.5t-24.5 -97.5t-8 -92q0 -21 2 -48.5t7 -56t13.5 -54.5t22.5 -43zM979 421q19 0 39 -9.5l38 -18.5q-12 -17 -19.5 -33t-9.5 -33q-4 1 -17 5.5t-27.5 12t-25.5 18t-11 22.5q0 15 9.5 25.5t23.5 10.5zM923 316q14 0 33 -11.5t27 -22.5q-3 -5 -7 -14
l-8 -18.5t-6.5 -17t-2.5 -9.5q-11 3 -23 8t-21.5 11.5t-16 16t-6.5 22.5q0 16 7.5 25.5t23.5 9.5zM875 200q7 0 16.5 -4t18.5 -10t17 -12t13 -9q-7 -8 -15 -25t-16 -38l-19.5 12.5t-19.5 14t-15 17t-6 22.5q0 12 7 22t19 10zM1249 471q12 -4 23.5 -11.5t20 -16t14 -18
t5.5 -16.5q0 -17 -11 -27t-26 -10q-12 0 -25 6t-23.5 15t-18 19.5t-9.5 19.5q16 6 27.5 15.5t22.5 23.5zM1429 292q9 -14 35 -24.5t52 -10.5q3 0 5.5 0.5t5.5 0.5q-29 4 -54.5 12.5t-42.5 26.5zM1419 301q-23 6 -38 15.5t-25 19.5v-5q11 -11 24 -19t36 -15zM1426 280
q11 -15 37 -26t64 -11q21 -14 48.5 -26t64.5 -12q20 0 31 9.5t11 23.5q-5 -14 -16.5 -20.5t-27.5 -6.5q-39 0 -64.5 12.5t-43.5 25.5q-38 0 -65 11.5t-38 23.5zM1572 209q21 -11 40 -14.5t37 -3.5q20 0 31 10t11 24q-5 -14 -16.5 -21t-27.5 -7q-17 0 -35 2.5t-40 9.5z
M1410 288q-15 2 -28.5 9.5t-22.5 15.5v-5q7 -8 20 -15t27 -9zM1472 411l-2 -11l-6 14l-1 -11l-7 16l-1 -16l-7 17l-1 -16l-10 21l2 -23l-14 29l5 -29l-13 30l5 -34l-12 39l3 -42l-11 45l3 -48l-10 53l3 -52l-8 55l-2 -47l-5 50l-3 -41l-3 45l-4 -40l-2 39l-4 -35l-4 38
l-2 -31l-4 34l-3 -36l-5 39l-3 -29l-7 32l1 -25l-12 34q0 -20 8 -35.5t10 -28.5q2 -10 2.5 -24t0.5 -35l9 63q-1 -10 -1 -19v-17v-16t1 -16l6 60v-64q3 35 9 58q-1 -10 -1.5 -18.5t-0.5 -16.5t0.5 -15.5t1.5 -14.5q2 16 4.5 28.5t5.5 22.5q-1 -8 -1.5 -15.5t-0.5 -15.5
q0 -6 0.5 -12t1.5 -13q0 16 3 28t4 14q-1 -5 -1 -9v-9q0 -18 4 -33q0 12 1.5 23t5.5 19v-22t2 -21q1 14 3 23.5t4 17.5q-1 -7 -1 -13.5v-11.5v-10.5t1 -9.5q2 15 4 26.5t4 20.5v-25.5t2 -23.5q2 17 4.5 29.5t5.5 21.5q-1 -8 -2.5 -17.5t-1.5 -20.5q0 -5 0.5 -9.5t1.5 -9.5
q2 20 5.5 36t8.5 30q-4 -23 -4 -48v-11.5t1 -11.5l3.5 29t5.5 21q-1 -6 -1.5 -12t-0.5 -13q0 -8 0.5 -16t1.5 -16q1 14 2.5 25.5t6.5 21.5q-1 -5 -1 -16q0 -19 4 -35q0 14 2 23.5t5 17.5v-27.5t1 -17.5q2 9 4.5 17.5t5.5 16.5q-1 -5 -1 -9.5v-9.5v-10.5t1 -10.5q0 10 2.5 20
t6.5 20q-2 -10 -2 -18q0 -13 3 -29q3 25 8 35v-22t2 -14q1 22 6 33q-1 -3 -1 -10q0 -13 4 -26q0 14 1.5 22t4.5 14q0 -13 1 -21t4 -16q0 15 2 25.5t5 20.5v-30.5t1 -18.5l3.5 23t4.5 18q0 -4 -0.5 -7.5t-0.5 -7.5q0 -16 4 -31q3 25 8 33q-2 -10 -2 -16q0 -11 3 -23
q1 8 2.5 15.5t3.5 12.5q0 -9 1 -16.5t6 -16.5q0 18 3 27q0 -21 5 -31q-1 3 -1 8q0 10 5 17q0 -19 5 -30v16t2 15q1 -10 3 -18.5l4 -16.5v18.5t2 18.5l3.5 -23t4.5 -18q-1 4 -1 8v9v11t2 13q0 -14 2 -24t6 -20v23.5t2 13.5q2 -21 6 -37q0 8 0.5 16t2.5 14q1 -13 6 -32v19t2 8
q2 -16 6 -28q0 17 1 21q2 -6 3.5 -11.5t3.5 -10.5q0 12 3 21q2 -13 5 -20q0 5 0.5 10t0.5 10q3 -9 9 -17q-1 4 -1 19q2 -5 4 -9t4 -7q-1 3 -1.5 7t-0.5 11q5 -11 9 -12q-2 5 -3 10t-1 11q5 -12 9 -13q0 18 -13 34.5t-32.5 30t-42.5 23.5t-44 15l2 -13l-8 15l-1 -13l-6 21
l-1 -13l-8 31l-1 -24l-9 33l1 -26l-9 32v-23l-6 29l-2 -22l-5 27l-4 -19l-4 21l-2 -15zM868 147q6 -11 17 -17.5t20 -12.5q4 12 9 24.5t11 20.5q-8 8 -22.5 18t-27.5 10q-7 0 -11.5 -7t-4.5 -15l46 -28v-6l-41 24l40 -31v-4zM872 186l40 -28l-2 -2l-43 27zM864 178l45 -30
v-5l-46 31zM918 256q5 -8 14.5 -12.5t19.5 -7.5q3 11 8 22.5t10 20.5q-2 3 -7.5 8t-12.5 9t-14 7t-13 3q-17 0 -20 -17l25 -10l-2 -4l-23 3l50 -19l-1 -5l-47 14l45 -20v-6zM977 359q10 -8 22 -13t20 -7q3 13 8.5 26t13.5 24q-11 8 -29 15t-33 7q-10 0 -16.5 -7t-6.5 -18
l63 -15l-1 -3l-59 12l61 -19l-2 -4l-52 14l51 -20l-1 -5zM984 398l29 -10l-5 -2l-18 7zM954 358l-10 -3l15 -3l-9 -3l16 -1l-10 -5h19l-12 -6l22 1l-12 -5h21l-12 -5l23 1l-13 -5l22 2l-12 -7l18 4l-8 -9l14 7l-3 -10q10 11 17 26t15 30q-1 -13 -7.5 -29t-15.5 -33
q12 13 21.5 32t16.5 36q-1 -13 -9.5 -33.5t-19.5 -40.5q11 13 21 33t19 40q-5 -18 -13 -37t-18 -39q14 15 23.5 35.5t20.5 40.5q-6 -21 -14.5 -40.5t-19.5 -39.5q14 17 25 37.5l22 41.5q-4 -15 -15 -38.5t-23 -45.5q14 20 25 40l22 41q-14 -43 -38 -83q25 34 47 75
q-8 -20 -17 -39t-21 -39q14 14 24.5 32.5l21.5 38.5q-7 -18 -15.5 -36.5t-19.5 -38.5q14 15 24.5 32.5l21.5 37.5q-6 -17 -15.5 -35.5t-21.5 -39.5q13 13 23.5 31l21.5 38q-6 -15 -15.5 -34.5t-21.5 -40.5q14 16 24 32t20 35q-6 -19 -14.5 -37t-19.5 -35q12 12 22.5 30
t19.5 38q-5 -16 -13 -34.5t-19 -38.5q20 26 38 65q-5 -15 -12.5 -31.5t-18.5 -36.5q11 12 20 28t18 34q-8 -29 -27 -65q12 14 18.5 27.5l14.5 30.5q-6 -28 -24 -62q11 13 19.5 27.5t14.5 31.5q-2 -16 -8.5 -32t-16.5 -33q13 13 20.5 30t12.5 34q-2 -17 -8 -34t-14 -34
q24 31 33 68q-2 -18 -8 -36t-14 -36q11 14 18.5 32.5t12.5 39.5l-8 -39.5t-12 -38.5q12 16 18 37t9 39q0 -20 -4 -41t-11 -41q11 16 16 36.5t8 40.5q0 -41 -10 -80q9 17 13 36t6 37q0 -20 -1.5 -39t-5.5 -37q8 14 10 31t4 37q2 -8 2.5 -14.5t0.5 -16.5q0 -8 -0.5 -17.5
t-1.5 -18.5q5 14 7 32t3 34q3 -14 3 -30q0 -8 -0.5 -17.5t-1.5 -17.5q3 11 4.5 28.5t2.5 36.5q2 -13 3 -28.5t1 -36.5q2 13 4 28.5t3 34.5q3 -24 3 -59q4 21 6 58q2 -11 3.5 -24t1.5 -32q3 16 3.5 29t1.5 27q2 -10 4 -22t2 -29q2 10 3 22.5t2 28.5q2 -8 3 -18.5t1 -21.5
q2 8 4 19t3 24q3 -11 3 -30q8 9 8 30q0 13 -6 27l-4 -18l-6 30l-2 -29l-7 33l-3 -34l-8 33l-2 -34l-8 33l-2 -34l-8 32l-2 -29l-7 29l-2 -27l-5 26l-3 -23l-5 25l-4 -20l-6 21l-2 -15l-5 17l-3 -14l-5 16l-4 -12l-5 14l-3 -10l-5 14l-4 -7l-3 10l-5 -5l-3 9l-5 -5l-3 13
l-7 -6l-7 9q-19 13 -45 28t-53 28t-52 21t-41 8q-55 0 -55 -50q0 -13 8 -24zM1224 409q11 -12 25 -17.5t25 -5.5q26 0 26 25q0 8 -13 23t-36 23l-3 -5l16 -5l5 -4l-25 6l40 -20l2 -5l-49 18l56 -28l-1 -5l-62 27l60 -33l-4 -3l-63 33l55 -36l-7 -1l-57 30l49 -31zM1197 424
q4 -8 12 -18.5t19.5 -19.5t24.5 -15.5t27 -6.5q23 0 33 13t10 33q3 -9 3 -16q0 -17 -14 -26.5t-31 -9.5q-26 0 -49.5 19t-34.5 39v8zM978 166q-7 4 -12 7.5t-10 6.5q-17 13 -38 23.5t-43 10.5q-17 0 -27.5 -15t-10.5 -32q0 -5 1 -9.5t3 -9.5l13 -8h-10l13 -5l-9 -1l12 -4
l-7 -4l16 -2l-9 -4l15 -2l-9 -4l17 -1l-10 -5l21 -2l-11 -5h18l-7 -7l15 3l-2 -9q16 15 32 48q-3 -13 -9 -25.5t-15 -26.5q11 10 20.5 25.5t19.5 33.5q-7 -19 -14.5 -33l-16.5 -31q12 14 22.5 30.5l21.5 35.5q-11 -33 -36 -69q14 14 25.5 30t22.5 36q-8 -20 -17.5 -36.5
t-21.5 -34.5q14 13 25 29.5t21 36.5q-5 -19 -14 -35t-21 -35q14 13 23.5 28t20.5 35q-7 -19 -15 -34.5t-19 -32.5q14 14 23 29.5l19 32.5q-6 -18 -13.5 -33t-18.5 -33q9 11 19.5 28t20.5 35q-5 -17 -14 -34l-17 -31q11 11 20 26.5l18 32.5q-11 -31 -30 -61q11 11 19.5 23.5
t17.5 30.5q-5 -17 -12 -31t-17 -28q14 14 23 27t17 33q-4 -17 -11 -31.5t-19 -32.5q12 12 21 27t17 33q-5 -17 -12 -32t-18 -32q12 13 21 25.5t17 31.5q-5 -17 -11.5 -31.5t-17.5 -31.5q23 24 37 57q-4 -16 -10.5 -29.5t-16.5 -29.5q22 22 34 52q-5 -25 -21 -52q14 14 26 41
q-2 -9 -4.5 -18t-7.5 -20q7 5 11.5 13t7.5 17q1 -2 1 -5q0 -7 -5 -15q13 13 13 33q0 11 -1.5 16t-3.5 10l-2 -18l-4 24l-3 -19l-5 26l-1 -20l-5 24l-2 -20l-4 24l-3 -19l-6 24l-1 -17l-6 21l-2 -17l-6 22l-2 -18l-4 23l-3 -20l-4 23l-3 -19l-4 23l-3 -16l-4 20l-3 -15l-6 19
l-2 -16l-3 19l-2 -15l-4 16l-3 -7zM1261 350q35 0 49.5 9.5t19.5 24.5q0 -17 -14.5 -27.5t-31.5 -10.5q-5 0 -11 0.5t-12 3.5zM601 561q13 12 33 24.5t42.5 23t46.5 17.5t47 9q-77 -23 -130 -59t-81 -95q12 21 32.5 42.5t47 40t55.5 33t57 22.5q-63 -28 -113.5 -70.5
t-78.5 -101.5q37 62 87.5 102.5t99.5 57.5q-59 -28 -104.5 -77.5t-75.5 -111.5q35 57 78.5 104t95.5 70q-31 -19 -57.5 -43t-47 -50.5t-34.5 -53t-21 -49.5q35 66 76 116t84 64q-29 -15 -53 -41t-43 -55t-32 -56.5t-19 -45.5q16 32 33 62t35.5 54t39 41.5t43.5 24.5
q-29 -15 -51.5 -40.5t-39 -53.5t-28 -54.5t-17.5 -44.5l28.5 54.5t28.5 47t32 38t40 28.5q-22 -16 -40 -39.5t-32 -49t-23.5 -50t-15.5 -42.5q23 47 48.5 90.5t53.5 65.5q-15 -18 -28.5 -40t-24 -44.5t-17 -43.5t-6.5 -37q11 33 28 69.5t39 59.5q-21 -37 -30.5 -65t-9.5 -48
v-11t1 -11q10 49 23 79t27 53q-8 -26 -19 -52t-11 -55q0 -5 0.5 -12t1.5 -12q7 39 20 77.5l26 76.5q-3 -16 -8 -32.5l-10 -33t-9 -33t-4 -32.5q0 -5 0.5 -11.5t1.5 -11.5q4 39 19 80t23 79q-1 -15 -4.5 -31t-7.5 -32t-7 -31.5t-3 -30.5q0 -7 1 -14.5t3 -13.5q1 40 12.5 82.5
l20.5 76.5q-1 -30 -8.5 -62t-7.5 -61q0 -16 4 -28q2 36 11.5 78t15.5 78q0 -26 -5 -54t-5 -55q0 -17 5 -37q1 37 6.5 77.5t11.5 71.5l-2 -37t-1 -35q0 -19 1 -35.5t5 -30.5q0 63 1.5 94.5t7.5 49.5q-1 -12 -1.5 -24t-0.5 -25q0 -20 2.5 -39.5t8.5 -37.5q-1 11 -1.5 22
t-0.5 21q0 26 2 48.5l4 43.5q2 -32 3.5 -63.5t7.5 -60.5q-2 12 -2 24.5v25.5q0 24 1 44.5t3 32.5q1 -29 3 -57.5t7 -57.5v39q0 20 1 40.5t5 40.5q1 -32 0.5 -62t3.5 -47v32.5t1 34t2 30t4 21.5q2 -26 1 -55t4 -54q0 29 1 57.5t9 59.5l-2 -33t-1 -31q0 -22 3 -41q2 29 2.5 56
t8.5 50q-3 -24 -3 -48q0 -23 3 -47q0 29 5 57t11 47q-2 -20 -4 -45.5t-2 -50.5l9 50.5t12 42.5q-2 -23 -4.5 -43.5t-2.5 -40.5l10 45.5t12 39.5q-5 -22 -7.5 -41.5t-2.5 -34.5q3 26 11 51.5t19 40.5q-5 -17 -9.5 -41t-5.5 -44q5 26 14.5 51l17.5 48q-2 -24 -8 -42.5
t-7 -50.5q6 28 18 52.5t22 54.5q-3 -27 -13 -55t-10 -48q8 26 23.5 53t25.5 66q0 -20 -5.5 -36.5t-11.5 -31l-11 -26.5t-6 -22q9 23 24.5 48.5t25.5 55.5q0 -26 -12.5 -48.5t-23.5 -56.5q15 21 27.5 41t21.5 36q-5 -17 -14.5 -35.5t-17.5 -41.5q5 6 11 15.5l12.5 19t13 18
t12.5 12.5l-20.5 -32t-16.5 -32q22 34 51 53l-22.5 -28t-17.5 -30q16 20 28 30t29 18q-14 -10 -26.5 -21.5t-20.5 -27.5q17 16 32.5 26t32.5 14q-14 -7 -27.5 -17.5t-24.5 -27.5q17 14 33.5 22t34.5 13q-15 -6 -29.5 -15t-27.5 -25q18 12 35.5 18.5t35.5 10.5
q-17 -7 -31 -15.5t-25 -21.5q18 11 34.5 17t33.5 9q-36 -12 -55 -36q31 20 62 23q-31 -14 -50 -33q16 10 32.5 14.5t33.5 6.5q-18 -7 -32 -14t-24 -15q27 15 67 17q-16 -4 -31 -9.5t-27 -16.5q16 4 32 4q11 0 20 -3q-13 -1 -24.5 -3t-22.5 -8h18.5t19.5 -1l-32 -7l31 -4
l-25 -6l30 -6l-18 -2l26 -7l-16 -2l23 -6l-15 -4l25 -5l-13 -5l24 -3l-18 -5l26 -3l-15 -5l23 -2l-12 -6l24 -3l-15 -3q9 -4 19.5 -6.5t21.5 -2.5q30 0 44 16.5t14 37.5q0 18 -9 33.5t-21 28t-25 22.5t-21 19q-7 7 -11.5 13.5t-9.5 14.5q-23 29 -53 52t-65 40q1 -6 0 -11
q-7 10 -13 15q2 -7 0 -13q-2 5 -4.5 9t-4.5 6q1 -4 -1 -14q-3 14 -10 18q2 -9 0 -17q-3 14 -11 22q3 -14 2 -21q-6 16 -11 23q1 -6 1.5 -12.5t-0.5 -11.5l-4 15.5t-6 12.5q1 -15 0 -27q-1 9 -2.5 17t-4.5 13q1 -8 0.5 -14t-1.5 -12q-1 10 -3 18t-4 13q2 -15 -1 -29
q-2 10 -3.5 18.5t-5.5 14.5q1 -5 1.5 -10.5t0.5 -12.5v-9.5t-2 -9.5q-2 20 -5 30t-7 15q1 -2 1.5 -7.5t0.5 -8.5q0 -2 -0.5 -9t-2.5 -9q0 17 -4.5 25.5t-7.5 12.5q3 -8 5 -18.5t2 -18.5q0 -9 -2 -20t-10 -28q4 17 4.5 26t0.5 17q0 20 -4 29.5t-8 14.5q5 -17 5 -27
q0 -5 -1 -12.5t-3 -11.5q0 40 -15 55q3 -10 5 -21t2 -24q0 -28 -12 -58q2 10 4 23.5t2 25.5q0 13 -3.5 30.5t-9.5 27.5q2 -5 3.5 -16.5t1.5 -22.5q0 -8 -2 -22.5t-9 -34.5q2 11 3.5 24t1.5 24q0 13 -2 24.5t-7 21.5l3.5 -22t1.5 -20q0 -19 -6 -35q0 5 0.5 10t0.5 10
q0 35 -10 58q3 -15 3 -29q0 -4 -0.5 -11t-1.5 -11q-2 20 -4.5 31.5t-6.5 20.5q1 -7 1.5 -14.5t0.5 -12.5q0 -9 -2 -17q-3 28 -15 43q2 -6 3.5 -11t1.5 -10q0 -4 -0.5 -7t-1.5 -7q-2 11 -7 20t-11 17q2 -6 3.5 -15t1.5 -17q-3 8 -9.5 18t-11.5 13q2 -5 3.5 -13t1.5 -12
q-5 11 -12.5 17.5t-12.5 8.5q6 -8 9.5 -15t3.5 -10q-8 10 -18.5 17t-20.5 9q9 -5 16.5 -13t8.5 -13q-18 16 -33 19.5t-24 4.5q11 -3 22.5 -10.5t16.5 -12.5q-18 10 -35 14.5t-37 4.5q14 -3 30 -9t24 -14q-14 7 -32.5 12t-32.5 5q-4 0 -10 -0.5t-11 -2.5q23 -1 41.5 -6
t28.5 -13q-17 5 -28 6.5t-22 1.5q-25 0 -50.5 -8t-49 -20t-42 -26.5t-30.5 -27.5zM1212 177l-8 26l-2 -21l-7 27l-3 -22l-6 28l-2 -23l-7 28l-1 -25l-6 31l-2 -25l-6 28l-2 -25l-6 28l-2 -18l-6 22l-2 -21l-6 24l-3 -20l-7 24l-2 -19l-7 23l-1 -17l-7 19l-1 -14l-7 17
l-1 -14l-7 16l-1 -10l-5 11l-3 -9l-8 10q-22 6 -42.5 18t-39.5 24.5t-37.5 22t-37.5 9.5q-14 0 -29 -10.5t-15 -34.5q0 -23 11 -37l14 -4l-9 -3l16 -2l-11 -4l18 -1l-10 -5l19 2l-10 -6l19 1l-12 -5l23 1l-15 -6l22 3l-12 -8l16 5l-4 -11q8 8 16 19t15 25l-10.5 -25
t-13.5 -27q18 16 36 54q-8 -31 -26 -62q11 11 20 27.5t17 33.5q-8 -31 -27 -65q10 14 20 30.5l20 34.5q-6 -19 -14 -37t-18 -35q22 30 42 69q-6 -18 -14.5 -35.5t-19.5 -35.5q21 28 44 68l-17 -36.5t-21 -38.5l24.5 35.5t24.5 38.5q-16 -38 -40 -77q13 15 25.5 33t23.5 39
l-17 -37t-21 -39q12 15 23.5 33t22.5 39q-6 -20 -14.5 -39t-19.5 -39q12 15 22.5 33.5l21.5 39.5q-7 -20 -15.5 -40t-19.5 -41q12 18 23.5 38t22.5 42q-7 -21 -16.5 -42.5l-20.5 -44.5l23 38.5t23 43.5q-7 -22 -15.5 -43.5t-19.5 -41.5l22.5 36t20.5 44q-9 -41 -30 -84
q11 17 21 35.5t19 41.5q-6 -21 -13.5 -41.5t-18.5 -41.5q12 16 21 35t17 41q-3 -18 -9.5 -37.5t-15.5 -42.5q18 33 34 76q-11 -41 -25 -84q10 17 17.5 36t13.5 39l-9.5 -41.5t-9.5 -36.5q8 15 14.5 33.5t10.5 41.5q-1 -20 -3.5 -40t-7.5 -40q7 16 12 35t7 41q0 -20 -1 -39
t-4 -39q5 17 8.5 34.5t5.5 40.5q1 -5 1.5 -11t0.5 -11q0 -25 -3 -52q4 14 6 32.5l4 36.5q1 -10 1.5 -20t0.5 -20q0 -7 -0.5 -13.5t-0.5 -14.5q3 11 5 22.5t2 24.5v8t-1 9q3 -11 4.5 -25.5l3.5 -34.5q1 5 1.5 10.5t0.5 11.5q0 10 -1 20l-2 21q4 -13 7 -26t5 -30q1 5 1 15
q0 21 -4 38q5 -9 9 -20t6 -22q0 10 -1.5 20.5t-5.5 20.5q5 -5 9 -10t6 -13q1 2 1 6q0 7 -5 15q2 -1 5 -2t5 -3q0 16 -6 24zM1134 604q29 -17 55.5 -39t40.5 -48q-20 25 -41 44t-47 34zM1158 578q25 -16 38 -28.5t19 -23.5q-15 17 -26.5 26t-19.5 14zM890 183l29 -20l-2 -2
l-32 22h5zM831 155l-13 3l12 4l-14 2l13 5l-14 3l14 4l-15 4l19 5l-16 3l20 6l-19 2l22 5l-22 2l25 5l-23 3l25 2l-24 5h27l-23 6l26 -2l-25 9l27 -4l-23 11l24 -6l-23 13l28 -9l-29 15l29 -8l-26 15l29 -7l-26 14l28 -7l-28 15l28 -6l-24 13l26 -7l-20 13l19 -7l-18 15
l19 -8l-19 14l20 -9l-19 15l22 -10l-21 15l23 -9l-22 17l23 -10l-21 17l24 -12l-23 20l24 -15l-21 20l21 -14l-20 21l24 -17l-21 20l22 -14l-19 20l23 -12l-21 17l19 -7l-14 8l12 6l-14 -3l13 7l-10 -1l3 11q-12 -19 -19.5 -39t-12.5 -52q0 5 -0.5 10.5t-0.5 12.5q0 16 3 42
q-4 -11 -6 -26l-4 -31.5t-5 -33.5t-8 -32q0 28 4 55t4 61q-8 -37 -11.5 -75.5t-6.5 -80.5q-3 16 -3 35q0 27 3 56t7 59q-9 -38 -14.5 -75.5t-7.5 -74.5q-3 18 -3 36q0 26 4.5 53t8.5 56q-8 -33 -13.5 -67.5t-9.5 -72.5q0 30 3.5 63.5t9.5 71.5q-18 -60 -24 -129q0 54 9 120
q-8 -26 -12.5 -54t-6.5 -59q-2 7 -2 13v13q0 19 3 40.5t7 46.5q-7 -24 -12 -50t-7 -55q-1 6 -1 12.5v14.5q0 34 6 73q-6 -22 -9 -45.5t-5 -49.5q-3 15 -3 31q0 26 8 64q-8 -19 -12 -41t-5 -47q-3 15 -3 32q0 22 6 54q-7 -17 -10 -37t-4 -43q-2 5 -2 11v13q0 20 6 56
q-7 -17 -10 -35t-4 -39q-1 6 -1.5 13t-0.5 16t1 19t3 24q-9 -29 -15 -68q-1 5 -1 10.5v10.5q0 11 1.5 23.5t3.5 24.5q-5 -10 -9 -26.5t-6 -40.5q-1 5 -1.5 10.5t-0.5 10.5q0 19 5 47q-6 -17 -10 -33.5t-6 -34.5q-2 4 -2 8v9q0 12 3 25.5l6 27.5q-8 -18 -11.5 -35.5
t-5.5 -34.5q-2 5 -2 9.5v9.5q0 23 8 53q-9 -15 -11.5 -32.5t-4.5 -37.5q-2 5 -2 10.5v10.5q0 11 2 23.5t5 26.5q-7 -16 -11 -34.5t-6 -38.5q-2 5 -2 10v10q0 14 3 28l6 28q-10 -17 -13.5 -36.5t-5.5 -42.5q-2 5 -2 10v10q0 14 3 29.5t8 32.5q-8 -17 -13 -38t-7 -46
q-3 12 -3 24q0 16 3.5 32t8.5 32q-8 -20 -14 -43t-8 -48q0 24 2.5 47.5t8.5 47.5q-8 -20 -14 -44.5t-8 -52.5q0 54 12 101q-15 -44 -21 -99q1 26 4.5 52t8.5 52q-8 -23 -13.5 -48t-8.5 -53q2 54 15 106q-15 -45 -27 -99q2 26 7 52t12 51q-11 -22 -18.5 -46.5t-12.5 -52.5
q4 54 21 108q-9 -23 -18.5 -52.5t-17.5 -58.5q2 29 10 60t16 59q-24 -57 -39 -122q3 36 11.5 68.5t19.5 62.5q-28 -58 -43 -124q6 37 14.5 70.5t20.5 64.5q-14 -30 -26 -64t-20 -72q6 38 15.5 75.5t21.5 74.5q-22 -31 -33.5 -85.5t-11.5 -123.5q-2 14 -3.5 27t-1.5 26
q0 48 13 91t31 77q-24 -35 -37 -77t-13 -89q0 -43 12 -87t38 -87q-11 26 -21 60t-10 72q0 8 0.5 17.5t1.5 17.5q4 -38 11.5 -78.5t31.5 -89.5q-9 28 -16 55.5t-7 56.5q0 7 1.5 19.5t3.5 19.5q1 -37 9 -78.5t25 -76.5q-8 27 -12.5 54t-4.5 54q0 8 1.5 16.5t2.5 16.5
q0 -76 28 -145q-5 25 -9.5 50t-4.5 50q0 8 1 18t3 20q2 -36 7 -71.5t17 -69.5q-7 29 -10.5 59.5t-3.5 47.5q0 5 0.5 15t2.5 15q3 -37 9 -72.5t17 -68.5l-9 54t-4 54q0 4 0.5 12.5t2.5 13.5q2 -34 7 -68t15 -68q-4 23 -7 47t-3 47q0 8 1 16.5l2 16.5q2 -36 6 -68.5t14 -61.5
q-4 24 -6.5 46.5t-2.5 42.5q0 9 1 17.5l2 16.5q2 -32 6 -63t14 -61q-4 22 -6.5 42.5t-2.5 40.5q0 8 1 16.5l2 16.5q2 -35 7 -64t13 -55q-4 21 -6.5 42.5t-2.5 33.5q0 17 3 32q2 -35 6.5 -60.5t13.5 -50.5q-4 20 -6.5 39.5t-2.5 36.5q0 15 3 29q2 -35 7.5 -59t13.5 -49
q-4 20 -6 37t-2 34v18t2 19q3 -36 8 -60t13 -50q-3 17 -6 39.5t-3 36.5q0 8 1 15.5t3 18.5q2 -34 6.5 -62.5t12.5 -49.5q-8 43 -8 83q0 17 3 32q2 -33 6 -61.5t11 -53.5q-4 24 -6 47t-2 45q0 6 0.5 11.5t0.5 10.5q5 -34 8 -64t13 -54q-6 31 -8 58t-2 55q4 -35 10 -63.5
t16 -51.5q-6 25 -9.5 52.5t-3.5 58.5q7 -66 30 -113q-17 53 -17 106q5 -32 12.5 -58t18.5 -49q-8 26 -14 53.5t-6 53.5q5 -32 14 -60t19 -48q-8 27 -14 55.5t-7 51.5q5 -30 14 -59t20 -49q-4 12 -8 27.5t-7.5 31.5t-6 30.5t-2.5 25.5q6 -26 16 -61t19 -55q-4 12 -8 28
t-7.5 33t-6 33t-3.5 27l7 -32t9 -35.5t10.5 -32.5t11.5 -23q-4 10 -8.5 24.5t-8 30t-6 30.5t-2.5 26q5 -27 14.5 -59t25.5 -52q-4 10 -8.5 23.5t-8.5 27.5t-6.5 27t-2.5 22q3 -11 8 -26t10.5 -29.5t11.5 -27t12 -19.5q-3 7 -7.5 18.5t-8.5 23.5t-7 23t-3 19q3 -10 7.5 -22
t10.5 -24t12 -21.5t11 -14.5q-7 14 -11 25.5t-8 28.5q8 -13 15.5 -28.5t17.5 -22.5q-1 3 -3.5 8.5t-4.5 10.5l14 -8l-20 18l18 -5l-24 12l19 -2l-22 10l18 -1l-24 9h19l-29 10l20 -1l-26 9h17l-22 8h16l-23 7h13l-17 6l11 1l-15 6l10 2l-15 4l9 3l-12 3l9 4l-12 1l9 4l-11 1
zM375 352q-10 -38 -15.5 -76.5t-5.5 -78.5q0 -18 2.5 -40t7.5 -43.5t11.5 -42t14.5 -36.5q-14 50 -21 96t-7 87q0 35 3.5 68t9.5 66zM355 344q-10 -38 -15 -78t-5 -72q0 -37 8.5 -79t24.5 -74q-12 45 -19 90.5t-7 86.5q0 35 3.5 64t9.5 62zM335 339q-11 -34 -16 -72t-5 -73
q0 -13 2 -31.5t5.5 -39t9.5 -40.5t14 -36q-12 45 -17.5 87.5t-5.5 83.5q0 35 3.5 61.5t9.5 59.5zM313 323q-10 -26 -14 -62.5t-4 -73.5q0 -13 1.5 -30t5 -35t8.5 -35.5t13 -32.5q-12 45 -16.5 84t-4.5 80q0 17 0.5 29.5t2 24t3.5 23.5t5 28zM290 313q-10 -38 -12.5 -73
t-2.5 -57q0 -28 7.5 -64.5t21.5 -63.5q-13 42 -17.5 74.5t-4.5 56.5v24t1 32.5t2.5 35.5t4.5 35zM272 303q-10 -38 -12 -70t-2 -54q0 -28 7.5 -62.5t21.5 -61.5q-13 42 -17.5 72.5t-4.5 54.5q0 19 1.5 53.5t5.5 67.5zM253 303q-9 -31 -12 -66.5t-3 -57.5q0 -28 7.5 -62.5
t21.5 -61.5q-13 42 -17.5 72.5t-4.5 54.5q0 19 1.5 53.5t6.5 67.5zM232 284q-8 -24 -11 -53.5t-3 -51.5q0 -28 8.5 -61.5t22.5 -60.5q-13 42 -18.5 71t-5.5 53q0 19 1.5 45t5.5 58zM214 280q-10 -26 -12.5 -54.5t-2.5 -50.5q0 -28 8 -59.5t22 -58.5q-13 42 -18 69t-5 51
q0 19 2 45t6 58zM196 266q-10 -26 -12.5 -52.5t-2.5 -48.5q0 -28 6.5 -54t22.5 -52q-12 36 -17 60t-5 48q0 19 2 43t6 56zM177 256q-10 -26 -12.5 -50.5t-2.5 -46.5t6 -48t24 -52q-14 36 -18.5 57t-4.5 45q0 19 2 41t6 54zM160 249q-9 -23 -12 -49t-3 -48t6.5 -47.5
t24.5 -45.5q-13 27 -18.5 49t-5.5 46q0 19 2 41t6 54zM145 239q-16 -40 -16 -86q0 -22 6.5 -48t24.5 -46q-13 27 -18.5 49.5t-5.5 46.5q0 19 1.5 37t7.5 47zM131 234q-16 -40 -16 -86q0 -22 6.5 -45.5t24.5 -43.5q-13 26 -18.5 46.5t-5.5 44.5q0 19 1.5 37t7.5 47zM116 229
q-8 -19 -12.5 -41.5t-4.5 -44.5t8 -44.5t22 -38.5q-9 20 -16 40.5t-7 44.5q0 19 2 37t8 47zM110 60q-19 34 -19 80q0 19 1 36.5t6 47.5q-8 -19 -11 -41.5t-3 -44.5q-3 11 -3.5 21.5t-0.5 18.5v17.5t2 22.5q-8 -32 -8 -58q0 -10 2.5 -24t7 -28t11 -27t15.5 -21zM70 213
q-6 -23 -7 -37.5t-1 -30.5q0 -20 9 -46t23 -40q-14 27 -20 51t-6 55v22.5t2 25.5zM56 203q-9 -27 -9 -58q0 -20 7 -43t24 -40q-13 26 -19 50t-6 42q0 22 3 49zM46 390q9 -47 26 -58q-6 23 -8.5 42t-2.5 36t2 30.5t5 24.5q5 -30 4.5 -54.5t8.5 -38.5q3 48 8.5 94t20.5 88
q-9 -50 -9 -100q0 -28 3 -56q8 55 16.5 107t22.5 97q-14 -68 -14 -132q0 -11 1 -22.5l2 -22.5q8 54 18 105.5t27 96.5q-11 -42 -16 -87.5t-5 -85.5l22 102.5t28 90.5q-13 -42 -17.5 -84t-5.5 -84q9 49 20 95t28 85q-8 -37 -13.5 -74t-8.5 -74q10 41 21.5 80.5t28.5 76.5
q-11 -35 -16 -70t-7 -69q10 38 21 74.5t25 70.5q-11 -33 -17 -65.5t-9 -65.5q20 82 55 140q-11 -31 -18.5 -62t-13.5 -62q17 43 28.5 76t30.5 50q-20 -42 -25 -71t-6 -44q12 38 29 72t43 56q-20 -30 -29.5 -60.5t-9.5 -47.5q12 39 28.5 64.5t39.5 41t56 21.5t78 6
q32 0 60 -8.5t42 -23.5q7 0 14.5 1t14.5 1q17 0 34.5 -6t28.5 -17q6 3 20 6.5t31 5.5t36 3.5t36 1.5q50 0 105.5 -6t109.5 -23t101.5 -47.5t82.5 -80.5q18 -10 37.5 -17.5l38.5 -15t37 -17.5t35 -24q37 -8 77 -29.5t66 -53.5q24 -5 52 -17t51.5 -31t39 -43t15.5 -53
q0 -18 -14 -33.5t-44 -15.5q-38 0 -69.5 14t-60.5 33q-12 1 -26.5 4.5t-29 9t-27 13t-21.5 18.5q-19 2 -33.5 7.5t-27.5 19.5q3 -14 3 -27q0 -34 -23 -55.5t-71 -21.5q-19 0 -41 5q15 -20 15 -36q0 -35 -24 -53t-57 -18q-15 0 -28 2t-25 7q1 -5 1.5 -8.5t0.5 -8.5
q0 -35 -24.5 -53.5t-66.5 -20.5q-31 -1 -64.5 -6.5t-55.5 -5.5q-90 0 -176.5 15.5l-171.5 29.5q-12 -31 -31.5 -42.5t-46.5 -11.5q-35 0 -60.5 9.5l-59.5 22.5q-26 10 -53.5 13t-59.5 3q-45 0 -92 4t-93 11q-4 26 -13.5 45.5t-9.5 45.5q0 17 7 37q-9 19 -9 38v9.5t2 9.5
l17 -21q-6 11 -10.5 24.5t-4.5 30.5q5 -14 10.5 -21t10.5 -12q-10 20 -13.5 39t-3.5 33q6 -17 12.5 -27.5t12.5 -17.5q-9 29 -13.5 51.5t-6.5 36.5q6 -18 12 -30.5t14 -16.5q-10 26 -14 46t-4 37zM439 698q-10 -1 -21.5 -8.5t-22 -19.5t-19 -26t-11.5 -29q16 25 36.5 48.5
t37.5 34.5zM481 707q-10 -1 -20.5 -7.5t-19.5 -15.5t-15.5 -20t-9.5 -21q16 20 32 36.5t33 27.5zM530 714q-10 -1 -20 -6t-18.5 -12t-14.5 -14.5t-8 -13.5q17 17 31 27t30 19z" />
    <glyph glyph-name="question" unicode="?" horiz-adv-x="560" 
d="M199 404q-5 -1 -10 -1.5t-10 -0.5q-30 0 -57 12t-47.5 33.5t-32.5 52.5t-12 70q0 45 15.5 76.5t42 51.5t62.5 29.5t78 9.5q60 0 111.5 -19.5t89.5 -52t59.5 -75t21.5 -88.5q0 -48 -13 -78t-32 -52t-42 -39t-43.5 -38t-35 -50.5t-17.5 -74.5q17 -18 28.5 -41t11.5 -47
q0 -45 -26 -67t-68 -22q-30 0 -55.5 13t-43.5 33.5t-28 45t-10 47.5q0 32 16.5 54t42.5 29l-23 16q-10 43 -10 70q0 31 11.5 56.5t25.5 46.5zM228 722q-39 0 -72 -8.5t-58 -27t-39 -47.5t-14 -69q0 -42 23 -67t58 -25q38 0 59 23.5t21 54.5q0 32 -16.5 53.5t-43.5 21.5
q-16 0 -28.5 -10t-18.5 -27q0 30 23.5 53t65.5 23q22 0 38.5 -9.5t27.5 -25.5t16.5 -37t5.5 -44q0 -37 -7.5 -63t-18.5 -45.5t-23.5 -34.5t-23.5 -31t-18.5 -34.5t-7.5 -44.5t7 -55h73q0 40 13 66.5t33 46t42.5 36t42.5 37.5t33 49.5t13 71.5q0 42 -16.5 73.5t-45 53
t-65.5 32t-79 10.5zM218 591q12 -4 23 -12.5t20 -25.5q0 12 -5.5 27.5t-19.5 15.5q-10 0 -18 -5zM151 132q0 -29 19.5 -48.5t49.5 -19.5q29 0 48.5 19.5t19.5 48.5t-19.5 49.5t-48.5 20.5q-30 0 -49.5 -20.5t-19.5 -49.5zM347 602q-1 -41 -14 -79.5t-45 -58.5q5 -5 6 -12
t1 -13q0 -9 -2 -16.5t-5 -16.5q18 22 37.5 34.5t37.5 18.5q2 12 3.5 27t1.5 32q0 21 -4.5 42.5t-16.5 41.5zM235 400l20 27t18 32t13 41t5 54q0 27 -6 51t-19 42t-32 28t-45 10q-50 0 -77 -28t-27 -66q0 -15 10 -15q7 0 11.5 6t9 13.5t11.5 13.5t19 6q20 0 32.5 -16
t12.5 -43q0 -28 -17 -45.5t-48 -17.5q-29 0 -47.5 21t-18.5 56q0 36 13 62t35.5 42.5t53 24.5t66.5 8q38 0 72.5 -9.5t61 -29t42 -48.5t15.5 -67q0 -30 -8.5 -53t-21.5 -41t-29.5 -32.5t-32.5 -26.5q-11 0 -22 -3.5t-20 -9t-15 -13t-6 -14.5q0 -12 11 -19q-23 -17 -38.5 -37
t-28.5 -49q2 11 3 20.5t1 18.5q0 22 -8 48q26 7 43.5 21.5t17.5 26.5t-13 13q-5 0 -8 -0.5t-9 -2.5z" />
    <glyph glyph-name="at" unicode="@" horiz-adv-x="760" 
d="M537 281q-18 0 -26.5 12t-8.5 33v122q0 31 -9 57t-28.5 45t-50 30t-72.5 11q-31 0 -57.5 -8t-46 -22t-30.5 -33.5t-11 -42.5q0 -26 15.5 -44t41.5 -18q25 0 41.5 16.5t16.5 42.5q0 5 -2 15t-2 15q0 11 6.5 22.5t26.5 11.5t35.5 -15t17.5 -51q-13 -20 -33 -33.5t-43 -24.5
l-46 -21t-42 -23.5t-30.5 -31.5t-11.5 -44q0 -36 24 -61.5t72 -25.5q38 0 67 15t48 38q32 -61 114 -61q58 0 90.5 20t48.5 48.5t20 59.5t4 54q0 72 -25 131t-69 101.5t-104 66t-129 23.5q-68 0 -127 -24.5t-102.5 -67.5t-69 -102t-25.5 -128t24.5 -128t68 -102t103 -67.5
t128.5 -24.5q43 0 85 10t71 26l-27 52q-29 -14 -61.5 -21.5t-67.5 -7.5q-56 0 -102.5 20t-80.5 55.5t-52.5 83.5t-18.5 104t19.5 104t53.5 83t80.5 55t100.5 20q57 0 104 -19.5t81 -54t53 -83t19 -105.5q0 -21 -4 -40.5t-11.5 -34.5t-18 -24t-24.5 -9h-11zM553 110l40 -75
q-38 -19 -82.5 -32.5t-106.5 -13.5q-76 0 -147 27t-126 78.5t-88 126t-33 168.5q0 73 26.5 134.5t72.5 106.5t108 70.5t132 25.5q86 0 159.5 -33t127 -88t84 -126t30.5 -147q0 -26 -4 -60.5t-21.5 -66t-52.5 -53.5t-97 -22q-26 0 -48 5zM429 177q-5 -8 -16 -14t-25 -10
t-29 -5.5t-28 -1.5q-40 0 -72 13q20 -10 40.5 -15t49.5 -5q23 0 49 4.5t49 15.5zM187 226q-13 34 -13 76q0 20 6 36t15 27.5t19.5 19t19.5 12.5q-14 3 -26 14t-18 31q-15 -25 -20.5 -57.5t-5.5 -60.5q0 -27 5.5 -52.5t17.5 -45.5zM487 566q40 -26 62.5 -68t22.5 -100v-93
q11 11 15 34.5t4 49.5q0 140 -104 177zM487 405q-5 2 -8 2h-7q-10 0 -13 -4t-3 -12q0 -9 5 -17t17 -11q-17 -40 -29 -90q-5 25 -10 46.5t-15 43.5q11 3 15 11t4 17q0 16 -14 16h-6t-8 -2v33q0 40 -6.5 64t-17 37t-24 17.5t-26.5 4.5q-17 0 -27 -5.5t-15.5 -13t-7 -15.5
t-1.5 -14q0 -8 2 -17t2 -14q0 -19 -10.5 -31.5t-29.5 -12.5q-20 0 -31 14.5t-11 32.5q0 19 10 35.5t27.5 28.5t41.5 19t51 7q79 0 112 -37t33 -100v-33zM399 400q0 -63 -16 -100t-49 -37q-18 0 -29.5 12.5t-11.5 33.5q0 27 14.5 45.5t32.5 32.5l35.5 27t23.5 30v-44z
M418 537q5 -11 9.5 -25t4.5 -30q0 -9 -2 -16t-5 -15q17 -10 24 -38q8 27 28 38q-9 29 -22.5 49.5t-36.5 36.5zM213 309q7 9 11.5 18t11.5 18t17.5 17t28.5 13q-22 -24 -22 -43q0 -16 10 -22q-11 -10 -11 -27q0 -14 24 -36q-20 4 -30 11t-16.5 16t-11 18t-12.5 17zM611 519
q5 -13 10.5 -30.5t5.5 -35.5v-13.5t-2 -13.5q9 -10 15 -33q7 23 14 33q-5 24 -14.5 50t-28.5 43zM79 389q-7 0 -10 -5t-3 -13q0 -10 5 -18t10 -12q-5 -8 -5 -22q0 -12 5 -27t13 -31q-21 17 -33 37.5t-16 42.5q5 6 8 13t3 17q0 5 -4.5 11.5t-11.5 6.5q0 65 24 121.5t65.5 98
t98 65t121.5 23.5q67 0 124 -22.5t99 -63t66 -97.5t24 -125q-9 0 -12.5 -6.5t-3.5 -11.5q0 -17 11 -30q-4 -22 -16 -42.5t-32 -37.5q7 16 12 31t5 27q0 14 -5 22q5 4 10 12t5 18q0 8 -3.5 13t-11.5 5q0 61 -20 112.5t-56 88t-86 57t-110 20.5q-58 0 -107.5 -21t-85.5 -58.5
t-56.5 -88t-20.5 -110.5zM92 519q-20 -17 -30 -43t-14 -50q4 -6 8 -14t7 -19q2 11 5 18t9 15q-2 6 -2.5 13.5t-0.5 13.5q0 18 5.5 35.5t12.5 30.5z" />
    <glyph glyph-name="A" unicode="A" horiz-adv-x="621" 
d="M277 190l-6 -23q20 0 27.5 5t9.5 18h-31zM100 210q-8 -33 -25 -44.5t-40 -11.5v-70h199v70q-16 0 -30.5 7t-14.5 27q0 11 3 22l13 55h102l13 -55q3 -11 3 -20q0 -20 -14.5 -28t-31.5 -8v-70h232v70q-23 0 -39 11.5t-24 44.5l-111 495h-123zM290 344h-67l33 148zM293 602
q2 -20 3.5 -39.5t1.5 -35.5q0 -15 -2 -32.5t-7 -33.5q15 -9 27.5 -24t21.5 -33q2 39 23 57q-20 29 -35.5 62t-32.5 79zM224 690h99l66 -293q-11 4 -20 4q-16 0 -16 -17t10.5 -32t27.5 -22q-3 -14 -4 -30.5t-1 -34.5q0 -22 0.5 -39.5t4.5 -48.5q-8 29 -17 51t-18 39t-18 32
l-19 31q9 6 14 16t5 20q0 12 -7 23.5t-22 11.5q-9 0 -17 -4l-36 160l-36 -160q-27 0 -27 -22q0 -9 3.5 -19t13.5 -26q-22 -18 -38.5 -53.5t-38.5 -99.5q8 30 12 55t4 49q0 12 -1 24t-4 25q17 8 26 21t9 24q0 23 -14 23q-4 0 -7 -1zM234 602l-23 -72.5t-29 -68.5q3 -6 6 -15
t3 -19v-12t-2 -15q9 21 16 34t19 26q-3 18 -3 35q0 29 4.5 56.5zM20 169q24 0 42 9t24 35l114 507h146l84 -71l110 -481l61 -47v-121h-244l-67 48v-48h-200l-70 70v99z" />
    <glyph glyph-name="B" unicode="B" horiz-adv-x="593" 
d="M477 343q37 -23 61.5 -64t24.5 -86q0 -30 -9.5 -64t-38 -62.5t-79.5 -47.5t-133 -19h-207l-71 70v97q26 0 39 10.5t13 48.5v343l-52 52v99h274q50 0 96 -13.5t81.5 -41.5t56.5 -71.5t21 -103.5q0 -38 -17.5 -78.5t-59.5 -68.5zM155 602q-6 -47 -14 -80t-22 -61
q13 -9 22 -24t14 -33q11 39 36 57q-14 29 -22 62t-14 79zM271 634q79 0 79 -107q0 -15 -3.5 -31t-13.5 -29t-26.5 -21.5t-41.5 -8.5h-47v197h53zM302 460q17 8 25 26.5t8 38.5q0 7 -1 15t-5 15t-10.5 12t-16.5 5v-112zM203 422h62q30 0 49 10t30 25t15.5 33.5t4.5 36.5
q0 63 -24 92t-69 29h-68v-226zM345 395q-8 7 -21 7t-24 -9q-5 5 -11.5 6t-11.5 1q-12 0 -22 -9q-5 5 -11 6.5t-11 1.5t-11.5 -1.5t-11.5 -6.5q-6 5 -13 7.5t-12 2.5q-22 0 -22 -29q0 -12 6.5 -24.5t21.5 -17.5q-14 -32 -22.5 -74t-13.5 -79q-5 37 -14.5 79t-21.5 74
q15 5 21.5 17.5t6.5 24.5q0 29 -22 29q-9 0 -18 -4v191q0 28 -14.5 43t-37.5 17v42h241q75 0 119.5 -43.5t44.5 -118.5q0 -41 -16.5 -77t-53.5 -50q-8 4 -19 4q-8 0 -14.5 -3t-11.5 -7zM377 626q8 -11 13 -25.5t5 -28.5q0 -12 -4 -25.5t-12 -21.5q6 -8 9 -14.5t3 -17.5
q0 -35 -24 -62q21 8 33 21t20.5 27t14.5 26.5t14 19.5q-7 10 -15 25.5t-17 31t-19 27.5t-21 17zM401 388q73 39 73 140q0 82 -47 129.5t-128 47.5h-259v-70q21 0 36.5 -12t15.5 -44v-369q0 -32 -15.5 -44t-36.5 -12v-70h244q98 0 149 43.5t51 124.5q0 23 -7 43.5t-18.5 38
t-26.5 31.5t-31 23zM218 159v197h47q25 0 42.5 -7.5t28.5 -20t15.5 -29t4.5 -33.5q0 -55 -23.5 -81t-61.5 -26h-53zM302 181q21 8 30 30t9 45q0 13 -9.5 26t-29.5 13v-114zM367 369q16 -5 28.5 -16.5t23 -26t19.5 -30t18 -28.5q-8 -7 -15 -19.5t-16.5 -26t-22.5 -27
t-34 -21.5q25 27 25 62q0 11 -6 17.5t-12 14.5q7 8 12.5 17t5.5 19q0 20 -7.5 37t-18.5 28z" />
    <glyph glyph-name="C" unicode="C" horiz-adv-x="506" 
d="M465 649v-269h-105l-70 70q0 3 -0.5 18.5t-3 32t-6.5 30t-11 13.5t-11.5 -11.5t-7.5 -32t-4 -48t-1 -58.5q0 -34 1.5 -64.5t4.5 -54t7.5 -37t10.5 -13.5q7 0 11.5 13.5t7 32.5t3.5 38.5t1 32.5h116l68 -83q-1 -41 -9.5 -88.5t-31 -87.5t-62 -66.5t-102.5 -26.5
q-58 0 -104.5 31t-79 84.5t-50 126t-17.5 155.5q0 60 9 121t32 110.5t62.5 80.5t101.5 31q17 0 30 -5t22.5 -11.5l17 -11.5t13.5 -5q9 0 12 6.5t3 16.5h72zM225 715q-41 0 -71.5 -16.5t-51.5 -43t-34 -61t-20 -71t-9.5 -72t-2.5 -64.5q0 -52 10.5 -107t34 -100t62.5 -73.5
t96 -28.5q49 0 79.5 25.5t47 63.5t22 81t5.5 79h-85q-1 -17 -4 -46.5t-10.5 -57.5t-20.5 -48.5t-34 -20.5t-34.5 23.5t-21 59t-10 78t-2.5 80.5q0 37 2 79.5t9 78.5t20.5 59.5t37.5 23.5q22 0 34.5 -21t19.5 -49t9 -57t2 -44h75v239h-45q-5 -24 -25 -24q-7 0 -15 5.5l-18 12
t-23 12t-29 5.5zM50 393q0 52 8 106.5t27.5 99t53.5 73t87 28.5q17 0 29 -6t22 -12.5t18 -12.5t16 -6q14 0 22.5 8t11.5 18h20v-209h-46q0 20 -3 49.5t-11.5 56.5t-24 46t-40.5 19q-27 0 -44 -23.5t-26 -60t-12 -82.5t-3 -91q-5 4 -9.5 5t-7.5 1q-11 0 -18.5 -7.5
t-7.5 -20.5q0 -8 4 -16t9.5 -14.5t11.5 -11l10 -7.5q-10 -13 -13.5 -28t-3.5 -31q0 -19 4.5 -39t10.5 -36q-39 28 -54 61t-26 73q12 9 21.5 21t9.5 28q0 8 -4.5 17.5t-18.5 9.5q-13 0 -23 -6zM147 602q-38 -35 -54.5 -70.5t-24.5 -70.5q13 -8 22.5 -24t15.5 -33
q4 17 13.5 33.5t22.5 22.5q-8 12 -11 26t-3 29q0 17 5.5 41t13.5 46z" />
    <glyph glyph-name="D" unicode="D" horiz-adv-x="593" 
d="M245 84q63 0 107 21.5t71.5 61t40 94.5t12.5 121q0 72 -15 131t-45 102t-76.5 66.5t-109.5 23.5h-195v-70q21 0 36.5 -12t15.5 -44v-369q0 -32 -15.5 -44t-36.5 -12v-70h210zM150 602q-6 -47 -14 -80t-22 -61q13 -9 22 -24t14 -33q11 39 36 57q-14 29 -22 62t-14 79z
M234 690q55 0 96.5 -22.5t69.5 -59t42 -82.5t14 -94q0 -9 -0.5 -18t-1.5 -17q-5 1 -9.5 1.5t-8.5 0.5q-14 0 -18.5 -11.5t-4.5 -19.5q0 -12 8 -24t22 -21q-8 -37 -26 -77t-55 -66q7 16 12.5 38t5.5 41q0 16 -3.5 33.5t-13.5 30.5q10 5 22.5 18t12.5 27t-8.5 23t-19.5 9
q-6 0 -12 -3q-2 45 -7 89.5t-18 80.5t-36.5 58t-63.5 22h-35v-250q-9 4 -18 4q-22 0 -22 -29q0 -12 6.5 -24.5t21.5 -17.5q-14 -32 -22.5 -74t-13.5 -79q-5 37 -14.5 79t-21.5 74q15 5 21.5 17.5t6.5 24.5q0 29 -22 29q-9 0 -18 -4v191q0 28 -14.5 43t-37.5 17v42h184zM91 0
l-71 70v97q26 0 39 10.5t13 48.5v343l-52 52v99h207q91 0 155 -32.5t104 -85.5t58.5 -119.5t18.5 -133.5q0 -79 -16.5 -143.5t-52.5 -110t-93 -70.5t-138 -25h-172zM234 632q32 0 52.5 -21.5t32.5 -56.5t17 -80t5 -92q0 -38 -2.5 -78t-13 -73.5t-32 -55t-59.5 -21.5h-20v478
h20zM297 545v-340q17 21 23 68.5t6 108.5q0 57 -6.5 102t-12.5 61h-10zM362 601q8 -20 13 -42t5 -45q0 -28 -13 -54q14 -7 24.5 -23t12.5 -33q6 17 15 33t22 24q-10 40 -28 76t-51 64z" />
    <glyph glyph-name="E" unicode="E" horiz-adv-x="514" 
d="M410 330h-67v-9q0 -26 -3 -55t-13.5 -53t-32 -39.5t-58.5 -15.5h-23v190h80v100h-80v184h20q27 0 46 -12t31 -33.5t17.5 -51.5t5.5 -67v-9h67v246h-365v-70q21 0 36.5 -12t15.5 -44v-369q0 -32 -15.5 -44t-36.5 -12v-70h375v246zM150 602q-6 -47 -14 -80t-22 -61
q13 -9 22 -24t14 -33q11 39 36 57q-14 29 -22 62t-14 79zM184 401q-11 0 -18.5 -7.5t-7.5 -21.5q0 -12 6.5 -24.5t21.5 -17.5q-14 -32 -22.5 -74t-13.5 -79q-5 37 -14.5 79t-21.5 74q15 5 21.5 17.5t6.5 24.5q0 29 -22 29q-9 0 -18 -4v191q0 28 -14.5 42.5t-37.5 16.5v43
h335v-216h-37q-2 29 -6 60t-16 56t-34 41t-59 16h-35v-214h78v-46q-14 12 -29 12q-16 0 -31 -12q-12 14 -32 14zM494 274v-274h-403l-71 70v97q26 0 39 10.5t13 48.5v343l-52 52v99h394l70 -71v-274h-96l-69 76v18q0 13 -4.5 30t-17.5 17v-56l80 -88v-28h47zM297 251v-57
q11 11 18 26t9 31h-27z" />
    <glyph glyph-name="F" unicode="F" horiz-adv-x="509" 
d="M293 348v100h-80v184h21q28 0 47 -14t30.5 -37.5t16.5 -53t5 -59.5v-9h67v246h-365v-70q21 0 36.5 -12t15.5 -44v-369q0 -32 -15.5 -44t-36.5 -12v-70h230v70q-23 0 -37.5 11.5t-14.5 44.5v138h80zM150 602q-6 -47 -14 -80t-22 -61q13 -9 22 -24t14 -33q11 39 36 57
q-14 29 -22 62t-14 79zM297 168l52 -47v-121h-258l-71 70v97q26 0 39 10.5t13 48.5v343l-52 52v99h394l70 -71v-274h-96l-69 76v11q0 18 -4.5 36t-17.5 18v-56l80 -88v-121h-80v-83zM184 401q-26 0 -26 -29q0 -12 6.5 -24.5t21.5 -17.5q-14 -32 -22.5 -74t-13.5 -79
q-5 37 -14.5 79t-21.5 74q15 5 21.5 17.5t6.5 24.5q0 29 -22 29q-9 0 -18 -4v191q0 28 -14.5 42.5t-37.5 16.5v43h335v-216h-37q-1 22 -5 51.5t-16 56.5t-34 46t-59 19h-36v-214h78v-46q-14 12 -29 12q-16 0 -31 -12q-12 14 -32 14z" />
    <glyph glyph-name="G" unicode="G" horiz-adv-x="584" 
d="M239 77q27 0 46.5 6.5t33 14.5t23.5 14.5t18 6.5q14 0 19.5 -11.5t5.5 -23.5h39v172q0 53 55 53v69h-229v-69q33 0 45.5 -22t12.5 -54q0 -42 -14.5 -60.5t-43.5 -18.5q-24 0 -39.5 23.5t-24 59t-12 78t-3.5 80.5q0 37 3 79.5t11 78.5t23.5 59.5t41.5 23.5q23 0 39 -13.5
t26 -34.5t15 -47t7 -51h75v214h-45q-5 -24 -25 -24q-9 0 -18.5 5.5l-21.5 12t-28 12t-37 5.5q-44 0 -76 -16.5t-54.5 -43t-36 -61t-21.5 -71t-10.5 -72t-2.5 -64.5q0 -52 10.5 -107t34 -100t62.5 -74t96 -29zM497 649v-242h-105l-70 70q-1 26 -9 47t-28 21q-13 0 -21 -12
t-12 -32.5t-5.5 -48t-1.5 -58.5h249l70 -74v-94q-34 0 -45 -16.5t-11 -48.5v-161h-61q-1 11 -7 22.5t-20 11.5t-26 -7l-27 -15t-36.5 -15t-55.5 -7q-58 0 -105 31t-80.5 84.5t-51.5 126t-18 155.5q0 60 9.5 121t33.5 110.5t66 80.5t108 31q21 0 37 -5t28 -11.5l21 -11.5
t17 -5q9 0 12 6.5t3 16.5h72zM256 253q2 -20 7 -40t13 -33q7 8 10.5 19t3.5 21q0 11 -7 22t-27 11zM50 393q0 51 9 105.5t30.5 99t57.5 73.5t90 29q20 0 35.5 -6t28.5 -12.5t23 -12.5t19 -6q14 0 22.5 8t11.5 18h20v-184h-47q-2 25 -8 51t-17.5 47t-29.5 34.5t-45 13.5
q-30 0 -48.5 -23.5t-29 -60t-14 -82.5t-3.5 -91q-5 4 -9.5 5t-7.5 1q-11 0 -18.5 -7.5t-7.5 -20.5q0 -8 4 -16t9.5 -14.5t11.5 -11l10 -7.5q-10 -13 -13.5 -28t-3.5 -31q0 -19 4.5 -39t10.5 -36q-39 28 -54 61t-26 73q12 9 21.5 21t9.5 28q0 8 -4.5 17.5t-18.5 9.5
q-13 0 -23 -6zM147 602q-38 -35 -54.5 -70.5t-24.5 -70.5q13 -8 22.5 -24t15.5 -33q4 17 13.5 33.5t22.5 22.5q-8 12 -11 26t-3 29q0 17 5.5 41t13.5 46z" />
    <glyph glyph-name="H" unicode="H" horiz-adv-x="642" 
d="M160 602q-6 -47 -14 -80t-22 -61q13 -9 22 -24t14 -33q11 39 36 57q-14 29 -22 62t-14 79zM287 388q-8 5 -15 8t-16 3q-11 0 -18.5 -3t-13.5 -8q-11 8 -19.5 10.5t-13.5 2.5q-23 0 -23 -29q0 -12 6.5 -24.5t21.5 -17.5q-14 -32 -22.5 -74t-13.5 -79q-5 37 -14.5 79
t-21.5 74q15 5 21.5 17.5t6.5 24.5q0 29 -22 29q-9 0 -18 -4v191q0 28 -14.5 43t-37.5 17v42h200v-42q-25 -1 -38.5 -17t-13.5 -43v-155h158v155q0 28 -15 43t-38 17v42h200v-42q-25 -1 -38.5 -17t-13.5 -43v-191q-9 4 -18 4q-22 0 -22 -29q0 -12 6.5 -24.5t21.5 -17.5
q-14 -32 -22.5 -74t-13.5 -79q-5 37 -14.5 79t-21.5 74q15 5 21.5 17.5t6.5 24.5q0 29 -22 29q-5 0 -14.5 -3t-18.5 -10q-12 11 -31 11q-9 0 -16.5 -3t-15.5 -8zM335 548q-28 -3 -28 -45v-41h28v86zM307 169q14 4 21.5 16t7.5 41v42h-29v-99zM101 0l-71 70v97q26 0 39 10.5
t13 48.5v343l-52 52v99h512l70 -71v-98q-24 -2 -38 -9t-14 -39v-335l52 -47v-121h-511zM223 579q0 33 14.5 44.5t37.5 11.5v70h-230v-70q21 0 36.5 -12t15.5 -44v-369q0 -32 -15.5 -44t-36.5 -12v-70h230v70q-23 0 -37.5 11.5t-14.5 44.5v138h127v-138q0 -32 -15.5 -44
t-36.5 -12v-70h230v70q-23 0 -37.5 11.5t-14.5 44.5v369q0 33 14.5 44.5t37.5 11.5v70h-230v-70q21 0 36 -12t15 -44v-131h-126v131zM413 602q-6 -47 -14 -80t-22 -61q13 -9 22 -24t14 -33q11 39 36 57q-14 29 -22 62t-14 79z" />
    <glyph glyph-name="I" unicode="I" horiz-adv-x="399" 
d="M299 720l70 -71v-98q-24 -2 -38 -9t-14 -39v-335l52 -47v-121h-258l-71 70v97q26 0 39 10.5t13 48.5v343l-52 52v99h259zM107 210q0 -32 -15.5 -44t-36.5 -12v-70h230v70q-23 0 -37.5 11.5t-14.5 44.5v369q0 33 14.5 44.5t37.5 11.5v70h-230v-70q21 0 36.5 -12t15.5 -44
v-369zM170 602q-6 -47 -14 -80t-22 -61q13 -9 22 -24t14 -33q11 39 36 57q-14 29 -22 62t-14 79zM218 397q-9 4 -18 4q-22 0 -22 -29q0 -12 6.5 -24.5t21.5 -17.5q-14 -32 -22.5 -74t-13.5 -79q-5 37 -14.5 79t-21.5 74q15 5 21.5 17.5t6.5 24.5q0 29 -22 29q-9 0 -18 -4
v191q0 28 -14.5 43t-37.5 17v42h200v-42q-25 -1 -38.5 -17t-13.5 -43v-191z" />
    <glyph glyph-name="J" unicode="J" horiz-adv-x="511" 
d="M444 183q0 -42 -12 -77.5t-36 -61t-61 -40t-87 -14.5q-56 0 -98.5 21.5t-71.5 56.5t-43.5 78t-14.5 87q0 45 22 75.5t67 30.5q42 0 71.5 -23t38.5 -63v316l-52 52v99h259l70 -71v-98q-24 -2 -38 -9t-14 -39v-320zM297 602q-6 -47 -14 -80t-22 -61q13 -9 22 -24t14 -33
q11 39 36 57q-14 29 -22 62t-14 79zM249 588q0 28 -14.5 43t-37.5 17v42h200v-42q-25 -1 -38.5 -17t-13.5 -43v-191q-9 4 -17 4q-22 0 -22 -29q0 -12 6.5 -24.5t21.5 -17.5q-3 -17 -6 -36.5t-9 -39.5t-16 -40t-28 -37q3 13 5.5 29.5t2.5 27.5q0 31 -4.5 55t-16.5 41
q15 5 21.5 17.5t6.5 24.5q0 29 -22 29q-10 0 -19 -4v191zM360 579q0 33 14.5 44.5t37.5 11.5v70h-230v-70q21 0 36.5 -12t15.5 -44v-358q0 -41 -13.5 -53.5t-33.5 -12.5q-29 0 -45 34q20 12 29 27t9 38q0 32 -21.5 51.5t-49.5 19.5q-33 0 -53.5 -25t-20.5 -67
q0 -38 12.5 -67.5t34.5 -50.5t52 -32t66 -11t65.5 8.5t50.5 28t32.5 51.5t11.5 79v340z" />
    <glyph glyph-name="K" unicode="K" horiz-adv-x="628" 
d="M213 396v183q0 33 14.5 44.5t37.5 11.5v70h-230v-70q21 0 36.5 -12t15.5 -44v-369q0 -32 -15.5 -44t-36.5 -12v-70h230v70q-23 0 -37.5 11t-14.5 38v168l110 -172q6 -12 6 -20q0 -16 -12 -20.5t-29 -4.5v-70h230v70q-17 2 -32 14.5t-26 28.5l-130 204l114 195
q14 24 28 31.5t33 7.5v70h-213v-70q12 0 22 -9t10 -27q0 -12 -9 -27zM150 602q-6 -47 -14 -80t-22 -61q13 -9 22 -24t14 -33q11 39 36 57q-14 29 -22 62t-14 79zM198 397q-9 4 -18 4q-22 0 -22 -29q0 -12 6.5 -24.5t21.5 -17.5q-14 -32 -22.5 -71.5t-13.5 -81.5
q-5 42 -14.5 81.5t-21.5 71.5q15 5 21.5 17.5t6.5 24.5q0 29 -22 29q-9 0 -18 -4v191q0 28 -14.5 43t-37.5 17v42h200v-42q-25 -1 -38.5 -17t-13.5 -43v-191zM313 406q-8 0 -13 -6.5t-5 -11.5q0 -9 6 -18.5t14 -17.5t17.5 -14t15.5 -8q1 -14 5.5 -32.5t12 -38.5l16 -41.5
l16.5 -40.5q-30 51 -65 89.5t-65 63.5q7 8 11 19t4 18q0 34 -26 34q-5 0 -13 -1t-13 -3l102 173q9 16 9 29q0 21 -10.5 34t-24.5 15v42h183v-42q-25 -1 -37.5 -15t-26.5 -37zM577 649v-98h-15q-26 0 -44.5 -13.5t-32.5 -36.5l-66 -114l137 -216l47 -51v-120h-512l-71 70v97
q26 0 39 10.5t13 48.5v343l-52 52v99h498zM386 598q-26 -38 -53.5 -74t-50.5 -63q0 -11 -0.5 -26t-3.5 -30q13 19 27.5 32.5t25.5 22.5q7 27 19.5 60t35.5 78zM297 171q15 0 15 12q0 5 -5 13t-10 13v-38zM297 568l14 21l-14 15v-36z" />
    <glyph glyph-name="L" unicode="L" horiz-adv-x="519" 
d="M150 602q-6 -47 -14 -80t-22 -61q13 -9 22 -24t14 -33q11 39 36 57q-14 29 -22 62t-14 79zM250 690v-42q-25 -1 -38.5 -17t-13.5 -43v-192q-10 5 -19 5q-21 0 -21 -29q0 -12 6.5 -24.5t21.5 -17.5q-14 -32 -22.5 -74t-13.5 -79q-5 37 -14.5 79t-21.5 74q15 5 21.5 17.5
t6.5 24.5q0 29 -22 29q-9 0 -18 -4v191q0 28 -14.5 43t-37.5 17v42h200zM424 344l70 -70v-274h-403l-71 70v97q26 0 39 10.5t13 48.5v343l-52 52v99h259l70 -71v-98q-24 -2 -38 -9t-14 -39v-305q17 21 24.5 56.5t7.5 89.5h95zM35 635q21 0 36.5 -12t15.5 -44v-369
q0 -32 -15.5 -44t-36.5 -12v-70h375v246h-67v-9q0 -32 -4.5 -61.5t-16.5 -52t-32 -36.5t-51 -14h-26v422q0 33 14.5 44.5t37.5 11.5v70h-230v-70z" />
    <glyph glyph-name="M" unicode="M" horiz-adv-x="777" 
d="M444 602q-13 -46 -25.5 -80.5t-26.5 -60.5q10 -22 10 -57q8 20 15.5 34t18.5 23q-1 8 -1.5 16t-0.5 16q0 23 2.5 49t7.5 60zM295 705h-250v-70q25 0 44.5 -12t19.5 -44v-369q0 -32 -17 -44t-47 -12v-70h210v70q-8 0 -18.5 2.5t-21 9t-17.5 17t-7 27.5v370l109 -496h76
l109 496v-370q0 -32 -15.5 -44t-36.5 -12v-70h230v70q-23 0 -37.5 11.5t-14.5 44.5v369q0 33 14.5 44.5t37.5 11.5v70h-238l-65 -298zM548 602q-6 -47 -14 -80t-22 -61q13 -9 22 -24t14 -33q11 39 36 57q-14 29 -22 62t-14 79zM474 599l-45 -202q-5 4 -11 4q-9 0 -13.5 -13
t-4.5 -28q0 -10 2 -18t7 -12q-15 -32 -28.5 -72t-23.5 -81q2 18 3.5 39t2 41.5t0.5 39v33.5q14 7 21.5 25t7.5 35q0 11 -8 11q-3 0 -12 -6l65 295h211v-42q-25 -1 -38.5 -17t-13.5 -43v-191q-9 4 -18 4q-22 0 -22 -29q0 -12 6.5 -24.5t21.5 -17.5q-14 -32 -22.5 -74
t-13.5 -79q-5 37 -14.5 79t-21.5 74q15 5 21.5 17.5t6.5 24.5q0 29 -22 29q-9 0 -18 -4v202h-26zM347 395l-12.5 4t-11.5 2q-9 0 -12 -4t-3 -10q0 -18 14 -34.5t26 -21.5q-3 -14 -5 -33.5t-3.5 -40.5t-2 -42t-0.5 -38q-13 48 -28 85t-33 68q10 4 14.5 13t4.5 20q0 14 -7 26
t-22 12q-5 0 -10 -1t-10 -3l-44 202h-26v-202q-4 2 -5 3t-4 1q-11 0 -11 -29q0 -12 3.5 -24.5t13.5 -17.5q-8 -32 -13.5 -74t-9.5 -79q-4 37 -9.5 79t-13.5 74q10 5 13.5 17.5t3.5 24.5q0 29 -11 29q-2 0 -9 -4v191q0 29 -19.5 44.5t-44.5 15.5v42h223zM95 0l-65 70v97
q29 0 46.5 10t17.5 48v344l-64 52v99h272l73 -66l12 -59l27 125h263l70 -71v-98q-24 -2 -38 -9t-14 -39v-335l52 -47v-121h-258l-38 40v-40h-79l-46 40v-40h-231zM150 602q-4 -46 -9 -79t-13 -62q7 -10 13 -23.5t9 -33.5q4 20 9 34t13 23q-8 29 -13 62t-9 79zM251 602
q2 -20 3.5 -37t1.5 -32q0 -21 -2 -38t-7 -34q15 -9 27.5 -24t21.5 -33q3 40 23 57q-20 29 -35.5 62t-32.5 79z" />
    <glyph glyph-name="N" unicode="N" horiz-adv-x="619" 
d="M145 602q-4 -46 -9 -79t-13 -62q7 -10 13 -23.5t9 -33.5q4 20 9 34t13 23q-8 29 -13 62t-9 79zM461 84v496q0 32 14.5 43.5t39.5 11.5v70h-190v-70q25 0 39.5 -12t14.5 -44v-210l-124 336h-215v-70q25 0 44.5 -12t19.5 -44v-369q0 -32 -17 -44t-47 -12v-70h210v70
q-8 0 -18.5 2.5t-21 9t-17.5 17t-7 27.5v278l152 -404h123zM500 648q-25 0 -39.5 -15.5t-14.5 -44.5v-191q-4 2 -5 3t-4 1q-11 0 -11 -29q0 -12 3.5 -24.5t13.5 -17.5q-8 -32 -13.5 -74t-9.5 -79q-4 37 -9.5 79t-13.5 74q10 5 13.5 17.5t3.5 24.5q0 29 -11 29q-2 0 -9 -4
v191q0 29 -14.5 44.5t-39.5 15.5v42h160v-42zM420 602q-4 -46 -9 -79t-13 -62q7 -10 13 -23.5t9 -33.5q4 20 9 34t13 23q-8 29 -13 62t-9 79zM355 393q-6 3 -16.5 5t-16.5 2q-14 0 -14 -11q0 -18 14.5 -34.5t31.5 -24.5q0 -28 2.5 -68.5t9.5 -85.5q-20 49 -39 86t-45 67
q15 10 15 33q0 14 -10.5 26t-25.5 12q-5 0 -11.5 -1t-11.5 -3l-67 167v-166q-4 2 -5 3t-4 1q-11 0 -11 -29q0 -12 3.5 -24.5t13.5 -17.5q-8 -32 -13.5 -74t-9.5 -79q-4 37 -9.5 79t-13.5 74q10 5 13.5 17.5t3.5 24.5q0 29 -11 29q-2 0 -9 -4v191q0 29 -19.5 44.5t-44.5 15.5
v42h190zM385 0l-64 70v-70h-231l-65 70v97q29 0 46.5 10t17.5 48v344l-64 52v99h240l45 -51v51h219l70 -71v-98q-20 0 -31 -9t-11 -41v-501h-172zM219 602q8 -28 13.5 -58t5.5 -47q0 -9 -1 -18.5t-3 -18.5q17 -9 32 -22.5t26 -34.5q0 15 3 31t11 26q-23 29 -43.5 62.5
t-43.5 79.5zM296 145l-26 71v-47z" />
    <glyph glyph-name="O" unicode="O" horiz-adv-x="551" 
d="M239 715q-51 0 -89.5 -24t-64 -67t-38 -101t-12.5 -126q0 -70 12.5 -128.5t38 -101t64 -66t89.5 -23.5t89 23.5t63.5 66t38.5 101t13 128.5q0 68 -13 126t-38.5 101t-63.5 67t-89 24zM239 636q21 0 34.5 -21.5t21 -56t10.5 -77t3 -84.5q0 -43 -3 -86.5t-11 -78t-21 -56.5
t-34 -22t-34 22t-21 56.5t-11 78t-3 86.5q0 42 3 84.5t10.5 77t21 56t34.5 21.5zM304 -10q-81 0 -135.5 36.5t-87.5 95t-47 131t-14 144.5q0 71 14 132t41.5 105.5t68.5 70t95 25.5q70 0 124.5 -30.5t92 -84t56.5 -126.5t19 -157q0 -73 -14 -135.5t-42 -108.5t-71 -72
t-100 -26zM274 576q-7 -18 -11 -49.5t-6 -65.5t-2.5 -66t-0.5 -51q0 -45 5.5 -83t12.5 -62q11 30 16.5 82t5.5 116q0 18 -1 43t-3 50.5t-6 48.5t-10 37zM322 394q0 44 -3.5 89.5t-12.5 83t-25 61t-42 23.5t-42 -23.5t-25 -61t-12.5 -83t-3.5 -89.5q-5 4 -10 5t-8 1
q-11 0 -18.5 -7.5t-7.5 -20.5q0 -8 4 -16t9.5 -14.5t11.5 -11l10 -7.5q-10 -13 -13.5 -28t-3.5 -31q0 -19 4.5 -39t10.5 -36q-39 28 -54 61t-26 73q12 9 21.5 21t9.5 28q0 8 -4.5 17.5t-18.5 9.5q-13 0 -23 -6q0 66 11.5 122t35 97.5t59 64.5t83.5 23t83.5 -23.5t59 -65
t35.5 -97.5t12 -121q-11 6 -24 6q-14 0 -18.5 -9.5t-4.5 -17.5q0 -16 9.5 -28t21.5 -21q-11 -40 -26 -73t-54 -61q6 16 10.5 36t4.5 39q0 16 -3.5 31t-13.5 28l10 7.5t11.5 11t9.5 14.5t4 16q0 13 -7.5 20.5t-18.5 7.5q-3 0 -8 -1t-10 -5zM147 602q-38 -35 -54.5 -70.5
t-24.5 -70.5q13 -8 22.5 -24t15.5 -33q4 17 13.5 33.5t22.5 22.5q-8 12 -11 26t-3 29q0 17 5.5 41t13.5 46zM331 602q8 -22 13.5 -46t5.5 -41q0 -15 -3 -29t-11 -26q13 -6 22.5 -22.5t13.5 -33.5q6 17 15.5 33t22.5 24q-8 35 -24.5 70.5t-54.5 70.5z" />
    <glyph glyph-name="P" unicode="P" horiz-adv-x="572" 
d="M299 720q50 0 95.5 -13.5t80.5 -42.5t56 -74.5t21 -109.5q0 -34 -8 -70t-34.5 -65.5t-76 -48.5t-131.5 -19v-109l52 -47v-121h-258l-71 70v97q26 0 39 10.5t13 48.5v343l-52 52v99h274zM287 364q98 0 142.5 44t44.5 125q0 80 -47 126t-128 46h-259v-70q21 0 36.5 -12
t15.5 -44v-369q0 -32 -15.5 -44t-36.5 -12v-70h230v70q-23 0 -37.5 11.5t-14.5 44.5v154h69zM155 602q-6 -47 -14 -80t-22 -61q13 -9 22 -24t14 -33q11 39 36 57q-14 29 -22 62t-14 79zM271 634q79 0 79 -107q0 -15 -3.5 -31t-13.5 -29t-26.5 -21.5t-41.5 -8.5h-47v197h53z
M302 460q17 8 25 26.5t8 38.5q0 14 -6.5 30.5t-26.5 16.5v-112zM203 422h62q30 0 49 10t30 25t15.5 33.5t4.5 36.5q0 63 -24 92t-69 29h-68v-226zM345 395q-8 7 -21 7t-24 -9q-5 5 -11.5 6t-11.5 1q-12 0 -22 -9q-5 5 -11 6.5t-11 1.5t-11.5 -1.5t-11.5 -6.5q-6 5 -13 7.5
t-12 2.5q-22 0 -22 -29q0 -12 6.5 -24.5t21.5 -17.5q-14 -32 -22.5 -74t-13.5 -79q-5 37 -14.5 79t-21.5 74q15 5 21.5 17.5t6.5 24.5q0 29 -22 29q-9 0 -18 -4v191q0 28 -14.5 43t-37.5 17v42h241q75 0 119.5 -42t44.5 -115q0 -41 -16.5 -79.5t-53.5 -52.5q-8 4 -19 4
q-8 0 -14.5 -3t-11.5 -7zM377 626q8 -11 13 -25.5t5 -28.5q0 -12 -4 -25.5t-12 -21.5q6 -8 9 -14.5t3 -17.5q0 -35 -24 -62q21 8 33 20t20.5 25.5t14.5 26t14 22.5q-7 11 -14 26.5t-15.5 30.5t-19 27t-23.5 17z" />
    <glyph glyph-name="Q" unicode="Q" horiz-adv-x="612" 
d="M355 122q16 -21 38 -36.5t51 -15.5q42 0 61 25.5t19 69.5q0 14 -3 34t-6 31h-34q0 -23 -8 -41.5t-27 -18.5q-13 0 -22 10.5t-14 21.5q33 79 33 195q0 68 -13 126t-38.5 101t-63.5 67t-89 24t-89.5 -24t-64 -67t-38 -101t-12.5 -126q0 -70 12.5 -128.5t38 -101t64 -66
t89.5 -23.5q35 0 64 11.5t52 32.5zM239 636q21 0 34.5 -21.5t21 -56t10.5 -77t3 -84.5q0 -43 -3 -86.5t-11 -78t-21 -56.5t-34 -22t-34 22t-21 56.5t-11 78t-3 86.5q0 42 3 84.5t10.5 77t21 56t34.5 21.5zM274 576q-7 -18 -11 -49.5t-6 -65.5t-2.5 -66t-0.5 -51
q0 -45 5.5 -83t12.5 -62q11 30 16.5 82t5.5 116q0 18 -1 43t-3 50.5t-6 48.5t-10 37zM405 19q-40 -29 -101 -29q-81 0 -135.5 36.5t-87.5 95t-47 131t-14 144.5q0 71 14 132t41.5 105.5t68.5 70t95 25.5q70 0 124.5 -30.5t92 -84t56.5 -126.5t19 -157q0 -23 -2 -47.5
t-6 -39.5l54 -48q7 -23 11 -51t4 -46q0 -25 -4.5 -46.5t-15.5 -37.5t-30 -25.5t-48 -9.5q-21 0 -45 8.5t-44 29.5zM322 394q0 44 -3.5 89.5t-12.5 83t-25 61t-42 23.5t-42 -23.5t-25 -61t-12.5 -83t-3.5 -89.5q-5 4 -10 5t-8 1q-11 0 -18.5 -7.5t-7.5 -20.5q0 -8 4 -16
t9.5 -14.5t11.5 -11l10 -7.5q-10 -13 -13.5 -28t-3.5 -31q0 -19 4.5 -39t10.5 -36q-39 28 -54 61t-26 73q12 9 21.5 21t9.5 28q0 8 -4.5 17.5t-18.5 9.5q-13 0 -23 -6q0 66 11.5 122t35 97.5t59 64.5t83.5 23t83.5 -23.5t59 -65t35.5 -97.5t12 -121q-11 6 -24 6
q-14 0 -18.5 -9.5t-4.5 -17.5q0 -16 9.5 -28t21.5 -21q-11 -40 -26 -73t-54 -61q6 16 10.5 36t4.5 39q0 16 -3.5 31t-13.5 28l10 7.5t11.5 11t9.5 14.5t4 16q0 13 -7.5 20.5t-18.5 7.5q-3 0 -8 -1t-10 -5zM147 602q-38 -35 -54.5 -70.5t-24.5 -70.5q13 -8 22.5 -24t15.5 -33
q4 17 13.5 33.5t22.5 22.5q-8 12 -11 26t-3 29q0 17 5.5 41t13.5 46zM331 602q8 -22 13.5 -46t5.5 -41q0 -15 -3 -29t-11 -26q13 -6 22.5 -22.5t13.5 -33.5q6 17 15.5 33t22.5 24q-8 35 -24.5 70.5t-54.5 70.5z" />
    <glyph glyph-name="R" unicode="R" horiz-adv-x="621" 
d="M292 720q60 0 108.5 -18.5t83.5 -50t54 -73.5t19 -89q0 -48 -23.5 -87.5t-69.5 -64.5q17 -11 29.5 -27.5t23 -37.5t19 -45t16.5 -49q8 -26 28.5 -40t40.5 -18q-1 -39 -10 -63.5t-24 -39t-35 -20t-41 -5.5q-54 0 -88 27t-54 68t-29.5 88.5t-15.5 88.5q-2 12 -11 12
q-3 0 -7 -3.5t-4 -15.5v-94l52 -52v-111h-258l-71 70v97q26 0 39 10.5t13 48.5v343l-52 52v99h267zM155 602q-6 -47 -14 -80t-22 -61q13 -9 22 -24t14 -33q11 39 36 57q-14 29 -22 62t-14 79zM40 705v-70q21 0 36.5 -12t15.5 -44v-369q0 -32 -15.5 -44t-36.5 -12v-70h230v70
q-23 0 -37.5 11.5t-14.5 44.5v146q16 4 32 4q26 0 42.5 -11.5t27 -31t16.5 -45.5t11 -56q4 -28 11 -53t19 -44.5t32 -31t50 -11.5q38 0 59 22t23 53q-27 8 -41.5 26.5t-23 43t-15 51t-17.5 50.5t-30.5 42t-53.5 25q24 9 45 21.5t37 30.5t25 41.5t9 53.5q0 49 -17.5 81.5
t-45 52t-61.5 27.5t-66 8h-246zM251 633q27 0 45 -8t29 -21.5t15.5 -31t4.5 -36.5q0 -30 -10.5 -50t-28 -32.5t-40.5 -18t-48 -5.5v203h33zM302 466q11 10 19.5 24.5t8.5 35.5q0 13 -6.5 23t-21.5 11v-94zM389 623q4 -9 5.5 -18t1.5 -17q0 -19 -6 -34t-16 -24q5 -5 8 -12.5
t3 -16.5q0 -14 -4.5 -29t-21.5 -34q20 10 32.5 23t21.5 26t15.5 24.5t15.5 18.5q-7 6 -12 18l-11 25.5t-13 27t-19 22.5zM346 397q-8 2 -14 2q-15 0 -28 -10q-5 5 -11.5 6.5t-11.5 1.5q-12 0 -24 -10q-5 5 -11.5 6.5t-11.5 1.5t-12 -2t-12 -7q-9 15 -25 15q-22 0 -22 -29
q0 -12 6.5 -24.5t21.5 -17.5q-14 -32 -22.5 -74t-13.5 -79q-5 37 -14.5 79t-21.5 74q15 5 21.5 17.5t6.5 24.5q0 29 -22 29q-9 0 -18 -4v191q0 28 -14.5 43t-37.5 17v42h216q36 0 70 -8t61 -26t43 -47.5t16 -72.5q0 -28 -9.5 -49.5t-25 -38.5t-36.5 -29.5t-44 -21.5z
M203 415q72 1 114.5 28t42.5 93q0 22 -5 42t-17.5 35.5t-33.5 25t-54 9.5h-47v-233zM430 294q-3 -17 -4 -31.5l-2 -29t-3.5 -30t-8.5 -33.5q-5 42 -19 72t-40 45q0 8 -1.5 19.5t-5 22.5t-10.5 21.5t-18 16.5q22 -3 38.5 -12.5t29.5 -20.5t23.5 -22t20.5 -18z" />
    <glyph glyph-name="S" unicode="S" horiz-adv-x="508" 
d="M260 678q-8 0 -18.5 5.5t-24 11.5t-28.5 11.5t-31 5.5q-59 0 -88.5 -33.5t-29.5 -93.5q0 -56 18 -98.5t45.5 -76t59.5 -60.5l59.5 -51.5t45.5 -49t18 -52.5q0 -27 -17 -38t-37 -11q-38 0 -62.5 18t-39.5 44t-22.5 56.5t-10.5 54.5h-55v-237h60q2 14 9 23t23 9q17 0 33 -6
t33 -13.5t37.5 -13.5t46.5 -6q60 0 88 33t28 87q0 48 -18.5 88t-46 73.5t-59.5 63l-59.5 56.5t-46 54t-18.5 57q0 17 9 28t29 11q25 0 43.5 -15.5t30.5 -38.5t18 -50t6 -50h75v231h-74q-2 -10 -8 -18.5t-21 -8.5zM448 650v-261h-105l-69 72q0 30 -4.5 51t-11.5 40
q-14 0 -20.5 -7.5t-6.5 -18.5q0 -23 18.5 -49.5t46.5 -56.5l61 -63.5t61 -70.5t46.5 -77.5t18.5 -83.5q0 -58 -32 -96.5t-98 -38.5q-27 0 -48.5 6.5t-38.5 14t-29.5 14t-22.5 6.5q-20 0 -23 -31h-94l-70 67v269h83l70 -70q1 -11 6.5 -25.5t13 -29t16 -27.5t16.5 -21
q14 0 26.5 7.5t12.5 26.5q0 22 -18 44t-45.5 47l-59.5 53.5t-59.5 64.5t-45.5 80t-18 99q0 67 33.5 104.5t99.5 37.5q17 0 32 -5t28 -11t22.5 -11t16.5 -5q10 0 13.5 7.5t5.5 17.5h101zM150 385q-45 34 -70 86t-25 114q0 54 27.5 83t75.5 29q16 0 31.5 -5.5t29 -12l25 -12
t20.5 -5.5q17 0 25 8t12 20h47v-201h-45q-2 26 -9.5 53t-21.5 49.5t-34.5 37t-47.5 14.5q-28 0 -40.5 -15.5t-12.5 -38.5q0 -29 16 -56.5t38.5 -52t47.5 -46.5t43 -40q-4 1 -15.5 1.5t-15.5 0.5q-8 0 -14.5 -3.5t-6.5 -13.5q0 -7 6.5 -12.5t17 -10t23.5 -7t25 -2.5
q12 -22 23.5 -54t11.5 -67q0 -10 -1 -19.5t-4 -19.5q-5 49 -34.5 87.5t-80.5 51.5q3 9 3 18q0 16 -11.5 33t-33.5 17q-5 0 -11.5 -3zM104 602q-8 -12 -11 -24.5t-4.5 -25.5t-2 -26.5t-2.5 -26.5q10 -8 20 -20.5t22.5 -25t29.5 -24t41 -17.5q-21 19 -34 36t-13 32q0 5 1 10
t3 9q-23 14 -36.5 44t-13.5 59z" />
    <glyph glyph-name="T" unicode="T" horiz-adv-x="559" 
d="M35 705v-246h67v9q0 30 2.5 59.5t10 53t20.5 37.5t34 14h8v-422q0 -32 -15.5 -44t-36.5 -12v-70h230v70q-23 0 -37.5 11.5t-14.5 44.5v422h8q21 0 34 -14t20.5 -37.5t10 -53t2.5 -59.5v-9h67v246h-410zM240 602q-6 -47 -14 -80t-22 -61q13 -9 22 -24t14 -33q11 39 36 57
q-14 29 -22 62t-14 79zM91 375l-71 70v275h439l70 -71v-274h-99l-43 40v-247l52 -47v-121h-258l-71 70v97q26 0 39 10t13 49v149h-71zM430 474h-37q0 22 -2 52t-10.5 56.5t-25 45t-45.5 18.5h-22v-250q-10 5 -18 5q-22 0 -22 -29q0 -12 6.5 -24.5t21.5 -17.5
q-14 -32 -22.5 -74t-13.5 -79q-5 37 -14.5 79t-21.5 74q15 5 21.5 17.5t6.5 24.5q0 29 -22 29q-9 0 -18 -4v249h-22q-30 0 -46.5 -18.5t-24.5 -45t-10 -56.5t-2 -52h-37v216h380v-216z" />
    <glyph glyph-name="U" unicode="U" horiz-adv-x="586" 
d="M150 602q-6 -47 -14 -80t-22 -61q13 -9 22 -24t14 -33q11 39 36 57q-14 29 -22 62t-14 79zM198 397q-9 4 -18 4q-22 0 -22 -29q0 -12 6.5 -24.5t21.5 -17.5q-11 -23 -13.5 -49t-2.5 -57q0 -22 3 -47q-26 35 -39 73.5t-20 79.5q15 5 21.5 17.5t6.5 24.5q0 29 -22 29
q-9 0 -18 -4v191q0 28 -14.5 43t-37.5 17v42h200v-42q-25 -1 -38.5 -17t-13.5 -43v-191zM397 601q-3 -46 -9 -79t-15 -61q8 -9 14 -24t10 -33q6 39 24 57q-9 29 -14.5 62t-9.5 78zM426 397q-7 4 -12 4t-8.5 -8t-3.5 -21q0 -12 5 -24.5t16 -17.5q-2 -17 -5 -38.5t-7.5 -43
t-12 -40.5t-18.5 -31l4 26.5t2 26.5q0 28 -4.5 54t-10.5 46q10 5 15 17.5t5 24.5q0 29 -10 29q-8 0 -13 -4v190q0 35 -13.5 47t-29.5 14v42h143v-42q-15 -2 -28.5 -15t-13.5 -46v-190zM441 578q0 33 13.5 44.5t28.5 11.5v71h-173v-71q7 0 15 -2.5t14 -8.5t10 -16.5t4 -28.5
v-331q0 -27 -5.5 -44.5t-15 -28.5t-22.5 -15.5t-27 -4.5q-30 0 -50 20t-20 73v332q0 33 14.5 44.5t37.5 11.5v70h-230v-70q21 0 36.5 -12t15.5 -44v-329q0 -36 9.5 -68.5t30.5 -57t54.5 -39t82.5 -14.5t83 14.5t55 39t30 57.5t9 69v327zM316 -10q-52 0 -96.5 16.5
t-77.5 49.5t-51.5 81.5t-18.5 112.5v319l-52 52v99h476l70 -70v-101q-15 0 -28 -8.5t-13 -32.5v-309q0 -35 -9.5 -72t-33 -67.5t-64 -50t-102.5 -19.5zM338 556q-15 -1 -28 -12.5t-13 -35.5v-336q18 3 29.5 21.5t11.5 40.5v322z" />
    <glyph glyph-name="V" unicode="V" horiz-adv-x="586" 
d="M216 579q-3 10 -3 21q0 19 12.5 27t29.5 8v70h-230v-70q23 0 40 -11.5t25 -44.5l111 -495h123l112 495q8 33 25 44.5t40 11.5v70h-199v-70q16 0 30.5 -7.5t14.5 -26.5q0 -5 -0.5 -11t-2.5 -11l-64 -282zM81 550l-71 70v100h260l17 -16v16h220l69 -70v-100
q-24 0 -44 -11.5t-26 -37.5l-115 -501h-132l-70 69zM322 553q-24 -2 -24 -19q0 -5 0.5 -8.5t1.5 -8.5l7 -30zM146 602q2 -20 3.5 -37.5t1.5 -33.5q0 -20 -2 -37t-6 -33q15 -9 27.5 -24t21.5 -33q2 39 23 57q-20 29 -36 62t-33 79zM105 582q-8 35 -24.5 50t-40.5 17v41h200
v-41q-19 -2 -30.5 -13.5t-11.5 -36.5q0 -5 1 -11.5t3 -14.5l41 -177q-12 5 -20 5t-13 -6t-5 -14q0 -20 11.5 -32t28.5 -19q-6 -29 -6 -65q0 -22 2 -45t4 -43q-14 50 -30 85t-42 68q11 5 15.5 16t4.5 21q0 12 -7.5 23t-22.5 11q-9 0 -17 -4zM358 576q3 12 3 25q0 25 -13 35.5
t-31 12.5v41h169v-41q-24 -1 -41 -18t-24 -49l-41 -184q-14 0 -22 -6t-8 -17q0 -9 2.5 -19.5t13.5 -25.5q-22 -18 -38.5 -53.5t-38.5 -99.5q8 30 12 55t4 49q0 12 -1 24t-4 25q17 8 27 21.5t10 24.5q0 22 -13 22q-4 0 -7 -1zM394 602l-23 -72.5t-29 -68.5q3 -6 6 -15.5
t3 -18.5v-12t-2 -15q9 22 16 34.5t19 25.5q-3 18 -3 35q0 9 1.5 22.5t3.5 28.5l4 30t4 26z" />
    <glyph glyph-name="W" unicode="W" horiz-adv-x="778" 
d="M216 579q-3 10 -3 21q0 19 13 27t33 8v70h-234v-70q23 0 40 -11.5t25 -44.5l111 -495h93l72 302l65 -302h90l112 495q8 33 22.5 44.5t37.5 11.5v70h-192v-70q16 0 29.5 -8t13.5 -26q0 -5 -0.5 -11t-2.5 -11l-47 -205l-68 331h-97l-67 -325zM384 602q1 -9 2 -28t1 -28
q0 -10 -2.5 -35t-11.5 -50q15 -9 27.5 -24t21.5 -33q2 39 23 57q-20 31 -34 64.5t-27 76.5zM366 398q-5 2 -10 3t-10 1q-14 0 -21.5 -8t-7.5 -19q0 -9 2.5 -19.5t12.5 -25.5q-11 -13 -19.5 -27.5t-16 -32.5t-15 -41l-16.5 -52q5 32 8 56t3 48q0 12 -2 24t-5 25q17 8 26 21.5
t9 24.5q0 22 -16 22q-4 0 -7 -1l62 293h70l60 -294q-12 5 -20 5t-13 -6t-5 -14q0 -20 11.5 -32t28.5 -19q-6 -29 -6 -65q0 -22 2 -45t4 -43q-14 50 -30 85t-42 68q11 5 15.5 16t4.5 21q0 12 -7.5 24t-22.5 12q-17 0 -27 -5zM555 576q3 12 3 25q0 25 -13.5 36t-28.5 12v41
h162v-41q-24 -1 -38.5 -18t-21.5 -49l-41 -184q-14 0 -22 -6t-8 -17q0 -9 2.5 -19.5t13.5 -25.5q-21 -23 -35.5 -58.5t-33.5 -94.5q5 20 7.5 42t2.5 45q0 17 -1.5 33.5t-5.5 32.5q17 8 27 21.5t10 24.5q0 22 -13 22q-4 0 -7 -1zM590 602l-22.5 -72.5t-28.5 -68.5
q3 -6 6 -16.5t3 -17.5v-12t-2 -15q9 22 16 34.5t19 25.5q-3 18 -3 35q0 8 1 21.5t3 28.5l4 30.5t4 26.5zM307 681l10 39h121l48 -52v52h217l65 -70v-100q-24 0 -41.5 -11.5t-23.5 -37.5l-115 -501h-99l-70 69l-21 94l-37 -163h-102l-70 69l-108 481l-71 70v100h264zM146 602
q2 -20 3.5 -37.5t1.5 -33.5q0 -20 -2 -37t-6 -33q15 -9 27.5 -24t21.5 -33q2 39 23 57q-20 29 -36 62t-33 79zM105 582q-8 35 -24.5 50t-40.5 17v41h204v-41q-21 -1 -33.5 -13t-12.5 -37q0 -5 1 -11.5t3 -14.5l41 -177q-12 5 -20 5t-13 -6t-5 -14q0 -20 11.5 -32t28.5 -19
q-6 -29 -6 -65q0 -22 2 -45t4 -43q-14 50 -30 85t-42 68q11 5 15.5 16t4.5 21q0 12 -7.5 23t-22.5 11q-9 0 -17 -4zM362 602l-24 -73.5t-27 -67.5q9 -21 9 -40v-10.5t-1 -10.5q9 23 17 35.5t20 24.5q-3 18 -3 35q0 20 2.5 52t6.5 55z" />
    <glyph glyph-name="X" unicode="X" horiz-adv-x="590" 
d="M521 168l49 -47v-121h-480l-70 69v100q27 0 42 12t28 35l99 176l-76 166l-86 63v99h461l57 -69v-100h-9q-25 0 -38.5 -12t-27.5 -37l-57 -100zM246 306l45 -96q6 -14 6 -24q0 -17 -12.5 -24.5t-28.5 -7.5v-70h230v70q-22 1 -38.5 13.5t-30.5 42.5l-101 217l88 152
q17 30 34 43t37 13v70h-184v-70q34 -2 34 -29q0 -13 -7 -27l-40 -69l-33 69q-7 14 -7 27q0 27 34 29v70h-230v-70q21 0 41.5 -12t35.5 -44l88 -190l-103 -179q-17 -28 -31.5 -42t-37.5 -14v-70h190v70q-20 1 -31 10.5t-11 23.5q0 11 7 22zM172 602q15 -38 23.5 -65.5
t8.5 -50.5q0 -13 -3 -25q17 -9 31.5 -21.5t28.5 -35.5q-2 7 -2 14.5v12.5q0 13 6 30q-27 29 -47.5 62t-45.5 79zM264 385q-9 -8 -16.5 -19t-7.5 -21q0 -5 1.5 -9.5t4.5 -6.5q-27 -24 -54.5 -63t-58.5 -89q17 37 32 75t22 78q19 7 36.5 24.5t17.5 34.5q0 10 -9 10
q-6 0 -13 -3l-89 192q-13 27 -31.5 42.5t-41.5 17.5v42h200v-42q-17 -2 -26.5 -13t-9.5 -25q0 -5 2 -12t4 -12l49 -103l54 89q10 17 10 34t-8.5 28.5t-25.5 13.5v42h154v-42q-21 -4 -36.5 -18.5t-32.5 -43.5l-91 -156l15 -33q-11 4 -20 4q-13 0 -13 -12q0 -20 16.5 -36
t35.5 -23q3 -40 13.5 -78t22.5 -75q-12 23 -26 46t-28 43t-28 36.5t-26 27.5q14 6 14 22t-12 33zM369 601l-47.5 -75t-49.5 -65q4 -8 4 -18q0 -11 -3 -20.5l-6 -18.5q13 22 23.5 35t21.5 21q0 10 6 27.5t15 37.5l18.5 40z" />
    <glyph glyph-name="Y" unicode="Y" horiz-adv-x="605" 
d="M150 602q18 -47 26.5 -80t9.5 -61q17 -9 34 -23.5t31 -33.5q-3 13 -3 25q0 21 10 32q-29 29 -54 62t-54 79zM335 340l128 249q14 26 28 36t39 10v70h-208v-70q20 0 33 -9t13 -23q0 -8 -7 -24l-61 -125l-62 125q-6 13 -6 24q0 17 15.5 24.5t36.5 7.5v70h-259v-70
q20 -2 34 -15.5t28 -39.5l122 -240v-130q0 -32 -15.5 -44t-36.5 -12v-70h230v70q-23 0 -37.5 11.5t-14.5 44.5v130zM347 395q-5 2 -12.5 3.5t-13.5 1.5q-17 0 -28 -9.5t-11 -26.5q0 -11 5.5 -19.5t20.5 -14.5q-14 -32 -22.5 -74t-13.5 -79q-5 37 -14 79t-26 74
q14 6 22.5 14.5t8.5 19.5q0 17 -10.5 26.5t-33.5 9.5q-5 0 -12 -1.5t-11 -3.5l-98 194q-3 6 -8 15t-12.5 18t-17 15.5t-20.5 7.5v45h229v-42q-21 -1 -37.5 -10.5t-16.5 -32.5q0 -16 8 -32l77 -154l77 154q4 8 6.5 16.5t2.5 15.5q0 20 -14 31.5t-35 11.5v42h178v-42
q-14 0 -24 -5.5t-18 -13.5t-13 -16.5t-8 -14.5zM419 168l52 -47v-121h-258l-71 70v97q26 0 39 10.5t13 48.5v110l-118 233l-66 52v99h530l55 -71v-79q-28 0 -42 -8.5t-25 -29.5l-109 -212v-152zM420 601l-41.5 -71t-47.5 -69q2 -5 2 -10v-10q0 -6 -1 -13t-4 -16
q12 17 21 26.5t24 20.5q2 35 17 71z" />
    <glyph glyph-name="Z" unicode="Z" horiz-adv-x="525" 
d="M439 720l56 -67l-126 -317h66l70 -69v-267h-414l-71 70l122 305h-27l-77 73v272h401zM53 463h83q0 18 3 46.5t11 55.5t23 46.5t41 19.5h48l-221 -547h380v237h-73q-1 -31 -5.5 -61.5t-17 -54.5t-36 -38.5t-62.5 -14.5h-23l221 553h-372v-242zM403 690l-119 -296
q-5 2 -11.5 3t-10.5 1q-15 0 -24 -8t-9 -21q0 -21 17 -38q-26 -19 -47.5 -52t-46.5 -79q9 29 13 51.5t4 46.5q0 8 -1 16.5t-3 18.5q20 5 33.5 15t13.5 21q0 16 -8 21.5t-22 7.5l102 249h-70q-28 0 -46 -17t-28 -42.5t-14 -55t-5 -54.5h-53v212h335zM310 603
q-22 -48 -41.5 -82.5t-45.5 -58.5q6 -9 8 -23.5t2 -33.5q11 20 27.5 34.5t34.5 22.5q-3 16 -3 33q0 23 5.5 52.5t12.5 55.5z" />
    <glyph glyph-name="bracketleft" unicode="[" horiz-adv-x="639" 
d="M150 602q-6 -47 -14 -80t-22 -61q13 -9 22 -24t14 -33q11 39 36 57q-14 29 -22 62t-14 79zM198 397q-9 4 -18 4q-22 0 -22 -29q0 -12 6.5 -24.5t21.5 -17.5q-14 -32 -22.5 -71.5t-13.5 -81.5q-5 42 -14.5 81.5t-21.5 71.5q15 5 21.5 17.5t6.5 24.5q0 29 -22 29
q-9 0 -18 -4v191q0 28 -14.5 43t-37.5 17v42h200v-42q-25 -1 -38.5 -17t-13.5 -43v-191zM285 397q-15 0 -23 -2.5t-13 -7.5q-5 5 -12.5 7t-18.5 3l128 173q9 13 9 29q0 21 -15 34t-33 15v42h190v-42q-19 -4 -33 -16.5t-31 -35.5zM297 555l20 29l-20 20v-49zM91 0l-71 70v97
q26 0 39 10.5t13 48.5v343l-52 52v99h505l64 -71v-98h-15q-26 0 -41 -15t-31 -37l-87 -118q29 -9 52 -26.5t39 -40t24.5 -48.5t8.5 -51h31l59 -68v-26q0 -60 -30 -95.5t-96 -35.5q-35 0 -66.5 9.5t-55.5 33.5t-38 64.5t-14 102.5q0 31 -4.5 47t-16.5 16q-5 0 -11 -4v-96
l52 -52v-111h-258zM451 596q14 19 28 29t33 10v70h-220v-70q16 0 30.5 -9t14.5 -27q0 -6 -2 -13t-7 -14l-115 -156v163q0 33 14.5 44.5t37.5 11.5v70h-230v-70q21 0 36.5 -12t15.5 -44v-369q0 -32 -15.5 -44t-36.5 -12v-70h230v70q-23 0 -37.5 11t-14.5 38v140q16 4 32 4
q25 0 44 -5.5t31 -21t18 -44.5t6 -76q0 -55 24.5 -90t89.5 -35q54 0 78.5 28.5t24.5 96.5h-52q0 -34 -5.5 -49t-13.5 -15q-11 0 -15 13.5t-4 50.5q0 192 -174 193zM391 598q-26 -38 -57 -75t-54 -62q-1 -11 -5.5 -24.5l-10.5 -31.5q13 19 28.5 33t26.5 22q8 27 28.5 61
t43.5 77zM430 294q-3 -15 -4 -29l-2 -29t-3.5 -31.5t-8.5 -34.5q-5 47 -17.5 74.5t-41.5 42.5q0 8 -1.5 19.5t-5 22.5t-10.5 21.5t-18 16.5q22 -3 39 -12.5t30 -21t23.5 -22.5t19.5 -17z" />
    <glyph glyph-name="backslash" unicode="\" horiz-adv-x="477" 
d="M100 705h-58l257 -621h56zM20 720h79l111 -71l267 -649h-97l-92 70zM65 690h27l122 -296q-6 0 -6 -5t6 -18t14.5 -27.5l16.5 -27.5t12 -18q0 -31 8.5 -54.5l16.5 -46.5q-21 40 -34 62t-27 39l-3 24t-5.5 31.5t-9.5 27.5t-15 13zM132 556q7 -17 15.5 -41.5t12.5 -44.5
q8 -8 16.5 -26.5l16.5 -34.5q-5 16 -9.5 33t-5.5 28q-12 17 -23.5 40z" />
    <glyph glyph-name="bracketright" unicode="]" horiz-adv-x="644" 
d="M575 215l59 -68v-26q0 -60 -30 -95.5t-96 -35.5q-50 0 -91 19t-63 72v-81h-258l-71 70v97q26 0 39 10.5t13 48.5v343l-52 52v99h267q60 0 108.5 -18t83.5 -48.5t54 -72t19 -88.5q0 -48 -26.5 -87.5t-65.5 -57.5q14 -7 28 -19t25.5 -29t18.5 -38.5t7 -46.5h31zM476 200
q0 88 -25.5 131.5t-90.5 57.5q23 10 44 23t37 30.5t25.5 40.5t9.5 53q0 49 -17.5 81.5t-45 52t-61.5 27.5t-66 8h-246v-70q21 0 36.5 -12t15.5 -44v-369q0 -32 -15.5 -44t-36.5 -12v-70h230v70q-23 0 -37.5 11.5t-14.5 44.5v146q16 4 32 4q25 0 44 -7.5t31 -25.5t18 -49
t6 -78q0 -27 5.5 -50t19 -39.5t35.5 -26t54 -9.5q54 0 78.5 28.5t24.5 96.5h-52q0 -34 -5.5 -49t-13.5 -15q-11 0 -15 13.5t-4 50.5zM346 397q-8 2 -14 2q-15 0 -28 -10q-5 5 -11.5 6.5t-11.5 1.5q-12 0 -24 -10q-5 5 -11.5 6.5t-11.5 1.5t-12 -2t-12 -7q-9 15 -25 15
q-22 0 -22 -29q0 -12 6.5 -24.5t21.5 -17.5q-14 -32 -22.5 -74t-13.5 -79q-5 37 -14.5 79t-21.5 74q15 5 21.5 17.5t6.5 24.5q0 29 -22 29q-9 0 -18 -4v191q0 28 -14.5 43t-37.5 17v42h216q36 0 70 -8t61 -26t43 -47.5t16 -72.5q0 -28 -10 -49.5t-26 -38t-36.5 -29
t-42.5 -22.5zM203 415q72 1 114.5 28t42.5 93q0 22 -5 42t-17.5 35.5t-33.5 25t-54 9.5h-47v-233zM251 633q27 0 45 -8t29 -21.5t15.5 -31t4.5 -36.5q0 -30 -10.5 -50t-28 -32.5t-40.5 -18t-48 -5.5v203h33zM439 294q-3 -15 -4 -29l-2 -29t-3.5 -31.5t-8.5 -34.5
q-5 47 -17.5 74.5t-41.5 42.5q0 8 -1.5 19.5t-5 22.5t-10.5 21.5t-18 16.5q22 -3 39 -12.5t30 -21t23.5 -22.5t19.5 -17zM155 602q-6 -47 -14 -80t-22 -61q13 -9 22 -24t14 -33q11 39 36 57q-14 29 -22 62t-14 79zM389 623q4 -9 5.5 -18t1.5 -17q0 -19 -6 -34t-16 -24
q5 -5 8 -12.5t3 -16.5q0 -14 -4.5 -29t-21.5 -34q20 10 32.5 24t21 28l15.5 25t16 15q-7 6 -12 18l-11 25.5t-13 27t-19 22.5zM302 163l39 -39q-7 31 -7 76q0 31 -4.5 53.5t-16.5 22.5q-5 0 -11 -4v-109zM302 466q11 10 19.5 24.5t8.5 35.5q0 13 -6.5 23t-21.5 11v-94z" />
    <glyph glyph-name="asciicircum" unicode="^" horiz-adv-x="396" 
d="M304 583l-134 141l-134 -141l48 -43l86 92l87 -92zM258 560l-88 93l-86 -93l-28 24l114 120l114 -120zM15 582l155 164l81 -56l145 -150l-67 -60l-73 40l-36 35l-65 -71l-72 37z" />
    <glyph glyph-name="underscore" unicode="_" horiz-adv-x="589" 
d="M-20 -202h629v-56h-629v56z" />
    <glyph glyph-name="grave" unicode="`" horiz-adv-x="400" 
d="M257 765l-91 70l-68 -34l118 -59zM218 759l-85 43l29 14l68 -50zM213 725l-149 74l104 54l68 -20l113 -89l-70 -39z" />
    <glyph glyph-name="a" unicode="a" horiz-adv-x="497" 
d="M352 284q-11 3 -15 3q-17 0 -17 -20q0 -9 5.5 -18t16.5 -13q-9 -22 -16.5 -47.5t-12.5 -53.5q-5 27 -11 51.5t-17 49.5q11 4 16.5 13t5.5 18q0 20 -16 20q-9 0 -16 -3v40q0 45 -6.5 72t-17.5 41.5t-24.5 19.5t-27.5 5q-18 0 -29 -6t-17 -14t-8 -18t-2 -17q0 -10 2 -18.5
t2 -17.5q0 -21 -12 -34t-33 -13q-20 0 -32.5 14.5t-12.5 37.5q0 22 11 41t30 32.5t45.5 21.5t56.5 8q42 0 71 -11.5t47 -31.5t26 -49t8 -63v-40zM255 369q-13 -23 -34.5 -38t-46 -27.5t-49.5 -24t-45.5 -26.5t-33 -35.5t-12.5 -50.5q0 -42 24.5 -69t76.5 -27q42 0 73 16
t53 43v-46h157v60h-12q-40 0 -40 53v136q0 35 -9 64.5t-29 50.5t-51.5 33t-76.5 12q-33 0 -61.5 -8.5t-49.5 -24t-33 -37t-12 -47.5q0 -29 15 -49t43 -20q27 0 43.5 17.5t16.5 46.5q0 8 -2.5 18t-2.5 17q0 14 9.5 27t32.5 13q20 0 36.5 -17.5t19.5 -59.5zM261 278
q0 -69 -18 -111t-54 -42q-20 0 -32 13.5t-12 36.5q0 31 15.5 52t35.5 37l39 31t26 34v-51zM277 435q7 -14 11.5 -31.5t4.5 -31.5q0 -19 -8 -35q19 -12 28 -45q5 17 12 27.5t16 17.5q-2 26 -19.5 53.5t-44.5 44.5zM483 122v-122h-172l-21 23q-6 -8 -17 -14.5t-25.5 -11.5
t-31 -7.5t-31.5 -2.5q-41 0 -72.5 14t-52.5 38.5t-31.5 57.5t-10.5 70q0 23 6.5 41.5t17 32t22.5 23t23 14.5q-26 6 -42 33.5t-16 64.5q0 30 13 54t36 41.5t54 27t68 9.5q52 0 98 -15t79.5 -44.5t53 -73t19.5 -101.5v-117zM59 175q9 11 14.5 22t12.5 20.5t17.5 18t29.5 14.5
q-22 -26 -22 -50q0 -15 9 -24q-5 -6 -7.5 -14t-2.5 -16q0 -17 24 -42q-20 4 -31.5 11.5t-19 17.5t-12.5 21t-12 21z" />
    <glyph glyph-name="b" unicode="b" horiz-adv-x="540" 
d="M143 449q-4 -35 -11 -60t-18 -52q10 -7 17.5 -19t11.5 -26q5 14 12 26t18 19q-12 26 -18.5 52t-11.5 60zM258 446q26 0 44 -41.5t18 -119.5q0 -69 -15.5 -114.5t-45.5 -45.5q-18 0 -30 15t-19.5 38t-10.5 51.5t-3 55.5q0 43 5.5 74t14.5 50t20 28t22 9zM196 706h-159v-60
h11q26 0 34.5 -16.5t8.5 -38.5v-507h36l36 55q19 -33 48.5 -48.5t62.5 -15.5q72 0 118.5 53t46.5 157q0 51 -14.5 89.5t-37.5 65t-52.5 40t-60.5 13.5q-25 0 -46 -10.5t-32 -31.5v255zM284 161q8 15 15 45.5t7 78.5q0 8 -0.5 19t-1.5 22t-2.5 21.5t-4.5 17.5
q-13 -15 -18 -49.5t-5 -68.5q0 -24 2.5 -47t7.5 -39zM77 66v504l-54 61v89h187l70 -69v-145q6 1 10.5 1h9.5q46 0 86.5 -20t71 -57t48 -90t17.5 -120q0 -112 -47.5 -171.5t-132.5 -59.5q-36 0 -69 11t-60 42l-30 -42h-39zM402 337q-2 17 -10 32.5t-19 28t-23.5 20.5
t-23.5 11q24 -34 24 -92q21 -12 27 -45q3 16 10 26.5t15 18.5zM182 284q-8 3 -15 3q-17 0 -17 -20q0 -9 5.5 -18t17.5 -13q-11 -25 -18 -49.5t-12 -51.5q-5 27 -12.5 53.5t-16.5 47.5q12 4 17.5 13t5.5 18q0 20 -17 20q-8 0 -15 -3v307q0 27 -10 48t-44 21v32h131v-298
q7 28 18.5 45.5t24.5 26.5t25.5 12t22.5 3q31 0 59 -14t48.5 -40t32.5 -62.5t12 -81.5q-5 3 -10.5 4.5t-10.5 1.5q-8 0 -14 -6t-6 -16q0 -9 4.5 -18t15.5 -13q-6 -36 -28 -65t-50 -40q17 23 20 53t3 52q12 4 17 13t5 18q0 22 -19 22q-10 0 -18 -7q0 85 -20.5 132t-56.5 47
q-10 0 -23 -7.5t-24.5 -27.5t-19.5 -54t-8 -88z" />
    <glyph glyph-name="c" unicode="c" horiz-adv-x="501" 
d="M459 330q0 -32 -15.5 -54.5t-42.5 -30.5l67 -62q0 -44 -14 -80t-39.5 -61.5t-61.5 -39.5t-79 -14q-53 0 -100.5 18.5t-83 56t-56 93t-20.5 129.5q0 51 15 92t42 70t64.5 45t82.5 16q42 0 85 -12.5t77.5 -35.5t56.5 -56t22 -74zM374 380q0 26 -13.5 47t-35.5 35.5
t-50 22.5t-57 8q-42 0 -77 -15t-60 -42t-39 -65.5t-14 -85.5q0 -48 13.5 -87t38.5 -66t59.5 -42t75.5 -15q74 0 116 41.5t46 119.5h-50q-6 -51 -28 -81t-59 -30q-24 0 -41 13t-28 35t-16 51t-5 61q0 87 21 124t51 37q20 0 29 -9.5t9 -23.5q0 -6 -2.5 -17t-2.5 -17
q0 -29 17 -46.5t43 -17.5q28 0 43.5 18t15.5 47zM360 380q0 -22 -12.5 -35.5t-32.5 -13.5q-21 0 -33 13t-12 35q0 8 2.5 17t2.5 18q0 7 -2.5 15.5t-9 15.5t-16.5 12t-25 5q-37 0 -61 -42.5t-24 -137.5q-5 4 -11 5.5t-10 1.5q-18 0 -18 -22q0 -9 4.5 -18t16.5 -13
q0 -22 3 -52t20 -53q-28 11 -49.5 40t-28.5 65q12 4 15.5 13t3.5 18q0 22 -19 22q-5 0 -11.5 -1.5t-10.5 -4.5q0 44 12.5 80.5t36 62t56 39.5t71.5 14q26 0 51.5 -7t45.5 -20t32.5 -31.5t12.5 -40.5zM272 150q18 14 27 41t9 60h16q-27 12 -44.5 34.5t-28.5 50.5
q-6 -13 -7 -36t-1 -43q0 -11 2 -26t5.5 -30t9 -28.5t12.5 -22.5zM66 337q18 -15 25 -45q6 33 27 45q0 29 5 51.5t19 40.5q-11 -3 -23 -11t-23 -20.5t-19 -28t-11 -32.5z" />
    <glyph glyph-name="d" unicode="d" horiz-adv-x="511" 
d="M323 449q-4 -34 -11 -60t-18 -52q9 -7 16.5 -19t12.5 -26q5 14 12.5 26t17.5 19q-11 25 -18 51t-12 61zM210 446q26 0 43.5 -41.5t17.5 -119.5q0 -35 -4 -64t-12 -50.5t-19 -33.5t-26 -12q-17 0 -29 15t-19.5 38t-11 51.5t-3.5 55.5q0 87 19.5 124t43.5 37zM237 168
q8 15 14 43.5t6 73.5q0 8 -0.5 19t-1.5 22t-3 21.5t-4 17.5q-13 -15 -17.5 -46t-4.5 -65q0 -24 3.5 -47t7.5 -39zM65 337q18 -15 25 -45q6 33 27 45q0 29 5 51.5t19 40.5q-11 -3 -23 -11t-23 -20.5t-19 -28t-11 -32.5zM271 84h157v60h-12q-18 0 -29 13.5t-11 39.5v509h-159
v-60h11q26 0 34.5 -16.5t8.5 -38.5v-140q-11 21 -33.5 31.5t-47.5 10.5q-33 0 -62.5 -13.5t-51.5 -40t-35 -65t-13 -89.5q0 -52 12.5 -91t34 -65.5t50.5 -40t62 -13.5q32 0 54 16t30 39v-46zM285 591q0 27 -10.5 48t-43.5 21v32h131v-408q-9 3 -16 3q-16 0 -16 -20
q0 -9 6 -18t17 -13q-10 -21 -17.5 -49t-12.5 -55q-5 27 -12 53t-17 51q11 4 17 13t6 18q0 20 -15 20q-10 0 -17 -3q0 54 -8 88t-19.5 54t-24.5 27.5t-23 7.5q-36 0 -56 -47t-20 -132q-5 4 -10 5.5t-9 1.5q-18 0 -18 -22q0 -9 4.5 -18t16.5 -13q0 -22 3 -52t20 -53
q-28 11 -49.5 40t-27.5 65q11 4 14.5 13t3.5 18q0 22 -18 22q-5 0 -11.5 -1.5t-10.5 -4.5q0 45 11 81.5t30.5 62.5t47 40t60.5 14q10 0 23 -3t26.5 -12t25.5 -26.5t19 -45.5v197zM257 570l-54 62v88h187l70 -69v-494l37 -38v-119h-175l-21 21q-25 -34 -81 -34
q-43 0 -80.5 22t-65.5 61t-44 94t-16 121q0 54 13.5 96t37.5 70t56 42.5t69 14.5q17 0 35.5 -4.5t31.5 -13.5v80z" />
    <glyph glyph-name="e" unicode="e" horiz-adv-x="490" 
d="M454 201l19 -23q0 -42 -15 -77t-41.5 -60t-63.5 -39t-80 -14q-53 0 -100.5 20t-82.5 58t-55.5 93t-20.5 126q0 51 15 92t41.5 70t63.5 45t81 16q59 0 107 -21.5t81.5 -61.5t52 -97t18.5 -127h-20zM391 265q0 115 -47.5 171.5t-128.5 56.5q-41 0 -75.5 -15t-59.5 -42
t-38.5 -65.5t-13.5 -85.5q0 -48 13.5 -87t38 -66t59 -42t75.5 -15q74 0 120 39.5t55 112.5h-50q-10 -47 -34.5 -74.5t-58.5 -27.5q-27 0 -44.5 12t-28 31.5t-15.5 45t-7 51.5h240zM377 282q-4 4 -10 5.5t-11 1.5q-12 0 -19 -7q-5 4 -10.5 5.5t-9.5 1.5q-12 0 -20 -7
q-5 4 -11 5.5t-11 1.5q-9 0 -19 -7q-8 7 -19 7q-5 0 -10.5 -1.5t-10.5 -5.5q-4 4 -10 5.5t-11 1.5q-11 0 -19 -7q-4 4 -9.5 5.5t-10.5 1.5t-10 -1.5t-10 -5.5q-4 4 -10 5.5t-10 1.5q-18 0 -18 -22q0 -9 4.5 -18t16.5 -13q0 -22 3 -52t20 -53q-28 11 -49.5 40t-28.5 65
q12 4 15.5 13t3.5 18q0 22 -19 22q-5 0 -11.5 -1.5t-10.5 -4.5q0 44 12.5 80.5t35.5 62t55 39.5t70 14t68 -14.5t50.5 -41t31.5 -62.5t12 -79zM215 462q-35 0 -56 -35t-21 -113h153q-2 72 -21.5 110t-54.5 38zM152 329q2 60 19 88.5t44 28.5q25 0 42.5 -28.5t18.5 -88.5
h-124zM66 337q10 -8 15.5 -18.5t9.5 -26.5q6 33 27 45q0 29 5 51.5t19 40.5q-11 -3 -23 -11t-23 -20.5t-19 -28t-11 -32.5zM356 337q-3 17 -10.5 32.5t-17.5 28t-22 20.5t-22 11q27 -36 27 -92q9 -6 15 -17t9 -23q3 11 7.5 21.5t13.5 18.5zM253 201q2 -14 8.5 -30.5
t13.5 -22.5q13 5 23 21t15 32h-60zM264 345q0 11 -2.5 23.5t-5.5 20.5q-6 -7 -8.5 -19.5t-3.5 -24.5h20z" />
    <glyph glyph-name="f" unicode="f" horiz-adv-x="403" 
d="M138 449q-5 -35 -11.5 -60t-17.5 -52q9 -7 16.5 -19t12.5 -26q5 14 12 26t17 19q-11 26 -17.5 52t-11.5 60zM210 651q12 0 12 -13q0 -8 -2 -13t-2 -11q0 -26 16 -41t41 -15q26 0 40.5 18t14.5 44q0 19 -9 36t-24.5 30t-36.5 20t-46 7q-60 0 -93.5 -34.5t-34.5 -107.5v-89
h-54v-60h11q23 0 33 -14t10 -40v-171q0 -26 -10 -39.5t-33 -13.5h-11v-60h211v60h-12q-18 0 -29 13.5t-11 39.5v171q0 27 11 40.5t29 13.5h12v60h-52v108q0 33 4 47t15 14zM302 339q-27 0 -27 -38v-144l52 -53v-104h-243l-66 67v91h23q31 0 31 38v154l-54 57v89h54v75
q0 72 32.5 114t109.5 42q35 0 68 -12.5t58.5 -34t41 -50.5t15.5 -62q0 -38 -19.5 -62t-56.5 -24q-13 0 -31 5t-29 13l66 -72v-89h-25zM209 667q-21 0 -26.5 -21t-5.5 -56v-124h53v-29q-31 0 -42 -18.5t-11 -50.5v-84q-8 3 -17 3q-15 0 -15 -20q0 -9 5.5 -18t16.5 -13
q-11 -26 -17.5 -50t-11.5 -56q-5 28 -13 56.5t-16 49.5q11 4 16.5 13t5.5 18q0 20 -16 20q-6 0 -15 -3v84q0 32 -11.5 50.5t-42.5 18.5v29h54v105q0 66 30.5 96.5t83.5 30.5q20 0 38.5 -5.5t33 -15.5t23 -24.5t8.5 -32.5q0 -22 -11 -35.5t-31 -13.5t-32 11.5t-12 31.5
q0 7 2 13.5t2 14.5q0 9 -6 17t-20 8z" />
    <glyph glyph-name="g" unicode="g" horiz-adv-x="558" 
d="M351 433q3 5 7.5 9.5t12.5 4.5q7 0 11.5 -6.5l10 -14.5t14 -14.5t22.5 -6.5q18 0 29.5 11.5t11.5 34.5q0 26 -18 46t-53 20q-26 0 -48.5 -16t-29.5 -39q-24 17 -54.5 23.5t-53.5 6.5q-49 0 -83 -15t-55 -39t-30.5 -53.5t-9.5 -58.5q0 -39 10 -72.5t39 -60.5
q-19 -15 -30 -39t-11 -49q0 -17 6 -33.5t21 -29.5q-23 -13 -38.5 -32.5t-15.5 -52.5t20.5 -53.5t51.5 -32t66 -15.5t65 -4q39 0 76.5 5.5t67 20t47 38.5t17.5 61q0 39 -19.5 62t-49.5 35t-66 15.5t-70 3.5q-23 0 -43 2t-35.5 7.5t-24.5 14.5t-9 24q0 4 2.5 11.5t10.5 15.5
q35 -23 90 -23q36 0 68 12t56 35t37.5 56.5t13.5 77.5q0 14 -3 30t-8 31t-12 27.5t-14 18.5zM213 195q-30 0 -50.5 31t-20.5 99q0 22 4 43.5t12.5 38.5t22 28t32.5 11q18 0 30.5 -11t20.5 -28t12 -38.5t4 -43.5q0 -68 -20.5 -99t-46.5 -31zM93 -37q0 19 12 31.5t27 16.5
q22 -9 58.5 -10t71.5 -4t60.5 -12t25.5 -34q0 -17 -31 -33t-98 -16q-23 0 -45.5 3t-40.5 10t-29 18.5t-11 29.5zM359 91q43 -9 72 -27t47 -41t26 -49.5t8 -52.5q0 -43 -20 -73.5t-53 -50t-76.5 -28.5t-89.5 -9q-43 0 -91 9.5t-88.5 32.5t-67 61t-26.5 94q0 31 12.5 53.5
t31.5 34.5q-11 11 -15.5 25t-4.5 30q0 26 11 52t28 41q-27 28 -36 60.5t-9 72.5q0 31 11 63.5t34 59t60 43t90 16.5q22 0 50 -6t52 -19q13 23 36.5 36t47.5 13q31 0 59.5 -11t50.5 -30.5t34.5 -46.5t12.5 -59q0 -31 -14.5 -49.5t-39.5 -18.5q-14 0 -28.5 7t-22.5 15
q11 -18 16.5 -45t5.5 -48q0 -24 -8 -48t-23 -45t-36 -37t-47 -25zM259 384q-20 -12 -26 -39t-6 -54q0 -18 4.5 -36.5t10.5 -27.5q11 10 18 37.5t7 60.5q0 16 -2 32t-6 27zM350 365q-3 14 -10 26.5t-17 22.5t-21 17t-21 10q13 -16 19 -36t6 -40q19 -9 22 -37q7 25 22 37z
M74 365q14 -11 20 -37q3 13 7.5 22.5t14.5 14.5q0 43 25 76q-10 -3 -21 -10t-20.5 -17t-16.5 -22.5t-9 -26.5zM321 439q15 35 36 49t42 14q29 0 42.5 -15.5t13.5 -35.5q0 -32 -26 -32q-11 0 -17.5 7t-12 15t-12 15t-16.5 7q-13 0 -23 -13.5t-15 -21.5q18 -18 29.5 -45.5
t11.5 -62.5q-4 3 -9.5 4.5t-9.5 1.5q-9 0 -14 -5.5t-5 -13.5q0 -7 2.5 -14.5t13.5 -10.5q-7 -32 -26 -55t-45 -31q17 18 20.5 42.5t3.5 43.5q12 3 15 10.5t3 14.5q0 8 -3 13.5t-12 5.5q-6 0 -14 -7q0 26 -5 51.5t-14.5 46t-25 33t-36.5 12.5q-23 0 -39 -12.5t-26 -32.5
t-15 -45t-5 -49q-6 3 -11 3q-8 0 -12 -5.5t-4 -13.5q0 -7 2.5 -14.5t13.5 -10.5q0 -19 4.5 -43.5t19.5 -42.5q-26 8 -44.5 31t-24.5 55q10 3 12 10.5t2 14.5q0 8 -4.5 13.5t-12.5 5.5q-5 0 -10.5 -1.5t-9.5 -4.5q0 28 8.5 56t28 50.5t51 36.5t76.5 14q26 0 54.5 -9t53.5 -29
z" />
    <glyph glyph-name="h" unicode="h" horiz-adv-x="557" 
d="M276 500q6 2 13.5 3t16.5 1q37 0 73.5 -13.5t64.5 -43t45.5 -77.5t17.5 -117v-96l37 -38v-119h-459l-66 67v91h23q31 0 31 38v374l-54 62v88h187l70 -69v-151zM423 340q0 40 -13 67.5t-33 45t-44.5 25.5t-47.5 8q-25 0 -50 -7.5t-43 -30.5v258h-159v-60h12q26 0 34 -16.5
t8 -38.5v-394q0 -26 -10 -39.5t-33 -13.5h-11v-60h211v60h-12q-18 0 -29 13.5t-11 39.5v143q0 39 14.5 64t45.5 25q34 0 50 -25t16 -64v-143q0 -26 -10 -39.5t-33 -13.5h-11v-60h211v60h-11q-20 0 -30.5 14t-10.5 39v143zM139 449q-4 -35 -11 -60t-18 -52q9 -7 17 -19
t12 -26q5 14 12 26t17 19q-11 26 -17.5 52t-11.5 60zM394 337q-5 34 -22.5 58t-37.5 33q8 -17 12 -35.5t4 -33.5q0 -5 -0.5 -11t-1.5 -11q8 -8 14 -19t9 -26q3 16 9 26t14 19zM409 284q-8 3 -15 3q-17 0 -17 -20q0 -9 6 -18t17 -13q-11 -26 -18 -50t-12 -56
q-5 28 -12.5 56.5t-16.5 49.5q13 4 18 13t5 18q0 20 -16 20q-7 0 -16 -3v55q0 31 -8 51.5t-20 32.5t-26 16.5t-26 4.5t-25 -5t-24 -17t-18 -32.5t-7 -51.5v-54q-8 3 -17 3q-15 0 -15 -20q0 -9 6 -18t17 -13q-11 -26 -18 -50t-12 -56q-4 28 -12.5 56.5t-16.5 49.5q11 4 17 13
t6 18q0 20 -17 20q-6 0 -15 -3v307q0 27 -10.5 48t-43.5 21v32h131v-283q9 21 22.5 33.5t28.5 18.5t30 8t26 2q17 0 38.5 -6.5t40.5 -22t32 -40.5t13 -62v-56zM304 349q-18 -3 -23 -18.5t-5 -44.5v-128q17 2 22.5 10t5.5 29v152z" />
    <glyph glyph-name="i" unicode="i" horiz-adv-x="341" 
d="M196 482h-159v-60h11q26 0 34.5 -16.5t8.5 -39.5v-169q0 -26 -9.5 -39.5t-33.5 -13.5h-11v-60h211v60h-11q-19 0 -30 13.5t-11 39.5v285zM143 439q-5 -29 -11.5 -52.5t-17.5 -49.5q10 -7 17.5 -19t11.5 -26q5 14 12 26t18 19q-12 26 -18.5 49.5t-11.5 52.5zM182 285
q-5 2 -14 2q-18 0 -18 -20q0 -9 5.5 -18t17.5 -13q-11 -21 -18 -44.5t-12 -56.5q-6 32 -13 56.5t-16 44.5q12 4 17.5 13t5.5 18q0 20 -16 20h-7.5t-8.5 -2v81q0 29 -11 50t-43 21v31h131v-183zM317 119v-119h-228l-66 70v88h23q18 0 24.5 10t6.5 28v150l-54 58v92h187
l70 -68v-271zM66 632q0 -26 18 -45t47 -19t46.5 18.5t17.5 45.5q0 28 -18 47t-46 19q-29 0 -47 -19t-18 -47zM80 632q0 22 14 37.5t37 15.5q22 0 36 -15.5t14 -37.5t-14 -36t-36 -14q-23 0 -37 14t-14 36zM183 503q-30 0 -54.5 12t-42 30.5t-26.5 41.5t-9 45q0 35 22.5 58.5
t60.5 23.5q29 0 54 -10.5t43.5 -27.5t29 -40.5t10.5 -48.5q0 -35 -22.5 -59.5t-65.5 -24.5z" />
    <glyph glyph-name="j" unicode="j" horiz-adv-x="304" 
d="M143 439q-5 -29 -11.5 -52.5t-17.5 -49.5q10 -7 17.5 -19t11.5 -26q5 14 12 26t18 19q-14 27 -19.5 50t-10.5 52zM182 285q-5 2 -14 2q-18 0 -18 -20q0 -9 5.5 -18t17.5 -13q-11 -21 -18 -44.5t-12 -56.5q-6 32 -13 56.5t-16 44.5q12 4 17.5 13t5.5 18q0 20 -17 20h-7
t-8 -2v81q0 13 -2 26t-8 23t-16.5 16t-27.5 6v31h131v-183zM65 632q0 -26 18.5 -45t47.5 -19t46.5 18.5t17.5 45.5q0 28 -18 47t-46 19q-29 0 -47.5 -19t-18.5 -47zM80 632q0 22 14 37.5t37 15.5q22 0 36 -15.5t14 -37.5t-14 -36t-36 -14q-23 0 -37 14t-14 36zM69 -108
q-13 0 -13 15q0 6 1 10t1 9q0 26 -12 39t-32 13q-19 0 -31.5 -13t-12.5 -39q0 -32 27 -54.5t74 -22.5q60 0 92.5 30.5t32.5 102.5v500h-159v-60h11q26 0 34.5 -16.5t8.5 -39.5v-394q0 -41 -4.5 -60.5t-17.5 -19.5zM77 346l-54 58v92h187l70 -68v-502q0 -40 -12 -70t-33 -50
t-49.5 -30t-62.5 -10q-35 0 -65.5 12t-53 33t-36 50.5t-13.5 64.5q0 33 17.5 50t41.5 17q26 0 40.5 -13t22.5 -29v395zM183 503q-30 0 -54.5 12t-42 30.5t-26.5 41.5t-9 45q0 35 22.5 58.5t60.5 23.5q29 0 54 -10.5t43.5 -27.5t29 -40.5t10.5 -48.5q0 -35 -22.5 -59.5
t-65.5 -24.5z" />
    <glyph glyph-name="k" unicode="k" horiz-adv-x="532" 
d="M227 234l28 -38q18 -23 18 -38q0 -12 -21 -14v-60h195v60q-18 1 -37 17.5t-33 36.5l-83 122l46 59q19 23 35.5 32.5t31.5 10.5v60h-161v-60q11 0 17.5 -5t6.5 -11q0 -17 -18 -39l-56 -69v408h-159v-60h11q26 0 34.5 -16.5t8.5 -38.5v-394q0 -26 -9.5 -39.5t-33.5 -13.5
h-11v-60h198v60q-39 3 -39 54zM143 449q-4 -35 -11 -60t-18 -52q10 -7 17.5 -19t11.5 -26q5 14 12 26t18 19q-12 26 -18.5 52t-11.5 60zM182 284q-8 3 -16 3q-16 0 -16 -20q0 -9 5.5 -18t17.5 -13q-11 -26 -18 -50t-12 -56q-4 28 -12.5 56.5t-16.5 49.5q12 4 17.5 13t5.5 18
q0 20 -17 20q-6 0 -15 -3v307q0 27 -10 48t-44 21v32h131v-408zM89 0l-66 67v91h23q31 0 31 38v374l-54 62v88h187l70 -69v-155h144l57 -68v-89q-23 0 -39.5 -7t-33.5 -27l-12 -18l85 -124l41 -43v-120h-433zM267 360q8 11 14 23.5t6 22.5t-7 19.5t-20 10.5v32h133v-33
q-17 -2 -31.5 -11.5t-30.5 -30.5l-56 -72l25 -35q-12 3 -18 3q-11 0 -11 -8t5.5 -15t13 -13t16.5 -10t15 -7q7 -50 35 -101q-29 36 -53.5 60t-48.5 41q5 2 6.5 6.5t1.5 7.5q0 20 -9 28.5t-23 8.5q-16 0 -25 -5z" />
    <glyph glyph-name="l" unicode="l" horiz-adv-x="341" 
d="M196 706h-159v-60h11q26 0 34.5 -16.5t8.5 -38.5v-394q0 -26 -9.5 -39.5t-33.5 -13.5h-11v-60h211v60h-11q-19 0 -30 13.5t-11 39.5v509zM143 449q-4 -35 -11 -60t-18 -52q10 -7 17.5 -19t11.5 -26q5 14 12 26t18 19q-12 26 -18.5 52t-11.5 60zM182 284q-8 3 -16 3
q-16 0 -16 -20q0 -9 5.5 -18t17.5 -13q-11 -26 -18 -50t-12 -56q-4 28 -12.5 56.5t-16.5 49.5q12 4 17.5 13t5.5 18q0 20 -17 20q-6 0 -15 -3v307q0 27 -11 48t-43 21v32h131v-408zM89 0l-66 67v91h24q30 0 30 38v374l-54 62v88h187l70 -69v-494l37 -38v-119h-228z" />
    <glyph glyph-name="m" unicode="m" horiz-adv-x="770" 
d="M408 466q12 13 27.5 20t31 11t29.5 5t23 1q37 0 73 -13t64.5 -43t45.5 -77.5t17 -116.5v-96l37 -38v-119h-672l-66 70v88h24q30 0 30 38v150l-54 58v92h187l10 -11q20 11 41.5 15.5t39.5 4.5q63 0 112 -39zM138 449q-4 -35 -10.5 -60t-17.5 -52q9 -7 16.5 -19t11.5 -26
q5 14 12.5 26t17.5 19q-11 26 -18 52t-12 60zM384 337q-5 34 -22 58t-38 33q8 -13 12.5 -30.5t4.5 -38.5q0 -5 -0.5 -11t-1.5 -11q8 -8 14 -19t8 -26q4 16 9.5 26t13.5 19zM295 349q-13 -3 -17 -18.5t-4 -44.5v-127q10 3 15.5 10t5.5 28v152zM391 393q9 26 23 41.5t30 23.5
t31.5 10t26.5 2q17 0 38 -6.5t39 -21.5t30 -40t12 -62v-56q-8 3 -15 3q-17 0 -17 -20q0 -9 6 -18t17 -13q-11 -26 -17.5 -50t-12.5 -56q-4 28 -11.5 56.5t-15.5 49.5q11 4 16.5 13t5.5 18q0 20 -15 20q-8 0 -18 -3v55q0 31 -6 51.5t-15 32.5t-20.5 16.5t-23.5 4.5t-26 -5
t-26 -17t-20 -32.5t-8 -51.5v-54q-8 3 -15 3q-15 0 -15 -20q0 -9 5 -18t16 -13q-11 -26 -18 -49.5t-12 -55.5q-5 32 -13 58t-16 47q11 4 17.5 13t6.5 18q0 20 -15 20q-8 0 -18 -3v55q0 31 -6 51.5t-15.5 32.5t-21.5 16.5t-24 4.5q-11 0 -24.5 -5t-25.5 -17t-20 -32.5
t-8 -51.5v-54q-8 3 -16 3q-16 0 -16 -20q0 -9 6 -18t17 -13q-11 -26 -18.5 -50t-12.5 -56q-4 28 -11.5 56.5t-15.5 49.5q11 4 16.5 13t5.5 18q0 20 -16 20q-7 0 -16 -3v82q0 29 -10.5 50t-43.5 21v31h131v-59q10 21 23 33t27 18.5t28 8t25 1.5q14 0 30 -4t31 -13t28.5 -24
t21.5 -36zM606 337q-5 34 -22 58t-38 33q10 -17 14 -35.5t4 -33.5q0 -5 -0.5 -11t-1.5 -11q8 -8 13.5 -19t7.5 -26q4 16 10 26t13 19zM392 427q-20 30 -50 44.5t-62 14.5q-23 0 -47 -7.5t-42 -30.5v34h-159v-60h12q26 0 34 -16.5t8 -39.5v-169q0 -26 -9.5 -39.5t-32.5 -13.5
h-12v-60h208v60h-9q-40 0 -40 53v143q0 39 18.5 64t45.5 25q29 0 41 -25.5t12 -64.5v-142q0 -26 -7 -39.5t-31 -13.5h-11v-60h203v60h-10q-19 0 -29 14t-10 39v141q0 39 17 65t49 26q29 0 40 -25t11 -64v-143q0 -26 -9 -39.5t-31 -13.5h-9v-60h206v60h-13q-18 0 -28.5 14
t-10.5 39v143q0 40 -12 67.5t-31 45t-43 25.5t-47 8q-12 0 -27 -2.5t-30 -9.5t-29 -18t-24 -29zM516 349q-11 -3 -15 -18.5t-4 -44.5v-126q8 4 13.5 10t5.5 27v152z" />
    <glyph glyph-name="n" unicode="n" horiz-adv-x="557" 
d="M19 404v92h188l10 -11q20 11 43 14.5t42 3.5q37 0 74 -13t66 -43t47 -77.5t18 -116.5v-96l36 -38v-119h-459l-65 70v88h23q31 0 31 38v150zM138 449q-4 -35 -10.5 -60t-17.5 -52q9 -7 16.5 -19t11.5 -26q5 14 12.5 26t17.5 19q-11 26 -18 52t-12 60zM394 337
q-5 34 -22.5 58t-37.5 33q8 -17 12 -35.5t4 -33.5q0 -5 -0.5 -11t-1.5 -11q8 -8 14 -19t9 -26q3 16 9 26t14 19zM304 349q-17 -3 -22.5 -18.5t-5.5 -44.5v-127q16 1 22 9t6 29v152zM101 366q0 29 -10.5 50t-43.5 21v31h131v-59q9 21 22.5 33.5t28.5 18.5t30 8t26 2
q17 0 38.5 -6.5t40.5 -22t32 -40.5t13 -62v-56q-8 3 -15 3q-17 0 -17 -20q0 -9 6 -18t17 -13q-11 -26 -18 -50t-12 -56q-5 28 -12.5 56.5t-16.5 49.5q13 4 18 13t5 18q0 20 -16 20q-5 0 -7.5 -0.5t-7.5 -2.5v55q0 31 -7.5 51.5t-19.5 32.5t-26 16.5t-26 4.5t-25 -5
t-24.5 -17t-19 -32.5t-7.5 -51.5v-54q-8 3 -17 3q-16 0 -16 -20q0 -9 6 -18t17 -13q-11 -26 -18 -50t-12 -56q-4 28 -12 56.5t-16 49.5q11 4 16.5 13t5.5 18q0 20 -16 20q-6 0 -15 -3v82zM87 197q0 -26 -10 -39.5t-33 -13.5h-11v-60h211v60h-12q-18 0 -29 13.5t-11 39.5v143
q0 39 15.5 64t46.5 25q34 0 49 -25t15 -64v-143q0 -26 -10 -39.5t-33 -13.5h-11v-60h211v60h-11q-20 0 -30.5 14t-10.5 39v143q0 40 -13 67.5t-33 45t-44.5 25.5t-47.5 8q-25 0 -50 -7.5t-43 -30.5v34h-159v-60h12q26 0 34 -16.5t8 -39.5v-169z" />
    <glyph glyph-name="o" unicode="o" horiz-adv-x="504" 
d="M215 446q30 0 49 -41.5t19 -119.5q0 -69 -17 -114.5t-51 -45.5q-18 0 -30.5 15t-20 38t-11 51.5t-3.5 55.5q0 87 20.5 124t44.5 37zM28 285q0 -48 13.5 -87t38.5 -66t59.5 -42t75.5 -15q40 0 74.5 13.5t60 40t39.5 65.5t14 91q0 48 -14 86.5t-39.5 65.5t-60 41.5
t-74.5 14.5q-41 0 -75.5 -15t-59.5 -42t-38.5 -65.5t-13.5 -85.5zM278 -12q-56 0 -104 20t-83.5 58t-56 93t-20.5 126q0 51 15 92t41.5 70t63.5 45t81 16q59 0 109 -22.5t86.5 -61.5t57 -92.5t20.5 -116.5q0 -56 -16 -98.5t-44 -71t-66.5 -43t-83.5 -14.5zM248 163
q8 17 14.5 45.5t6.5 76.5q0 17 -3 41t-7 38q-12 -15 -16.5 -48t-4.5 -65q0 -23 3 -47.5t7 -40.5zM366 337q-3 17 -11 32.5t-19 28t-23 20.5t-23 11q24 -34 24 -92q23 -13 26 -45q4 16 11 26.5t15 18.5zM137 282q-5 4 -11 5.5t-10 1.5q-18 0 -18 -22q0 -9 4.5 -18t16.5 -13
q0 -22 3 -52t20 -53q-28 11 -49.5 40t-28.5 65q12 4 15.5 13t3.5 18q0 22 -19 22q-5 0 -11.5 -1.5t-10.5 -4.5q0 44 12.5 80.5t35.5 62t55 39.5t70 14q37 0 69 -14t55.5 -39.5t36.5 -61.5t13 -81q-5 3 -10.5 4.5t-10.5 1.5q-8 0 -14 -6t-6 -16q0 -9 4.5 -18t15.5 -13
q-7 -36 -28.5 -65t-49.5 -40q17 23 20 53t3 52q12 4 17 13t5 18q0 22 -19 22q-10 0 -18 -7q0 85 -23 132.5t-60 47.5q-14 0 -28 -10.5t-25 -32.5t-18 -56t-7 -81zM66 337q18 -15 25 -45q6 33 27 45q0 29 5 51.5t19 40.5q-11 -3 -23 -11t-23 -20.5t-19 -28t-11 -32.5z" />
    <glyph glyph-name="p" unicode="p" horiz-adv-x="530" 
d="M248 441q26 0 44 -42t18 -120q0 -69 -15.5 -114.5t-45.5 -45.5q-17 0 -28.5 15t-19 38.5t-11 51.5t-3.5 55q0 86 19 124t42 38zM278 159q9 15 14 43t5 77q0 9 -0.5 20t-2 22l-3 21t-4.5 17q-12 -15 -15 -47.5t-3 -64.5q0 -24 2.5 -48t6.5 -40zM82 -36q0 -26 -10 -39.5
t-33 -13.5h-11v-60h211v60h-11q-19 0 -30 14.5t-11 40.5v147q13 -20 34.5 -30.5t46.5 -10.5q33 0 63 13.5t52 40t35 65.5t13 90q0 52 -12.5 91t-34.5 65t-51 39.5t-62 13.5q-32 0 -54 -15.5t-30 -32.5v40h-159v-60h14q18 0 29 -13.5t11 -40.5v-404zM200 496l10 -9
q8 6 24.5 12.5t36.5 6.5q53 0 97.5 -21.5t77 -60.5t51 -94t18.5 -121q0 -54 -14 -95.5t-37.5 -69.5t-55.5 -42.5t-68 -14.5q-17 0 -36 5t-33 15v-83l52 -55v-102h-244l-65 68v90h25q29 0 29 39v382l-54 61v89h186zM134 448q-5 -35 -11.5 -59.5t-17.5 -51.5q10 -7 17 -19
t12 -26q5 14 12 26t17 19q-11 26 -17.5 51.5t-11.5 59.5zM324 282q0 85 -22 129.5t-54 44.5q-14 0 -27 -9t-23.5 -29.5t-17 -53.5t-6.5 -80q-9 3 -18 3q-15 0 -15 -20q0 -9 5.5 -18t16.5 -13q-11 -26 -17.5 -50t-11.5 -56q-5 28 -13 56.5t-16 49.5q11 4 16.5 13t5.5 18
q0 20 -15 20q-7 0 -16 -3v84q0 35 -14.5 52t-39.5 17v31h131v-82q6 27 17 44.5t24.5 27t28 13.5t28.5 4q30 0 56.5 -12t46 -36t30.5 -60t11 -84q-4 3 -9.5 4.5t-10.5 1.5q-20 0 -20 -22q0 -9 4 -18t16 -13q-7 -36 -28.5 -65t-49.5 -40q17 23 20 53t3 52q12 4 16.5 13t4.5 18
q0 22 -19 22q-3 0 -8 -1.5t-10 -5.5zM393 337q-3 17 -11 32.5t-19 28t-23.5 20.5t-22.5 11q14 -18 18.5 -40.5t4.5 -51.5q22 -12 28 -45q5 29 25 45z" />
    <glyph glyph-name="q" unicode="q" horiz-adv-x="506" 
d="M210 441q25 0 43 -42t18 -120q0 -35 -4 -64t-12 -50.5t-19 -33.5t-26 -12q-17 0 -29 15t-19.5 38.5t-11 51.5t-3.5 55q0 86 19.5 124t43.5 38zM236 156q8 15 14.5 44.5t6.5 78.5q0 9 -0.5 20t-1.5 22t-3 21t-4 17q-13 -15 -17.5 -48t-4.5 -68q0 -23 3 -47t7 -40zM376 482
h-64l-20 -42q-20 27 -44.5 38.5t-56.5 11.5q-33 0 -63 -13.5t-52 -39.5t-35 -65t-13 -91q0 -51 13 -90t35 -65.5t51 -40t60 -13.5q25 0 48 10.5t36 30.5v-147q0 -55 -40 -55h-14v-60h211v60h-10q-23 0 -32.5 13.5t-9.5 39.5v518zM324 449q-5 -34 -11.5 -60t-17.5 -52
q9 -7 16.5 -19t12.5 -26q5 14 12 26t17 19q-11 27 -17.5 52t-11.5 60zM362 466v-182q-9 3 -16 3q-15 0 -15 -20q0 -9 5.5 -18t16.5 -13q-9 -21 -16.5 -49.5t-12.5 -56.5q-5 32 -12 56t-17 50q11 4 16.5 13t5.5 18q0 20 -15 20q-10 0 -17 -3q0 47 -6.5 80t-17.5 53.5
t-24.5 29.5t-26.5 9q-33 0 -54.5 -44.5t-21.5 -129.5q-5 4 -10 5.5t-9 1.5q-18 0 -18 -22q0 -9 4.5 -18t16.5 -13q0 -22 3 -52t20 -53q-28 11 -49.5 40t-27.5 65q11 4 14.5 13t3.5 18q0 22 -18 22q-5 0 -11 -1.5t-10 -4.5q0 48 11.5 84t31.5 60t47 36t58 12q27 0 56 -14
t46 -51l28 56h41zM65 337q10 -7 15.5 -18t9.5 -27q6 33 27 45q0 29 5 51.5t19 40.5q-11 -3 -23 -11t-23 -20.5t-19 -28t-11 -32.5zM460 428v-504l37 -38v-119h-228l-66 66v92h28q12 0 19 11t7 30v32q-11 -3 -22 -5t-23 -2q-45 0 -81.5 23t-62.5 62.5t-40 92t-14 112.5
q0 55 14 97.5t38 70.5t56.5 42.5t68.5 14.5q59 0 100 -35l13 25h87z" />
    <glyph glyph-name="r" unicode="r" horiz-adv-x="488" 
d="M139 446q-4 -35 -11 -58.5t-18 -50.5q9 -7 17 -19t12 -26q5 14 12 26t17 19q-11 26 -17.5 50.5t-11.5 58.5zM279 319q-3 -17 -3 -37v-125l37 -38v-119h-228l-66 70v88h23q31 0 31 38v150l-54 58v92h187l10 -10q11 8 27.5 14t39.5 6q39 0 74.5 -13t61.5 -36.5t41.5 -56.5
t15.5 -73t-24 -68t-66 -28q-79 0 -107 88zM283 477q19 0 38.5 -6.5t34.5 -20t24.5 -33.5t9.5 -47q0 -23 -13.5 -38.5t-36.5 -15.5q-24 0 -37 14t-13 37q0 9 2.5 16.5t2.5 18.5q0 14 -8 28t-31 14q-32 0 -55 -31.5t-23 -94.5v-34q-8 3 -16 3q-16 0 -16 -20q0 -9 5.5 -18
t16.5 -13q-11 -26 -17.5 -50t-11.5 -56q-4 28 -12.5 56.5t-16.5 49.5q11 4 17 13t6 18q0 20 -17 20q-6 0 -15 -3v82q0 29 -10.5 50t-43.5 21v31h131v-61q12 28 38 49t67 21zM283 491q-32 0 -55 -12.5t-36 -29.5v33h-159v-60h12q26 0 34 -16.5t8 -39.5v-169q0 -26 -10 -39.5
t-33 -13.5h-11v-60h211v60h-12q-18 0 -29 13.5t-11 39.5v123q0 19 3.5 38.5t11.5 35.5t20 25.5t29 9.5q14 0 19 -7.5t5 -20.5q0 -8 -2.5 -17t-2.5 -17q0 -30 18 -48t47 -18t46.5 19t17.5 50q0 54 -33.5 87.5t-87.5 33.5z" />
    <glyph glyph-name="s" unicode="s" horiz-adv-x="444" 
d="M230 467q-12 0 -23 4t-23 9t-25.5 9t-29.5 4q-53 0 -79 -30.5t-26 -75.5q0 -37 15 -63.5t38 -45.5t49.5 -33.5l49.5 -28t38 -27.5t15 -32q0 -17 -13 -23t-32 -6q-24 0 -42.5 11.5t-32.5 28t-22.5 35.5t-11.5 34h-49v-153h55q1 9 7 15.5t22 6.5q15 0 29 -5l29 -10.5
t33.5 -10.5t42.5 -5q54 0 79 30t25 76q0 37 -15.5 64t-39.5 47t-51 34.5l-51 27.5t-39.5 25.5t-15.5 28.5q0 11 6.5 18t23.5 7q19 0 34.5 -9t26 -22.5t16 -30.5t5.5 -32h72v143h-72q-2 -15 -18 -15zM72 252q-22 18 -42 51t-20 84q0 25 7.5 47t22 38.5t37 26t52.5 9.5
q17 0 32 -4t27.5 -8.5l22 -8t15.5 -3.5t8 3t3 9h101l69 -68v-176h-62q16 -11 32.5 -26.5t29 -34.5t20.5 -41.5t8 -46.5q0 -51 -29.5 -83.5t-92.5 -32.5q-24 0 -43.5 5t-35.5 11l-30 11t-27 5q-17 0 -20 -19h-80l-65 69v183h60zM133 214q8 -33 26.5 -52t30.5 -19q19 0 24 14
q-15 15 -39.5 29.5t-41.5 27.5zM234 347q0 8 -2.5 15.5t-6.5 15.5q-8 0 -10.5 -6t-2.5 -10zM95 282q-24 19 -40.5 44.5t-16.5 60.5q0 38 23 65t68 27q15 0 28.5 -4t26 -9t24 -9t23.5 -4q10 0 17 4.5t10 8.5h48v-112h-45q-2 17 -9.5 33.5t-19.5 30t-28.5 21.5t-37.5 8
q-24 0 -34.5 -11t-10.5 -28q0 -23 19 -39t45.5 -29.5l53.5 -26.5t43 -29q-5 2 -11.5 3t-11.5 1q-14 0 -21 -5l-9 3.5t-11 1.5q-12 0 -12 -5q0 -8 8.5 -14.5t20.5 -11t25.5 -6.5t24.5 -2q6 -10 13 -27t7 -34q0 -14 -6 -28.5t-24 -28.5q2 5 2.5 12t0.5 11q0 30 -23 47t-51 23
q3 7 3 16q0 20 -17 33.5t-36 13.5q-4 0 -7.5 -1t-8.5 -2q-5 2 -11 3t-11 1q-11 0 -21 -6zM97 313q4 2 9.5 3t10.5 1q13 0 25 -4t25 -9q-17 13 -26 24t-9 27q-25 11 -33.5 28.5t-8.5 52.5q-9 -9 -14.5 -24.5t-5.5 -30.5q0 -20 7.5 -36.5t19.5 -31.5z" />
    <glyph glyph-name="t" unicode="t" horiz-adv-x="386" 
d="M129 449q-5 -35 -11.5 -60t-17.5 -52q10 -7 17 -19t11 -26q5 14 12.5 26t16.5 19q-11 26 -17 52t-11 60zM77 199q0 -27 5 -50t17.5 -39.5t33.5 -25.5t52 -9q59 0 83.5 32.5t24.5 91.5h-43q0 -37 -7.5 -55.5t-26.5 -18.5q-20 0 -27 18.5t-7 55.5v169q0 54 40 54h37v60h-77
v127h-60q0 -18 -5 -39.5t-16 -41t-30.5 -34t-47.5 -17.5v-55h10q44 0 44 -54v-169zM266 213h41l68 -66q0 -44 -10.5 -74.5t-29.5 -49.5t-44 -27.5t-53 -8.5q-36 0 -68 11.5t-55.5 37t-37.5 65.5t-14 98v151l-54 57v85q31 3 51 17.5t30.5 34.5t14.5 41.5t4 37.5h85l72 -68
v-59h7l68 -69v-92h-45q-14 0 -22 -10t-8 -28v-84zM91 368q0 32 -11 50.5t-43 18.5v26q27 4 46 19t31 34.5t17.5 40.5t5.5 37h31v-128h77v-29h-25q-31 0 -41.5 -18.5t-10.5 -50.5v-84q-9 3 -17 3q-15 0 -15 -20q0 -9 5 -18t16 -13q-12 -21 -12 -50q0 -14 2.5 -28t6.5 -28
q-29 19 -40 48.5t-14 57.5q11 4 16.5 13t5.5 18q0 20 -15 20q-6 0 -16 -3v84z" />
    <glyph glyph-name="u" unicode="u" horiz-adv-x="536" 
d="M288 346l-28 31v-220q18 6 23 21t5 41v127zM407 482h-159v-60h14q18 0 29 -13.5t11 -40.5v-150q0 -45 -14.5 -63.5t-45.5 -18.5q-34 0 -50 23t-16 63v260h-159v-60h12q19 0 30.5 -14t11.5 -40v-142q0 -41 10 -69.5t27.5 -47t41 -27t50.5 -8.5q34 0 59.5 11.5t43.5 31.5
v-33h156v60h-8q-26 0 -35 16t-9 39v283zM234 453v43h187l70 -69v-270l37 -37v-120h-174l-14 14q-14 -11 -40 -19t-52 -8q-88 0 -139.5 63t-51.5 176v120l-53 58v92h186zM123 442q-5 -29 -11.5 -54t-17.5 -51q10 -7 17 -19t11 -26q5 14 12.5 26t17.5 19q-12 27 -18 51.5
t-11 53.5zM162 285q-5 2 -8 2h-7q-17 0 -17 -20q0 -9 5.5 -18t16.5 -13q-5 -11 -7 -21.5t-2 -21.5q0 -28 14 -62q-32 15 -46 44.5t-17 60.5q12 4 17 13t5 18q0 20 -14 20h-8.5t-8.5 -2v81q0 13 -2 26t-8 23t-16.5 16t-27.5 6v31h131v-183zM354 439q-6 -29 -12 -52.5
t-17 -49.5q11 -7 17.5 -19t11.5 -26q5 14 12.5 26t16.5 19q-13 27 -18.5 50t-10.5 52zM393 285q-5 2 -8 2h-7q-17 0 -17 -20q0 -9 5.5 -18t16.5 -13q-10 -21 -17 -44.5t-12 -56.5q-7 32 -13 56.5t-16 44.5q11 4 16.5 13t5.5 18q0 20 -15 20h-8t-8 -2v81q0 29 -10.5 50
t-43.5 21v31h131v-183z" />
    <glyph glyph-name="v" unicode="v" horiz-adv-x="505" 
d="M240 225l-47 151q-2 7 -3 13t-1 10q0 8 9 15.5t26 7.5v60h-207v-60q21 0 38.5 -9t25.5 -32l92 -297h101l90 296q8 27 23.5 34.5t32.5 7.5v60h-164v-60q17 0 25.5 -8t8.5 -18q0 -5 -1 -10t-3 -10zM300 370q2 7 3 15.5t1 13.5q0 14 -8 24t-26 13v32h136v-32
q-17 -2 -31.5 -12t-23.5 -39l-29 -98q-14 0 -19 -7.5t-5 -18.5q0 -5 1.5 -12.5t4.5 -12.5q-13 -14 -25 -38t-29 -63q7 21 11.5 41t4.5 31q0 5 -0.5 13t-2.5 16q11 5 17.5 16.5t6.5 23.5q0 11 -13 11zM230 496l13 -14v14h188l70 -68v-89q-20 0 -33.5 -6.5t-19.5 -25.5
l-94 -307h-127l-65 70l-83 269h-16l-60 65v92h227zM115 439q4 -20 5 -37t1 -34q0 -7 -0.5 -15t-0.5 -16q12 -7 23 -19t19 -26q1 14 4.5 26t11.5 19q-23 27 -35.5 50zM93 386q-9 28 -24.5 38.5t-36.5 12.5v31h178v-32q-19 -3 -27 -13t-8 -22q0 -5 1 -13.5t3 -17.5l27 -84
q-5 1 -9 1h-7q-13 0 -13 -11q0 -14 10 -24.5t23 -15.5q-2 -8 -2 -19v-20q0 -11 1 -26.5t3 -35.5q-16 32 -30 56.5t-30 44.5q13 6 13 22q0 11 -6 20t-17 9q-8 0 -17 -3zM345 439l-19 -51t-32 -51q5 -6 6 -20t1 -25q12 31 33 45q-1 6 -1.5 12t-0.5 11q0 21 4.5 39.5t8.5 39.5z
" />
    <glyph glyph-name="w" unicode="w" horiz-adv-x="711" 
d="M378 84h102l90 296q8 27 23 34.5t34 7.5v60h-164v-60q17 0 25.5 -8t8.5 -18q0 -5 -1 -10t-3 -10l-47 -151l-47 151q-3 13 -3 23t8.5 16.5t25.5 6.5v60h-174v-60q17 0 25.5 -8t8.5 -18q0 -5 -1 -10t-3 -10l-46 -151l-47 151q-2 7 -3 13t-1 10q0 8 8.5 15.5t25.5 7.5v60
h-206v-60q21 0 38.5 -9t25.5 -32l92 -297h101l52 171zM115 439q4 -20 5 -37t1 -34q0 -7 -0.5 -15t-0.5 -16q12 -7 23 -19t19 -26q1 14 4.5 26t11.5 19q-23 27 -35.5 50zM93 386q-9 28 -24.5 38t-36.5 12v32h177v-32q-19 -3 -26.5 -13t-7.5 -22q0 -5 1 -13.5t3 -17.5l27 -84
q-5 1 -9 1h-7q-13 0 -13 -11q0 -14 10 -24.5t23 -15.5q-2 -8 -2 -19v-20q0 -11 1 -26.5t3 -35.5q-16 32 -30 56.5t-30 44.5q13 6 13 22q0 11 -6 20t-17 9q-8 0 -17 -3zM506 370q2 7 3 15.5t1 13.5q0 14 -7.5 24t-26.5 13v32h137v-32q-17 -2 -32 -12t-23 -39l-30 -98
q-14 0 -18.5 -7.5t-4.5 -18.5q0 -5 1 -12.5t5 -12.5q-14 -14 -26 -38t-28 -63q7 21 11 42t4 31v13t-2 15q12 5 18 16.5t6 23.5q0 11 -14 11zM449 496h189l68 -68v-89q-20 0 -32.5 -6.5t-18.5 -25.5l-93 -307h-129l-58 66l-20 -66h-129l-64 70l-83 269h-16l-60 65v92h227
l13 -15v15h191l15 -14v14zM322 439q3 -20 4.5 -37t1.5 -34q0 -7 -0.5 -15.5t-1.5 -16.5q11 -7 23 -18.5t20 -25.5q1 14 4 26t11 19q-22 27 -35 50t-27 52zM335 281q-8 6 -19 6q-10 0 -13.5 -9t-3.5 -17q0 -5 1.5 -12.5t4.5 -12.5q-13 -14 -25.5 -38t-29.5 -63q7 21 12 42
t5 31q0 6 -0.5 13t-2.5 15q11 5 17 16.5t6 23.5q0 11 -13 11l26 83q2 7 3 15.5t1 13.5q0 14 -8 24t-26 13v32h145v-32q-17 -3 -25.5 -13t-8.5 -22q0 -5 1 -13t4 -18l26 -84q-5 1 -8.5 1h-6.5q-14 0 -14 -11q0 -14 10.5 -24.5t22.5 -15.5q-2 -8 -2 -19v-20q0 -11 1 -26.5
t4 -35.5q-17 32 -31.5 56.5t-28.5 44.5q7 3 10 9.5t3 14.5q0 9 -5 18t-16 9q-9 0 -16 -6zM552 439l-19.5 -51t-31.5 -51q4 -6 4.5 -20t0.5 -25q8 16 15.5 27t18.5 18q-1 6 -1.5 12t-0.5 11q0 21 4.5 39.5z" />
    <glyph glyph-name="x" unicode="x" horiz-adv-x="508" 
d="M101 201q-22 -23 -40 -38t-38 -19v-60h155v60h-9q-13 0 -17 5.5t-4 11.5q0 8 8 18.5t15 17.5l35 35l25 -35q14 -17 14 -33q0 -20 -33 -20v-60h212v60q-18 1 -37 17.5t-33 36.5l-76 110l62 63q17 17 37.5 34t37.5 17v60h-151v-60q12 0 16.5 -4.5t4.5 -11.5q0 -9 -6 -18
t-11 -15l-20 -20l-13 19l-10 16t-5 16q0 18 23 18v60h-211v-60q18 -1 36.5 -12t41.5 -44l65 -89zM117 334q-7 3 -19 4.5t-20 1.5l-60 65v91h411l61 -68v-89q-23 0 -41 -9t-36 -27l-29 -31l75 -109l40 -43v-120h-426l-64 68v88q20 2 41 18.5t41 36.5l65 68zM122 439
q15 -24 26.5 -50t19.5 -52q19 -8 31 -16.5t29 -28.5q-6 16 -6 29q0 11 4 16q-34 27 -56 50zM277 286q-5 1 -9 1.5t-8 0.5q-12 0 -12 -7q0 -16 17 -28t30 -17q5 -26 16 -51t25 -50q-29 36 -52 60t-47 41q5 2 6 6.5t1 7.5q0 13 -11 25t-27 12q-11 0 -18 -3l-68 92
q-26 34 -41.5 45.5t-32.5 13.5v33h184v-33q-24 -6 -24 -31q0 -11 4.5 -20t11.5 -18l26 -36l30 33q5 5 14 17t9 26q0 10 -6 18.5t-18 11.5v32h124v-33q-20 -5 -37.5 -20t-33.5 -32l-69 -72z" />
    <glyph glyph-name="y" unicode="y" horiz-adv-x="513" 
d="M85 339h-12l-60 66v91h224l13 -14v14h188l70 -68v-89q-22 0 -34.5 -6.5t-18.5 -25.5l-116 -381q-26 -85 -68 -123t-111 -38q-33 0 -61 12t-49 34t-33 51.5t-12 64.5q0 33 16.5 49.5t41.5 16.5q26 0 46 -15t25 -44q8 13 14.5 29.5t8.5 24.5l18 60zM172 -14
q-6 -18 -12.5 -35t-13.5 -30t-14 -21t-14 -8q-13 0 -13 15q0 6 1 10t1 9q0 26 -12 39t-32 13q-19 0 -32 -12.5t-13 -38.5q0 -32 27 -55t74 -23q29 0 50 10t36 28t25.5 42.5t19.5 52.5l122 398q8 25 23 33.5t33 8.5v60h-164v-60q16 0 25 -8t9 -18q0 -5 -1 -10t-3 -10
l-47 -151l-47 151q-2 7 -3 13t-1 10q0 8 9 15.5t26 7.5v60h-204v-60q20 0 37 -10.5t23 -30.5l104 -332zM307 370q2 7 3 15.5t1 13.5q0 14 -7 24t-26 13v32h136v-32q-17 -2 -31.5 -12t-23.5 -39l-30 -98q-14 0 -19.5 -7.5t-5.5 -18.5q0 -13 7 -25q-12 -14 -24.5 -38
t-28.5 -63q7 21 10 42t3 31q0 6 -0.5 13t-2.5 15q12 5 19.5 16.5t7.5 23.5q0 11 -14 11zM122 439q7 -38 7 -71q0 -7 -0.5 -15t-1.5 -16q12 -7 23 -19t20 -26q1 14 4 26t11 19q-22 27 -35.5 51.5zM101 386q-8 27 -24.5 38t-36.5 12v32h176v-32q-17 -3 -25.5 -13t-8.5 -22
q0 -5 1 -13.5t4 -17.5l25 -84q-5 1 -15 1q-13 0 -13 -11q0 -14 10.5 -24.5t22.5 -15.5q-2 -8 -2.5 -19t-0.5 -20q0 -23 6 -62q-17 32 -31.5 56.5t-29.5 44.5q14 6 14 22q0 11 -6.5 20t-17.5 9q-9 0 -16 -3zM353 439l-19.5 -51t-31.5 -51q4 -6 4.5 -20t0.5 -25q8 16 15.5 27
t17.5 18q0 26 3.5 49.5t9.5 52.5z" />
    <glyph glyph-name="z" unicode="z" horiz-adv-x="425" 
d="M32 326h55q0 12 4 30t13 35t25 29.5t40 12.5h19l-157 -349h301v150h-56q0 -17 -4.5 -36t-14.5 -35.5t-27.5 -27.5t-42.5 -11h-22l159 358h-292v-156zM18 310v186h324l68 -68l-79 -179h15l70 -67v-182h-343l-64 69l76 174zM249 439q-17 -29 -32.5 -52t-41.5 -50
q5 -7 6.5 -19t1.5 -26q11 14 23 26t26 19q0 8 0.5 16t1.5 15q2 17 6 34zM220 282q-5 4 -8 4.5t-8 0.5q-11 0 -19 -8.5t-8 -20.5q0 -5 1.5 -12t7.5 -10q-18 -20 -35.5 -44.5t-37.5 -56.5q7 23 11 49t4 52q13 5 25.5 15.5t13.5 24.5q0 12 -12 12q-7 0 -17 -3l72 162h-41
q-26 0 -43 -11t-28 -27t-16.5 -35t-6.5 -34h-29v128h257z" />
    <glyph glyph-name="braceleft" unicode="{" horiz-adv-x="363" 
d="M263 91q-30 30 -41.5 72.5t-17.5 86t-13.5 83t-28.5 63.5q14 16 21 40t11 52t6.5 58.5t8.5 60t16.5 55.5t30.5 46l-26 36q-38 -22 -63 -54.5t-42 -68t-27.5 -72.5l-19 -68t-17.5 -54t-23 -31q14 -9 23 -31.5t17.5 -53.5t19.5 -67t28.5 -71.5t44.5 -67t68 -52.5zM300 -34
q-59 27 -98.5 65.5t-65 81t-41 86t-26.5 82.5t-22 69t-27 46q17 14 27.5 39.5t20 58l21 69.5t29.5 72.5t45.5 68.5t70.5 57l31 -44l48 -82q-14 -24 -19 -57.5t-9.5 -69t-12.5 -71t-28 -63.5q15 -19 23 -43.5t13 -52.5t8 -58.5t8.5 -62.5t15 -64.5t26.5 -63.5zM60 394
q22 30 32.5 73t24.5 89t38 90.5t72 77.5l12 -17q-32 -36 -42 -79t-13.5 -85t-9 -80.5t-28.5 -66.5q-4 1 -7 2.5t-5 1.5q-6 0 -7.5 -4.5t-1.5 -9.5q0 -14 13.5 -34t31.5 -31q-5 -17 -8 -31t-3 -31q0 -20 6 -44t14 -47q-32 32 -52.5 73.5t-28.5 79.5q7 6 12 17.5t5 22.5
q0 17 -6 28.5t-20 11.5q-5 0 -14.5 -1.5t-14.5 -5.5zM175 620q-14 -15 -25.5 -34.5t-20.5 -40.5t-15.5 -41.5t-9.5 -37.5q8 -10 10.5 -23.5t3.5 -34.5q8 21 21.5 35.5t24.5 21.5q-2 14 -3.5 27t-1.5 26q0 25 4 49.5t12 52.5z" />
    <glyph glyph-name="bar" unicode="|" horiz-adv-x="399" 
d="M248 720l69 -70v-734h-154l-71 70v734h156zM107 0h126v705h-126v-705zM170 602q-6 -47 -14 -80t-22 -61q13 -9 22 -24t14 -33q11 39 36 57q-14 29 -22 62t-14 79zM218 397q-9 4 -18 4q-22 0 -22 -29q0 -12 6.5 -24.5t21.5 -17.5q-14 -32 -22.5 -74t-13.5 -79
q-5 37 -14.5 79t-21.5 74q15 5 21.5 17.5t6.5 24.5q0 29 -22 29q-9 0 -18 -4v293h96v-293z" />
    <glyph glyph-name="braceright" unicode="}" horiz-adv-x="383" 
d="M82 53q41 21 68 52.5t44.5 67t28.5 71.5t19.5 67t17.5 53.5t23 30.5q-14 8 -23 31t-17.5 54.5l-19 68.5t-27.5 72.5t-42 68t-63 54.5l-26 -36q30 -30 40 -73.5t15 -89t11.5 -86t27.5 -64.5q-21 -24 -28.5 -63.5t-13.5 -83t-17.5 -85.5t-40.5 -72zM261 394q-5 3 -14.5 4.5
t-14.5 1.5q-14 0 -20 -11t-6 -28q0 -11 5 -22.5t12 -17.5q-8 -38 -28.5 -80t-52.5 -74q9 23 14.5 47.5t5.5 44.5q0 17 -3 31t-8 31q18 10 31.5 30.5t13.5 34.5q0 5 -1.5 9t-7.5 4q-2 0 -5 -1.5t-7 -2.5q-23 28 -28 66.5t-9 81t-14 85t-42 79.5l12 17q48 -33 72 -77.5
t38 -90.5t24.5 -89t32.5 -73zM146 620q8 -28 12 -52.5t4 -49.5q0 -14 -1.5 -26.5t-3.5 -26.5q12 -7 25 -21.5t21 -35.5q1 21 3.5 34.5t10.5 23.5q-3 17 -9.5 37.5t-15.5 41.5t-20.5 40.5t-25.5 34.5zM40 94q30 31 41.5 68t17.5 76.5t13 79.5t28 77q-22 35 -27.5 75t-10 81
t-15.5 81t-42 75l42 57q43 -24 77.5 -57.5t61 -75.5t46 -90.5t32.5 -101.5q8 -35 19.5 -62t39.5 -44q-12 -8 -21 -21t-16 -28.5t-12 -31.5l-9 -30q-9 -32 -21.5 -66.5t-32 -67.5t-46.5 -62.5t-65 -51.5l-62 59z" />
    <glyph glyph-name="asciitilde" unicode="~" horiz-adv-x="359" 
d="M100 719q-43 0 -59.5 -34t-16.5 -89h48q0 15 7 26.5t21 11.5q12 0 23 -8l23.5 -17t27.5 -17t36 -8q23 0 37 8.5t22 24.5t11 38.5t3 50.5h-47q0 -14 -7.5 -24t-21.5 -10q-15 0 -26.5 7.5t-23 16t-25 16t-32.5 7.5zM100 705q18 0 31 -7.5t24.5 -16t23.5 -16t28 -7.5
t26.5 8.5t12.5 24.5h22q-2 -45 -12.5 -69t-45.5 -24q-19 0 -32.5 8t-25.5 17.5t-24 17.5t-28 8q-17 0 -27.5 -11t-14.5 -27h-20q2 44 16 69t46 25zM10 582q0 33 4.5 61t15 48t27.5 31t43 11q22 0 36 -7t25.5 -16t21.5 -16t25 -7q8 0 12 9t4 24h73l52 -57q0 -66 -22.5 -108
t-76.5 -42q-24 0 -40.5 7.5t-28.5 16.5t-20.5 16.5t-17.5 7.5q-8 0 -11 -10.5t-3 -25.5h-67z" />
    <glyph glyph-name="Euro" unicode="&#x20ac;" horiz-adv-x="536" 
d="M10 476h44q6 49 19 95t36.5 81t59 56.5t86.5 21.5q17 0 30 -5t22.5 -11.5l17 -11.5t13.5 -5q9 0 12 6.5t3 16.5h72l70 -71v-269h-103l-70 70q0 3 -1 18.5t-3.5 32t-7 30t-11.5 13.5q-9 0 -14.5 -18.5t-7.5 -49.5h9l69 -69v-65h83l68 -83q-1 -41 -9.5 -88.5t-31 -87.5
t-62 -66.5t-102.5 -26.5q-45 0 -83 18.5t-68 52t-51.5 80.5t-33.5 103l-55 55v76h25l-25 25v76zM25 314h46q6 -45 19.5 -87.5t37.5 -75.5t59 -53t82 -20q49 0 79.5 25.5t47 63.5t22 81t5.5 79h-85q-1 -17 -4 -46.5t-10.5 -57.5t-20.5 -48.5t-34 -20.5q-16 0 -27.5 13.5
t-19.5 36t-12.5 51t-6.5 59.5h68v46h-70v55h70v46h-69q1 32 5 63.5t11.5 56t20 40t31.5 15.5q22 0 34.5 -21t19.5 -49t9 -57t2 -44h75v239h-45q-5 -24 -25 -24q-7 0 -15 5.5l-18 12t-23 12t-29 5.5q-51 0 -85 -23.5t-55 -60.5t-31.5 -82t-14.5 -88h-44v-46h41v-30.5t1 -24.5
h-42v-46zM80 393q0 52 8 106.5t27.5 99t53.5 73t87 28.5q17 0 29 -6t22 -12.5t18 -12.5t16 -6q14 0 22.5 8t11.5 18h20v-209h-46q0 20 -3 49.5t-11.5 56.5t-24 46t-40.5 19q-27 0 -44 -23.5t-26 -60t-12 -82.5t-3 -91q-5 4 -9.5 5t-7.5 1q-11 0 -18.5 -7.5t-7.5 -20.5
q0 -8 4 -16t9.5 -14.5t11.5 -11l10 -7.5q-10 -13 -13.5 -28t-3.5 -31q0 -19 4.5 -39t10.5 -36q-39 28 -54 61t-26 73q12 9 21.5 21t9.5 28q0 8 -4.5 17.5t-18.5 9.5q-13 0 -23 -6zM177 602q-38 -35 -54.5 -70.5t-24.5 -70.5q13 -8 22.5 -24t15.5 -33q4 17 13.5 33.5
t22.5 22.5q-8 12 -11 26t-3 29q0 17 5.5 41t13.5 46zM40 430v16h28l-1 -16h-27zM256 446v-16h-55l1 16h54zM256 345v-16h-54l-1 16h55zM40 329v16h28l2 -16h-30z" />
    <glyph glyph-name="bullet" unicode="&#x2022;" horiz-adv-x="263" 
d="M247 371q0 -51 -31 -82t-82 -31q-49 0 -81 31t-32 82q0 49 32 81t81 32q51 0 82 -32t31 -81z" />
    <glyph glyph-name="exclamdown" unicode="&#xa1;" horiz-adv-x="302" 
d="M41 502q0 16 6 31t16.5 27t26 19t35.5 7q28 0 54.5 -10t47 -28t33 -42.5t12.5 -53.5q0 -42 -23.5 -64.5t-61.5 -24.5l54 -53q0 -44 9.5 -89t21 -90t21 -89t9.5 -86q0 -59 -34 -92t-85 -33q-45 0 -76.5 19.5t-50.5 49.5t-27.5 65.5t-8.5 67.5q0 39 8.5 84t19 91.5t19 90
t8.5 79.5h43q-35 19 -56 54.5t-21 69.5zM124 -85q39 0 63.5 33t24.5 85q0 37 -8 75t-18 78.5t-19 84t-10 92.5h-68q-3 -49 -11.5 -92.5t-18 -84t-17 -78.5t-7.5 -75q0 -53 23.5 -85.5t65.5 -32.5zM56 502q0 -29 19.5 -49.5t49.5 -20.5q29 0 48.5 20.5t19.5 49.5t-19.5 49
t-48.5 20q-30 0 -49.5 -20t-19.5 -49zM71 502q0 23 15.5 38.5t38.5 15.5t38 -15.5t15 -38.5t-15 -39t-38 -16t-38.5 16t-15.5 39zM123 228q3 11 8.5 22t15.5 16q-11 16 -16 32.5t-9 37.5q-4 -22 -9.5 -39.5t-13.5 -30.5q9 -5 14.5 -16t9.5 -22zM115 202q0 7 -2.5 15.5
t-11.5 8.5q-10 0 -18 -5q14 57 20 127h39q2 -34 8 -65.5t13 -60.5q-7 5 -14 5q-9 0 -14.5 -7.5t-5.5 -17.5q0 -14 9.5 -26t17.5 -18q-11 -30 -20 -63t-14 -79q-5 47 -13.5 80t-19.5 62q8 7 17 18.5t9 25.5z" />
    <glyph glyph-name="cent" unicode="&#xa2;" horiz-adv-x="434" 
d="M155 126v41q-60 24 -97.5 80t-37.5 141q0 69 37 118t98 63v78h84l69 -69v-28q42 -20 70.5 -51.5t28.5 -73.5q0 -26 -13.5 -44.5t-36.5 -24.5l57 -51q0 -57 -28.5 -94.5t-77.5 -52.5v-101h-84zM170 557q-62 -10 -98.5 -55t-36.5 -114q0 -70 37 -114.5t98 -53.5v-79h54v78
q52 7 81.5 40t33.5 90h-44q-5 -41 -23 -65t-48 -26v254q12 -8 12 -21q0 -5 -2 -14t-2 -14q0 -23 14.5 -37.5t37.5 -14.5q24 0 39 15t15 39q0 18 -9 34t-25 28t-36.5 19.5t-43.5 10.5v75h-54v-75zM185 527q-26 -8 -42 -42t-16 -100q-9 7 -16 7q-15 0 -15 -19q0 -7 3.5 -14
t14.5 -10q0 -18 2.5 -42.5t17.5 -42.5q-24 8 -43 31.5t-24 53.5q10 3 13.5 10t3.5 14q0 19 -16 19q-5 0 -10 -2t-9 -4q0 67 36.5 110.5t99.5 48.5v72h24v-71q21 -1 42 -7.5t37 -17t26 -25t10 -31.5q0 -18 -11 -29t-29 -11t-28.5 10.5t-10.5 27.5q0 7 2 14t2 15q0 11 -9 23.5
t-31 14.5v-144q-6 6 -11 6q-7 0 -13 -6v141zM141 388q0 45 7.5 72t21.5 41v-220q-15 18 -22 46.5t-7 60.5zM68 430q8 -7 13.5 -15t8.5 -21q5 27 23 36q0 47 21 75q-19 -5 -40 -26.5t-26 -48.5z" />
    <glyph glyph-name="sterling" unicode="&#xa3;" horiz-adv-x="560" 
d="M429 357q-50 0 -87 26l56 -61v-26h73l74 -69v-66q0 -79 -35.5 -127t-107.5 -48q-36 0 -63 10t-48 21.5t-37.5 21.5t-31.5 10q-29 0 -30 -49h-77l-69 69q-6 21 -12 47t-6 47q0 32 9 58.5t22 44.5l-49 51v76h65q-7 10 -15.5 24t-15.5 32t-11.5 41t-4.5 51q0 48 16.5 83.5
t46 59t70 35t87.5 11.5q64 0 116 -21.5t88.5 -57.5t56 -82.5t19.5 -96.5q0 -52 -28 -83.5t-71 -31.5zM25 332h88q-2 -18 -13 -35l-24 -36t-23 -42.5t-10 -55.5q0 -21 5 -41.5t10 -37.5h50q2 51 44 51q20 0 38 -10l39 -22.5t46 -22.5t59 -10q63 0 92.5 44t29.5 116v51h-45
q0 -39 -17.5 -53.5t-40.5 -14.5q-16 0 -29 6l-26 12.5t-27.5 12.5t-34.5 6q-16 0 -36.5 -2.5t-46.5 -15.5q32 21 53.5 44.5t29.5 55.5h83v46h-80q-2 20 -10 38l-16.5 38.5t-15.5 45t-7 58.5q0 56 25 81.5t70 25.5q23 0 42 -8.5t32.5 -22t21 -30.5t9.5 -35q-9 14 -21.5 23.5
t-30.5 9.5q-25 0 -44.5 -19.5t-19.5 -51.5q0 -25 8.5 -41.5t21 -26.5t27 -14t27.5 -4q38 0 61.5 26.5t23.5 71.5q0 40 -15 72t-41 54t-61.5 34t-77.5 12q-44 0 -81.5 -10.5t-65 -32.5t-43 -54.5t-15.5 -76.5q0 -34 7 -58.5t16.5 -43.5t19.5 -33.5t17 -27.5h-78v-46zM127 602
q-14 -21 -19.5 -47t-5.5 -49q0 -16 2 -30.5t4 -25.5q20 -5 37 -15.5t33 -30.5q-5 17 -5 28q0 15 6 29q-19 15 -29.5 31.5t-15.5 34t-6 36.5t-1 39zM222 390q-33 0 -33 -19q0 -11 5.5 -20t19.5 -14q-5 -21 -19.5 -34.5l-31.5 -28t-33.5 -34t-24.5 -53.5q-3 10 -4 19.5
t-1 19.5q0 17 6 31t13 27t13.5 26.5t6.5 30.5q17 4 25 13.5t8 17.5t-5.5 15t-19.5 7q-7 0 -14 -2.5t-12 -6.5q-23 29 -43 66.5t-20 89.5q0 40 15 70t41 49.5t60.5 29.5t73.5 10q38 0 71 -11t57 -31t38 -49t14 -66q0 -38 -20.5 -60t-49.5 -22q-11 0 -22.5 3.5t-22 11.5
t-17 21.5t-6.5 33.5q0 25 14 40.5t34 15.5q12 0 20.5 -6t14.5 -13t10.5 -13t9.5 -6q4 0 8 3t4 11q0 21 -9 42t-24.5 37.5t-37.5 27t-49 10.5q-51 0 -80.5 -29.5t-29.5 -92.5q0 -32 6 -55.5t13.5 -43t15.5 -36t12 -33.5z" />
    <glyph glyph-name="currency" unicode="&#xa4;" horiz-adv-x="536" 
d="M10 476h44q6 49 19 95t36.5 81t59 56.5t86.5 21.5q17 0 30 -5t22.5 -11.5l17 -11.5t13.5 -5q9 0 12 6.5t3 16.5h72l70 -71v-269h-103l-70 70q0 3 -1 18.5t-3.5 32t-7 30t-11.5 13.5q-9 0 -14.5 -18.5t-7.5 -49.5h9l69 -69v-65h83l68 -83q-1 -41 -9.5 -88.5t-31 -87.5
t-62 -66.5t-102.5 -26.5q-45 0 -83 18.5t-68 52t-51.5 80.5t-33.5 103l-55 55v76h25l-25 25v76zM25 314h46q6 -45 19.5 -87.5t37.5 -75.5t59 -53t82 -20q49 0 79.5 25.5t47 63.5t22 81t5.5 79h-85q-1 -17 -4 -46.5t-10.5 -57.5t-20.5 -48.5t-34 -20.5q-16 0 -27.5 13.5
t-19.5 36t-12.5 51t-6.5 59.5h68v46h-70v55h70v46h-69q1 32 5 63.5t11.5 56t20 40t31.5 15.5q22 0 34.5 -21t19.5 -49t9 -57t2 -44h75v239h-45q-5 -24 -25 -24q-7 0 -15 5.5l-18 12t-23 12t-29 5.5q-51 0 -85 -23.5t-55 -60.5t-31.5 -82t-14.5 -88h-44v-46h41v-30.5t1 -24.5
h-42v-46zM80 393q0 52 8 106.5t27.5 99t53.5 73t87 28.5q17 0 29 -6t22 -12.5t18 -12.5t16 -6q14 0 22.5 8t11.5 18h20v-209h-46q0 20 -3 49.5t-11.5 56.5t-24 46t-40.5 19q-27 0 -44 -23.5t-26 -60t-12 -82.5t-3 -91q-5 4 -9.5 5t-7.5 1q-11 0 -18.5 -7.5t-7.5 -20.5
q0 -8 4 -16t9.5 -14.5t11.5 -11l10 -7.5q-10 -13 -13.5 -28t-3.5 -31q0 -19 4.5 -39t10.5 -36q-39 28 -54 61t-26 73q12 9 21.5 21t9.5 28q0 8 -4.5 17.5t-18.5 9.5q-13 0 -23 -6zM177 602q-38 -35 -54.5 -70.5t-24.5 -70.5q13 -8 22.5 -24t15.5 -33q4 17 13.5 33.5
t22.5 22.5q-8 12 -11 26t-3 29q0 17 5.5 41t13.5 46zM40 430v16h28l-1 -16h-27zM256 446v-16h-55l1 16h54zM256 345v-16h-54l-1 16h55zM40 329v16h28l2 -16h-30z" />
    <glyph glyph-name="yen" unicode="&#xa5;" horiz-adv-x="605" 
d="M134 355h50l-108 214l-66 52v99h530l55 -71v-79q-28 0 -42 -8.5t-25 -29.5l-100 -195l51 -51v-58h-35l35 -35v-74h-8v-119h-258l-71 70v97h12l-20 21v76h15l-15 15v76zM149 203h60q-2 -29 -17 -39t-35 -10v-70h230v70q-22 0 -36 10t-16 39h60v46h-60v45h60v46h-60
l128 249q14 26 28 36t39 10v70h-208v-70q20 0 33 -9t13 -23q0 -8 -7 -24l-61 -125l-62 125q-6 13 -6 24q0 17 15.5 24.5t36.5 7.5v70h-259v-70q20 -2 34 -15.5t28 -39.5l122 -240h-60v-46h60v-45h-60v-46zM150 602q18 -47 26.5 -80t9.5 -61q17 -9 34 -23.5t31 -33.5
q-3 13 -3 25q0 21 10 32q-29 29 -54 62t-54 79zM420 601l-41.5 -71t-47.5 -69q2 -5 2 -10v-10q0 -6 -1 -13t-4 -16q12 17 21 26.5t24 20.5q2 35 17 71zM347 395q-5 2 -12.5 3.5t-13.5 1.5q-17 0 -28 -9.5t-11 -26.5q0 -11 5.5 -19.5t20.5 -14.5q-14 -32 -22.5 -74t-13.5 -79
q-5 37 -14 79t-26 74q14 6 22.5 14.5t8.5 19.5q0 17 -10.5 26.5t-33.5 9.5q-5 0 -12 -1.5t-11 -3.5l-98 194q-3 6 -8 15t-12.5 18t-17 15.5t-20.5 7.5v45h229v-42q-21 -1 -37.5 -10.5t-16.5 -32.5q0 -16 8 -32l77 -154l77 154q4 8 6.5 16.5t2.5 15.5q0 20 -14 31.5t-35 11.5
v42h178v-42q-14 0 -24 -5.5t-18 -13.5t-13 -16.5t-8 -14.5z" />
    <glyph glyph-name="dieresis" unicode="&#xa8;" horiz-adv-x="398" 
d="M204 727q-23 0 -40 7.5t-29 20t-18 28.5t-6 32q0 26 17 41.5t41 15.5q21 0 38.5 -10t30.5 -24q7 16 21.5 25t32.5 9q20 0 37 -8t29.5 -21t19.5 -28.5t7 -31.5q0 -32 -18 -44t-40 -12q-23 0 -40.5 8t-29.5 21q-8 -17 -22.5 -23t-30.5 -6zM124 815q0 -20 12 -32t32 -12
t32 11.5t12 32.5q0 20 -12.5 31.5t-31.5 11.5q-18 0 -31 -11.5t-13 -31.5zM260 815q0 14 9 22.5t23 8.5q13 0 22 -8.5t9 -22.5t-8.5 -22.5t-22.5 -8.5t-23 8.5t-9 22.5zM137 815q0 14 9 22t22 8q14 0 22.5 -8.5t8.5 -21.5q0 -15 -8.5 -23t-22.5 -8t-22.5 8.5t-8.5 22.5z
M247 815q0 -20 12.5 -32t32.5 -12q19 0 31.5 12t12.5 32t-13 32t-31 12q-19 0 -32 -12t-13 -32z" />
    <glyph glyph-name="copyright" unicode="&#xa9;" horiz-adv-x="636" 
d="M586 359q0 -63 -22 -116.5t-61 -92.5t-92 -60.5t-115 -21.5q-63 0 -116 22t-92 61t-61 92.5t-22 115.5q0 61 22.5 114t61.5 92t92 61.5t115 22.5t115 -21.5t92 -60t61 -92t22 -116.5zM532 359q0 51 -18 94t-49.5 75t-74.5 50t-94 18q-50 0 -93.5 -18t-75 -50t-49.5 -75
t-18 -94t17.5 -94t49 -75t75 -50t94.5 -18t94 18t74.5 49.5t49.5 75t18 94.5zM415 424q0 -20 -11.5 -32.5t-32.5 -12.5q-20 0 -32.5 12t-12.5 32q0 5 2 12t2 12q0 10 -6.5 17t-21.5 7q-23 0 -38.5 -26.5t-15.5 -86.5q0 -45 16 -76.5t51 -31.5q28 0 41.5 19t18.5 55h44
q-3 -54 -35 -83t-87 -29q-63 0 -102 39.5t-39 106.5q0 33 10.5 60t29 46.5t45 30.5t58.5 11q22 0 42.5 -6t37 -16.5t26.5 -26t10 -33.5z" />
    <glyph glyph-name="registered" unicode="&#xae;" horiz-adv-x="429" 
d="M389 513q0 -41 -13.5 -75.5t-38.5 -59.5t-59 -38.5t-74 -13.5q-41 0 -75.5 14t-59 38.5t-38.5 59t-14 75.5q0 40 14 74t39 58.5t59.5 38.5t74.5 14t74 -13.5t59 -38t38.5 -58.5t13.5 -75zM355 513q0 33 -11 60.5t-31.5 48t-48 31.5t-60.5 11t-60.5 -11t-48 -31.5
t-31.5 -48t-11 -60.5t11 -61t31 -48.5t48 -31.5t61 -11t61 11.5t48 32t31 48t11 60.5zM221 620q29 0 51.5 -13.5t22.5 -45.5q0 -20 -13 -32t-34 -18q23 -3 30 -14.5t10 -24.5t7.5 -25t22.5 -16q-2 -10 -11.5 -18.5t-26.5 -8.5q-25 0 -34.5 15t-12.5 36q-3 20 -8.5 33.5
t-28.5 13.5h-7t-8 -1v-48q0 -11 6.5 -15t16.5 -4v-28h-101v28q9 0 16 4t7 15v121q0 11 -7 14.5t-16 3.5v28h118zM203 590q-8 0 -15 -3t-7 -13v-49q23 0 39.5 7.5t16.5 27.5q0 12 -8.5 21t-25.5 9z" />
    <glyph glyph-name="degree" unicode="&#xb0;" horiz-adv-x="247" 
d="M163 663q0 28 -18.5 47.5t-50.5 19.5t-51 -20t-19 -48q0 -32 20 -49t50 -17t49.5 18.5t19.5 48.5zM125 663q0 -14 -8.5 -22t-21.5 -8t-22.5 7.5t-9.5 21.5q0 11 8 21t23 10t23 -9.5t8 -20.5zM150 663q0 -24 -16 -39.5t-40 -15.5q-25 0 -41 14t-16 40q0 23 15.5 39
t41.5 16t41 -15.5t15 -38.5zM138 663q0 17 -12 29.5t-32 12.5t-32 -13.5t-12 -29.5q0 -20 13 -31t31 -11t31 11.5t13 31.5zM140 531q-26 0 -49 9t-41 26.5t-28.5 41.5t-10.5 54q0 33 22.5 57t60.5 24q30 0 53.5 -12.5t40 -31.5t25.5 -43t9 -46q0 -36 -23 -57.5t-59 -21.5z
" />
    <glyph glyph-name="plusminus" unicode="&#xb1;" horiz-adv-x="425" 
d="M20 272h110v51h-41l-69 69v96h110v120h96l69 -69v-51h41l69 -69v-96h-110v-51h41l69 -69v-96h-316l-69 69v96zM211 287v120h110v66h-110v120h-66v-120h-110v-66h110v-120h66zM50 458h110v120h36v-120h110v-36h-110v-120h-36v120h-110v36zM35 191h286v66h-286v-66zM50 242
h256v-36h-256v36z" />
    <glyph glyph-name="acute" unicode="&#xb4;" horiz-adv-x="555" 
d="M231 742l131 59l-65 40l-102 -76zM222 766l75 57l32 -20l-97 -44zM167 763l130 96l60 -20l98 -60l-165 -74l-60 20z" />
    <glyph glyph-name="cedilla" unicode="&#xb8;" horiz-adv-x="417" 
d="M149 -50q19 -35 42.5 -45.5t44.5 -10.5q38 0 62 18.5t24 60.5q0 36 -20.5 53t-41.5 22l16 43h-55l-31 -84q3 0 6.5 0.5t8.5 0.5q17 0 33.5 -8t16.5 -29q0 -14 -9.5 -20t-22.5 -6q-28 0 -48 32zM211 105h86l54 -54l-17 -48q22 -8 39 -29t17 -56q0 -50 -29.5 -71t-71.5 -21
q-52 0 -94.5 35t-62.5 92l38 40z" />
    <glyph glyph-name="onequarter" unicode="&#xbc;" horiz-adv-x="379" 
d="M87 496q9 0 15 3t6 10v59l-35 36v61q23 3 36.5 19.5t16.5 35.5h54l51 -51v-190l21 -24v-37h42l55 -54v-70h-111l20 -21v-113l37 -37v-54h-31l15 -17v-52h-118l-47 51v18h-16l-51 51v45l82 129h-64l-45 55v69h94l-27 29v49zM118 508q0 -13 -6 -17.5t-15 -4.5v-29h94v29
q-9 0 -15 4t-6 18v202h-35q-3 -19 -17.5 -35.5t-34.5 -19.5v-41q11 0 20.5 3.5t14.5 8.5v-118zM129 647q-8 -11 -18.5 -15.5t-18.5 -6.5v22q20 5 33 19.5t18 33.5h17v-117q-4 0 -7.5 -2.5t-3.5 -6.5t2.5 -9.5t9.5 -7.5q-6 -14 -10.5 -31t-6.5 -31q-2 14 -7 31t-10 31
q13 5 13 17q0 10 -11 10v63zM145 238v-84h-54zM157 610q-4 11 -7.5 24t-5.5 32q-2 -19 -5 -32t-7 -24q9 -8 12 -23q4 16 13 23zM33 359h251v46h-251v-46zM46 392h225v-20h-225v20zM100 188h-15l76 115h26v-115q-3 0 -7 -2.5t-4 -7.5q0 -4 2.5 -9.5t8.5 -7.5
q-5 -13 -9.5 -30.5t-6.5 -31.5q-2 14 -7 31.5t-11 30.5q14 5 14 17q0 11 -12 11v82zM171 272q-2 -19 -5 -33t-7 -25q9 -8 12 -22q4 15 13 22q-4 12 -7.5 25.5t-5.5 32.5zM145 112q0 -13 -6.5 -17.5t-14.5 -4.5v-29h94v29q-10 0 -15.5 4t-5.5 18v19h37v23h-37v160h-43
l-96 -151v-32h87v-19z" />
    <glyph glyph-name="onehalf" unicode="&#xbd;" horiz-adv-x="379" 
d="M241 294q23 -19 36.5 -44.5t13.5 -52.5q0 -25 -6.5 -41.5t-17.5 -27.5l24 -28v-30q0 -35 -12.5 -55.5t-43.5 -20.5q-14 0 -24.5 4t-18.5 9.5t-15 9.5t-14 4q-8 0 -8 -21h-38l-50 50q-4 10 -6.5 24.5t-2.5 23.5q0 29 10 49t24 32q-15 11 -25 29t-10 41q0 24 13 45h-5
l-45 55v69h94l-27 29v49q9 0 15 3t6 10v59l-35 36v61q23 3 36.5 19.5t16.5 35.5h54l51 -51v-190l21 -24v-37h42l55 -54v-70h-108zM118 508q0 -13 -6 -17.5t-15 -4.5v-29h94v29q-9 0 -15 4t-6 18v202h-35q-3 -19 -17.5 -35.5t-34.5 -19.5v-41q11 0 20.5 3.5t14.5 8.5v-118z
M33 359h251v46h-251v-46zM129 647q-8 -11 -18.5 -15.5t-18.5 -6.5v22q20 5 33 19.5t18 33.5h17v-117q-4 0 -7.5 -2.5t-3.5 -6.5t2.5 -9.5t9.5 -7.5q-6 -14 -10.5 -30.5t-6.5 -30.5q-2 14 -7 30.5t-10 30.5q13 5 13 17q0 10 -11 10v63zM46 392h225v-20h-225v20zM197 272
q0 -20 -3 -33.5t-18 -24.5q0 -12 -7 -23q11 9 19 13t16 6q4 8 4 24q0 7 -2.5 17.5t-8.5 20.5zM157 610q-4 11 -7.5 23.5t-5.5 30.5q-2 -18 -5 -31t-7 -23q9 -8 12 -23q4 16 13 23zM145 320q-31 0 -54.5 -19t-23.5 -52q0 -19 10 -30t24 -11q13 0 23.5 8t10.5 28q0 13 -7 21
t-18 8t-18 -12q2 12 14.5 22t28.5 10q17 0 26.5 -9.5t9.5 -29.5q0 -19 -7.5 -31t-19 -20.5t-25 -16.5t-25 -19t-19 -27t-7.5 -42q0 -8 2 -19.5t4 -18.5h21q0 21 18 21q8 0 15 -4t15 -9.5t18 -9.5t24 -4q26 0 36 18t10 48v20h-21q0 -14 -5.5 -20t-13.5 -6q-12 0 -23.5 7.5
t-28.5 7.5t-31 -9t-19 -28q0 4 -0.5 8t-0.5 7q0 16 10.5 24t26.5 14t34.5 11.5t34.5 16t26.5 28t10.5 46.5q0 36 -25.5 54.5t-60.5 18.5zM194 184q-6 3 -15 3q-8 0 -16.5 -8t-8.5 -16q-21 -2 -40.5 -10t-33.5 -30q5 22 18 34.5t23 17.5q3 -1 8 -1q11 0 20 4.5t9 8.5
q0 3 -8 3q-5 0 -11 -2q16 11 29 25.5t13 40.5t-12.5 37t-32.5 11t-36 -14.5t-16 -32.5q0 -6 4 -6t8.5 7.5t13.5 7.5q8 0 11.5 -6.5t3.5 -13.5q0 -14 -7 -19.5t-16 -5.5q-11 0 -18.5 8t-7.5 22q0 29 20 46t49 17q32 0 54 -16.5t22 -48.5q0 -23 -8 -39t-19 -24z" />
    <glyph glyph-name="threequarters" unicode="&#xbe;" horiz-adv-x="362" 
d="M116 572q-27 9 -47.5 31t-20.5 53q0 38 25 54.5t59 16.5q29 0 53.5 -10t42.5 -26.5t28 -39t10 -47.5q0 -41 -26 -57q14 -10 24 -27t10 -39q0 -44 -30 -63h33l55 -54v-70h-101l20 -21v-113l37 -37v-54h-31l15 -17v-52h-118l-47 51v18h-16l-51 51v45l82 129h-57l-45 55v69
h87q-29 15 -47.5 42t-18.5 65q0 23 11.5 37.5t31.5 14.5q19 0 38 -15t30 -36q0 24 -11 35t-25 11zM138 112q0 -13 -6.5 -17.5t-14.5 -4.5v-29h94v29q-10 0 -15.5 4t-5.5 18v19h37v23h-37v160h-43l-96 -151v-32h87v-19zM172 592q19 5 30 17t11 40q0 36 -24.5 52t-56.5 16
q-30 0 -52 -14t-22 -47q0 -17 8.5 -27t22.5 -10t21 8t7 22q0 9 -4.5 17.5t-14.5 8.5q-6 0 -10 -5t-5 -12q-2 1 -3 4t-1 6q0 12 12.5 18.5t25.5 6.5q20 0 31 -9t11 -32q0 -44 -35 -44v-28q14 0 26 -10t12 -40q0 -32 -13 -44.5t-32 -12.5q-5 0 -12 1.5t-14 5.5t-11.5 11.5
t-4.5 18.5q0 5 1 8q2 -8 8 -12.5t11 -4.5q10 0 14.5 9t4.5 20q0 19 -8.5 28t-21.5 9q-16 0 -24.5 -11.5t-8.5 -30.5q0 -38 25 -53.5t57 -15.5q38 0 63 16t25 54q0 27 -14.5 44t-34.5 22zM162 589q0 -12 13.5 -17t23.5 -12q3 -9 3 -18q0 -24 -18 -42q3 9 3 19q0 11 -5 21.5
t-17 15.5q0 11 -5.5 21.5t-17.5 10.5q-4 0 -10 -2v14q20 2 28.5 16t8.5 36q0 26 -14 38t-37 12q-14 0 -30 -8t-16 -27q0 -6 3 -11t8 -5t6 7.5t9 7.5q6 0 8.5 -5t2.5 -12q0 -9 -5.5 -15t-15.5 -6q-23 0 -23 29t19 40.5t47 11.5q30 0 51 -14t21 -46q0 -21 -6.5 -30.5
t-14 -14.5t-14 -7t-6.5 -8zM93 188h-15l76 115h26v-115q-3 0 -7 -2.5t-4 -7.5q0 -4 2.5 -9.5t8.5 -7.5q-5 -13 -9.5 -30t-6.5 -31q-2 14 -7 31t-11 30q14 5 14 17q0 11 -12 11v82zM46 392h208v-20h-208v20zM138 238v-84h-54zM181 672q2 -10 2 -14q0 -8 -2 -18t-12 -16
q-1 -10 -5.5 -15.5t-13.5 -12.5q30 10 41 27q3 6 3 16q0 7 -2.5 17t-10.5 16zM177 214q-4 11 -7.5 24.5t-5.5 31.5q-2 -18 -5 -31.5t-7 -24.5q9 -8 12 -22q4 15 13 22zM33 359h234v46h-234v-46z" />
    <glyph glyph-name="questiondown" unicode="&#xbf;" horiz-adv-x="508" 
d="M241 -88q39 0 72 8.5t58 27t39 47t14 69.5q0 42 -23 67t-58 25q-38 0 -59 -23.5t-21 -54.5q0 -32 16.5 -53.5t43.5 -21.5q16 0 28.5 10t18.5 27q0 -30 -23.5 -53t-65.5 -23q-22 0 -38.5 9.5t-27.5 25.5t-16.5 37t-5.5 44q0 37 7.5 63t18.5 45.5t23.5 34.5t23.5 31
t18.5 34.5t7.5 44.5t-7 55h-73q0 -40 -13 -66.5t-33 -46t-42.5 -36t-42.5 -37.5t-33 -49.5t-13 -71.5q0 -42 16.5 -73.5t45 -53t65.5 -32t79 -10.5zM281 -21q11 0 20.5 2t17.5 5q-23 0 -40 14q0 -5 0.5 -10.5t1.5 -10.5zM139 232q16 12 31 25.5t27 30t20 37t10 48.5h46
q2 -12 3 -21.5t1 -18.5q0 -31 -14.5 -55.5t-28.5 -43.5q-10 0 -20.5 -3t-19 -9t-14 -14.5t-5.5 -18.5q0 -9 6 -19q-32 -20 -45 -58.5t-14 -79.5q-12 22 -17 46.5t-5 47.5q0 14 2 26.5t4 22.5q7 2 17 6t19 10t15.5 13t6.5 16q0 14 -13 14q-4 0 -12 -2zM202 243q14 16 29 28.5
t29 17.5q-7 18 -8 36t-1 38q-6 -22 -13.5 -39t-30.5 -34q4 -5 4 -14q0 -7 -2.5 -16.5t-6.5 -16.5zM366 334q10 -43 10 -70q0 -29 -10.5 -52.5t-22.5 -40.5q35 0 65.5 -14.5t52.5 -38.5t34.5 -56t12.5 -67q0 -45 -15.5 -76.5t-42 -51.5t-62.5 -29.5t-78 -9.5q-63 0 -116 20.5
t-92 55.5t-60.5 81t-21.5 96q0 36 8.5 61.5t22 45.5t31 35l35.5 30l29.5 24.5t25.5 30t18 40.5t7 55h14q-23 20 -34 47.5t-11 51.5q0 16 6 31t16.5 27t26 19t35.5 7q28 0 54.5 -10t47 -28t33 -42.5t12.5 -53.5q0 -35 -17.5 -56.5t-45.5 -29.5zM181 502q0 -29 19.5 -49.5
t49.5 -20.5q29 0 48.5 20.5t19.5 49.5t-19.5 49t-48.5 20q-30 0 -49.5 -20t-19.5 -49zM196 502q0 23 15.5 38.5t38.5 15.5t38 -15.5t15 -38.5t-15 -39t-38 -16t-38.5 16t-15.5 39z" />
    <glyph glyph-name="quoteleft" unicode="&#x2018;" horiz-adv-x="315" 
d="M124 613q-14 0 -24 -6q11 30 35 57t54 41l-16 22q-33 -14 -56.5 -35.5t-38.5 -45.5t-22 -48t-7 -45q0 -39 20.5 -59t51.5 -20q30 0 49.5 20.5t19.5 49.5t-17.5 49t-48.5 20zM175 545q0 -23 -15 -39t-39 -16q-29 0 -41.5 19.5t-12.5 44.5q0 26 10 51t21 42q-4 -13 -7 -28
t-3 -32q7 5 16.5 8t18.5 3q23 0 37.5 -15t14.5 -38zM199 608q17 -9 29.5 -22t21 -28.5t13 -32.5t4.5 -32q0 -37 -25 -61.5t-64 -24.5q-27 0 -53 10t-46 29.5t-32 48.5t-12 66q0 33 12 63.5t33.5 56t51 45.5t64.5 31l78 -88q-20 -8 -40.5 -24.5t-34.5 -36.5z" />
    <glyph glyph-name="quoteright" unicode="&#x2019;" 
d="M65 651q0 23 15 39t39 16q29 0 41.5 -19.5t12.5 -44.5q0 -26 -10 -51t-21 -42q4 13 7 28t3 32q-7 -5 -16.5 -8t-18.5 -3q-23 0 -37.5 15t-14.5 38zM118 584q7 0 12 1.5t10 3.5q-3 -26 -23.5 -58t-49.5 -55l17 -15q29 18 49.5 42t33 49.5t18.5 49.5t6 42q0 39 -21.5 58.5
t-50.5 19.5q-30 0 -49.5 -20.5t-19.5 -49.5t18.5 -48.5t49.5 -19.5zM99 536q-17 9 -29 22t-20 28.5t-12 32.5t-4 32q0 37 23.5 61.5t62.5 24.5q27 0 53 -10t46 -29.5t32 -48.5t12 -66q0 -33 -11.5 -63.5t-32.5 -56t-50.5 -45.5t-64.5 -31l-74 72q17 14 35.5 34t33.5 43z" />
    <glyph glyph-name="quotesinglbase" unicode="&#x201a;" 
d="M118 64q7 0 12 1.5t10 3.5q-3 -26 -23.5 -58t-49.5 -55l17 -15q29 18 49.5 42t33 49.5t18.5 49.5t6 42q0 39 -21.5 58.5t-50.5 19.5q-30 0 -49.5 -20.5t-19.5 -49.5t18.5 -48.5t49.5 -19.5zM99 16q-17 9 -29 22t-20 28.5t-12 32.5t-4 32q0 37 23.5 61.5t62.5 24.5
q27 0 53 -10t46 -29.5t32 -48.5t12 -66q0 -33 -11.5 -63.5t-32.5 -56t-50.5 -45.5t-64.5 -31l-74 72q17 14 35.5 34t33.5 43zM65 133q0 23 15 39t39 16q29 0 41.5 -19.5t12.5 -44.5q0 -26 -10 -51t-21 -42q4 13 7 28t3 32q-7 -5 -16.5 -8t-18.5 -3q-23 0 -37.5 15t-14.5 38z
" />
    <glyph glyph-name="quotedblleft" unicode="&#x201c;" horiz-adv-x="468" 
d="M289 615q-11 0 -21 -7q1 10 8 23.5t18 27t25.5 25t30.5 19.5l-18 19q-30 -13 -51 -33t-34 -43t-19 -47t-6 -45q0 -39 19 -59t46 -20q26 0 44 20t18 50q0 29 -15 49.5t-45 20.5zM333 546q0 -23 -12.5 -39t-33.5 -16q-26 0 -36.5 19t-10.5 45t8.5 51.5t18.5 41.5
q-4 -12 -6.5 -27.5t-2.5 -32.5q6 5 14 8t16 3q21 0 33 -15t12 -38zM157 546q0 -23 -12.5 -39t-33.5 -16q-26 0 -36.5 19t-10.5 45t8.5 51.5t18.5 41.5q-4 -12 -6.5 -27.5t-2.5 -32.5q6 5 14 8t16 3q21 0 33 -15t12 -38zM179 601q17 -9 29 -24q7 58 43.5 104t89.5 70l75 -75
q-18 -14 -34 -32.5t-27 -42.5q32 -17 49.5 -49.5t17.5 -67.5q0 -37 -24.5 -60.5t-60.5 -23.5q-29 0 -56 13.5t-46 40.5q-8 -24 -29 -39t-47 -15t-49 10t-41 29.5t-28.5 48.5t-10.5 67q0 33 10.5 62.5t28.5 55t42.5 45.5t53.5 33l78 -76q-17 -12 -35 -31.5t-29 -42.5z
M113 615q-11 0 -21 -7q1 10 8 23.5t18 27t25.5 25t30.5 19.5l-18 19q-30 -13 -51 -33t-34 -43t-19 -47t-6 -45q0 -39 19 -59t46 -20q26 0 44 20.5t18 49.5t-15 49.5t-45 20.5z" />
    <glyph glyph-name="quotedblright" unicode="&#x201d;" horiz-adv-x="466" 
d="M267 536q-17 9 -29 24q-7 -58 -43.5 -104t-89.5 -70l-74 72q14 14 30 34.5t30 43.5q-15 9 -26.5 22t-19 28.5t-11.5 32.5t-4 32q0 37 22 61.5t57 24.5q29 0 56 -13.5t46 -40.5q8 24 28 39t46 15q25 0 49 -10t42 -29.5t29 -48.5t11 -67q0 -33 -10.5 -62.5t-28.5 -54.5
t-43 -45.5t-53 -33.5l-74 72q14 14 30 34.5t30 43.5zM106 582q10 0 21 7q-3 -26 -21 -58t-43 -56l18 -17q26 18 44 43t28.5 50.5t15 49.5t4.5 42q0 39 -19 59t-46 20q-26 0 -44 -20.5t-18 -49.5t15 -49.5t45 -20.5zM62 651q0 23 12.5 39t33.5 16q26 0 36.5 -19t10.5 -45
t-8.5 -51.5t-18.5 -41.5q4 12 6.5 27.5t2.5 32.5q-6 -5 -14 -8t-16 -3q-21 0 -33 15t-12 38zM238 651q0 23 12.5 39t33.5 16q26 0 36.5 -19t10.5 -45t-8.5 -51.5t-18.5 -41.5q4 12 6.5 27.5t2.5 32.5q-6 -5 -14 -8t-16 -3q-21 0 -33 15t-12 38zM282 582q10 0 21 7
q-3 -26 -21 -58t-43 -56l18 -17q26 18 44 43t28.5 50.5t15 49.5t4.5 42q0 39 -19 59t-46 20q-26 0 -44 -20.5t-18 -49.5t15 -49.5t45 -20.5z" />
    <glyph glyph-name="quotedblbase" unicode="&#x201e;" horiz-adv-x="466" 
d="M267 16q-17 9 -29 24q-7 -58 -43.5 -104t-89.5 -70l-74 72q14 14 30 34.5t30 43.5q-15 9 -26.5 22t-19 28.5t-11.5 32.5t-4 32q0 37 22 61.5t57 24.5q29 0 56 -13.5t46 -40.5q8 24 28 39t46 15q25 0 49 -10t42 -29.5t29 -48.5t11 -67q0 -33 -10.5 -62.5t-28.5 -54.5
t-43 -45.5t-53 -33.5l-74 72q14 14 30 34.5t30 43.5zM106 62q10 0 21 7q-3 -26 -21 -58t-43 -56l18 -17q26 18 44 43t28.5 50.5t15 49.5t4.5 42q0 39 -19 59t-46 20q-26 0 -44 -20.5t-18 -49.5t15 -49.5t45 -20.5zM282 62q10 0 21 7q-3 -26 -21 -58t-43 -56l18 -17
q26 18 44 43t28.5 50.5t15 49.5t4.5 42q0 39 -19 59t-46 20q-26 0 -44 -20.5t-18 -49.5t15 -49.5t45 -20.5zM61 132q0 23 12.5 39t33.5 16q26 0 36.5 -19t10.5 -45t-8.5 -51.5t-18.5 -41.5q4 12 6.5 27.5t2.5 32.5q-6 -5 -14 -8t-16 -3q-21 0 -33 15t-12 38zM237 132
q0 23 12.5 39t33.5 16q26 0 36.5 -19t10.5 -45t-8.5 -51.5t-18.5 -41.5q4 12 6.5 27.5t2.5 32.5q-6 -5 -14 -8t-16 -3q-21 0 -33 15t-12 38z" />
    <glyph glyph-name="ellipsis" unicode="&#x2026;" horiz-adv-x="900" 
d="M45 132q0 -29 19.5 -48.5t49.5 -19.5q29 0 48.5 19.5t19.5 48.5t-19.5 49.5t-48.5 20.5q-30 0 -49.5 -20.5t-19.5 -49.5zM169 -2q-30 0 -55.5 12.5t-44 32t-29 43t-10.5 46.5q0 38 23 62t62 24q27 0 53 -11t45.5 -29.5t31.5 -43t12 -51.5q0 -37 -24.5 -61t-63.5 -24z
M341 132q0 -29 19.5 -48.5t49.5 -19.5q29 0 48.5 19.5t19.5 48.5t-19.5 49.5t-48.5 20.5q-30 0 -49.5 -20.5t-19.5 -49.5zM465 -2q-30 0 -55.5 12.5t-44 32t-29 43t-10.5 46.5q0 38 23 62t62 24q27 0 53 -11t45.5 -29.5t31.5 -43t12 -51.5q0 -37 -24.5 -61t-63.5 -24z
M638 132q0 -29 19.5 -48.5t49.5 -19.5q29 0 48.5 19.5t19.5 48.5t-19.5 49.5t-48.5 20.5q-30 0 -49.5 -20.5t-19.5 -49.5zM762 -2q-30 0 -55.5 12.5t-44 32t-29 43t-10.5 46.5q0 38 23 62t62 24q27 0 53 -11t45.5 -29.5t31.5 -43t12 -51.5q0 -37 -24.5 -61t-63.5 -24z
M60 132q0 23 15.5 39t38.5 16t38 -16t15 -39t-15 -38t-38 -15t-38.5 15t-15.5 38zM356 132q0 23 15.5 39t38.5 16t38 -16t15 -39t-15 -38t-38 -15t-38.5 15t-15.5 38zM653 132q0 23 15.5 39t38.5 16t38 -16t15 -39t-15 -38t-38 -15t-38.5 15t-15.5 38z" />
    <glyph glyph-name="perthousand" unicode="&#x2030;" horiz-adv-x="1122" 
d="M151 84h56l366 622h-58zM735 289q6 26 19 49.5t32 41t45 27.5t59 10q46 0 85 -18.5t67.5 -51t44 -76t15.5 -94.5q0 -45 -12.5 -79.5t-35 -58t-52.5 -35t-64 -11.5q-60 0 -109.5 31t-76.5 90q-7 -29 -23 -51.5t-38 -38t-48 -23.5t-53 -8q-42 0 -80 15.5t-67 45.5t-46 74.5
t-17 101.5l-135 -230h-82l-37 69l143 244q-11 -3 -23.5 -5t-25.5 -2q-42 0 -80 16t-67 46.5t-46 75.5t-17 102q0 42 12 76t33.5 58t51.5 37t65 13q45 0 82.5 -17t65 -46.5t44 -70t19.5 -88.5l125 213h83l37 -69l-144 -245q28 10 58 10q63 0 113.5 -30.5t79.5 -97.5zM372 394
q-9 -1 -17 -13t-14.5 -27.5t-11.5 -31.5t-7 -24q-9 -9 -17 -18t-17 -21l-19.5 -27l-24.5 -35l25 48.5t17 52.5q5 5 16 18t22 28l19.5 27.5t8.5 17.5t-6 5l175 297h27zM457 556l-30.5 -46t-30.5 -40q-4 -15 -11 -30l-15 -31l22.5 34t21.5 27q8 23 20.5 46zM542 364
q24 0 38.5 -33.5t14.5 -97.5q0 -56 -13.5 -93.5t-39.5 -37.5q-15 0 -24.5 12.5t-15.5 31.5t-8.5 42t-2.5 45q0 71 15.5 101t35.5 30zM394 233q0 -39 11 -70.5t30.5 -54t46.5 -34.5t60 -12q64 0 106 43t42 128q0 39 -11 71t-31 54t-47 34t-59 12q-66 0 -107 -46.5t-41 -124.5
zM661 275q-2 14 -8.5 26.5t-15 23t-18 17.5t-18.5 9q11 -15 15 -33t4 -43q18 -10 21 -36q3 13 8.5 21.5t11.5 14.5zM477 231q-6 6 -16 6q-6 0 -9 -5t-3 -13t4 -15t12 -10q0 -18 2.5 -43t16.5 -43q-22 8 -39 32.5t-22 53.5q8 3 11.5 10t3.5 15t-4.5 13t-10.5 5q-10 0 -16 -6
q0 73 37 116t98 43q60 0 97.5 -42.5t37.5 -116.5q-3 3 -8 4.5t-9 1.5q-6 0 -9.5 -5t-3.5 -13t3 -15t12 -10q-5 -29 -22 -53.5t-39 -32.5q14 18 16.5 43t2.5 43q8 3 12.5 10t4.5 15t-3.5 13t-9.5 5q-9 0 -15 -6q0 72 -19 110t-48 38q-11 0 -22.5 -8t-21 -25.5t-15.5 -45.5
t-6 -69zM424 275q7 -6 12.5 -14.5t7.5 -21.5q5 26 21 36q0 47 19 76q-9 -2 -18.5 -9t-18 -17.5t-15 -23t-8.5 -26.5zM172 677q24 0 38.5 -33.5t14.5 -97.5q0 -56 -13.5 -93.5t-39.5 -37.5q-15 0 -24.5 12.5t-15.5 31.5t-8.5 42t-2.5 45q0 71 15.5 101t35.5 30zM24 546
q0 -39 11 -70.5t30.5 -54t46.5 -34.5t60 -12q64 0 106 43t42 128q0 39 -11 71t-31 54t-47 34t-59 12q-66 0 -107 -46.5t-41 -124.5zM291 588q-2 14 -8.5 26.5t-15 23t-18 17.5t-18.5 9q11 -15 15 -33t4 -43q18 -10 21 -36q3 13 8.5 21.5t11.5 14.5zM107 544q-6 6 -16 6
q-6 0 -9 -5t-3 -13t4 -15t12 -10q0 -18 2.5 -43t16.5 -43q-22 8 -39 32.5t-22 53.5q8 3 11.5 10t3.5 15t-4.5 13t-10.5 5q-10 0 -16 -6q0 73 37 116t98 43q60 0 97.5 -42.5t37.5 -116.5q-3 3 -8 4.5t-9 1.5q-6 0 -9.5 -5t-3.5 -13t3 -15t12 -10q-5 -29 -22 -53.5t-39 -32.5
q14 18 16.5 43t2.5 43q8 3 12.5 10t4.5 15t-3.5 13t-9.5 5q-9 0 -15 -6q0 72 -19 110t-48 38q-11 0 -22.5 -8t-21 -25.5t-15.5 -45.5t-6 -69zM54 588q7 -6 12.5 -14.5t7.5 -21.5q5 26 21 36q0 47 19 76q-9 -2 -18.5 -9t-18 -17.5t-15 -23t-8.5 -26.5zM890 364
q24 0 38.5 -33.5t14.5 -97.5q0 -56 -13.5 -93.5t-39.5 -37.5q-15 0 -24.5 12.5t-15.5 31.5t-8.5 42t-2.5 45q0 71 15.5 101t35.5 30zM742 233q0 -39 11 -70.5t30.5 -54t46.5 -34.5t60 -12q64 0 106 43t42 128q0 39 -11 71t-31 54t-47 34t-59 12q-66 0 -107 -46.5t-41 -124.5
zM1009 275q-2 14 -8.5 26.5t-15 23t-18 17.5t-18.5 9q11 -15 15 -33t4 -43q18 -10 21 -36q3 13 8.5 21.5t11.5 14.5zM825 231q-6 6 -16 6q-6 0 -9 -5t-3 -13t4 -15t12 -10q0 -18 2.5 -43t16.5 -43q-22 8 -39 32.5t-22 53.5q8 3 11.5 10t3.5 15t-4.5 13t-10.5 5q-10 0 -16 -6
q0 73 37 116t98 43q60 0 97.5 -42.5t37.5 -116.5q-3 3 -8 4.5t-9 1.5q-6 0 -9.5 -5t-3.5 -13t3 -15t12 -10q-5 -29 -22 -53.5t-39 -32.5q14 18 16.5 43t2.5 43q8 3 12.5 10t4.5 15t-3.5 13t-9.5 5q-9 0 -15 -6q0 72 -19 110t-48 38q-11 0 -22.5 -8t-21 -25.5t-15.5 -45.5
t-6 -69zM772 275q7 -6 12.5 -14.5t7.5 -21.5q5 26 21 36q0 47 19 76q-9 -2 -18.5 -9t-18 -17.5t-15 -23t-8.5 -26.5z" />
    <glyph glyph-name="trademark" unicode="&#x2122;" horiz-adv-x="310" 
d="M113 720v-61h-17v2q0 15 -2 28t-10 13q-7 0 -7 -18v-88q0 -14 13 -14v-17h-57v17q13 0 13 14v88q0 18 -7 18q-8 0 -10 -13t-2 -28v-2h-17v61h103zM204 646l16 74h60v-17q-13 0 -13 -14v-93q0 -14 13 -14v-17h-58v17q13 0 13 14v93l-27 -124h-19l-27 124v-93q0 -8 6 -11
t10 -3v-17h-53v17q16 0 16 14v93q0 8 -5 11t-11 3v17h63z" />
    <glyph glyph-name="afii61352" unicode="&#x2116;" horiz-adv-x="966" 
d="M567 359h59q-48 39 -69 104v-463h-172l-64 70v-70h-231l-65 70v97q29 0 46.5 10t17.5 48v344l-64 52v99h240l45 -51v51h219l50 -52q23 28 56 43.5t75 15.5q51 0 93 -21t72 -55t47 -77.5t17 -88.5q0 -48 -14.5 -82t-40.5 -56l57 -57v-86h-305l-69 69v86zM461 84v496
q0 32 14.5 43.5t39.5 11.5v70h-190v-70q25 0 39.5 -12t14.5 -44v-210l-124 336h-215v-70q25 0 44.5 -12t19.5 -44v-369q0 -32 -17 -44t-47 -12v-70h210v70q-8 0 -18.5 2.5t-21 9t-17.5 17t-7 27.5v278l152 -404h123zM557 555q0 -73 42.5 -116t110.5 -43q66 0 109 40t43 119
q0 37 -11.5 66t-31.5 49.5t-48 31.5t-61 11q-34 0 -62 -11t-48.5 -32t-31.5 -50t-11 -65zM355 393q-6 3 -16.5 5t-16.5 2q-14 0 -14 -11q0 -18 14.5 -34.5t31.5 -24.5q0 -28 2.5 -68.5t9.5 -85.5q-20 49 -39 86t-45 67q15 10 15 33q0 14 -10.5 26t-25.5 12q-5 0 -11.5 -1
t-11.5 -3l-67 167v-166q-4 2 -5 3t-4 1q-11 0 -11 -29q0 -12 3.5 -24.5t13.5 -17.5q-8 -32 -13.5 -74t-9.5 -79q-4 37 -9.5 79t-13.5 74q10 5 13.5 17.5t3.5 24.5q0 29 -11 29q-2 0 -9 -4v191q0 29 -19.5 44.5t-44.5 15.5v42h190zM500 648q-25 0 -39.5 -15.5t-14.5 -44.5
v-191q-4 2 -5 3t-4 1q-11 0 -11 -29q0 -12 3.5 -24.5t13.5 -17.5q-8 -32 -13.5 -74t-9.5 -79q-4 37 -9.5 79t-13.5 74q10 5 13.5 17.5t3.5 24.5q0 29 -11 29q-2 0 -9 -4v191q0 29 -14.5 44.5t-39.5 15.5v42h160v-42zM642 553q-6 6 -13 6q-6 0 -10.5 -4.5t-4.5 -12.5
q0 -7 3.5 -14t13.5 -10q0 -17 2.5 -39.5t16.5 -39.5q-23 8 -40.5 30t-22.5 49q9 3 12.5 10t3.5 14q0 9 -4.5 12.5t-10.5 3.5q-9 0 -16 -4q0 67 37.5 106t100.5 39q61 0 99 -38.5t38 -106.5q-8 5 -15 5q-14 0 -14 -17q0 -7 3.5 -14t12.5 -10q-5 -27 -22.5 -49t-40.5 -30
q14 17 16 39.5t2 39.5q10 3 14 10t4 14q0 16 -13 16q-5 0 -13 -5q0 65 -21 97t-50 32q-12 0 -24 -6.5t-22 -22t-16 -40t-6 -60.5zM710 668q24 0 39.5 -26.5t15.5 -86.5q0 -53 -14 -83t-41 -30q-15 0 -25.5 10t-16.5 26t-8.5 36.5t-2.5 40.5q0 33 4.5 55t12 34.5t17 18
t19.5 5.5zM219 602q8 -28 13.5 -58t5.5 -47q0 -9 -1 -18.5t-3 -18.5q17 -9 32 -22.5t26 -34.5q0 15 3 31t11 26q-23 29 -43.5 62.5t-43.5 79.5zM145 602q-4 -46 -9 -79t-13 -62q7 -10 13 -23.5t9 -33.5q4 20 9 34t13 23q-8 29 -13 62t-9 79zM420 602q-4 -46 -9 -79t-13 -62
q7 -10 13 -23.5t9 -33.5q4 20 9 34t13 23q-8 29 -13 62t-9 79zM832 595q-2 13 -8.5 24.5t-15.5 21t-18.5 16t-18.5 8.5q11 -14 15 -31t4 -39q17 -9 22 -34q3 12 8 20t12 14zM591 592q7 -6 12.5 -14t8.5 -20q5 25 21 34q0 43 20 70q-9 -2 -18.5 -8.5t-18.5 -16t-16 -21
t-9 -24.5zM748 597q-5 -11 -8.5 -31.5t-3.5 -47.5q0 -9 1.5 -23.5t2.5 -22.5q5 14 9 34t4 49q0 6 -1 18.5t-4 23.5zM296 145l-26 71v-47zM582 288h275v56h-275v-56z" />
    <glyph glyph-name="macron" unicode="&#xaf;" horiz-adv-x="495" 
d="M105 768h114h112v46h-226v-46zM120 799h196v-16h-196v16zM90 829h256l59 -69v-66h-256l-59 59v76z" />
    <glyph glyph-name="commaaccent" horiz-adv-x="400" 
d="M176 -47q5 0 8.5 1t7.5 3q-2 -19 -16.5 -41t-34.5 -38l12 -11q20 12 34.5 29t23.5 34t13 34t4 29q0 28 -15 42.5t-36 14.5t-34.5 -14.5t-13.5 -34.5t12.5 -34t34.5 -14zM160 -82q-23 12 -34.5 34t-11.5 48q0 27 17 46t46 19q21 0 41 -7.5t35.5 -22t25 -35.5t9.5 -47
q0 -24 -8.5 -47t-24 -42t-36.5 -33.5t-46 -22.5l-61 60q12 10 24.5 22t23.5 28z" />
    <glyph glyph-name="mu" unicode="&#xb5;" horiz-adv-x="536" 
d="M122 439q-5 -29 -11 -52.5t-17 -49.5q10 -7 17 -19t11 -26q5 14 12.5 26t17.5 19q-13 27 -19 50t-11 52zM162 285q-5 2 -8 2h-7q-17 0 -17 -20q0 -9 5.5 -18t16.5 -13q-5 -11 -7 -21.5t-2 -21.5q0 -28 14 -62q-32 15 -45 44.5t-18 60.5q12 4 17 13t5 18q0 20 -15 20h-8
t-8 -2v81q0 14 -2 27t-8 22.5t-16.5 15.5t-27.5 6v31h131v-183zM354 439q-6 -29 -12 -52.5t-17 -49.5q11 -7 17.5 -19t11.5 -26q5 14 12.5 26t16.5 19q-13 27 -18.5 50t-10.5 52zM394 285q-5 2 -8.5 2h-7.5q-17 0 -17 -20q0 -9 5.5 -18t16.5 -13q-10 -21 -17 -44.5
t-12 -56.5q-7 32 -13 56.5t-16 44.5q11 4 16.5 13t5.5 18q0 20 -15 20h-8t-8 -2v81q0 29 -10.5 50t-43.5 21v31h132v-183zM57 346l-53 59v91h186l45 -44v44h186l70 -69v-270l37 -37v-120h-174l-15 14q-11 -8 -29 -16t-39 -11q5 -17 8.5 -33t3.5 -34q0 -49 -24.5 -75.5
t-72.5 -26.5q-30 0 -55 12.5t-43.5 35t-28.5 54.5t-10 71q0 23 7 49t7 59q0 5 -1 14.5t-2 20.5l-2 21.5t-1 18.5v172zM71 174q0 -18 4 -41t4 -34q0 -29 -6.5 -56.5t-6.5 -51.5q0 -42 17 -66t50 -24q32 0 47 24t15 66q0 20 -7.5 42.5t-9.5 40.5q5 -1 9.5 -1h9.5q35 0 61 11.5
t45 31.5v-32h156v60h-8q-26 0 -35 16t-9 39v283h-159v-60h14q18 0 29 -13.5t11 -40.5v-142q0 -50 -14.5 -70t-45.5 -20q-34 0 -50 25t-16 65v256h-159v-60h13q19 0 30 -14t11 -40v-194zM288 346l-28 31v-220q18 6 23 21t5 41v127z" />
    <glyph glyph-name="afii10023" unicode="&#x401;" horiz-adv-x="514" 
d="M194 723q-23 0 -40 7.5t-29 20t-18 28.5t-6 32q0 26 17 41.5t41 15.5q21 0 38.5 -10t30.5 -24q7 16 21.5 25t32.5 9q20 0 37 -8t29.5 -21t19.5 -28.5t7 -31.5q0 -32 -18 -44t-40 -12q-23 0 -40.5 8t-29.5 21q-8 -17 -22.5 -23t-30.5 -6zM114 811q0 -20 12 -32t32 -12
t32 11.5t12 32.5q0 20 -12.5 31.5t-31.5 11.5q-18 0 -31 -11.5t-13 -31.5zM250 811q0 14 9 22.5t23 8.5q13 0 22 -8.5t9 -22.5t-8.5 -22.5t-22.5 -8.5t-23 8.5t-9 22.5zM127 811q0 14 9 22t22 8q14 0 22.5 -8.5t8.5 -21.5q0 -15 -8.5 -23t-22.5 -8t-22.5 8.5t-8.5 22.5z
M237 811q0 -20 12.5 -32t32.5 -12q19 0 31.5 12t12.5 32t-13 32t-31 12q-19 0 -32 -12t-13 -32zM410 330h-67v-9q0 -26 -3 -55t-13.5 -53t-32 -39.5t-58.5 -15.5h-23v190h80v100h-80v184h20q27 0 46 -12t31 -33.5t17.5 -51.5t5.5 -67v-9h67v246h-365v-70q21 0 36.5 -12
t15.5 -44v-369q0 -32 -15.5 -44t-36.5 -12v-70h375v246zM150 602q-6 -47 -14 -80t-22 -61q13 -9 22 -24t14 -33q11 39 36 57q-14 29 -22 62t-14 79zM184 401q-11 0 -18.5 -7.5t-7.5 -21.5q0 -12 6.5 -24.5t21.5 -17.5q-14 -32 -22.5 -74t-13.5 -79q-5 37 -14.5 79t-21.5 74
q15 5 21.5 17.5t6.5 24.5q0 29 -22 29q-9 0 -18 -4v191q0 28 -14.5 42.5t-37.5 16.5v43h335v-216h-37q-2 29 -6 60t-16 56t-34 41t-59 16h-35v-214h78v-46q-14 12 -29 12q-16 0 -31 -12q-12 14 -32 14zM494 274v-274h-403l-71 70v97q26 0 39 10.5t13 48.5v343l-52 52v99h394
l70 -71v-274h-96l-69 76v18q0 13 -4.5 30t-17.5 17v-56l80 -88v-28h47zM297 251v-57q11 11 18 26t9 31h-27z" />
    <glyph glyph-name="afii10051" unicode="&#x402;" horiz-adv-x="659" 
d="M303 343q0 40 16 65t50 25q36 0 59 -35t23 -121q0 -34 -1 -69.5t-6 -58.5q-8 10 -17 13.5t-17 3.5q-14 0 -25.5 -11.5t-11.5 -33.5q0 -26 17.5 -37t42.5 -11q24 0 48 10.5t42.5 34.5t30 63t11.5 97q0 69 -15.5 110.5t-39.5 64.5t-52.5 30.5t-53.5 7.5q-26 0 -53 -7
t-48 -28v176h8q21 0 34 -10.5t20.5 -27t10 -37t2.5 -39.5v-9h67v196h-410v-196h67v9q0 19 2.5 39.5t10 37t20.5 27t34 10.5h8v-422q0 -32 -15.5 -44t-36.5 -12v-70h230v70q-23 0 -37.5 11.5t-14.5 44.5v133zM240 602q-6 -47 -14 -80t-22 -61q13 -9 22 -24t14 -33
q11 39 36 57q-14 29 -22 62t-14 79zM519 401q-9 0 -13.5 -6t-4.5 -15q0 -14 9.5 -29t27.5 -21q0 -15 -2.5 -34t-8 -40t-14.5 -41.5t-23 -37.5q0 48 -6 89t-19 64q10 3 15.5 13.5t5.5 22.5q0 13 -6.5 23t-20.5 10q-9 0 -16 -4q-12 31 -33 42t-41 11q-19 0 -41 -12t-33 -45
q-12 10 -24 10q-23 0 -23 -29q0 -12 6.5 -24.5t21.5 -17.5q-14 -32 -22.5 -74t-13.5 -79q-5 37 -14.5 79t-21.5 74q15 5 21.5 17.5t6.5 24.5q0 29 -22 29q-9 0 -18 -4v249h-22q-30 0 -46.5 -15t-24.5 -35t-10 -40.5t-2 -31.5h-37v166h380v-166h-37q0 11 -2 31.5t-10.5 40.5
t-25 35t-45.5 15h-22v-228q10 19 25 30.5t31.5 17.5t32 8t27.5 2q14 0 30.5 -3.5t32.5 -12t29.5 -23t22.5 -36.5zM496 413q-11 20 -34.5 32.5t-49.5 12.5q18 -7 28 -19.5t14 -23.5q23 0 34 -20q0 13 8 18zM649 228q0 -74 -18.5 -121t-47 -74t-62 -37.5t-63.5 -10.5
q-21 0 -40 4.5t-31 10.5h-206l-71 70v97q26 0 39 10t13 49v199h-71l-71 70v225h439l70 -71v-171q16 -11 37 -30t39.5 -49t31 -72t12.5 -99zM387 174q12 6 24 6q9 0 21 -5q2 17 3 38t1 39q0 36 -1.5 60.5t-3.5 39.5q-44 -6 -44 -64v-114z" />
    <glyph glyph-name="afii10052" unicode="&#x403;" horiz-adv-x="509" 
d="M213 632h41q20 0 35 -14t24.5 -37.5t14.5 -53t5 -59.5v-9h67v246h-365v-70q21 0 36.5 -12t15.5 -44v-369q0 -32 -15.5 -44t-36.5 -12v-70h230v70q-23 0 -37.5 11.5t-14.5 44.5v422zM150 602q-6 -47 -14 -80t-22 -61q13 -9 22 -24t14 -33q11 39 36 57q-14 29 -22 62
t-14 79zM208 720l-68 43l130 96l60 -20l98 -60l-132 -59h118l70 -71v-274h-96l-69 76v11q0 18 -4 35t-18 19v-348l52 -47v-121h-258l-71 70v97q26 0 39 10.5t13 48.5v343l-52 52v99h188zM198 400q-4 2 -7.5 2h-6.5q-14 0 -20 -9t-6 -21t6.5 -24.5t21.5 -17.5
q-14 -32 -22.5 -74t-13.5 -79q-5 37 -14.5 79t-21.5 74q15 5 21.5 17.5t6.5 24.5q0 29 -22 29q-9 0 -18 -4v191q0 28 -14.5 42.5t-37.5 16.5v43h335v-216h-37q-1 22 -4.5 51.5t-14 56.5t-28.5 46t-47 19h-56v-247zM204 742l131 59l-65 40l-102 -76zM195 766l75 57l32 -20
l-97 -44z" />
    <glyph glyph-name="afii10053" unicode="&#x404;" horiz-adv-x="506" 
d="M253 263q2 -15 6.5 -26.5t9.5 -11.5t9.5 11.5t6.5 26.5h-32zM167 389q-7 7 -16.5 9t-12.5 2q-11 0 -18.5 -7.5t-7.5 -20.5q0 -8 4 -16t9.5 -14.5t11.5 -11l10 -7.5q-10 -13 -13.5 -28t-3.5 -31q0 -19 4.5 -39t10.5 -36q-39 28 -54 61t-26 73q12 9 21.5 21t9.5 28
q0 8 -4.5 17.5t-18.5 9.5q-13 0 -23 -6q0 52 8 106.5t27.5 99t53.5 73t87 28.5q17 0 29 -6t22 -12.5t18 -12.5t16 -6q14 0 22.5 8t11.5 18h20v-209h-46q0 20 -3 49.5t-11.5 56.5t-24 46t-40.5 19q-24 0 -40 -18.5t-25.5 -49.5t-14 -70t-5.5 -80h120v-46q-14 11 -27 11
t-26 -10q-12 12 -30 12q-14 0 -25 -11zM147 602q-38 -35 -54.5 -70.5t-24.5 -70.5q13 -8 22.5 -24t15.5 -33q4 17 13.5 33.5t22.5 22.5q-8 12 -11 26t-3 29q0 17 5.5 41t13.5 46zM376 342h32l68 -83q-1 -41 -9.5 -88.5t-31 -87.5t-62 -66.5t-102.5 -26.5q-58 0 -104.5 31
t-79 84.5t-50 126t-17.5 155.5q0 60 9 121t32 110.5t62.5 80.5t101.5 31q17 0 30 -5t22.5 -11.5l17 -11.5t13.5 -5q9 0 12 6.5t3 16.5h72l70 -71v-269h-89v-38zM290 463q0 9 -1.5 23t-3.5 27t-6 22t-10 9q-10 0 -15.5 -23t-7.5 -58h44zM171 448q1 34 4.5 67.5t11 60.5
t20.5 43.5t33 16.5q22 0 34.5 -21t19.5 -49t9 -57t2 -44h75v239h-45q-5 -24 -25 -24q-7 0 -15 5.5l-18 12t-23 12t-29 5.5q-41 0 -71.5 -16.5t-51.5 -43t-34 -61t-20 -71t-9.5 -72t-2.5 -64.5q0 -52 10.5 -107t34 -100t62.5 -73.5t96 -28.5q49 0 79.5 25.5t47 63.5t22 81
t5.5 79h-85q-1 -17 -4 -46.5t-10.5 -57.5t-20.5 -48.5t-34 -20.5q-18 0 -30.5 17.5t-20.5 45t-12 62t-5 69.5h121v100h-121z" />
    <glyph glyph-name="afii10054" unicode="&#x405;" horiz-adv-x="508" 
d="M260 678q-8 0 -18.5 5.5t-24 11.5t-28.5 11.5t-31 5.5q-59 0 -88.5 -33.5t-29.5 -93.5q0 -56 18 -98.5t45.5 -76t59.5 -60.5l59.5 -51.5t45.5 -49t18 -52.5q0 -27 -17 -38t-37 -11q-38 0 -62.5 18t-39.5 44t-22.5 56.5t-10.5 54.5h-55v-237h60q2 14 9 23t23 9q17 0 33 -6
t33 -13.5t37.5 -13.5t46.5 -6q60 0 88 33t28 87q0 48 -18.5 88t-46 73.5t-59.5 63l-59.5 56.5t-46 54t-18.5 57q0 17 9 28t29 11q25 0 43.5 -15.5t30.5 -38.5t18 -50t6 -50h75v231h-74q-2 -10 -8 -18.5t-21 -8.5zM448 650v-261h-105l-69 72q0 30 -4.5 51t-11.5 40
q-14 0 -20.5 -7.5t-6.5 -18.5q0 -23 18.5 -49.5t46.5 -56.5l61 -63.5t61 -70.5t46.5 -77.5t18.5 -83.5q0 -58 -32 -96.5t-98 -38.5q-27 0 -48.5 6.5t-38.5 14t-29.5 14t-22.5 6.5q-20 0 -23 -31h-94l-70 67v269h83l70 -70q1 -11 6.5 -25.5t13 -29t16 -27.5t16.5 -21
q14 0 26.5 7.5t12.5 26.5q0 22 -18 44t-45.5 47l-59.5 53.5t-59.5 64.5t-45.5 80t-18 99q0 67 33.5 104.5t99.5 37.5q17 0 32 -5t28 -11t22.5 -11t16.5 -5q10 0 13.5 7.5t5.5 17.5h101zM150 385q-45 34 -70 86t-25 114q0 54 27.5 83t75.5 29q16 0 31.5 -5.5t29 -12l25 -12
t20.5 -5.5q17 0 25 8t12 20h47v-201h-45q-2 26 -9.5 53t-21.5 49.5t-34.5 37t-47.5 14.5q-28 0 -40.5 -15.5t-12.5 -38.5q0 -29 16 -56.5t38.5 -52t47.5 -46.5t43 -40q-4 1 -15.5 1.5t-15.5 0.5q-8 0 -14.5 -3.5t-6.5 -13.5q0 -7 6.5 -12.5t17 -10t23.5 -7t25 -2.5
q12 -22 23.5 -54t11.5 -67q0 -10 -1 -19.5t-4 -19.5q-5 49 -34.5 87.5t-80.5 51.5q3 9 3 18q0 16 -11.5 33t-33.5 17q-5 0 -11.5 -3zM104 602q-8 -12 -11 -24.5t-4.5 -25.5t-2 -26.5t-2.5 -26.5q10 -8 20 -20.5t22.5 -25t29.5 -24t41 -17.5q-21 19 -34 36t-13 32q0 5 1 10
t3 9q-23 14 -36.5 44t-13.5 59z" />
    <glyph glyph-name="afii10055" unicode="&#x406;" horiz-adv-x="399" 
d="M299 720l70 -71v-98q-24 -2 -38 -9t-14 -39v-335l52 -47v-121h-258l-71 70v97q26 0 39 10.5t13 48.5v343l-52 52v99h259zM107 210q0 -32 -15.5 -44t-36.5 -12v-70h230v70q-23 0 -37.5 11.5t-14.5 44.5v369q0 33 14.5 44.5t37.5 11.5v70h-230v-70q21 0 36.5 -12t15.5 -44
v-369zM170 602q-6 -47 -14 -80t-22 -61q13 -9 22 -24t14 -33q11 39 36 57q-14 29 -22 62t-14 79zM218 397q-9 4 -18 4q-22 0 -22 -29q0 -12 6.5 -24.5t21.5 -17.5q-14 -32 -22.5 -74t-13.5 -79q-5 37 -14.5 79t-21.5 74q15 5 21.5 17.5t6.5 24.5q0 29 -22 29q-9 0 -18 -4
v191q0 28 -14.5 43t-37.5 17v42h200v-42q-25 -1 -38.5 -17t-13.5 -43v-191z" />
    <glyph glyph-name="afii10056" unicode="&#x407;" horiz-adv-x="399" 
d="M299 720l70 -71v-98q-24 -2 -38 -9t-14 -39v-335l52 -47v-121h-258l-71 70v97q26 0 39 10.5t13 48.5v343l-52 52v99h259zM107 210q0 -32 -15.5 -44t-36.5 -12v-70h230v70q-23 0 -37.5 11.5t-14.5 44.5v369q0 33 14.5 44.5t37.5 11.5v70h-230v-70q21 0 36.5 -12t15.5 -44
v-369zM170 602q-6 -47 -14 -80t-22 -61q13 -9 22 -24t14 -33q11 39 36 57q-14 29 -22 62t-14 79zM218 397q-9 4 -18 4q-22 0 -22 -29q0 -12 6.5 -24.5t21.5 -17.5q-14 -32 -22.5 -74t-13.5 -79q-5 37 -14.5 79t-21.5 74q15 5 21.5 17.5t6.5 24.5q0 29 -22 29q-9 0 -18 -4
v191q0 28 -14.5 43t-37.5 17v42h200v-42q-25 -1 -38.5 -17t-13.5 -43v-191zM143 725q-23 0 -40 7.5t-29 20t-18 28.5t-6 32q0 26 17 41.5t41 15.5q21 0 38.5 -10t30.5 -24q7 16 21.5 25t32.5 9q20 0 37 -8t29.5 -21t19.5 -28.5t7 -31.5q0 -32 -18 -44t-40 -12q-23 0 -40.5 8
t-29.5 21q-8 -17 -22.5 -23t-30.5 -6zM63 813q0 -20 12 -32t32 -12t32 11.5t12 32.5q0 20 -12.5 31.5t-31.5 11.5q-18 0 -31 -11.5t-13 -31.5zM199 813q0 14 9 22.5t23 8.5q13 0 22 -8.5t9 -22.5t-8.5 -22.5t-22.5 -8.5t-23 8.5t-9 22.5zM76 813q0 14 9 22t22 8
q14 0 22.5 -8.5t8.5 -21.5q0 -15 -8.5 -23t-22.5 -8t-22.5 8.5t-8.5 22.5zM186 813q0 -20 12.5 -32t32.5 -12q19 0 31.5 12t12.5 32t-13 32t-31 12q-19 0 -32 -12t-13 -32z" />
    <glyph glyph-name="afii10057" unicode="&#x408;" horiz-adv-x="487" 
d="M175 72q39 0 69 7.5t50.5 26t31 50t10.5 78.5v345q0 33 14.5 44.5t37.5 11.5v70h-230v-70q21 0 36.5 -12t15.5 -44v-358q0 -35 -6 -58t-20 -23q-17 0 -26.5 13.5t-19 30t-23.5 30t-39 13.5q-18 0 -34.5 -13.5t-16.5 -41.5q0 -20 9 -38t27.5 -31.5t47 -22t66.5 -8.5z
M10 172q0 35 21.5 52.5t44.5 17.5q22 0 40 -8.5t31 -21t21.5 -27t13.5 -26.5q7 6 10 20t3 42v348l-52 52v99h259l70 -71v-98q-24 -2 -38 -9t-14 -39v-320q0 -42 -12 -77.5t-36 -61t-61 -40t-87 -14.5q-45 0 -84.5 13t-68 36.5t-45 57t-16.5 75.5zM273 602q-6 -47 -14 -80
t-22 -61q13 -9 22 -24t14 -33q11 39 36 57q-14 29 -22 62t-14 79zM225 588q0 28 -14.5 43t-37.5 17v42h200v-42q-25 -1 -38.5 -17t-13.5 -43v-191q-9 4 -17 4q-22 0 -22 -29q0 -12 6.5 -24.5t21.5 -17.5q-3 -17 -6 -36.5t-9 -39.5t-16 -40t-28 -37q3 13 5.5 29.5t2.5 27.5
q0 31 -4.5 55t-16.5 41q15 5 21.5 17.5t6.5 24.5q0 29 -22 29q-10 0 -19 -4v191z" />
    <glyph glyph-name="afii10058" unicode="&#x409;" horiz-adv-x="886" 
d="M189 588q0 28 -14.5 43t-37.5 17v42h423v-42q-25 -1 -38.5 -18t-13.5 -44v-164h110q60 0 103 -33q-21 -1 -21 -22q0 -12 15.5 -22t30.5 -15q6 -20 6 -40q0 -17 -5 -34.5t-14 -32.5t-21 -27t-27 -19q14 36 14 77q0 23 -8.5 43.5t-23.5 32.5q8 7 13.5 14.5t5.5 13.5
q0 17 -9.5 27t-29.5 10q-8 0 -20 -5q-5 5 -12.5 8t-15.5 3q-16 0 -29 -10q-5 5 -12.5 7.5t-15.5 2.5q-15 0 -27 -10q-6 5 -13 7.5t-12 2.5q-22 0 -22 -29q0 -12 6.5 -24.5t21.5 -17.5q-14 -32 -22.5 -74t-13.5 -79q-5 37 -14.5 79t-21.5 74q15 5 21.5 17.5t6.5 24.5
q0 29 -22 29q-9 0 -18 -4v253h-202v-253h-21v191zM523 159v197h47q25 0 42.5 -7.5t28.5 -20t15.5 -29t4.5 -33.5q0 -55 -23.5 -81t-61.5 -26h-53zM460 602q-6 -47 -14 -80t-22 -61q13 -9 22 -24t14 -33q11 39 36 57q-14 29 -22 62t-14 79zM607 181q21 10 29.5 32t8.5 43
q0 4 -1 10.5t-4.5 13t-11.5 11t-21 4.5v-114zM174 209q0 -83 -29 -83q-14 0 -21.5 9t-15 19.5t-18.5 19.5t-32 9q-14 0 -26 -11t-12 -31q0 -29 25.5 -47.5t67.5 -18.5q24 0 44.5 6t35.5 22.5t23.5 45t8.5 73.5v413h172v-425q0 -32 -15.5 -44t-36.5 -12v-70h244
q98 0 149 42.5t51 131.5q0 31 -9.5 63t-29.5 58t-52.5 42t-77.5 16h-97v142q0 33 14.5 44.5t37.5 11.5v70h-453v-70q21 0 36.5 -12t15.5 -44v-370zM381 549h-71v-396q0 -51 -13 -83t-34 -49.5t-47 -23.5t-53 -6q-30 0 -58 11t-50.5 30.5t-36 47t-13.5 61.5q0 28 16.5 42.5
t36.5 14.5q21 0 34 -6.5t22 -15l16 -15t15 -6.5q7 0 10.5 9.5t3.5 44.5v360l-52 52v99h482l70 -71v-98q-25 0 -38.5 -9.5t-13.5 -35.5v-54q72 0 123 -23t83.5 -58.5t47.5 -77.5t15 -80q0 -40 -11 -78t-40.5 -68t-82 -48.5t-134.5 -18.5h-207l-72 70v97q26 0 39 10.5t13 48.5
v323z" />
    <glyph glyph-name="afii10059" unicode="&#x40a;" horiz-adv-x="834" 
d="M471 159v197h43q51 0 73 -26t22 -64q0 -53 -23.5 -80t-65.5 -27h-49zM408 602q-6 -47 -14 -80t-22 -61q13 -9 22 -24t14 -33q11 39 36 57q-14 29 -22 62t-14 79zM555 181q16 7 24.5 22.5t8.5 32.5q0 12 -6 21.5t-27 11.5v-88zM25 70v97q26 0 39 10.5t13 48.5v343l-52 52
v99h512l70 -71v-98q-24 -2 -38 -10t-14 -40v-49q69 0 120 -21t84 -55.5t49 -77.5t16 -87q0 -40 -11 -78t-40.5 -67.5t-82 -47.5t-134.5 -18h-460zM155 602q-6 -47 -14 -80t-22 -61q13 -9 22 -24t14 -33q11 39 36 57q-14 29 -22 62t-14 79zM360 588q0 28 -14.5 43t-37.5 17
v42h200v-42q-25 -1 -38.5 -18t-13.5 -44v-164h94q34 0 64.5 -6.5t54.5 -26.5q-11 -1 -16.5 -6.5t-5.5 -13.5q0 -12 16 -23t31 -16q6 -20 6 -40q0 -17 -5 -34.5t-14 -32.5t-21 -27t-27 -19q14 36 14 77q0 23 -8.5 43.5t-23.5 32.5q10 7 14 16.5t4 17.5q0 15 -9.5 24t-26.5 9
q-7 0 -12 -2.5t-10 -4.5q-5 5 -12.5 8t-15.5 3q-16 0 -29 -10q-5 5 -12.5 7.5t-15.5 2.5q-15 0 -27 -10q-6 5 -13 7.5t-12 2.5q-22 0 -22 -29q0 -12 6.5 -24.5t21.5 -17.5q-14 -32 -22.5 -74t-13.5 -79q-5 37 -14.5 79t-21.5 74q15 5 21.5 17.5t6.5 24.5q0 29 -22 29
q-5 0 -14.5 -3t-18.5 -10q-12 11 -31 11q-9 0 -16.5 -3t-15.5 -8q-8 5 -15 8t-16 3q-11 0 -18.5 -3t-13.5 -8q-11 8 -19.5 10.5t-13.5 2.5q-23 0 -23 -29q0 -12 6.5 -24.5t21.5 -17.5q-14 -32 -22.5 -74t-13.5 -79q-5 37 -14.5 79t-21.5 74q15 5 21.5 17.5t6.5 24.5
q0 29 -22 29q-9 0 -18 -4v191q0 28 -14.5 43t-37.5 17v42h200v-42q-25 -1 -38.5 -17t-13.5 -43v-166h157v166zM330 548q-28 -3 -28 -45v-51h28v96zM302 170q14 4 21 15.5t7 40.5v42h-28v-98zM345 210q0 -32 -15.5 -44t-36.5 -12v-70h244q98 0 149 42.5t51 135.5
q0 33 -9 64.5t-30.5 56t-56.5 39.5t-87 15h-83v142q0 33 14.5 44.5t37.5 11.5v70h-230v-70q21 0 36.5 -12t15.5 -44v-142h-127v142q0 33 14.5 44.5t37.5 11.5v70h-230v-70q21 0 36.5 -12t15.5 -44v-369q0 -32 -15.5 -44t-36.5 -12v-70h230v70q-23 0 -37.5 11.5t-14.5 44.5
v146h127v-146z" />
    <glyph glyph-name="afii10060" unicode="&#x40b;" horiz-adv-x="687" 
d="M303 343q0 40 16 65t50 25q36 0 53.5 -25t17.5 -65v-135q0 -26 -10.5 -40t-36.5 -14h-12v-70h230v70h-13q-20 0 -32 14.5t-12 39.5v135q0 40 -14 68t-36 46t-48.5 26t-51.5 8q-26 0 -53 -7t-48 -28v176h8q21 0 34 -10.5t20.5 -27t10 -37t2.5 -39.5v-9h67v196h-410v-196
h67v9q0 19 2.5 39.5t10 37t20.5 27t34 10.5h8v-422q0 -32 -15.5 -44t-36.5 -12v-70h230v70q-23 0 -37.5 11.5t-14.5 44.5v133zM240 602q-6 -47 -14 -80t-22 -61q13 -9 22 -24t14 -33q11 39 36 57q-14 29 -22 62t-14 79zM110 70v97q26 0 39 10t13 49v199h-71l-71 70v225h439
l70 -71v-166q23 -13 43 -33t34.5 -48t23 -64.5t8.5 -82.5v-87l39 -47v-121h-496zM527 401q-11 0 -18.5 -9t-7.5 -24q0 -29 31 -38q-14 -32 -21.5 -74t-12.5 -79q-3 18 -7 39.5t-9 42.5t-11 39.5t-13 31.5q15 5 21.5 17.5t6.5 20.5q0 11 -6.5 21t-17.5 10q-9 0 -16 -4
q-12 31 -34.5 42t-42.5 11q-19 0 -41 -12t-33 -45q-12 10 -24 10q-23 0 -23 -29q0 -12 6.5 -24.5t21.5 -17.5q-14 -32 -22.5 -74t-13.5 -79q-5 37 -14.5 79t-21.5 74q15 5 21.5 17.5t6.5 24.5q0 29 -22 29q-9 0 -18 -4v249h-22q-30 0 -46.5 -15t-24.5 -35t-10 -40.5
t-2 -31.5h-37v166h380v-166h-37q0 11 -2 31.5t-10.5 40.5t-25 35t-45.5 15h-22v-228q10 19 25 30.5t31.5 17.5t32 8t27.5 2q14 0 31.5 -3.5t34.5 -12.5t32 -23.5t25 -35.5zM425 352q-21 -3 -29.5 -19t-8.5 -45v-120q22 0 30 9.5t8 30.5v144zM499 413q-11 20 -36 32.5
t-51 12.5q18 -7 29.5 -19.5t15.5 -23.5q23 0 34 -20q0 13 8 18z" />
    <glyph glyph-name="afii10061" unicode="&#x40c;" horiz-adv-x="623" 
d="M459 722q36 0 60.5 -13t40 -32t22 -41.5t6.5 -40.5q0 -32 -15.5 -52t-45.5 -20q-17 0 -31.5 10.5t-27.5 10.5t-16.5 -16t-7.5 -39.5t-13 -50.5t-33 -48q20 -6 42.5 -29t39.5 -58l66 -133l57 -50v-120h-512l-71 70v97q26 0 39 10.5t13 48.5v343l-52 52v99h238l-72 43
l130 96l60 -20l98 -60l-175 -78l50 -47q32 68 110 68zM518 84v70q-20 0 -35.5 12t-23.5 29l-65 133q-11 23 -25 37t-29 21.5t-30.5 10t-30.5 2.5q31 12 49 33.5t27.5 47t14.5 52t10 48t13 35.5t25 14q7 0 13.5 -3.5l13.5 -7l14 -7t16 -3.5q23 0 33 14t10 32q0 21 -14 37
t-45 16q-38 0 -61.5 -18.5t-40 -47.5t-28.5 -63t-27 -65t-35.5 -55t-53.5 -31v152q0 33 14.5 44.5t37.5 11.5v70h-230v-70q21 0 36.5 -12t15.5 -44v-369q0 -32 -15.5 -44t-36.5 -12v-70h230v70q-23 0 -37.5 11t-14.5 38v164q23 0 35 -9.5t24 -35.5l110 -238h136zM250 648
q-25 -1 -38.5 -17t-13.5 -43v-191q-9 4 -18 4q-22 0 -22 -29q0 -12 6.5 -24.5t21.5 -17.5q-14 -32 -22.5 -71.5t-13.5 -81.5q-5 42 -14.5 81.5t-21.5 71.5q15 5 21.5 17.5t6.5 24.5q0 29 -22 29q-9 0 -18 -4v191q0 28 -14.5 43t-37.5 17v42h200v-42zM418 644
q-20 0 -30.5 -16t-17 -40.5t-13 -54t-19 -57t-34 -49.5t-59.5 -30q-8 5 -15 5q-9 0 -17 -5v19q34 4 56 26t37.5 53t28 65.5t28.5 64t38.5 49t57.5 19.5q23 0 34 -11.5t11 -27.5q0 -12 -7 -22t-22 -10q-8 0 -15 3.5t-14 7.5l-13.5 7.5t-14.5 3.5zM250 742l131 59l-65 40
l-102 -76zM274 386q13 0 24.5 -6.5t22.5 -15.5l22 -18.5t23 -15.5q2 -28 8.5 -71t23.5 -82q-30 51 -57 89.5t-57 63.5q7 10 7 19q0 19 -17 37zM150 602q-6 -47 -14 -80t-22 -61q13 -9 22 -24t14 -33q11 39 36 57q-14 29 -22 62t-14 79zM241 766l75 57l32 -20l-97 -44z
M297 233v-62l46 -39z" />
    </font>
</defs>
</svg>
